<?xml version="1.0" encoding="utf-8" standalone="no"?>
<!DOCTYPE svg PUBLIC "-//W3C//DTD SVG 1.1//EN"
  "http://www.w3.org/Graphics/SVG/1.1/DTD/svg11.dtd">
<svg xmlns:xlink="http://www.w3.org/1999/xlink" width="600.778125pt" height="879.7675pt" viewBox="0 0 600.778125 879.7675" xmlns="http://www.w3.org/2000/svg" version="1.1">
 <metadata>
  <rdf:RDF xmlns:dc="http://purl.org/dc/elements/1.1/" xmlns:cc="http://creativecommons.org/ns#" xmlns:rdf="http://www.w3.org/1999/02/22-rdf-syntax-ns#">
   <cc:Work>
    <dc:type rdf:resource="http://purl.org/dc/dcmitype/StillImage"/>
    <dc:date>2025-07-02T20:01:46.074200</dc:date>
    <dc:format>image/svg+xml</dc:format>
    <dc:creator>
     <cc:Agent>
      <dc:title>Matplotlib v3.9.4, https://matplotlib.org/</dc:title>
     </cc:Agent>
    </dc:creator>
   </cc:Work>
  </rdf:RDF>
 </metadata>
 <defs>
  <style type="text/css">*{stroke-linejoin: round; stroke-linecap: butt}</style>
 </defs>
 <g id="figure_1">
  <g id="patch_1">
   <path d="M 0 879.7675 
L 600.778125 879.7675 
L 600.778125 0 
L 0 0 
z
" style="fill: #ffffff"/>
  </g>
  <g id="axes_1">
   <g id="patch_2">
    <path d="M 32.778125 849.789375 
L 590.778125 849.789375 
L 590.778125 18.189375 
L 32.778125 18.189375 
z
" style="fill: #ffffff"/>
   </g>
   <g id="matplotlib.axis_1">
    <g id="xtick_1">
     <g id="line2d_1">
      <defs>
       <path id="m96030ce5af" d="M 0 0 
L 0 -3 
" style="stroke: #000000; stroke-width: 0.5"/>
      </defs>
      <g>
       <use xlink:href="#m96030ce5af" x="32.778125" y="849.789375" style="stroke: #000000; stroke-width: 0.5"/>
      </g>
     </g>
     <g id="line2d_2">
      <defs>
       <path id="me2d82f0152" d="M 0 0 
L 0 3 
" style="stroke: #000000; stroke-width: 0.5"/>
      </defs>
      <g>
       <use xlink:href="#me2d82f0152" x="32.778125" y="18.189375" style="stroke: #000000; stroke-width: 0.5"/>
      </g>
     </g>
     <g id="text_1">
      <!-- $\mathdefault{0.0}$ -->
      <g transform="translate(26.378125 860.228438) scale(0.1 -0.1)">
       <defs>
        <path id="Cmr10-30" d="M 1600 -141 
Q 816 -141 533 504 
Q 250 1150 250 2041 
Q 250 2597 351 3087 
Q 453 3578 754 3920 
Q 1056 4263 1600 4263 
Q 2022 4263 2290 4056 
Q 2559 3850 2700 3523 
Q 2841 3197 2892 2823 
Q 2944 2450 2944 2041 
Q 2944 1491 2842 1011 
Q 2741 531 2444 195 
Q 2147 -141 1600 -141 
z
M 1600 25 
Q 1956 25 2131 390 
Q 2306 756 2347 1200 
Q 2388 1644 2388 2144 
Q 2388 2625 2347 3031 
Q 2306 3438 2132 3767 
Q 1959 4097 1600 4097 
Q 1238 4097 1063 3765 
Q 888 3434 847 3029 
Q 806 2625 806 2144 
Q 806 1788 823 1472 
Q 841 1156 916 820 
Q 991 484 1158 254 
Q 1325 25 1600 25 
z
" transform="scale(0.015625)"/>
        <path id="Cmr10-2e" d="M 538 353 
Q 538 497 644 600 
Q 750 703 891 703 
Q 978 703 1062 656 
Q 1147 609 1194 525 
Q 1241 441 1241 353 
Q 1241 213 1137 106 
Q 1034 0 891 0 
Q 750 0 644 106 
Q 538 213 538 353 
z
" transform="scale(0.015625)"/>
       </defs>
       <use xlink:href="#Cmr10-30" transform="translate(0 0.390625)"/>
       <use xlink:href="#Cmr10-2e" transform="translate(50 0.390625)"/>
       <use xlink:href="#Cmr10-30" transform="translate(77.685547 0.390625)"/>
      </g>
     </g>
    </g>
    <g id="xtick_2">
     <g id="line2d_3">
      <g>
       <use xlink:href="#m96030ce5af" x="144.378125" y="849.789375" style="stroke: #000000; stroke-width: 0.5"/>
      </g>
     </g>
     <g id="line2d_4">
      <g>
       <use xlink:href="#me2d82f0152" x="144.378125" y="18.189375" style="stroke: #000000; stroke-width: 0.5"/>
      </g>
     </g>
     <g id="text_2">
      <!-- $\mathdefault{0.2}$ -->
      <g transform="translate(137.978125 860.228438) scale(0.1 -0.1)">
       <defs>
        <path id="Cmr10-32" d="M 319 0 
L 319 172 
Q 319 188 331 206 
L 1325 1306 
Q 1550 1550 1690 1715 
Q 1831 1881 1968 2097 
Q 2106 2313 2186 2536 
Q 2266 2759 2266 3009 
Q 2266 3272 2169 3511 
Q 2072 3750 1880 3894 
Q 1688 4038 1416 4038 
Q 1138 4038 916 3870 
Q 694 3703 603 3438 
Q 628 3444 672 3444 
Q 816 3444 917 3347 
Q 1019 3250 1019 3097 
Q 1019 2950 917 2848 
Q 816 2747 672 2747 
Q 522 2747 420 2851 
Q 319 2956 319 3097 
Q 319 3338 409 3548 
Q 500 3759 670 3923 
Q 841 4088 1055 4175 
Q 1269 4263 1509 4263 
Q 1875 4263 2190 4108 
Q 2506 3953 2690 3670 
Q 2875 3388 2875 3009 
Q 2875 2731 2753 2481 
Q 2631 2231 2440 2026 
Q 2250 1822 1953 1562 
Q 1656 1303 1563 1216 
L 838 519 
L 1453 519 
Q 1906 519 2211 526 
Q 2516 534 2534 550 
Q 2609 631 2688 1141 
L 2875 1141 
L 2694 0 
L 319 0 
z
" transform="scale(0.015625)"/>
       </defs>
       <use xlink:href="#Cmr10-30" transform="translate(0 0.390625)"/>
       <use xlink:href="#Cmr10-2e" transform="translate(50 0.390625)"/>
       <use xlink:href="#Cmr10-32" transform="translate(77.685547 0.390625)"/>
      </g>
     </g>
    </g>
    <g id="xtick_3">
     <g id="line2d_5">
      <g>
       <use xlink:href="#m96030ce5af" x="255.978125" y="849.789375" style="stroke: #000000; stroke-width: 0.5"/>
      </g>
     </g>
     <g id="line2d_6">
      <g>
       <use xlink:href="#me2d82f0152" x="255.978125" y="18.189375" style="stroke: #000000; stroke-width: 0.5"/>
      </g>
     </g>
     <g id="text_3">
      <!-- $\mathdefault{0.4}$ -->
      <g transform="translate(249.578125 860.228438) scale(0.1 -0.1)">
       <defs>
        <path id="Cmr10-34" d="M 178 1056 
L 178 1281 
L 2156 4231 
Q 2178 4263 2222 4263 
L 2316 4263 
Q 2388 4263 2388 4191 
L 2388 1281 
L 3016 1281 
L 3016 1056 
L 2388 1056 
L 2388 428 
Q 2388 297 2575 261 
Q 2763 225 3009 225 
L 3009 0 
L 1247 0 
L 1247 225 
Q 1494 225 1681 261 
Q 1869 297 1869 428 
L 1869 1056 
L 178 1056 
z
M 391 1281 
L 1906 1281 
L 1906 3547 
L 391 1281 
z
" transform="scale(0.015625)"/>
       </defs>
       <use xlink:href="#Cmr10-30" transform="translate(0 0.390625)"/>
       <use xlink:href="#Cmr10-2e" transform="translate(50 0.390625)"/>
       <use xlink:href="#Cmr10-34" transform="translate(77.685547 0.390625)"/>
      </g>
     </g>
    </g>
    <g id="xtick_4">
     <g id="line2d_7">
      <g>
       <use xlink:href="#m96030ce5af" x="367.578125" y="849.789375" style="stroke: #000000; stroke-width: 0.5"/>
      </g>
     </g>
     <g id="line2d_8">
      <g>
       <use xlink:href="#me2d82f0152" x="367.578125" y="18.189375" style="stroke: #000000; stroke-width: 0.5"/>
      </g>
     </g>
     <g id="text_4">
      <!-- $\mathdefault{0.6}$ -->
      <g transform="translate(361.178125 860.228438) scale(0.1 -0.1)">
       <defs>
        <path id="Cmr10-36" d="M 1600 -141 
Q 1203 -141 937 70 
Q 672 281 526 617 
Q 381 953 325 1322 
Q 269 1691 269 2069 
Q 269 2575 466 3084 
Q 663 3594 1045 3928 
Q 1428 4263 1953 4263 
Q 2172 4263 2361 4180 
Q 2550 4097 2658 3936 
Q 2766 3775 2766 3547 
Q 2766 3416 2677 3327 
Q 2588 3238 2456 3238 
Q 2331 3238 2240 3328 
Q 2150 3419 2150 3547 
Q 2150 3672 2240 3762 
Q 2331 3853 2456 3853 
L 2491 3853 
Q 2409 3969 2261 4023 
Q 2113 4078 1953 4078 
Q 1759 4078 1595 3993 
Q 1431 3909 1300 3765 
Q 1169 3622 1081 3448 
Q 994 3275 945 3053 
Q 897 2831 884 2637 
Q 872 2444 872 2150 
Q 984 2413 1190 2580 
Q 1397 2747 1656 2747 
Q 1941 2747 2175 2631 
Q 2409 2516 2578 2311 
Q 2747 2106 2836 1843 
Q 2925 1581 2925 1313 
Q 2925 938 2758 598 
Q 2591 259 2287 59 
Q 1984 -141 1600 -141 
z
M 1600 63 
Q 1847 63 1997 175 
Q 2147 288 2217 473 
Q 2288 659 2305 848 
Q 2322 1038 2322 1313 
Q 2322 1675 2287 1931 
Q 2253 2188 2100 2383 
Q 1947 2578 1631 2578 
Q 1372 2578 1205 2403 
Q 1038 2228 961 1961 
Q 884 1694 884 1447 
Q 884 1363 891 1319 
Q 891 1309 889 1303 
Q 888 1297 884 1288 
Q 884 1013 940 731 
Q 997 450 1156 256 
Q 1316 63 1600 63 
z
" transform="scale(0.015625)"/>
       </defs>
       <use xlink:href="#Cmr10-30" transform="translate(0 0.390625)"/>
       <use xlink:href="#Cmr10-2e" transform="translate(50 0.390625)"/>
       <use xlink:href="#Cmr10-36" transform="translate(77.685547 0.390625)"/>
      </g>
     </g>
    </g>
    <g id="xtick_5">
     <g id="line2d_9">
      <g>
       <use xlink:href="#m96030ce5af" x="479.178125" y="849.789375" style="stroke: #000000; stroke-width: 0.5"/>
      </g>
     </g>
     <g id="line2d_10">
      <g>
       <use xlink:href="#me2d82f0152" x="479.178125" y="18.189375" style="stroke: #000000; stroke-width: 0.5"/>
      </g>
     </g>
     <g id="text_5">
      <!-- $\mathdefault{0.8}$ -->
      <g transform="translate(472.778125 860.228438) scale(0.1 -0.1)">
       <defs>
        <path id="Cmr10-38" d="M 269 972 
Q 269 1356 522 1651 
Q 775 1947 1172 2144 
L 934 2297 
Q 716 2441 578 2680 
Q 441 2919 441 3181 
Q 441 3488 602 3734 
Q 763 3981 1030 4122 
Q 1297 4263 1600 4263 
Q 1884 4263 2148 4147 
Q 2413 4031 2583 3815 
Q 2753 3600 2753 3303 
Q 2753 3088 2651 2903 
Q 2550 2719 2373 2572 
Q 2197 2425 1997 2322 
L 2363 2088 
Q 2616 1922 2770 1653 
Q 2925 1384 2925 1088 
Q 2925 741 2739 456 
Q 2553 172 2247 15 
Q 1941 -141 1600 -141 
Q 1269 -141 961 -6 
Q 653 128 461 383 
Q 269 638 269 972 
z
M 616 972 
Q 616 719 755 509 
Q 894 300 1122 181 
Q 1350 63 1600 63 
Q 1972 63 2275 280 
Q 2578 497 2578 856 
Q 2578 978 2529 1098 
Q 2481 1219 2395 1317 
Q 2309 1416 2203 1478 
L 1344 2034 
Q 1144 1928 976 1765 
Q 809 1603 712 1400 
Q 616 1197 616 972 
z
M 1056 2925 
L 1831 2425 
Q 2100 2581 2272 2803 
Q 2444 3025 2444 3303 
Q 2444 3519 2323 3698 
Q 2203 3878 2009 3978 
Q 1816 4078 1594 4078 
Q 1400 4078 1203 4003 
Q 1006 3928 878 3779 
Q 750 3631 750 3431 
Q 750 3131 1056 2925 
z
" transform="scale(0.015625)"/>
       </defs>
       <use xlink:href="#Cmr10-30" transform="translate(0 0.390625)"/>
       <use xlink:href="#Cmr10-2e" transform="translate(50 0.390625)"/>
       <use xlink:href="#Cmr10-38" transform="translate(77.685547 0.390625)"/>
      </g>
     </g>
    </g>
    <g id="xtick_6">
     <g id="line2d_11">
      <g>
       <use xlink:href="#m96030ce5af" x="590.778125" y="849.789375" style="stroke: #000000; stroke-width: 0.5"/>
      </g>
     </g>
     <g id="line2d_12">
      <g>
       <use xlink:href="#me2d82f0152" x="590.778125" y="18.189375" style="stroke: #000000; stroke-width: 0.5"/>
      </g>
     </g>
     <g id="text_6">
      <!-- $\mathdefault{1.0}$ -->
      <g transform="translate(584.378125 860.228438) scale(0.1 -0.1)">
       <defs>
        <path id="Cmr10-31" d="M 594 0 
L 594 225 
Q 1394 225 1394 428 
L 1394 3788 
Q 1063 3628 556 3628 
L 556 3853 
Q 1341 3853 1741 4263 
L 1831 4263 
Q 1853 4263 1873 4245 
Q 1894 4228 1894 4206 
L 1894 428 
Q 1894 225 2694 225 
L 2694 0 
L 594 0 
z
" transform="scale(0.015625)"/>
       </defs>
       <use xlink:href="#Cmr10-31" transform="translate(0 0.390625)"/>
       <use xlink:href="#Cmr10-2e" transform="translate(50 0.390625)"/>
       <use xlink:href="#Cmr10-30" transform="translate(77.685547 0.390625)"/>
      </g>
     </g>
    </g>
    <g id="xtick_7">
     <g id="line2d_13">
      <defs>
       <path id="m33e6461594" d="M 0 0 
L 0 -1.5 
" style="stroke: #000000; stroke-width: 0.5"/>
      </defs>
      <g>
       <use xlink:href="#m33e6461594" x="60.678125" y="849.789375" style="stroke: #000000; stroke-width: 0.5"/>
      </g>
     </g>
     <g id="line2d_14">
      <defs>
       <path id="m578e7efce8" d="M 0 0 
L 0 1.5 
" style="stroke: #000000; stroke-width: 0.5"/>
      </defs>
      <g>
       <use xlink:href="#m578e7efce8" x="60.678125" y="18.189375" style="stroke: #000000; stroke-width: 0.5"/>
      </g>
     </g>
    </g>
    <g id="xtick_8">
     <g id="line2d_15">
      <g>
       <use xlink:href="#m33e6461594" x="88.578125" y="849.789375" style="stroke: #000000; stroke-width: 0.5"/>
      </g>
     </g>
     <g id="line2d_16">
      <g>
       <use xlink:href="#m578e7efce8" x="88.578125" y="18.189375" style="stroke: #000000; stroke-width: 0.5"/>
      </g>
     </g>
    </g>
    <g id="xtick_9">
     <g id="line2d_17">
      <g>
       <use xlink:href="#m33e6461594" x="116.478125" y="849.789375" style="stroke: #000000; stroke-width: 0.5"/>
      </g>
     </g>
     <g id="line2d_18">
      <g>
       <use xlink:href="#m578e7efce8" x="116.478125" y="18.189375" style="stroke: #000000; stroke-width: 0.5"/>
      </g>
     </g>
    </g>
    <g id="xtick_10">
     <g id="line2d_19">
      <g>
       <use xlink:href="#m33e6461594" x="172.278125" y="849.789375" style="stroke: #000000; stroke-width: 0.5"/>
      </g>
     </g>
     <g id="line2d_20">
      <g>
       <use xlink:href="#m578e7efce8" x="172.278125" y="18.189375" style="stroke: #000000; stroke-width: 0.5"/>
      </g>
     </g>
    </g>
    <g id="xtick_11">
     <g id="line2d_21">
      <g>
       <use xlink:href="#m33e6461594" x="200.178125" y="849.789375" style="stroke: #000000; stroke-width: 0.5"/>
      </g>
     </g>
     <g id="line2d_22">
      <g>
       <use xlink:href="#m578e7efce8" x="200.178125" y="18.189375" style="stroke: #000000; stroke-width: 0.5"/>
      </g>
     </g>
    </g>
    <g id="xtick_12">
     <g id="line2d_23">
      <g>
       <use xlink:href="#m33e6461594" x="228.078125" y="849.789375" style="stroke: #000000; stroke-width: 0.5"/>
      </g>
     </g>
     <g id="line2d_24">
      <g>
       <use xlink:href="#m578e7efce8" x="228.078125" y="18.189375" style="stroke: #000000; stroke-width: 0.5"/>
      </g>
     </g>
    </g>
    <g id="xtick_13">
     <g id="line2d_25">
      <g>
       <use xlink:href="#m33e6461594" x="283.878125" y="849.789375" style="stroke: #000000; stroke-width: 0.5"/>
      </g>
     </g>
     <g id="line2d_26">
      <g>
       <use xlink:href="#m578e7efce8" x="283.878125" y="18.189375" style="stroke: #000000; stroke-width: 0.5"/>
      </g>
     </g>
    </g>
    <g id="xtick_14">
     <g id="line2d_27">
      <g>
       <use xlink:href="#m33e6461594" x="311.778125" y="849.789375" style="stroke: #000000; stroke-width: 0.5"/>
      </g>
     </g>
     <g id="line2d_28">
      <g>
       <use xlink:href="#m578e7efce8" x="311.778125" y="18.189375" style="stroke: #000000; stroke-width: 0.5"/>
      </g>
     </g>
    </g>
    <g id="xtick_15">
     <g id="line2d_29">
      <g>
       <use xlink:href="#m33e6461594" x="339.678125" y="849.789375" style="stroke: #000000; stroke-width: 0.5"/>
      </g>
     </g>
     <g id="line2d_30">
      <g>
       <use xlink:href="#m578e7efce8" x="339.678125" y="18.189375" style="stroke: #000000; stroke-width: 0.5"/>
      </g>
     </g>
    </g>
    <g id="xtick_16">
     <g id="line2d_31">
      <g>
       <use xlink:href="#m33e6461594" x="395.478125" y="849.789375" style="stroke: #000000; stroke-width: 0.5"/>
      </g>
     </g>
     <g id="line2d_32">
      <g>
       <use xlink:href="#m578e7efce8" x="395.478125" y="18.189375" style="stroke: #000000; stroke-width: 0.5"/>
      </g>
     </g>
    </g>
    <g id="xtick_17">
     <g id="line2d_33">
      <g>
       <use xlink:href="#m33e6461594" x="423.378125" y="849.789375" style="stroke: #000000; stroke-width: 0.5"/>
      </g>
     </g>
     <g id="line2d_34">
      <g>
       <use xlink:href="#m578e7efce8" x="423.378125" y="18.189375" style="stroke: #000000; stroke-width: 0.5"/>
      </g>
     </g>
    </g>
    <g id="xtick_18">
     <g id="line2d_35">
      <g>
       <use xlink:href="#m33e6461594" x="451.278125" y="849.789375" style="stroke: #000000; stroke-width: 0.5"/>
      </g>
     </g>
     <g id="line2d_36">
      <g>
       <use xlink:href="#m578e7efce8" x="451.278125" y="18.189375" style="stroke: #000000; stroke-width: 0.5"/>
      </g>
     </g>
    </g>
    <g id="xtick_19">
     <g id="line2d_37">
      <g>
       <use xlink:href="#m33e6461594" x="507.078125" y="849.789375" style="stroke: #000000; stroke-width: 0.5"/>
      </g>
     </g>
     <g id="line2d_38">
      <g>
       <use xlink:href="#m578e7efce8" x="507.078125" y="18.189375" style="stroke: #000000; stroke-width: 0.5"/>
      </g>
     </g>
    </g>
    <g id="xtick_20">
     <g id="line2d_39">
      <g>
       <use xlink:href="#m33e6461594" x="534.978125" y="849.789375" style="stroke: #000000; stroke-width: 0.5"/>
      </g>
     </g>
     <g id="line2d_40">
      <g>
       <use xlink:href="#m578e7efce8" x="534.978125" y="18.189375" style="stroke: #000000; stroke-width: 0.5"/>
      </g>
     </g>
    </g>
    <g id="xtick_21">
     <g id="line2d_41">
      <g>
       <use xlink:href="#m33e6461594" x="562.878125" y="849.789375" style="stroke: #000000; stroke-width: 0.5"/>
      </g>
     </g>
     <g id="line2d_42">
      <g>
       <use xlink:href="#m578e7efce8" x="562.878125" y="18.189375" style="stroke: #000000; stroke-width: 0.5"/>
      </g>
     </g>
    </g>
    <g id="text_7">
     <!-- x (nm) -->
     <g transform="translate(296.657031 873.6675) scale(0.1 -0.1)">
      <defs>
       <path id="Cmr10-78" d="M 78 0 
L 78 225 
Q 322 225 537 320 
Q 753 416 903 603 
L 1484 1344 
L 728 2328 
Q 616 2469 483 2501 
Q 350 2534 109 2534 
L 109 2759 
L 1441 2759 
L 1441 2534 
Q 1356 2534 1282 2496 
Q 1209 2459 1209 2388 
Q 1209 2363 1228 2328 
L 1741 1663 
L 2125 2156 
Q 2203 2250 2203 2344 
Q 2203 2422 2151 2478 
Q 2100 2534 2016 2534 
L 2016 2759 
L 3194 2759 
L 3194 2534 
Q 2947 2534 2730 2439 
Q 2513 2344 2363 2156 
L 1856 1509 
L 2675 428 
Q 2797 288 2928 256 
Q 3059 225 3303 225 
L 3303 0 
L 1972 0 
L 1972 225 
Q 2050 225 2122 262 
Q 2194 300 2194 372 
Q 2194 400 2175 428 
L 1600 1191 
L 1141 603 
Q 1069 522 1069 416 
Q 1069 338 1122 281 
Q 1175 225 1247 225 
L 1247 0 
L 78 0 
z
" transform="scale(0.015625)"/>
       <path id="Cmr10-20" transform="scale(0.015625)"/>
       <path id="Cmr10-28" d="M 1984 -1588 
Q 1628 -1306 1370 -942 
Q 1113 -578 948 -165 
Q 784 247 703 697 
Q 622 1147 622 1600 
Q 622 2059 703 2509 
Q 784 2959 951 3375 
Q 1119 3791 1378 4153 
Q 1638 4516 1984 4788 
Q 1984 4800 2016 4800 
L 2075 4800 
Q 2094 4800 2109 4783 
Q 2125 4766 2125 4744 
Q 2125 4716 2113 4703 
Q 1800 4397 1592 4047 
Q 1384 3697 1257 3301 
Q 1131 2906 1075 2482 
Q 1019 2059 1019 1600 
Q 1019 -434 2106 -1491 
Q 2125 -1509 2125 -1544 
Q 2125 -1559 2108 -1579 
Q 2091 -1600 2075 -1600 
L 2016 -1600 
Q 1984 -1600 1984 -1588 
z
" transform="scale(0.015625)"/>
       <path id="Cmr10-6e" d="M 191 0 
L 191 225 
Q 409 225 550 259 
Q 691 294 691 428 
L 691 2175 
Q 691 2347 639 2423 
Q 588 2500 491 2517 
Q 394 2534 191 2534 
L 191 2759 
L 1119 2828 
L 1119 2203 
Q 1247 2478 1498 2653 
Q 1750 2828 2047 2828 
Q 2491 2828 2714 2615 
Q 2938 2403 2938 1966 
L 2938 428 
Q 2938 294 3078 259 
Q 3219 225 3438 225 
L 3438 0 
L 1972 0 
L 1972 225 
Q 2191 225 2331 259 
Q 2472 294 2472 428 
L 2472 1947 
Q 2472 2259 2381 2461 
Q 2291 2663 2009 2663 
Q 1638 2663 1398 2366 
Q 1159 2069 1159 1691 
L 1159 428 
Q 1159 294 1300 259 
Q 1441 225 1656 225 
L 1656 0 
L 191 0 
z
" transform="scale(0.015625)"/>
       <path id="Cmr10-6d" d="M 191 0 
L 191 225 
Q 409 225 550 259 
Q 691 294 691 428 
L 691 2175 
Q 691 2347 639 2423 
Q 588 2500 491 2517 
Q 394 2534 191 2534 
L 191 2759 
L 1119 2828 
L 1119 2203 
Q 1247 2478 1498 2653 
Q 1750 2828 2047 2828 
Q 2784 2828 2913 2228 
Q 3041 2497 3287 2662 
Q 3534 2828 3828 2828 
Q 4119 2828 4317 2734 
Q 4516 2641 4616 2448 
Q 4716 2256 4716 1966 
L 4716 428 
Q 4716 294 4858 259 
Q 5000 225 5216 225 
L 5216 0 
L 3750 0 
L 3750 225 
Q 3969 225 4109 259 
Q 4250 294 4250 428 
L 4250 1947 
Q 4250 2269 4159 2466 
Q 4069 2663 3788 2663 
Q 3419 2663 3178 2366 
Q 2938 2069 2938 1691 
L 2938 428 
Q 2938 294 3078 259 
Q 3219 225 3438 225 
L 3438 0 
L 1972 0 
L 1972 225 
Q 2191 225 2331 259 
Q 2472 294 2472 428 
L 2472 1947 
Q 2472 2259 2381 2461 
Q 2291 2663 2009 2663 
Q 1638 2663 1398 2366 
Q 1159 2069 1159 1691 
L 1159 428 
Q 1159 294 1300 259 
Q 1441 225 1656 225 
L 1656 0 
L 191 0 
z
" transform="scale(0.015625)"/>
       <path id="Cmr10-29" d="M 416 -1600 
Q 359 -1600 359 -1544 
Q 359 -1516 372 -1503 
Q 1466 -434 1466 1600 
Q 1466 3634 384 4691 
Q 359 4706 359 4744 
Q 359 4766 376 4783 
Q 394 4800 416 4800 
L 475 4800 
Q 494 4800 506 4788 
Q 966 4425 1272 3906 
Q 1578 3388 1720 2800 
Q 1863 2213 1863 1600 
Q 1863 1147 1786 708 
Q 1709 269 1542 -157 
Q 1375 -584 1119 -945 
Q 863 -1306 506 -1588 
Q 494 -1600 475 -1600 
L 416 -1600 
z
" transform="scale(0.015625)"/>
      </defs>
      <use xlink:href="#Cmr10-78"/>
      <use xlink:href="#Cmr10-20" x="52.685547"/>
      <use xlink:href="#Cmr10-28" x="85.986328"/>
      <use xlink:href="#Cmr10-6e" x="124.804688"/>
      <use xlink:href="#Cmr10-6d" x="180.322266"/>
      <use xlink:href="#Cmr10-29" x="263.623047"/>
     </g>
    </g>
   </g>
   <g id="matplotlib.axis_2">
    <g id="ytick_1">
     <g id="line2d_43">
      <defs>
       <path id="m92299912c0" d="M 0 0 
L 3 0 
" style="stroke: #000000; stroke-width: 0.5"/>
      </defs>
      <g>
       <use xlink:href="#m92299912c0" x="32.778125" y="849.789375" style="stroke: #000000; stroke-width: 0.5"/>
      </g>
     </g>
     <g id="line2d_44">
      <defs>
       <path id="macb9c91f5a" d="M 0 0 
L -3 0 
" style="stroke: #000000; stroke-width: 0.5"/>
      </defs>
      <g>
       <use xlink:href="#macb9c91f5a" x="590.778125" y="849.789375" style="stroke: #000000; stroke-width: 0.5"/>
      </g>
     </g>
     <g id="text_8">
      <!-- $\mathdefault{0.0}$ -->
      <g transform="translate(16.478125 853.258906) scale(0.1 -0.1)">
       <use xlink:href="#Cmr10-30" transform="translate(0 0.390625)"/>
       <use xlink:href="#Cmr10-2e" transform="translate(50 0.390625)"/>
       <use xlink:href="#Cmr10-30" transform="translate(77.685547 0.390625)"/>
      </g>
     </g>
    </g>
    <g id="ytick_2">
     <g id="line2d_45">
      <g>
       <use xlink:href="#m92299912c0" x="32.778125" y="683.469375" style="stroke: #000000; stroke-width: 0.5"/>
      </g>
     </g>
     <g id="line2d_46">
      <g>
       <use xlink:href="#macb9c91f5a" x="590.778125" y="683.469375" style="stroke: #000000; stroke-width: 0.5"/>
      </g>
     </g>
     <g id="text_9">
      <!-- $\mathdefault{0.2}$ -->
      <g transform="translate(16.478125 686.938906) scale(0.1 -0.1)">
       <use xlink:href="#Cmr10-30" transform="translate(0 0.390625)"/>
       <use xlink:href="#Cmr10-2e" transform="translate(50 0.390625)"/>
       <use xlink:href="#Cmr10-32" transform="translate(77.685547 0.390625)"/>
      </g>
     </g>
    </g>
    <g id="ytick_3">
     <g id="line2d_47">
      <g>
       <use xlink:href="#m92299912c0" x="32.778125" y="517.149375" style="stroke: #000000; stroke-width: 0.5"/>
      </g>
     </g>
     <g id="line2d_48">
      <g>
       <use xlink:href="#macb9c91f5a" x="590.778125" y="517.149375" style="stroke: #000000; stroke-width: 0.5"/>
      </g>
     </g>
     <g id="text_10">
      <!-- $\mathdefault{0.4}$ -->
      <g transform="translate(16.478125 520.618906) scale(0.1 -0.1)">
       <use xlink:href="#Cmr10-30" transform="translate(0 0.390625)"/>
       <use xlink:href="#Cmr10-2e" transform="translate(50 0.390625)"/>
       <use xlink:href="#Cmr10-34" transform="translate(77.685547 0.390625)"/>
      </g>
     </g>
    </g>
    <g id="ytick_4">
     <g id="line2d_49">
      <g>
       <use xlink:href="#m92299912c0" x="32.778125" y="350.829375" style="stroke: #000000; stroke-width: 0.5"/>
      </g>
     </g>
     <g id="line2d_50">
      <g>
       <use xlink:href="#macb9c91f5a" x="590.778125" y="350.829375" style="stroke: #000000; stroke-width: 0.5"/>
      </g>
     </g>
     <g id="text_11">
      <!-- $\mathdefault{0.6}$ -->
      <g transform="translate(16.478125 354.298906) scale(0.1 -0.1)">
       <use xlink:href="#Cmr10-30" transform="translate(0 0.390625)"/>
       <use xlink:href="#Cmr10-2e" transform="translate(50 0.390625)"/>
       <use xlink:href="#Cmr10-36" transform="translate(77.685547 0.390625)"/>
      </g>
     </g>
    </g>
    <g id="ytick_5">
     <g id="line2d_51">
      <g>
       <use xlink:href="#m92299912c0" x="32.778125" y="184.509375" style="stroke: #000000; stroke-width: 0.5"/>
      </g>
     </g>
     <g id="line2d_52">
      <g>
       <use xlink:href="#macb9c91f5a" x="590.778125" y="184.509375" style="stroke: #000000; stroke-width: 0.5"/>
      </g>
     </g>
     <g id="text_12">
      <!-- $\mathdefault{0.8}$ -->
      <g transform="translate(16.478125 187.978906) scale(0.1 -0.1)">
       <use xlink:href="#Cmr10-30" transform="translate(0 0.390625)"/>
       <use xlink:href="#Cmr10-2e" transform="translate(50 0.390625)"/>
       <use xlink:href="#Cmr10-38" transform="translate(77.685547 0.390625)"/>
      </g>
     </g>
    </g>
    <g id="ytick_6">
     <g id="line2d_53">
      <g>
       <use xlink:href="#m92299912c0" x="32.778125" y="18.189375" style="stroke: #000000; stroke-width: 0.5"/>
      </g>
     </g>
     <g id="line2d_54">
      <g>
       <use xlink:href="#macb9c91f5a" x="590.778125" y="18.189375" style="stroke: #000000; stroke-width: 0.5"/>
      </g>
     </g>
     <g id="text_13">
      <!-- $\mathdefault{1.0}$ -->
      <g transform="translate(16.478125 21.658906) scale(0.1 -0.1)">
       <use xlink:href="#Cmr10-31" transform="translate(0 0.390625)"/>
       <use xlink:href="#Cmr10-2e" transform="translate(50 0.390625)"/>
       <use xlink:href="#Cmr10-30" transform="translate(77.685547 0.390625)"/>
      </g>
     </g>
    </g>
    <g id="ytick_7">
     <g id="line2d_55">
      <defs>
       <path id="mb5cbb34c5d" d="M 0 0 
L 1.5 0 
" style="stroke: #000000; stroke-width: 0.5"/>
      </defs>
      <g>
       <use xlink:href="#mb5cbb34c5d" x="32.778125" y="808.209375" style="stroke: #000000; stroke-width: 0.5"/>
      </g>
     </g>
     <g id="line2d_56">
      <defs>
       <path id="m890253516c" d="M 0 0 
L -1.5 0 
" style="stroke: #000000; stroke-width: 0.5"/>
      </defs>
      <g>
       <use xlink:href="#m890253516c" x="590.778125" y="808.209375" style="stroke: #000000; stroke-width: 0.5"/>
      </g>
     </g>
    </g>
    <g id="ytick_8">
     <g id="line2d_57">
      <g>
       <use xlink:href="#mb5cbb34c5d" x="32.778125" y="766.629375" style="stroke: #000000; stroke-width: 0.5"/>
      </g>
     </g>
     <g id="line2d_58">
      <g>
       <use xlink:href="#m890253516c" x="590.778125" y="766.629375" style="stroke: #000000; stroke-width: 0.5"/>
      </g>
     </g>
    </g>
    <g id="ytick_9">
     <g id="line2d_59">
      <g>
       <use xlink:href="#mb5cbb34c5d" x="32.778125" y="725.049375" style="stroke: #000000; stroke-width: 0.5"/>
      </g>
     </g>
     <g id="line2d_60">
      <g>
       <use xlink:href="#m890253516c" x="590.778125" y="725.049375" style="stroke: #000000; stroke-width: 0.5"/>
      </g>
     </g>
    </g>
    <g id="ytick_10">
     <g id="line2d_61">
      <g>
       <use xlink:href="#mb5cbb34c5d" x="32.778125" y="641.889375" style="stroke: #000000; stroke-width: 0.5"/>
      </g>
     </g>
     <g id="line2d_62">
      <g>
       <use xlink:href="#m890253516c" x="590.778125" y="641.889375" style="stroke: #000000; stroke-width: 0.5"/>
      </g>
     </g>
    </g>
    <g id="ytick_11">
     <g id="line2d_63">
      <g>
       <use xlink:href="#mb5cbb34c5d" x="32.778125" y="600.309375" style="stroke: #000000; stroke-width: 0.5"/>
      </g>
     </g>
     <g id="line2d_64">
      <g>
       <use xlink:href="#m890253516c" x="590.778125" y="600.309375" style="stroke: #000000; stroke-width: 0.5"/>
      </g>
     </g>
    </g>
    <g id="ytick_12">
     <g id="line2d_65">
      <g>
       <use xlink:href="#mb5cbb34c5d" x="32.778125" y="558.729375" style="stroke: #000000; stroke-width: 0.5"/>
      </g>
     </g>
     <g id="line2d_66">
      <g>
       <use xlink:href="#m890253516c" x="590.778125" y="558.729375" style="stroke: #000000; stroke-width: 0.5"/>
      </g>
     </g>
    </g>
    <g id="ytick_13">
     <g id="line2d_67">
      <g>
       <use xlink:href="#mb5cbb34c5d" x="32.778125" y="475.569375" style="stroke: #000000; stroke-width: 0.5"/>
      </g>
     </g>
     <g id="line2d_68">
      <g>
       <use xlink:href="#m890253516c" x="590.778125" y="475.569375" style="stroke: #000000; stroke-width: 0.5"/>
      </g>
     </g>
    </g>
    <g id="ytick_14">
     <g id="line2d_69">
      <g>
       <use xlink:href="#mb5cbb34c5d" x="32.778125" y="433.989375" style="stroke: #000000; stroke-width: 0.5"/>
      </g>
     </g>
     <g id="line2d_70">
      <g>
       <use xlink:href="#m890253516c" x="590.778125" y="433.989375" style="stroke: #000000; stroke-width: 0.5"/>
      </g>
     </g>
    </g>
    <g id="ytick_15">
     <g id="line2d_71">
      <g>
       <use xlink:href="#mb5cbb34c5d" x="32.778125" y="392.409375" style="stroke: #000000; stroke-width: 0.5"/>
      </g>
     </g>
     <g id="line2d_72">
      <g>
       <use xlink:href="#m890253516c" x="590.778125" y="392.409375" style="stroke: #000000; stroke-width: 0.5"/>
      </g>
     </g>
    </g>
    <g id="ytick_16">
     <g id="line2d_73">
      <g>
       <use xlink:href="#mb5cbb34c5d" x="32.778125" y="309.249375" style="stroke: #000000; stroke-width: 0.5"/>
      </g>
     </g>
     <g id="line2d_74">
      <g>
       <use xlink:href="#m890253516c" x="590.778125" y="309.249375" style="stroke: #000000; stroke-width: 0.5"/>
      </g>
     </g>
    </g>
    <g id="ytick_17">
     <g id="line2d_75">
      <g>
       <use xlink:href="#mb5cbb34c5d" x="32.778125" y="267.669375" style="stroke: #000000; stroke-width: 0.5"/>
      </g>
     </g>
     <g id="line2d_76">
      <g>
       <use xlink:href="#m890253516c" x="590.778125" y="267.669375" style="stroke: #000000; stroke-width: 0.5"/>
      </g>
     </g>
    </g>
    <g id="ytick_18">
     <g id="line2d_77">
      <g>
       <use xlink:href="#mb5cbb34c5d" x="32.778125" y="226.089375" style="stroke: #000000; stroke-width: 0.5"/>
      </g>
     </g>
     <g id="line2d_78">
      <g>
       <use xlink:href="#m890253516c" x="590.778125" y="226.089375" style="stroke: #000000; stroke-width: 0.5"/>
      </g>
     </g>
    </g>
    <g id="ytick_19">
     <g id="line2d_79">
      <g>
       <use xlink:href="#mb5cbb34c5d" x="32.778125" y="142.929375" style="stroke: #000000; stroke-width: 0.5"/>
      </g>
     </g>
     <g id="line2d_80">
      <g>
       <use xlink:href="#m890253516c" x="590.778125" y="142.929375" style="stroke: #000000; stroke-width: 0.5"/>
      </g>
     </g>
    </g>
    <g id="ytick_20">
     <g id="line2d_81">
      <g>
       <use xlink:href="#mb5cbb34c5d" x="32.778125" y="101.349375" style="stroke: #000000; stroke-width: 0.5"/>
      </g>
     </g>
     <g id="line2d_82">
      <g>
       <use xlink:href="#m890253516c" x="590.778125" y="101.349375" style="stroke: #000000; stroke-width: 0.5"/>
      </g>
     </g>
    </g>
    <g id="ytick_21">
     <g id="line2d_83">
      <g>
       <use xlink:href="#mb5cbb34c5d" x="32.778125" y="59.769375" style="stroke: #000000; stroke-width: 0.5"/>
      </g>
     </g>
     <g id="line2d_84">
      <g>
       <use xlink:href="#m890253516c" x="590.778125" y="59.769375" style="stroke: #000000; stroke-width: 0.5"/>
      </g>
     </g>
    </g>
    <g id="text_14">
     <!-- Count -->
     <g transform="translate(10.539063 447.5925) rotate(-90) scale(0.1 -0.1)">
      <defs>
       <path id="Cmr10-43" d="M 1459 684 
Q 1678 406 2006 245 
Q 2334 84 2688 84 
Q 2984 84 3237 201 
Q 3491 319 3680 528 
Q 3869 738 3970 1003 
Q 4072 1269 4072 1563 
Q 4072 1613 4128 1613 
L 4206 1613 
Q 4256 1613 4256 1550 
Q 4256 1216 4128 905 
Q 4000 594 3765 358 
Q 3531 122 3226 -9 
Q 2922 -141 2591 -141 
Q 2131 -141 1720 45 
Q 1309 231 1004 554 
Q 700 878 529 1303 
Q 359 1728 359 2188 
Q 359 2647 529 3072 
Q 700 3497 1004 3822 
Q 1309 4147 1720 4330 
Q 2131 4513 2591 4513 
Q 2919 4513 3219 4370 
Q 3519 4228 3744 3969 
L 4116 4494 
Q 4153 4513 4159 4513 
L 4206 4513 
Q 4225 4513 4240 4497 
Q 4256 4481 4256 4459 
L 4256 2731 
Q 4256 2675 4206 2675 
L 4091 2675 
Q 4031 2675 4031 2731 
Q 4031 2916 3957 3144 
Q 3884 3372 3770 3576 
Q 3656 3781 3506 3938 
Q 3147 4288 2681 4288 
Q 2328 4288 2004 4128 
Q 1681 3969 1459 3688 
Q 1225 3388 1134 3005 
Q 1044 2622 1044 2188 
Q 1044 1753 1134 1368 
Q 1225 984 1459 684 
z
" transform="scale(0.015625)"/>
       <path id="Cmr10-6f" d="M 1600 -72 
Q 1216 -72 887 123 
Q 559 319 368 647 
Q 178 975 178 1363 
Q 178 1656 283 1928 
Q 388 2200 583 2414 
Q 778 2628 1037 2748 
Q 1297 2869 1600 2869 
Q 1994 2869 2317 2661 
Q 2641 2453 2828 2104 
Q 3016 1756 3016 1363 
Q 3016 978 2825 648 
Q 2634 319 2307 123 
Q 1981 -72 1600 -72 
z
M 1600 116 
Q 2113 116 2284 487 
Q 2456 859 2456 1434 
Q 2456 1756 2422 1967 
Q 2388 2178 2272 2350 
Q 2200 2456 2089 2536 
Q 1978 2616 1854 2658 
Q 1731 2700 1600 2700 
Q 1400 2700 1220 2609 
Q 1041 2519 922 2350 
Q 803 2169 770 1951 
Q 738 1734 738 1434 
Q 738 1075 800 789 
Q 863 503 1052 309 
Q 1241 116 1600 116 
z
" transform="scale(0.015625)"/>
       <path id="Cmr10-75" d="M 691 763 
L 691 2175 
Q 691 2347 639 2423 
Q 588 2500 491 2517 
Q 394 2534 191 2534 
L 191 2759 
L 1159 2828 
L 1159 763 
Q 1159 513 1195 373 
Q 1231 234 1348 165 
Q 1466 97 1722 97 
Q 2066 97 2269 384 
Q 2472 672 2472 1038 
L 2472 2175 
Q 2472 2347 2419 2423 
Q 2366 2500 2270 2517 
Q 2175 2534 1972 2534 
L 1972 2759 
L 2938 2828 
L 2938 581 
Q 2938 413 2989 336 
Q 3041 259 3137 242 
Q 3234 225 3438 225 
L 3438 0 
L 2491 -72 
L 2491 469 
Q 2372 228 2159 78 
Q 1947 -72 1691 -72 
Q 1231 -72 961 123 
Q 691 319 691 763 
z
" transform="scale(0.015625)"/>
       <path id="Cmr10-74" d="M 653 769 
L 653 2534 
L 122 2534 
L 122 2700 
Q 541 2700 737 3090 
Q 934 3481 934 3938 
L 1119 3938 
L 1119 2759 
L 2022 2759 
L 2022 2534 
L 1119 2534 
L 1119 781 
Q 1119 516 1208 316 
Q 1297 116 1528 116 
Q 1747 116 1844 327 
Q 1941 538 1941 781 
L 1941 1159 
L 2125 1159 
L 2125 769 
Q 2125 569 2051 373 
Q 1978 178 1834 53 
Q 1691 -72 1484 -72 
Q 1100 -72 876 158 
Q 653 388 653 769 
z
" transform="scale(0.015625)"/>
      </defs>
      <use xlink:href="#Cmr10-43"/>
      <use xlink:href="#Cmr10-6f" x="72.216797"/>
      <use xlink:href="#Cmr10-75" x="122.216797"/>
      <use xlink:href="#Cmr10-6e" x="177.734375"/>
      <use xlink:href="#Cmr10-74" x="233.251953"/>
     </g>
    </g>
   </g>
   <g id="patch_3">
    <path d="M 32.778125 849.789375 
L 32.778125 18.189375 
" style="fill: none; stroke: #000000; stroke-width: 0.5; stroke-linejoin: miter; stroke-linecap: square"/>
   </g>
   <g id="patch_4">
    <path d="M 590.778125 849.789375 
L 590.778125 18.189375 
" style="fill: none; stroke: #000000; stroke-width: 0.5; stroke-linejoin: miter; stroke-linecap: square"/>
   </g>
   <g id="patch_5">
    <path d="M 32.778125 849.789375 
L 590.778125 849.789375 
" style="fill: none; stroke: #000000; stroke-width: 0.5; stroke-linejoin: miter; stroke-linecap: square"/>
   </g>
   <g id="patch_6">
    <path d="M 32.778125 18.189375 
L 590.778125 18.189375 
" style="fill: none; stroke: #000000; stroke-width: 0.5; stroke-linejoin: miter; stroke-linecap: square"/>
   </g>
   <g id="text_15">
    <!-- WHAM Histogram -->
    <g transform="translate(261.92375 12.189375) scale(0.12 -0.12)">
     <defs>
      <path id="Cmr10-57" d="M 1991 -72 
L 684 3944 
Q 634 4078 490 4112 
Q 347 4147 116 4147 
L 116 4372 
L 1831 4372 
L 1831 4147 
Q 1294 4147 1294 3975 
L 1294 3944 
L 2316 794 
L 3188 3488 
L 3041 3944 
Q 2991 4078 2847 4112 
Q 2703 4147 2472 4147 
L 2472 4372 
L 4184 4372 
L 4184 4147 
Q 3641 4147 3641 3975 
Q 3641 3966 3647 3947 
Q 3653 3928 3653 3922 
L 4672 794 
L 5631 3769 
Q 5638 3788 5638 3828 
Q 5638 3997 5459 4072 
Q 5281 4147 5088 4147 
L 5088 4372 
L 6456 4372 
L 6456 4147 
Q 5950 4147 5831 3769 
L 4581 -72 
Q 4559 -141 4488 -141 
L 4441 -141 
Q 4369 -141 4347 -72 
L 3291 3188 
L 2228 -72 
Q 2206 -141 2131 -141 
L 2088 -141 
Q 2013 -141 1991 -72 
z
" transform="scale(0.015625)"/>
      <path id="Cmr10-48" d="M 197 0 
L 197 225 
Q 856 225 856 428 
L 856 3944 
Q 856 4147 197 4147 
L 197 4372 
L 2113 4372 
L 2113 4147 
Q 1453 4147 1453 3944 
L 1453 2388 
L 3341 2388 
L 3341 3944 
Q 3341 4147 2681 4147 
L 2681 4372 
L 4594 4372 
L 4594 4147 
Q 3938 4147 3938 3944 
L 3938 428 
Q 3938 225 4594 225 
L 4594 0 
L 2681 0 
L 2681 225 
Q 3341 225 3341 428 
L 3341 2163 
L 1453 2163 
L 1453 428 
Q 1453 225 2113 225 
L 2113 0 
L 197 0 
z
" transform="scale(0.015625)"/>
      <path id="Cmr10-41" d="M 206 0 
L 206 225 
Q 778 225 909 603 
L 2253 4513 
Q 2272 4581 2356 4581 
L 2438 4581 
Q 2522 4581 2541 4513 
L 3944 428 
Q 4003 294 4170 259 
Q 4338 225 4588 225 
L 4588 0 
L 2803 0 
L 2803 225 
Q 3334 225 3334 397 
L 3334 428 
L 2988 1428 
L 1434 1428 
L 1147 603 
Q 1141 581 1141 538 
Q 1141 378 1292 301 
Q 1444 225 1619 225 
L 1619 0 
L 206 0 
z
M 1509 1650 
L 2913 1650 
L 2209 3694 
L 1509 1650 
z
" transform="scale(0.015625)"/>
      <path id="Cmr10-4d" d="M 225 0 
L 225 225 
Q 884 225 884 603 
L 884 3944 
Q 884 4147 225 4147 
L 225 4372 
L 1434 4372 
Q 1513 4372 1538 4300 
L 2931 678 
L 4325 4300 
Q 4350 4372 4428 4372 
L 5638 4372 
L 5638 4147 
Q 4978 4147 4978 3944 
L 4978 428 
Q 4978 225 5638 225 
L 5638 0 
L 3775 0 
L 3775 225 
Q 4434 225 4434 428 
L 4434 4153 
L 2859 72 
Q 2831 0 2753 0 
Q 2672 0 2644 72 
L 1088 4103 
L 1088 603 
Q 1088 225 1747 225 
L 1747 0 
L 225 0 
z
" transform="scale(0.015625)"/>
      <path id="Cmr10-69" d="M 197 0 
L 197 225 
Q 416 225 556 259 
Q 697 294 697 428 
L 697 2175 
Q 697 2422 601 2478 
Q 506 2534 225 2534 
L 225 2759 
L 1147 2828 
L 1147 428 
Q 1147 294 1269 259 
Q 1391 225 1594 225 
L 1594 0 
L 197 0 
z
M 469 3928 
Q 469 4069 575 4175 
Q 681 4281 819 4281 
Q 909 4281 993 4234 
Q 1078 4188 1125 4103 
Q 1172 4019 1172 3928 
Q 1172 3791 1065 3684 
Q 959 3578 819 3578 
Q 681 3578 575 3684 
Q 469 3791 469 3928 
z
" transform="scale(0.015625)"/>
      <path id="Cmr10-73" d="M 213 -19 
L 213 1025 
Q 213 1075 269 1075 
L 347 1075 
Q 384 1075 397 1025 
Q 575 97 1259 97 
Q 1563 97 1767 234 
Q 1972 372 1972 659 
Q 1972 866 1812 1011 
Q 1653 1156 1434 1209 
L 1006 1294 
Q 791 1341 614 1437 
Q 438 1534 325 1695 
Q 213 1856 213 2069 
Q 213 2350 361 2529 
Q 509 2709 746 2789 
Q 984 2869 1259 2869 
Q 1588 2869 1831 2694 
L 2016 2853 
Q 2016 2869 2047 2869 
L 2094 2869 
Q 2113 2869 2128 2851 
Q 2144 2834 2144 2816 
L 2144 1978 
Q 2144 1919 2094 1919 
L 2016 1919 
Q 1959 1919 1959 1978 
Q 1959 2313 1773 2516 
Q 1588 2719 1253 2719 
Q 966 2719 755 2612 
Q 544 2506 544 2247 
Q 544 2069 695 1955 
Q 847 1841 1050 1791 
L 1484 1709 
Q 1703 1659 1892 1540 
Q 2081 1422 2192 1240 
Q 2303 1059 2303 831 
Q 2303 600 2223 429 
Q 2144 259 2001 146 
Q 1859 34 1665 -19 
Q 1472 -72 1259 -72 
Q 859 -72 575 197 
L 341 -56 
Q 341 -72 306 -72 
L 269 -72 
Q 213 -72 213 -19 
z
" transform="scale(0.015625)"/>
      <path id="Cmr10-67" d="M 178 -500 
Q 178 -272 343 -101 
Q 509 69 738 141 
Q 609 238 542 384 
Q 475 531 475 697 
Q 475 997 666 1228 
Q 372 1516 372 1888 
Q 372 2088 458 2263 
Q 544 2438 697 2566 
Q 850 2694 1037 2761 
Q 1225 2828 1422 2828 
Q 1803 2828 2106 2606 
Q 2238 2747 2417 2823 
Q 2597 2900 2791 2900 
Q 2928 2900 3015 2801 
Q 3103 2703 3103 2566 
Q 3103 2488 3043 2428 
Q 2984 2369 2906 2369 
Q 2825 2369 2765 2428 
Q 2706 2488 2706 2566 
Q 2706 2684 2784 2731 
Q 2453 2731 2216 2503 
Q 2331 2388 2401 2220 
Q 2472 2053 2472 1888 
Q 2472 1616 2322 1398 
Q 2172 1181 1926 1061 
Q 1681 941 1422 941 
Q 1072 941 781 1131 
Q 691 1006 691 850 
Q 691 681 802 554 
Q 913 428 1081 428 
L 1606 428 
Q 1988 428 2294 359 
Q 2600 291 2808 84 
Q 3016 -122 3016 -500 
Q 3016 -781 2778 -967 
Q 2541 -1153 2211 -1236 
Q 1881 -1319 1600 -1319 
Q 1316 -1319 984 -1236 
Q 653 -1153 415 -967 
Q 178 -781 178 -500 
z
M 538 -500 
Q 538 -716 713 -861 
Q 888 -1006 1134 -1076 
Q 1381 -1147 1600 -1147 
Q 1816 -1147 2062 -1076 
Q 2309 -1006 2482 -861 
Q 2656 -716 2656 -500 
Q 2656 -166 2350 -67 
Q 2044 31 1606 31 
L 1081 31 
Q 934 31 811 -39 
Q 688 -109 613 -236 
Q 538 -363 538 -500 
z
M 1422 1113 
Q 1966 1113 1966 1888 
Q 1966 2222 1850 2439 
Q 1734 2656 1422 2656 
Q 1109 2656 993 2439 
Q 878 2222 878 1888 
Q 878 1675 922 1503 
Q 966 1331 1084 1222 
Q 1203 1113 1422 1113 
z
" transform="scale(0.015625)"/>
      <path id="Cmr10-72" d="M 166 0 
L 166 225 
Q 384 225 525 259 
Q 666 294 666 428 
L 666 2175 
Q 666 2347 614 2423 
Q 563 2500 466 2517 
Q 369 2534 166 2534 
L 166 2759 
L 1081 2828 
L 1081 2203 
Q 1184 2481 1375 2654 
Q 1566 2828 1838 2828 
Q 2028 2828 2178 2715 
Q 2328 2603 2328 2419 
Q 2328 2303 2245 2217 
Q 2163 2131 2041 2131 
Q 1922 2131 1837 2215 
Q 1753 2300 1753 2419 
Q 1753 2591 1875 2663 
L 1838 2663 
Q 1578 2663 1414 2475 
Q 1250 2288 1181 2009 
Q 1113 1731 1113 1478 
L 1113 428 
Q 1113 225 1734 225 
L 1734 0 
L 166 0 
z
" transform="scale(0.015625)"/>
      <path id="Cmr10-61" d="M 256 628 
Q 256 1009 556 1248 
Q 856 1488 1276 1586 
Q 1697 1684 2075 1684 
L 2075 1947 
Q 2075 2131 1994 2304 
Q 1913 2478 1759 2589 
Q 1606 2700 1422 2700 
Q 997 2700 775 2509 
Q 897 2509 976 2417 
Q 1056 2325 1056 2203 
Q 1056 2075 965 1984 
Q 875 1894 750 1894 
Q 622 1894 531 1984 
Q 441 2075 441 2203 
Q 441 2541 747 2705 
Q 1053 2869 1422 2869 
Q 1681 2869 1943 2758 
Q 2206 2647 2373 2440 
Q 2541 2234 2541 1959 
L 2541 519 
Q 2541 394 2594 289 
Q 2647 184 2759 184 
Q 2866 184 2917 290 
Q 2969 397 2969 519 
L 2969 928 
L 3156 928 
L 3156 519 
Q 3156 375 3081 245 
Q 3006 116 2879 39 
Q 2753 -38 2606 -38 
Q 2419 -38 2283 107 
Q 2147 253 2131 453 
Q 2013 213 1781 70 
Q 1550 -72 1288 -72 
Q 1044 -72 808 0 
Q 572 72 414 226 
Q 256 381 256 628 
z
M 775 628 
Q 775 403 940 250 
Q 1106 97 1331 97 
Q 1538 97 1706 200 
Q 1875 303 1975 481 
Q 2075 659 2075 856 
L 2075 1522 
Q 1784 1522 1479 1426 
Q 1175 1331 975 1128 
Q 775 925 775 628 
z
" transform="scale(0.015625)"/>
     </defs>
     <use xlink:href="#Cmr10-57"/>
     <use xlink:href="#Cmr10-48" x="102.685547"/>
     <use xlink:href="#Cmr10-41" x="177.685547"/>
     <use xlink:href="#Cmr10-4d" x="252.685547"/>
     <use xlink:href="#Cmr10-20" x="344.287109"/>
     <use xlink:href="#Cmr10-48" x="377.587891"/>
     <use xlink:href="#Cmr10-69" x="452.587891"/>
     <use xlink:href="#Cmr10-73" x="480.273438"/>
     <use xlink:href="#Cmr10-74" x="519.677734"/>
     <use xlink:href="#Cmr10-6f" x="558.496094"/>
     <use xlink:href="#Cmr10-67" x="608.496094"/>
     <use xlink:href="#Cmr10-72" x="658.496094"/>
     <use xlink:href="#Cmr10-61" x="697.607422"/>
     <use xlink:href="#Cmr10-6d" x="747.607422"/>
    </g>
   </g>
  </g>
 </g>
</svg>
