<?xml version="1.0" encoding="utf-8" standalone="no"?>
<!DOCTYPE svg PUBLIC "-//W3C//DTD SVG 1.1//EN"
  "http://www.w3.org/Graphics/SVG/1.1/DTD/svg11.dtd">
<svg xmlns:xlink="http://www.w3.org/1999/xlink" width="373.535759pt" height="245.398281pt" viewBox="0 0 373.535759 245.398281" xmlns="http://www.w3.org/2000/svg" version="1.1">
 <metadata>
  <rdf:RDF xmlns:dc="http://purl.org/dc/elements/1.1/" xmlns:cc="http://creativecommons.org/ns#" xmlns:rdf="http://www.w3.org/1999/02/22-rdf-syntax-ns#">
   <cc:Work>
    <dc:type rdf:resource="http://purl.org/dc/dcmitype/StillImage"/>
    <dc:date>2025-06-26T23:20:51.060354</dc:date>
    <dc:format>image/svg+xml</dc:format>
    <dc:creator>
     <cc:Agent>
      <dc:title>Matplotlib v3.10.1, https://matplotlib.org/</dc:title>
     </cc:Agent>
    </dc:creator>
   </cc:Work>
  </rdf:RDF>
 </metadata>
 <defs>
  <style type="text/css">*{stroke-linejoin: round; stroke-linecap: butt}</style>
 </defs>
 <g id="figure_1">
  <g id="patch_1">
   <path d="M 0 245.398281 
L 373.535759 245.398281 
L 373.535759 0 
L 0 0 
z
" style="fill: #ffffff"/>
  </g>
  <g id="axes_1">
   <g id="patch_2">
    <path d="M 32.685756 214.272 
L 362.463756 214.272 
L 362.463756 3.6 
L 32.685756 3.6 
z
" style="fill: #ffffff"/>
   </g>
   <g id="matplotlib.axis_1">
    <g id="xtick_1">
     <g id="line2d_1">
      <defs>
       <path id="m46259b56ca" d="M 0 0 
L 0 -3 
" style="stroke: #000000; stroke-width: 0.5"/>
      </defs>
      <g>
       <use xlink:href="#m46259b56ca" x="32.685756" y="214.272" style="stroke: #000000; stroke-width: 0.5"/>
      </g>
     </g>
     <g id="line2d_2">
      <defs>
       <path id="m5150232999" d="M 0 0 
L 0 3 
" style="stroke: #000000; stroke-width: 0.5"/>
      </defs>
      <g>
       <use xlink:href="#m5150232999" x="32.685756" y="3.6" style="stroke: #000000; stroke-width: 0.5"/>
      </g>
     </g>
     <g id="text_1">
      <!-- $\mathdefault{0}$ -->
      <g transform="translate(30.195088 224.690498) scale(0.1 -0.1)">
       <defs>
        <path id="CMR17-30" d="M 2688 2025 
C 2688 2416 2682 3080 2413 3591 
C 2176 4039 1798 4198 1466 4198 
C 1158 4198 768 4058 525 3597 
C 269 3118 243 2524 243 2025 
C 243 1661 250 1106 448 619 
C 723 -39 1216 -128 1466 -128 
C 1760 -128 2208 -7 2470 600 
C 2662 1042 2688 1559 2688 2025 
z
M 1466 -26 
C 1056 -26 813 325 723 812 
C 653 1188 653 1738 653 2096 
C 653 2588 653 2997 736 3387 
C 858 3929 1216 4096 1466 4096 
C 1728 4096 2067 3923 2189 3400 
C 2272 3036 2278 2607 2278 2096 
C 2278 1680 2278 1169 2202 792 
C 2067 95 1690 -26 1466 -26 
z
" transform="scale(0.015625)"/>
       </defs>
       <use xlink:href="#CMR17-30" transform="scale(0.996264)"/>
      </g>
     </g>
    </g>
    <g id="xtick_2">
     <g id="line2d_3">
      <g>
       <use xlink:href="#m46259b56ca" x="98.641356" y="214.272" style="stroke: #000000; stroke-width: 0.5"/>
      </g>
     </g>
     <g id="line2d_4">
      <g>
       <use xlink:href="#m5150232999" x="98.641356" y="3.6" style="stroke: #000000; stroke-width: 0.5"/>
      </g>
     </g>
     <g id="text_2">
      <!-- $\mathdefault{20}$ -->
      <g transform="translate(93.66002 224.690498) scale(0.1 -0.1)">
       <defs>
        <path id="CMR17-32" d="M 2669 989 
L 2554 989 
C 2490 536 2438 459 2413 420 
C 2381 369 1920 369 1830 369 
L 602 369 
C 832 619 1280 1072 1824 1597 
C 2214 1967 2669 2402 2669 3035 
C 2669 3790 2067 4224 1395 4224 
C 691 4224 262 3604 262 3030 
C 262 2780 448 2748 525 2748 
C 589 2748 781 2787 781 3010 
C 781 3207 614 3264 525 3264 
C 486 3264 448 3258 422 3245 
C 544 3790 915 4058 1306 4058 
C 1862 4058 2227 3617 2227 3035 
C 2227 2479 1901 2000 1536 1584 
L 262 146 
L 262 0 
L 2515 0 
L 2669 989 
z
" transform="scale(0.015625)"/>
       </defs>
       <use xlink:href="#CMR17-32" transform="scale(0.996264)"/>
       <use xlink:href="#CMR17-30" transform="translate(45.690477 0) scale(0.996264)"/>
      </g>
     </g>
    </g>
    <g id="xtick_3">
     <g id="line2d_5">
      <g>
       <use xlink:href="#m46259b56ca" x="164.596956" y="214.272" style="stroke: #000000; stroke-width: 0.5"/>
      </g>
     </g>
     <g id="line2d_6">
      <g>
       <use xlink:href="#m5150232999" x="164.596956" y="3.6" style="stroke: #000000; stroke-width: 0.5"/>
      </g>
     </g>
     <g id="text_3">
      <!-- $\mathdefault{40}$ -->
      <g transform="translate(159.61562 224.690498) scale(0.1 -0.1)">
       <defs>
        <path id="CMR17-34" d="M 2150 4122 
C 2150 4256 2144 4256 2029 4256 
L 128 1254 
L 128 1088 
L 1779 1088 
L 1779 457 
C 1779 224 1766 160 1318 160 
L 1197 160 
L 1197 0 
C 1402 0 1747 0 1965 0 
C 2182 0 2528 0 2733 0 
L 2733 160 
L 2611 160 
C 2163 160 2150 224 2150 457 
L 2150 1088 
L 2803 1088 
L 2803 1254 
L 2150 1254 
L 2150 4122 
z
M 1798 3703 
L 1798 1254 
L 256 1254 
L 1798 3703 
z
" transform="scale(0.015625)"/>
       </defs>
       <use xlink:href="#CMR17-34" transform="scale(0.996264)"/>
       <use xlink:href="#CMR17-30" transform="translate(45.690477 0) scale(0.996264)"/>
      </g>
     </g>
    </g>
    <g id="xtick_4">
     <g id="line2d_7">
      <g>
       <use xlink:href="#m46259b56ca" x="230.552556" y="214.272" style="stroke: #000000; stroke-width: 0.5"/>
      </g>
     </g>
     <g id="line2d_8">
      <g>
       <use xlink:href="#m5150232999" x="230.552556" y="3.6" style="stroke: #000000; stroke-width: 0.5"/>
      </g>
     </g>
     <g id="text_4">
      <!-- $\mathdefault{60}$ -->
      <g transform="translate(225.57122 224.690498) scale(0.1 -0.1)">
       <defs>
        <path id="CMR17-36" d="M 678 2176 
C 678 3690 1395 4032 1811 4032 
C 1946 4032 2272 4009 2400 3776 
C 2298 3776 2106 3776 2106 3553 
C 2106 3381 2246 3323 2336 3323 
C 2394 3323 2566 3348 2566 3560 
C 2566 3954 2246 4179 1805 4179 
C 1043 4179 243 3390 243 1984 
C 243 253 966 -128 1478 -128 
C 2099 -128 2688 427 2688 1283 
C 2688 2081 2170 2662 1517 2662 
C 1126 2662 838 2407 678 1960 
L 678 2176 
z
M 1478 25 
C 691 25 691 1200 691 1436 
C 691 1896 909 2560 1504 2560 
C 1613 2560 1926 2560 2138 2120 
C 2253 1870 2253 1609 2253 1289 
C 2253 944 2253 690 2118 434 
C 1978 171 1773 25 1478 25 
z
" transform="scale(0.015625)"/>
       </defs>
       <use xlink:href="#CMR17-36" transform="scale(0.996264)"/>
       <use xlink:href="#CMR17-30" transform="translate(45.690477 0) scale(0.996264)"/>
      </g>
     </g>
    </g>
    <g id="xtick_5">
     <g id="line2d_9">
      <g>
       <use xlink:href="#m46259b56ca" x="296.508156" y="214.272" style="stroke: #000000; stroke-width: 0.5"/>
      </g>
     </g>
     <g id="line2d_10">
      <g>
       <use xlink:href="#m5150232999" x="296.508156" y="3.6" style="stroke: #000000; stroke-width: 0.5"/>
      </g>
     </g>
     <g id="text_5">
      <!-- $\mathdefault{80}$ -->
      <g transform="translate(291.52682 224.690498) scale(0.1 -0.1)">
       <defs>
        <path id="CMR17-38" d="M 1741 2264 
C 2144 2467 2554 2773 2554 3263 
C 2554 3841 1990 4179 1472 4179 
C 890 4179 378 3759 378 3180 
C 378 3021 416 2747 666 2505 
C 730 2442 998 2251 1171 2130 
C 883 1983 211 1634 211 934 
C 211 279 838 -128 1459 -128 
C 2144 -128 2720 362 2720 1010 
C 2720 1590 2330 1857 2074 2029 
L 1741 2264 
z
M 902 2822 
C 851 2854 595 3051 595 3351 
C 595 3739 998 4032 1459 4032 
C 1965 4032 2336 3676 2336 3262 
C 2336 2669 1670 2331 1638 2331 
C 1632 2331 1626 2331 1574 2370 
L 902 2822 
z
M 2080 1519 
C 2176 1449 2483 1240 2483 851 
C 2483 381 2010 25 1472 25 
C 890 25 448 438 448 940 
C 448 1443 838 1862 1280 2060 
L 2080 1519 
z
" transform="scale(0.015625)"/>
       </defs>
       <use xlink:href="#CMR17-38" transform="scale(0.996264)"/>
       <use xlink:href="#CMR17-30" transform="translate(45.690477 0) scale(0.996264)"/>
      </g>
     </g>
    </g>
    <g id="xtick_6">
     <g id="line2d_11">
      <g>
       <use xlink:href="#m46259b56ca" x="362.463756" y="214.272" style="stroke: #000000; stroke-width: 0.5"/>
      </g>
     </g>
     <g id="line2d_12">
      <g>
       <use xlink:href="#m5150232999" x="362.463756" y="3.6" style="stroke: #000000; stroke-width: 0.5"/>
      </g>
     </g>
     <g id="text_6">
      <!-- $\mathdefault{100}$ -->
      <g transform="translate(354.991753 224.690498) scale(0.1 -0.1)">
       <defs>
        <path id="CMR17-31" d="M 1702 4058 
C 1702 4192 1696 4192 1606 4192 
C 1357 3916 979 3827 621 3827 
C 602 3827 570 3827 563 3808 
C 557 3795 557 3782 557 3648 
C 755 3648 1088 3686 1344 3839 
L 1344 461 
C 1344 236 1331 160 781 160 
L 589 160 
L 589 0 
C 896 0 1216 0 1523 0 
C 1830 0 2150 0 2458 0 
L 2458 160 
L 2266 160 
C 1715 160 1702 230 1702 458 
L 1702 4058 
z
" transform="scale(0.015625)"/>
       </defs>
       <use xlink:href="#CMR17-31" transform="scale(0.996264)"/>
       <use xlink:href="#CMR17-30" transform="translate(45.690477 0) scale(0.996264)"/>
       <use xlink:href="#CMR17-30" transform="translate(91.380954 0) scale(0.996264)"/>
      </g>
     </g>
    </g>
    <g id="xtick_7">
     <g id="line2d_13">
      <defs>
       <path id="m4592cf0625" d="M 0 0 
L 0 -1.5 
" style="stroke: #000000; stroke-width: 0.5"/>
      </defs>
      <g>
       <use xlink:href="#m4592cf0625" x="49.174656" y="214.272" style="stroke: #000000; stroke-width: 0.5"/>
      </g>
     </g>
     <g id="line2d_14">
      <defs>
       <path id="m38d7459d23" d="M 0 0 
L 0 1.5 
" style="stroke: #000000; stroke-width: 0.5"/>
      </defs>
      <g>
       <use xlink:href="#m38d7459d23" x="49.174656" y="3.6" style="stroke: #000000; stroke-width: 0.5"/>
      </g>
     </g>
    </g>
    <g id="xtick_8">
     <g id="line2d_15">
      <g>
       <use xlink:href="#m4592cf0625" x="65.663556" y="214.272" style="stroke: #000000; stroke-width: 0.5"/>
      </g>
     </g>
     <g id="line2d_16">
      <g>
       <use xlink:href="#m38d7459d23" x="65.663556" y="3.6" style="stroke: #000000; stroke-width: 0.5"/>
      </g>
     </g>
    </g>
    <g id="xtick_9">
     <g id="line2d_17">
      <g>
       <use xlink:href="#m4592cf0625" x="82.152456" y="214.272" style="stroke: #000000; stroke-width: 0.5"/>
      </g>
     </g>
     <g id="line2d_18">
      <g>
       <use xlink:href="#m38d7459d23" x="82.152456" y="3.6" style="stroke: #000000; stroke-width: 0.5"/>
      </g>
     </g>
    </g>
    <g id="xtick_10">
     <g id="line2d_19">
      <g>
       <use xlink:href="#m4592cf0625" x="115.130256" y="214.272" style="stroke: #000000; stroke-width: 0.5"/>
      </g>
     </g>
     <g id="line2d_20">
      <g>
       <use xlink:href="#m38d7459d23" x="115.130256" y="3.6" style="stroke: #000000; stroke-width: 0.5"/>
      </g>
     </g>
    </g>
    <g id="xtick_11">
     <g id="line2d_21">
      <g>
       <use xlink:href="#m4592cf0625" x="131.619156" y="214.272" style="stroke: #000000; stroke-width: 0.5"/>
      </g>
     </g>
     <g id="line2d_22">
      <g>
       <use xlink:href="#m38d7459d23" x="131.619156" y="3.6" style="stroke: #000000; stroke-width: 0.5"/>
      </g>
     </g>
    </g>
    <g id="xtick_12">
     <g id="line2d_23">
      <g>
       <use xlink:href="#m4592cf0625" x="148.108056" y="214.272" style="stroke: #000000; stroke-width: 0.5"/>
      </g>
     </g>
     <g id="line2d_24">
      <g>
       <use xlink:href="#m38d7459d23" x="148.108056" y="3.6" style="stroke: #000000; stroke-width: 0.5"/>
      </g>
     </g>
    </g>
    <g id="xtick_13">
     <g id="line2d_25">
      <g>
       <use xlink:href="#m4592cf0625" x="181.085856" y="214.272" style="stroke: #000000; stroke-width: 0.5"/>
      </g>
     </g>
     <g id="line2d_26">
      <g>
       <use xlink:href="#m38d7459d23" x="181.085856" y="3.6" style="stroke: #000000; stroke-width: 0.5"/>
      </g>
     </g>
    </g>
    <g id="xtick_14">
     <g id="line2d_27">
      <g>
       <use xlink:href="#m4592cf0625" x="197.574756" y="214.272" style="stroke: #000000; stroke-width: 0.5"/>
      </g>
     </g>
     <g id="line2d_28">
      <g>
       <use xlink:href="#m38d7459d23" x="197.574756" y="3.6" style="stroke: #000000; stroke-width: 0.5"/>
      </g>
     </g>
    </g>
    <g id="xtick_15">
     <g id="line2d_29">
      <g>
       <use xlink:href="#m4592cf0625" x="214.063656" y="214.272" style="stroke: #000000; stroke-width: 0.5"/>
      </g>
     </g>
     <g id="line2d_30">
      <g>
       <use xlink:href="#m38d7459d23" x="214.063656" y="3.6" style="stroke: #000000; stroke-width: 0.5"/>
      </g>
     </g>
    </g>
    <g id="xtick_16">
     <g id="line2d_31">
      <g>
       <use xlink:href="#m4592cf0625" x="247.041456" y="214.272" style="stroke: #000000; stroke-width: 0.5"/>
      </g>
     </g>
     <g id="line2d_32">
      <g>
       <use xlink:href="#m38d7459d23" x="247.041456" y="3.6" style="stroke: #000000; stroke-width: 0.5"/>
      </g>
     </g>
    </g>
    <g id="xtick_17">
     <g id="line2d_33">
      <g>
       <use xlink:href="#m4592cf0625" x="263.530356" y="214.272" style="stroke: #000000; stroke-width: 0.5"/>
      </g>
     </g>
     <g id="line2d_34">
      <g>
       <use xlink:href="#m38d7459d23" x="263.530356" y="3.6" style="stroke: #000000; stroke-width: 0.5"/>
      </g>
     </g>
    </g>
    <g id="xtick_18">
     <g id="line2d_35">
      <g>
       <use xlink:href="#m4592cf0625" x="280.019256" y="214.272" style="stroke: #000000; stroke-width: 0.5"/>
      </g>
     </g>
     <g id="line2d_36">
      <g>
       <use xlink:href="#m38d7459d23" x="280.019256" y="3.6" style="stroke: #000000; stroke-width: 0.5"/>
      </g>
     </g>
    </g>
    <g id="xtick_19">
     <g id="line2d_37">
      <g>
       <use xlink:href="#m4592cf0625" x="312.997056" y="214.272" style="stroke: #000000; stroke-width: 0.5"/>
      </g>
     </g>
     <g id="line2d_38">
      <g>
       <use xlink:href="#m38d7459d23" x="312.997056" y="3.6" style="stroke: #000000; stroke-width: 0.5"/>
      </g>
     </g>
    </g>
    <g id="xtick_20">
     <g id="line2d_39">
      <g>
       <use xlink:href="#m4592cf0625" x="329.485956" y="214.272" style="stroke: #000000; stroke-width: 0.5"/>
      </g>
     </g>
     <g id="line2d_40">
      <g>
       <use xlink:href="#m38d7459d23" x="329.485956" y="3.6" style="stroke: #000000; stroke-width: 0.5"/>
      </g>
     </g>
    </g>
    <g id="xtick_21">
     <g id="line2d_41">
      <g>
       <use xlink:href="#m4592cf0625" x="345.974856" y="214.272" style="stroke: #000000; stroke-width: 0.5"/>
      </g>
     </g>
     <g id="line2d_42">
      <g>
       <use xlink:href="#m38d7459d23" x="345.974856" y="3.6" style="stroke: #000000; stroke-width: 0.5"/>
      </g>
     </g>
    </g>
    <g id="text_7">
     <!-- RMSD (\AA) -->
     <g transform="translate(173.498332 239.307621) scale(0.1 -0.1)">
      <defs>
       <path id="CMR17-52" d="M 2509 2146 
C 3117 2268 3629 2676 3629 3186 
C 3629 3785 2950 4326 2054 4326 
L 333 4326 
L 333 4160 
C 774 4160 845 4160 845 3873 
L 845 415 
C 845 128 774 128 333 128 
L 333 -26 
C 518 -26 851 -26 1050 -26 
C 1248 -26 1581 -26 1766 -26 
L 1766 128 
C 1325 128 1254 128 1254 417 
L 1254 2112 
L 2003 2112 
C 2368 2112 2573 1964 2662 1881 
C 2918 1632 2918 1459 2918 1024 
C 2918 595 2918 377 3110 160 
C 3354 -102 3680 -128 3821 -128 
C 4294 -128 4365 396 4365 503 
C 4365 540 4365 585 4307 585 
C 4256 585 4250 547 4250 522 
C 4218 112 4032 -26 3834 -26 
C 3482 -26 3443 375 3405 764 
C 3386 898 3373 993 3360 1133 
C 3322 1452 3270 1917 2509 2146 
z
M 1984 2214 
L 1254 2214 
L 1254 3913 
C 1254 4129 1267 4160 1523 4160 
L 1990 4160 
C 2522 4160 3142 3977 3142 3190 
C 3142 2372 2464 2214 1984 2214 
z
" transform="scale(0.015625)"/>
       <path id="CMR17-4d" d="M 1338 4224 
C 1299 4320 1293 4320 1158 4320 
L 339 4320 
L 339 4160 
C 781 4160 851 4160 851 3875 
L 851 610 
C 851 451 851 153 339 153 
L 339 -13 
C 486 0 755 0 915 0 
C 1075 0 1344 0 1491 -13 
L 1491 153 
C 979 153 979 451 979 610 
L 979 4135 
L 986 4135 
L 2490 89 
C 2515 25 2528 -13 2579 -13 
C 2630 -13 2643 25 2669 89 
L 4186 4166 
L 4192 4166 
L 4192 438 
C 4192 153 4122 153 3680 153 
L 3680 -13 
C 3853 0 4198 0 4384 0 
C 4570 0 4922 0 5094 -13 
L 5094 153 
C 4653 153 4582 153 4582 438 
L 4582 3875 
C 4582 4160 4653 4160 5094 4160 
L 5094 4320 
L 4282 4320 
C 4147 4320 4141 4314 4102 4218 
L 2720 502 
L 1338 4224 
z
" transform="scale(0.015625)"/>
       <path id="CMR17-53" d="M 2803 4290 
C 2803 4404 2797 4411 2758 4411 
C 2720 4411 2707 4385 2682 4328 
L 2490 3907 
C 2246 4257 1875 4416 1472 4416 
C 819 4416 294 3901 294 3253 
C 294 3056 339 2776 557 2510 
C 794 2218 1018 2167 1530 2033 
C 1722 1982 2042 1899 2106 1874 
C 2470 1722 2662 1341 2662 985 
C 2662 527 2336 38 1779 38 
C 1094 38 454 419 410 1311 
C 403 1413 397 1419 352 1419 
C 301 1419 294 1413 294 1285 
L 294 -1 
C 294 -115 301 -122 339 -122 
C 384 -122 397 -90 486 108 
C 493 127 493 140 614 381 
C 934 -39 1472 -128 1779 -128 
C 2477 -128 2970 451 2970 1124 
C 2970 1454 2848 1708 2778 1823 
C 2509 2230 2221 2306 1914 2382 
C 1869 2402 1856 2402 1498 2490 
C 1152 2579 1005 2624 845 2796 
C 666 2992 602 3196 602 3399 
C 602 3812 934 4263 1478 4263 
C 2157 4263 2579 3786 2675 2993 
C 2694 2878 2701 2872 2746 2872 
C 2803 2872 2803 2891 2803 2999 
L 2803 4290 
z
" transform="scale(0.015625)"/>
       <path id="CMR17-44" d="M 333 4352 
L 333 4186 
C 774 4186 845 4186 845 3900 
L 845 452 
C 845 166 774 166 333 166 
L 333 0 
L 2368 0 
C 3398 0 4224 943 4224 2141 
C 4224 3346 3411 4352 2368 4352 
L 333 4352 
z
M 1523 166 
C 1267 166 1254 197 1254 414 
L 1254 3938 
C 1254 4155 1267 4186 1523 4186 
L 2240 4186 
C 2771 4186 3750 3874 3750 2141 
C 3750 1242 3488 879 3366 707 
C 3213 510 2848 166 2240 166 
L 1523 166 
z
" transform="scale(0.015625)"/>
       <path id="CMR17-28" d="M 1958 -1561 
C 1958 -1555 1958 -1542 1939 -1523 
C 1645 -1224 858 -407 858 1581 
C 858 3569 1632 4379 1946 4697 
C 1946 4704 1958 4717 1958 4736 
C 1958 4755 1939 4768 1914 4768 
C 1843 4768 1299 4296 986 3594 
C 666 2887 576 2199 576 1588 
C 576 1128 621 351 1005 -471 
C 1312 -1135 1837 -1600 1914 -1600 
C 1946 -1600 1958 -1587 1958 -1561 
z
" transform="scale(0.015625)"/>
       <path id="CMR17-17" d="M 2771 3955 
C 2771 4275 2515 4518 2214 4518 
C 1914 4518 1658 4275 1658 3955 
C 1658 3635 1914 3392 2214 3392 
C 2515 3392 2771 3635 2771 3955 
z
M 2214 3494 
C 1946 3494 1773 3660 1773 3956 
C 1773 4256 1952 4416 2214 4416 
C 2483 4416 2656 4250 2656 3956 
C 2656 3654 2477 3494 2214 3494 
z
" transform="scale(0.015625)"/>
       <path id="CMR17-41" d="M 2323 4378 
C 2291 4461 2278 4480 2214 4480 
C 2150 4480 2138 4461 2106 4378 
L 749 566 
C 627 223 371 153 147 153 
L 147 -13 
C 262 0 518 0 640 0 
C 800 0 1056 0 1210 -13 
L 1210 153 
C 909 153 864 361 864 439 
C 864 497 877 530 890 569 
L 1229 1536 
L 2906 1536 
L 3290 442 
C 3322 365 3322 352 3322 327 
C 3322 153 3046 153 2925 153 
L 2925 0 
C 3110 0 3443 0 3642 0 
C 3808 0 4128 0 4282 -13 
L 4282 153 
C 3942 153 3827 153 3744 387 
L 2323 4378 
z
M 2067 3893 
L 2848 1702 
L 1286 1702 
L 2067 3893 
z
" transform="scale(0.015625)"/>
       <path id="CMR17-29" d="M 1683 1581 
C 1683 2040 1638 2817 1254 3639 
C 947 4303 422 4768 346 4768 
C 326 4768 301 4761 301 4729 
C 301 4717 307 4710 314 4697 
C 621 4378 1402 3568 1402 1584 
C 1402 -407 627 -1217 314 -1537 
C 307 -1549 301 -1556 301 -1568 
C 301 -1600 326 -1600 346 -1600 
C 416 -1600 960 -1128 1274 -426 
C 1594 281 1683 969 1683 1581 
z
" transform="scale(0.015625)"/>
      </defs>
      <use xlink:href="#CMR17-52" transform="scale(0.996264)"/>
      <use xlink:href="#CMR17-4d" transform="translate(67.791102 0) scale(0.996264)"/>
      <use xlink:href="#CMR17-53" transform="translate(152.478043 0) scale(0.996264)"/>
      <use xlink:href="#CMR17-44" transform="translate(203.373412 0) scale(0.996264)"/>
      <use xlink:href="#CMR17-28" transform="translate(303.842935 0) scale(0.996264)"/>
      <use xlink:href="#CMR17-17" transform="translate(339.123702 17.618744) scale(0.996264)"/>
      <use xlink:href="#CMR17-41" transform="translate(339.123702 0) scale(0.996264)"/>
      <use xlink:href="#CMR17-29" transform="translate(408.196132 0) scale(0.996264)"/>
     </g>
    </g>
   </g>
   <g id="matplotlib.axis_2">
    <g id="ytick_1">
     <g id="line2d_43">
      <defs>
       <path id="m3b0c83734b" d="M 0 0 
L 3 0 
" style="stroke: #000000; stroke-width: 0.5"/>
      </defs>
      <g>
       <use xlink:href="#m3b0c83734b" x="32.685756" y="214.272" style="stroke: #000000; stroke-width: 0.5"/>
      </g>
     </g>
     <g id="line2d_44">
      <defs>
       <path id="m2d8e24ef7d" d="M 0 0 
L -3 0 
" style="stroke: #000000; stroke-width: 0.5"/>
      </defs>
      <g>
       <use xlink:href="#m2d8e24ef7d" x="362.463756" y="214.272" style="stroke: #000000; stroke-width: 0.5"/>
      </g>
     </g>
     <g id="text_8">
      <!-- $\mathdefault{0.0}$ -->
      <g transform="translate(16.455677 217.731249) scale(0.1 -0.1)">
       <defs>
        <path id="CMMI12-3a" d="M 1178 307 
C 1178 492 1024 619 870 619 
C 685 619 557 466 557 313 
C 557 128 710 0 864 0 
C 1050 0 1178 153 1178 307 
z
" transform="scale(0.015625)"/>
       </defs>
       <use xlink:href="#CMR17-30" transform="scale(0.996264)"/>
       <use xlink:href="#CMMI12-3a" transform="translate(45.690477 0) scale(0.996264)"/>
       <use xlink:href="#CMR17-30" transform="translate(72.787654 0) scale(0.996264)"/>
      </g>
     </g>
    </g>
    <g id="ytick_2">
     <g id="line2d_45">
      <g>
       <use xlink:href="#m3b0c83734b" x="32.685756" y="174.14356" style="stroke: #000000; stroke-width: 0.5"/>
      </g>
     </g>
     <g id="line2d_46">
      <g>
       <use xlink:href="#m2d8e24ef7d" x="362.463756" y="174.14356" style="stroke: #000000; stroke-width: 0.5"/>
      </g>
     </g>
     <g id="text_9">
      <!-- $\mathdefault{0.2}$ -->
      <g transform="translate(16.455677 177.60281) scale(0.1 -0.1)">
       <use xlink:href="#CMR17-30" transform="scale(0.996264)"/>
       <use xlink:href="#CMMI12-3a" transform="translate(45.690477 0) scale(0.996264)"/>
       <use xlink:href="#CMR17-32" transform="translate(72.787654 0) scale(0.996264)"/>
      </g>
     </g>
    </g>
    <g id="ytick_3">
     <g id="line2d_47">
      <g>
       <use xlink:href="#m3b0c83734b" x="32.685756" y="134.015121" style="stroke: #000000; stroke-width: 0.5"/>
      </g>
     </g>
     <g id="line2d_48">
      <g>
       <use xlink:href="#m2d8e24ef7d" x="362.463756" y="134.015121" style="stroke: #000000; stroke-width: 0.5"/>
      </g>
     </g>
     <g id="text_10">
      <!-- $\mathdefault{0.4}$ -->
      <g transform="translate(16.455677 137.47437) scale(0.1 -0.1)">
       <use xlink:href="#CMR17-30" transform="scale(0.996264)"/>
       <use xlink:href="#CMMI12-3a" transform="translate(45.690477 0) scale(0.996264)"/>
       <use xlink:href="#CMR17-34" transform="translate(72.787654 0) scale(0.996264)"/>
      </g>
     </g>
    </g>
    <g id="ytick_4">
     <g id="line2d_49">
      <g>
       <use xlink:href="#m3b0c83734b" x="32.685756" y="93.886681" style="stroke: #000000; stroke-width: 0.5"/>
      </g>
     </g>
     <g id="line2d_50">
      <g>
       <use xlink:href="#m2d8e24ef7d" x="362.463756" y="93.886681" style="stroke: #000000; stroke-width: 0.5"/>
      </g>
     </g>
     <g id="text_11">
      <!-- $\mathdefault{0.6}$ -->
      <g transform="translate(16.455677 97.34593) scale(0.1 -0.1)">
       <use xlink:href="#CMR17-30" transform="scale(0.996264)"/>
       <use xlink:href="#CMMI12-3a" transform="translate(45.690477 0) scale(0.996264)"/>
       <use xlink:href="#CMR17-36" transform="translate(72.787654 0) scale(0.996264)"/>
      </g>
     </g>
    </g>
    <g id="ytick_5">
     <g id="line2d_51">
      <g>
       <use xlink:href="#m3b0c83734b" x="32.685756" y="53.758241" style="stroke: #000000; stroke-width: 0.5"/>
      </g>
     </g>
     <g id="line2d_52">
      <g>
       <use xlink:href="#m2d8e24ef7d" x="362.463756" y="53.758241" style="stroke: #000000; stroke-width: 0.5"/>
      </g>
     </g>
     <g id="text_12">
      <!-- $\mathdefault{0.8}$ -->
      <g transform="translate(16.455677 57.217491) scale(0.1 -0.1)">
       <use xlink:href="#CMR17-30" transform="scale(0.996264)"/>
       <use xlink:href="#CMMI12-3a" transform="translate(45.690477 0) scale(0.996264)"/>
       <use xlink:href="#CMR17-38" transform="translate(72.787654 0) scale(0.996264)"/>
      </g>
     </g>
    </g>
    <g id="ytick_6">
     <g id="line2d_53">
      <g>
       <use xlink:href="#m3b0c83734b" x="32.685756" y="13.629802" style="stroke: #000000; stroke-width: 0.5"/>
      </g>
     </g>
     <g id="line2d_54">
      <g>
       <use xlink:href="#m2d8e24ef7d" x="362.463756" y="13.629802" style="stroke: #000000; stroke-width: 0.5"/>
      </g>
     </g>
     <g id="text_13">
      <!-- $\mathdefault{1.0}$ -->
      <g transform="translate(16.455677 17.089051) scale(0.1 -0.1)">
       <use xlink:href="#CMR17-31" transform="scale(0.996264)"/>
       <use xlink:href="#CMMI12-3a" transform="translate(45.690477 0) scale(0.996264)"/>
       <use xlink:href="#CMR17-30" transform="translate(72.787654 0) scale(0.996264)"/>
      </g>
     </g>
    </g>
    <g id="ytick_7">
     <g id="line2d_55">
      <defs>
       <path id="m750fcf3c03" d="M 0 0 
L 1.5 0 
" style="stroke: #000000; stroke-width: 0.5"/>
      </defs>
      <g>
       <use xlink:href="#m750fcf3c03" x="32.685756" y="204.23989" style="stroke: #000000; stroke-width: 0.5"/>
      </g>
     </g>
     <g id="line2d_56">
      <defs>
       <path id="mdea15970e2" d="M 0 0 
L -1.5 0 
" style="stroke: #000000; stroke-width: 0.5"/>
      </defs>
      <g>
       <use xlink:href="#mdea15970e2" x="362.463756" y="204.23989" style="stroke: #000000; stroke-width: 0.5"/>
      </g>
     </g>
    </g>
    <g id="ytick_8">
     <g id="line2d_57">
      <g>
       <use xlink:href="#m750fcf3c03" x="32.685756" y="194.20778" style="stroke: #000000; stroke-width: 0.5"/>
      </g>
     </g>
     <g id="line2d_58">
      <g>
       <use xlink:href="#mdea15970e2" x="362.463756" y="194.20778" style="stroke: #000000; stroke-width: 0.5"/>
      </g>
     </g>
    </g>
    <g id="ytick_9">
     <g id="line2d_59">
      <g>
       <use xlink:href="#m750fcf3c03" x="32.685756" y="184.17567" style="stroke: #000000; stroke-width: 0.5"/>
      </g>
     </g>
     <g id="line2d_60">
      <g>
       <use xlink:href="#mdea15970e2" x="362.463756" y="184.17567" style="stroke: #000000; stroke-width: 0.5"/>
      </g>
     </g>
    </g>
    <g id="ytick_10">
     <g id="line2d_61">
      <g>
       <use xlink:href="#m750fcf3c03" x="32.685756" y="164.11145" style="stroke: #000000; stroke-width: 0.5"/>
      </g>
     </g>
     <g id="line2d_62">
      <g>
       <use xlink:href="#mdea15970e2" x="362.463756" y="164.11145" style="stroke: #000000; stroke-width: 0.5"/>
      </g>
     </g>
    </g>
    <g id="ytick_11">
     <g id="line2d_63">
      <g>
       <use xlink:href="#m750fcf3c03" x="32.685756" y="154.079341" style="stroke: #000000; stroke-width: 0.5"/>
      </g>
     </g>
     <g id="line2d_64">
      <g>
       <use xlink:href="#mdea15970e2" x="362.463756" y="154.079341" style="stroke: #000000; stroke-width: 0.5"/>
      </g>
     </g>
    </g>
    <g id="ytick_12">
     <g id="line2d_65">
      <g>
       <use xlink:href="#m750fcf3c03" x="32.685756" y="144.047231" style="stroke: #000000; stroke-width: 0.5"/>
      </g>
     </g>
     <g id="line2d_66">
      <g>
       <use xlink:href="#mdea15970e2" x="362.463756" y="144.047231" style="stroke: #000000; stroke-width: 0.5"/>
      </g>
     </g>
    </g>
    <g id="ytick_13">
     <g id="line2d_67">
      <g>
       <use xlink:href="#m750fcf3c03" x="32.685756" y="123.983011" style="stroke: #000000; stroke-width: 0.5"/>
      </g>
     </g>
     <g id="line2d_68">
      <g>
       <use xlink:href="#mdea15970e2" x="362.463756" y="123.983011" style="stroke: #000000; stroke-width: 0.5"/>
      </g>
     </g>
    </g>
    <g id="ytick_14">
     <g id="line2d_69">
      <g>
       <use xlink:href="#m750fcf3c03" x="32.685756" y="113.950901" style="stroke: #000000; stroke-width: 0.5"/>
      </g>
     </g>
     <g id="line2d_70">
      <g>
       <use xlink:href="#mdea15970e2" x="362.463756" y="113.950901" style="stroke: #000000; stroke-width: 0.5"/>
      </g>
     </g>
    </g>
    <g id="ytick_15">
     <g id="line2d_71">
      <g>
       <use xlink:href="#m750fcf3c03" x="32.685756" y="103.918791" style="stroke: #000000; stroke-width: 0.5"/>
      </g>
     </g>
     <g id="line2d_72">
      <g>
       <use xlink:href="#mdea15970e2" x="362.463756" y="103.918791" style="stroke: #000000; stroke-width: 0.5"/>
      </g>
     </g>
    </g>
    <g id="ytick_16">
     <g id="line2d_73">
      <g>
       <use xlink:href="#m750fcf3c03" x="32.685756" y="83.854571" style="stroke: #000000; stroke-width: 0.5"/>
      </g>
     </g>
     <g id="line2d_74">
      <g>
       <use xlink:href="#mdea15970e2" x="362.463756" y="83.854571" style="stroke: #000000; stroke-width: 0.5"/>
      </g>
     </g>
    </g>
    <g id="ytick_17">
     <g id="line2d_75">
      <g>
       <use xlink:href="#m750fcf3c03" x="32.685756" y="73.822461" style="stroke: #000000; stroke-width: 0.5"/>
      </g>
     </g>
     <g id="line2d_76">
      <g>
       <use xlink:href="#mdea15970e2" x="362.463756" y="73.822461" style="stroke: #000000; stroke-width: 0.5"/>
      </g>
     </g>
    </g>
    <g id="ytick_18">
     <g id="line2d_77">
      <g>
       <use xlink:href="#m750fcf3c03" x="32.685756" y="63.790351" style="stroke: #000000; stroke-width: 0.5"/>
      </g>
     </g>
     <g id="line2d_78">
      <g>
       <use xlink:href="#mdea15970e2" x="362.463756" y="63.790351" style="stroke: #000000; stroke-width: 0.5"/>
      </g>
     </g>
    </g>
    <g id="ytick_19">
     <g id="line2d_79">
      <g>
       <use xlink:href="#m750fcf3c03" x="32.685756" y="43.726131" style="stroke: #000000; stroke-width: 0.5"/>
      </g>
     </g>
     <g id="line2d_80">
      <g>
       <use xlink:href="#mdea15970e2" x="362.463756" y="43.726131" style="stroke: #000000; stroke-width: 0.5"/>
      </g>
     </g>
    </g>
    <g id="ytick_20">
     <g id="line2d_81">
      <g>
       <use xlink:href="#m750fcf3c03" x="32.685756" y="33.694022" style="stroke: #000000; stroke-width: 0.5"/>
      </g>
     </g>
     <g id="line2d_82">
      <g>
       <use xlink:href="#mdea15970e2" x="362.463756" y="33.694022" style="stroke: #000000; stroke-width: 0.5"/>
      </g>
     </g>
    </g>
    <g id="ytick_21">
     <g id="line2d_83">
      <g>
       <use xlink:href="#m750fcf3c03" x="32.685756" y="23.661912" style="stroke: #000000; stroke-width: 0.5"/>
      </g>
     </g>
     <g id="line2d_84">
      <g>
       <use xlink:href="#mdea15970e2" x="362.463756" y="23.661912" style="stroke: #000000; stroke-width: 0.5"/>
      </g>
     </g>
    </g>
    <g id="text_14">
     <!-- Cumulative Probability -->
     <g transform="translate(10.518498 160.077677) rotate(-90) scale(0.1 -0.1)">
      <defs>
       <path id="CMR17-43" d="M 3974 4289 
C 3974 4403 3968 4410 3930 4410 
C 3904 4410 3898 4403 3853 4327 
L 3571 3792 
C 3258 4187 2874 4416 2381 4416 
C 1286 4416 294 3456 294 2148 
C 294 826 1286 -128 2387 -128 
C 3366 -128 3974 730 3974 1461 
C 3974 1524 3974 1550 3917 1550 
C 3866 1550 3866 1531 3859 1474 
C 3808 585 3168 38 2477 38 
C 1824 38 781 495 781 2147 
C 781 3805 1843 4250 2464 4250 
C 3187 4250 3712 3628 3834 2745 
C 3846 2668 3846 2655 3904 2655 
C 3974 2655 3974 2668 3974 2783 
L 3974 4289 
z
" transform="scale(0.015625)"/>
       <path id="CMR17-75" d="M 1882 2693 
L 1882 2528 
C 2259 2528 2317 2489 2317 2186 
L 2317 1032 
C 2317 500 2029 38 1555 38 
C 1030 38 986 348 986 678 
L 986 2763 
L 211 2693 
L 211 2528 
C 467 2528 640 2528 646 2274 
L 646 1058 
C 646 633 646 361 813 183 
C 896 101 1056 -64 1517 -64 
C 2061 -64 2272 377 2323 506 
L 2330 506 
L 2330 -63 
L 3091 -63 
L 3091 128 
C 2714 128 2656 166 2656 473 
L 2656 2763 
L 1882 2693 
z
" transform="scale(0.015625)"/>
       <path id="CMR17-6d" d="M 4326 1933 
C 4326 2252 4269 2790 3507 2790 
C 3072 2790 2771 2496 2656 2151 
L 2650 2151 
C 2573 2676 2195 2790 1837 2790 
C 1331 2790 1069 2400 973 2144 
L 966 2144 
L 966 2790 
L 211 2720 
L 211 2554 
C 589 2554 646 2515 646 2208 
L 646 428 
C 646 184 621 153 211 153 
L 211 -13 
C 365 0 646 0 813 0 
C 979 0 1267 0 1421 -13 
L 1421 153 
C 1011 153 986 178 986 428 
L 986 1658 
C 986 2247 1344 2688 1792 2688 
C 2266 2688 2317 2266 2317 1958 
L 2317 428 
C 2317 184 2291 153 1882 153 
L 1882 -13 
C 2035 0 2317 0 2483 0 
C 2650 0 2938 0 3091 -13 
L 3091 153 
C 2682 153 2656 178 2656 428 
L 2656 1658 
C 2656 2247 3014 2688 3462 2688 
C 3936 2688 3987 2266 3987 1958 
L 3987 428 
C 3987 184 3962 153 3552 153 
L 3552 -13 
C 3706 0 3987 0 4154 0 
C 4320 0 4608 0 4762 -13 
L 4762 153 
C 4352 153 4326 178 4326 428 
L 4326 1933 
z
" transform="scale(0.015625)"/>
       <path id="CMR17-6c" d="M 979 4396 
L 218 4326 
L 218 4160 
C 595 4160 653 4122 653 3817 
L 653 426 
C 653 184 627 153 218 153 
L 218 -13 
C 371 0 653 0 813 0 
C 979 0 1261 0 1414 -13 
L 1414 153 
C 1005 153 979 178 979 426 
L 979 4396 
z
" transform="scale(0.015625)"/>
       <path id="CMR17-61" d="M 2304 1653 
C 2304 2072 2304 2294 2035 2543 
C 1798 2752 1523 2816 1306 2816 
C 800 2816 435 2407 435 1971 
C 435 1728 627 1728 666 1728 
C 749 1728 896 1778 896 1954 
C 896 2112 774 2181 666 2181 
C 640 2181 608 2174 589 2168 
C 723 2592 1069 2714 1293 2714 
C 1613 2714 1965 2429 1965 1885 
L 1965 1600 
C 1587 1600 1133 1549 774 1357 
C 371 1133 256 813 256 570 
C 256 77 832 -64 1171 -64 
C 1523 -64 1850 139 1990 511 
C 2003 233 2182 -18 2464 -18 
C 2598 -18 2938 70 2938 567 
L 2938 920 
L 2822 920 
L 2822 562 
C 2822 178 2650 128 2566 128 
C 2304 128 2304 458 2304 738 
L 2304 1653 
z
M 1965 870 
C 1965 317 1568 38 1216 38 
C 896 38 646 275 646 570 
C 646 761 730 1100 1101 1305 
C 1408 1478 1760 1504 1965 1504 
L 1965 870 
z
" transform="scale(0.015625)"/>
       <path id="CMR17-74" d="M 966 2560 
L 1862 2560 
L 1862 2725 
L 966 2725 
L 966 3904 
L 851 3904 
C 838 3245 614 2668 70 2668 
L 70 2560 
L 627 2560 
L 627 771 
C 627 650 627 -64 1370 -64 
C 1747 -64 1965 306 1965 777 
L 1965 1140 
L 1850 1140 
L 1850 783 
C 1850 344 1677 51 1408 51 
C 1222 51 966 178 966 758 
L 966 2560 
z
" transform="scale(0.015625)"/>
       <path id="CMR17-69" d="M 992 3909 
C 992 4049 877 4170 730 4170 
C 589 4170 467 4056 467 3909 
C 467 3769 582 3648 730 3648 
C 870 3648 992 3763 992 3909 
z
M 243 2706 
L 243 2541 
C 602 2541 653 2502 653 2197 
L 653 427 
C 653 184 627 153 218 153 
L 218 -13 
C 371 0 646 0 806 0 
C 960 0 1222 0 1370 -13 
L 1370 153 
C 992 153 979 191 979 420 
L 979 2776 
L 243 2706 
z
" transform="scale(0.015625)"/>
       <path id="CMR17-76" d="M 2502 2163 
C 2560 2304 2662 2560 3034 2560 
L 3034 2726 
C 2912 2726 2752 2726 2630 2726 
C 2496 2726 2285 2726 2157 2732 
L 2157 2566 
C 2317 2553 2406 2477 2406 2311 
C 2406 2253 2406 2240 2368 2151 
L 1664 377 
L 902 2286 
C 864 2369 864 2381 864 2407 
C 864 2560 1075 2560 1171 2560 
L 1171 2732 
C 1018 2726 736 2726 576 2726 
C 403 2726 205 2726 64 2732 
L 64 2560 
C 307 2560 442 2560 518 2362 
L 1446 44 
C 1485 -51 1491 -64 1549 -64 
C 1606 -64 1613 -51 1651 44 
L 2502 2163 
z
" transform="scale(0.015625)"/>
       <path id="CMR17-65" d="M 2438 1472 
C 2464 1498 2464 1511 2464 1576 
C 2464 2238 2118 2816 1389 2816 
C 710 2816 173 2169 173 1383 
C 173 551 781 -64 1459 -64 
C 2176 -64 2458 607 2458 740 
C 2458 784 2419 784 2406 784 
C 2362 784 2355 771 2330 696 
C 2189 265 1837 51 1504 51 
C 1229 51 954 203 781 480 
C 582 803 582 1176 582 1472 
L 2438 1472 
z
M 589 1568 
C 634 2505 1126 2714 1382 2714 
C 1818 2714 2112 2297 2118 1568 
L 589 1568 
z
" transform="scale(0.015625)"/>
       <path id="CMR17-50" d="M 1267 2042 
L 2291 2042 
C 3117 2042 3718 2578 3718 3184 
C 3718 3791 3130 4352 2291 4352 
L 333 4352 
L 333 4186 
C 774 4186 845 4186 845 3899 
L 845 446 
C 845 160 774 160 333 160 
L 333 0 
C 518 0 858 0 1056 0 
C 1254 0 1594 0 1779 0 
L 1779 160 
C 1338 160 1267 160 1267 446 
L 1267 2042 
z
M 1254 2176 
L 1254 3938 
C 1254 4155 1267 4186 1523 4186 
L 2170 4186 
C 2995 4186 3232 3714 3232 3184 
C 3232 2604 2950 2176 2170 2176 
L 1254 2176 
z
" transform="scale(0.015625)"/>
       <path id="CMR17-72" d="M 960 1497 
C 960 2112 1222 2688 1702 2688 
C 1747 2688 1792 2682 1837 2662 
C 1837 2662 1696 2617 1696 2452 
C 1696 2298 1818 2234 1914 2234 
C 1990 2234 2131 2279 2131 2458 
C 2131 2663 1926 2790 1709 2790 
C 1222 2790 1011 2317 947 2093 
L 941 2093 
L 941 2790 
L 198 2720 
L 198 2554 
C 576 2554 634 2515 634 2208 
L 634 428 
C 634 184 608 153 198 153 
L 198 -13 
C 352 0 646 0 813 0 
C 998 0 1325 0 1498 -13 
L 1498 153 
C 1037 153 960 153 960 440 
L 960 1497 
z
" transform="scale(0.015625)"/>
       <path id="CMR17-6f" d="M 2758 1356 
C 2758 2176 2163 2816 1466 2816 
C 768 2816 173 2176 173 1356 
C 173 551 768 -64 1466 -64 
C 2163 -64 2758 551 2758 1356 
z
M 1466 51 
C 1165 51 909 230 762 480 
C 602 767 582 1126 582 1408 
C 582 1677 595 2010 762 2298 
C 890 2509 1139 2714 1466 2714 
C 1754 2714 1997 2554 2150 2330 
C 2349 2029 2349 1607 2349 1408 
C 2349 1158 2336 775 2163 467 
C 1984 173 1709 51 1466 51 
z
" transform="scale(0.015625)"/>
       <path id="CMR17-62" d="M 960 4396 
L 198 4326 
L 198 4160 
C 576 4160 634 4122 634 3817 
L 634 -13 
L 749 -13 
L 934 441 
C 1120 141 1395 -64 1766 -64 
C 2406 -64 3053 500 3053 1370 
C 3053 2188 2477 2790 1830 2790 
C 1434 2790 1152 2579 960 2330 
L 960 4396 
z
M 973 2004 
C 973 2118 973 2138 1062 2272 
C 1312 2657 1670 2688 1792 2688 
C 1984 2688 2643 2585 2643 1376 
C 2643 108 1888 38 1734 38 
C 1536 38 1248 114 1043 486 
C 973 608 973 621 973 735 
L 973 2004 
z
" transform="scale(0.015625)"/>
       <path id="CMR17-79" d="M 2496 2197 
C 2656 2586 2944 2586 3034 2586 
L 3034 2752 
C 2912 2752 2752 2752 2630 2752 
C 2496 2752 2285 2752 2157 2758 
L 2157 2592 
C 2400 2573 2406 2394 2406 2343 
C 2406 2280 2394 2248 2362 2171 
L 1664 449 
L 902 2306 
C 870 2382 870 2426 870 2433 
C 870 2573 1018 2586 1171 2586 
L 1171 2758 
C 1018 2752 742 2752 582 2752 
C 410 2752 205 2752 64 2758 
L 64 2586 
C 410 2586 448 2554 531 2350 
L 1485 15 
C 1197 -738 1030 -1178 627 -1178 
C 557 -1178 397 -1159 282 -1044 
C 429 -1031 493 -942 493 -833 
C 493 -725 416 -629 288 -629 
C 147 -629 77 -725 77 -840 
C 77 -1095 339 -1280 627 -1280 
C 998 -1280 1229 -922 1357 -604 
L 2496 2197 
z
" transform="scale(0.015625)"/>
      </defs>
      <use xlink:href="#CMR17-43" transform="scale(0.996264)"/>
      <use xlink:href="#CMR17-75" transform="translate(66.509881 0) scale(0.996264)"/>
      <use xlink:href="#CMR17-6d" transform="translate(117.40525 0) scale(0.996264)"/>
      <use xlink:href="#CMR17-75" transform="translate(191.722386 0) scale(0.996264)"/>
      <use xlink:href="#CMR17-6c" transform="translate(242.617756 0) scale(0.996264)"/>
      <use xlink:href="#CMR17-61" transform="translate(267.488815 0) scale(0.996264)"/>
      <use xlink:href="#CMR17-74" transform="translate(313.179292 0) scale(0.996264)"/>
      <use xlink:href="#CMR17-69" transform="translate(348.460059 0) scale(0.996264)"/>
      <use xlink:href="#CMR17-76" transform="translate(373.331118 0) scale(0.996264)"/>
      <use xlink:href="#CMR17-65" transform="translate(419.02158 0) scale(0.996264)"/>
      <use xlink:href="#CMR17-50" transform="translate(489.583207 0) scale(0.996264)"/>
      <use xlink:href="#CMR17-72" transform="translate(552.169507 0) scale(0.996264)"/>
      <use xlink:href="#CMR17-6f" transform="translate(587.450275 0) scale(0.996264)"/>
      <use xlink:href="#CMR17-62" transform="translate(633.140752 0) scale(0.996264)"/>
      <use xlink:href="#CMR17-61" transform="translate(684.036122 0) scale(0.996264)"/>
      <use xlink:href="#CMR17-62" transform="translate(729.726599 0) scale(0.996264)"/>
      <use xlink:href="#CMR17-69" transform="translate(780.621969 0) scale(0.996264)"/>
      <use xlink:href="#CMR17-6c" transform="translate(805.493027 0) scale(0.996264)"/>
      <use xlink:href="#CMR17-69" transform="translate(830.364086 0) scale(0.996264)"/>
      <use xlink:href="#CMR17-74" transform="translate(855.235144 0) scale(0.996264)"/>
      <use xlink:href="#CMR17-79" transform="translate(887.913458 0) scale(0.996264)"/>
     </g>
    </g>
   </g>
   <g id="line2d_85">
    <path d="M 44.470955 213.970697 
L 52.722712 203.237718 
L 66.868584 184.814615 
L 73.234225 176.925534 
L 78.656811 170.554098 
L 83.607865 165.074514 
L 88.323157 160.187136 
L 92.80268 155.858438 
L 97.282209 151.839703 
L 101.761738 148.125224 
L 106.241261 144.700946 
L 110.956553 141.386496 
L 115.907607 138.192079 
L 121.094424 135.112962 
L 126.98854 131.877329 
L 134.297237 128.132351 
L 159.524045 115.437542 
L 166.125455 111.731455 
L 172.255327 108.030572 
L 178.149437 104.204342 
L 183.807785 100.265887 
L 189.466145 96.058751 
L 195.360255 91.390228 
L 201.254365 86.438596 
L 207.620012 80.794161 
L 214.457184 74.428297 
L 222.473168 66.644623 
L 233.554101 55.540003 
L 248.64302 40.450099 
L 256.187491 33.233938 
L 262.553139 27.453699 
L 268.211486 22.616031 
L 273.398309 18.468681 
L 278.349357 14.791336 
L 279.999706 13.629802 
L 279.999706 13.629802 
" clip-path="url(#p24c5c4f847)" style="fill: none; stroke: #0c5da5; stroke-linecap: square"/>
   </g>
   <g id="line2d_86">
    <path d="M 42.851547 213.473758 
L 45.319248 195.042965 
L 48.796464 167.150351 
L 54.18054 123.997162 
L 56.760409 105.224532 
L 58.891605 91.277341 
L 60.798464 80.181556 
L 62.593157 70.996374 
L 64.275679 63.49274 
L 65.846035 57.421521 
L 67.416391 52.19411 
L 68.986747 47.739182 
L 70.557103 43.975456 
L 72.015289 41.024702 
L 73.585646 38.352928 
L 75.156002 36.127107 
L 76.726354 34.273673 
L 78.40888 32.62786 
L 80.20357 31.186435 
L 82.110432 29.938534 
L 84.241628 28.816821 
L 86.597157 27.840416 
L 89.177026 27.020489 
L 91.981235 26.362605 
L 95.234111 25.836088 
L 99.047835 25.457076 
L 103.87107 25.215749 
L 111.722847 25.0807 
L 121.930153 24.865714 
L 126.529054 24.543105 
L 130.118433 24.076067 
L 133.259145 23.44941 
L 136.175524 22.647971 
L 139.091896 21.618779 
L 142.232602 20.265857 
L 145.934151 18.410681 
L 154.907613 13.629802 
L 154.907613 13.629802 
" clip-path="url(#p24c5c4f847)" style="fill: none; stroke: #00b945; stroke-linecap: square"/>
   </g>
   <g id="line2d_87">
    <path d="M 40.779652 213.39742 
L 43.22142 196.851173 
L 46.341456 174.050797 
L 53.531108 120.914261 
L 55.972874 104.753944 
L 58.143335 91.839672 
L 60.042489 81.819699 
L 61.805989 73.644393 
L 63.433833 67.068139 
L 65.06168 61.397535 
L 66.55387 56.953781 
L 68.04606 53.179342 
L 69.538253 50.014206 
L 71.030443 47.39273 
L 72.522636 45.246801 
L 74.014826 43.508555 
L 75.507019 42.112588 
L 77.134866 40.908196 
L 78.898363 39.897095 
L 80.933171 39.007547 
L 83.374939 38.19286 
L 87.715862 37.026645 
L 92.463742 35.67113 
L 95.990743 34.421591 
L 99.517744 32.933338 
L 103.994317 30.783592 
L 112.540505 26.630826 
L 116.067506 25.199792 
L 119.323193 24.116044 
L 122.578887 23.266871 
L 126.105881 22.58081 
L 130.446804 21.977349 
L 146.182644 20.009683 
L 152.151404 18.880913 
L 162.189779 16.705959 
L 176.29777 13.629802 
L 176.29777 13.629802 
" clip-path="url(#p24c5c4f847)" style="fill: none; stroke: #ff9500; stroke-linecap: square"/>
   </g>
   <g id="line2d_88">
    <path d="M 190.281155 214.198714 
L 191.718449 212.417166 
L 193.221083 210.196254 
L 194.789046 207.47296 
L 196.422337 204.18071 
L 198.120956 200.241997 
L 199.819587 195.742354 
L 201.583547 190.418259 
L 203.347494 184.356774 
L 205.111453 177.4846 
L 206.940741 169.450553 
L 208.900697 159.824658 
L 211.187307 147.417221 
L 214.38856 128.653635 
L 219.092448 101.171709 
L 221.509714 88.438435 
L 223.600327 78.582687 
L 225.625611 70.106871 
L 227.585568 62.842978 
L 229.610852 56.17656 
L 231.766793 49.848143 
L 234.053403 43.825434 
L 236.470681 38.090046 
L 238.822619 33.072481 
L 241.0439 28.846975 
L 243.069185 25.452171 
L 245.029129 22.598274 
L 246.858416 20.315531 
L 248.687704 18.381756 
L 250.516992 16.764724 
L 252.41162 15.381511 
L 254.436904 14.181782 
L 255.547545 13.629802 
L 255.547545 13.629802 
" clip-path="url(#p24c5c4f847)" style="fill: none; stroke: #ff2c00; stroke-linecap: square"/>
   </g>
   <g id="line2d_89">
    <path d="M 163.038755 214.202805 
L 164.636168 212.658543 
L 166.153697 210.881953 
L 167.671239 208.762269 
L 169.188768 206.253907 
L 170.70631 203.30791 
L 172.223852 199.874561 
L 173.821252 195.682473 
L 175.418664 190.8517 
L 177.095947 185.055337 
L 178.853089 178.168342 
L 180.769971 169.716625 
L 182.846607 159.525859 
L 185.242714 146.624572 
L 188.517409 127.642397 
L 194.747293 91.312216 
L 197.22327 78.329446 
L 199.299906 68.557938 
L 201.216801 60.568905 
L 202.973942 54.146636 
L 204.651225 48.802255 
L 206.328496 44.177389 
L 208.005779 40.204869 
L 209.683049 36.808058 
L 211.360333 33.908905 
L 213.117486 31.324255 
L 214.874627 29.124338 
L 216.79151 27.077084 
L 218.948017 25.109136 
L 221.424006 23.157582 
L 224.379207 21.116512 
L 227.414278 19.280451 
L 230.209737 17.838676 
L 233.005209 16.649397 
L 236.200009 15.54173 
L 241.231846 14.063959 
L 242.829258 13.629802 
L 242.829258 13.629802 
" clip-path="url(#p24c5c4f847)" style="fill: none; stroke: #845b97; stroke-linecap: square"/>
   </g>
   <g id="line2d_90">
    <path d="M 142.896576 214.18046 
L 144.75705 211.808719 
L 146.695054 208.981545 
L 148.710564 205.654012 
L 150.803604 201.769764 
L 152.896632 197.420994 
L 154.989673 192.562816 
L 157.082714 187.142551 
L 159.25326 180.882216 
L 161.501337 173.700172 
L 163.981981 165.014752 
L 167.160288 153.004057 
L 177.315394 113.969155 
L 181.268908 100.076528 
L 186.385219 82.965182 
L 192.199207 64.251814 
L 195.920154 52.96513 
L 198.710884 45.166398 
L 201.113997 39.079195 
L 203.284556 34.164353 
L 205.300065 30.128404 
L 207.238057 26.72782 
L 209.176062 23.77816 
L 211.036535 21.3395 
L 212.974527 19.168595 
L 214.912531 17.331665 
L 216.928041 15.731034 
L 219.021082 14.359377 
L 220.338915 13.629802 
L 220.338915 13.629802 
" clip-path="url(#p24c5c4f847)" style="fill: none; stroke: #474747; stroke-linecap: square"/>
   </g>
   <g id="line2d_91">
    <path d="M 84.95624 214.225836 
L 94.752113 211.612473 
L 117.971959 205.128706 
L 125.22816 202.866784 
L 131.214532 200.769913 
L 136.656679 198.634104 
L 142.098826 196.258964 
L 147.540986 193.639906 
L 152.983133 190.776933 
L 158.42528 187.662345 
L 163.686036 184.390315 
L 168.58397 181.081935 
L 173.300501 177.625531 
L 177.835628 174.026939 
L 182.370755 170.143575 
L 186.905882 165.97094 
L 191.622413 161.327271 
L 196.338944 156.374326 
L 201.055475 151.09632 
L 205.409197 145.895296 
L 209.400112 140.790732 
L 213.028206 135.805337 
L 216.474908 130.699894 
L 219.740194 125.472023 
L 223.00548 119.809722 
L 226.089374 114.022452 
L 229.173256 107.781232 
L 232.438554 100.666898 
L 235.885244 92.606393 
L 239.694755 83.097538 
L 244.048465 71.607129 
L 250.941844 52.677291 
L 257.653845 34.472046 
L 261.64476 24.278624 
L 265.091462 16.080583 
L 266.179887 13.629802 
L 266.179887 13.629802 
" clip-path="url(#p24c5c4f847)" style="fill: none; stroke: #9e9e9e; stroke-linecap: square"/>
   </g>
   <g id="patch_3">
    <path d="M 32.685756 214.272 
L 32.685756 3.6 
" style="fill: none; stroke: #000000; stroke-width: 0.5; stroke-linejoin: miter; stroke-linecap: square"/>
   </g>
   <g id="patch_4">
    <path d="M 362.463756 214.272 
L 362.463756 3.6 
" style="fill: none; stroke: #000000; stroke-width: 0.5; stroke-linejoin: miter; stroke-linecap: square"/>
   </g>
   <g id="patch_5">
    <path d="M 32.685756 214.272 
L 362.463756 214.272 
" style="fill: none; stroke: #000000; stroke-width: 0.5; stroke-linejoin: miter; stroke-linecap: square"/>
   </g>
   <g id="patch_6">
    <path d="M 32.685756 3.6 
L 362.463756 3.6 
" style="fill: none; stroke: #000000; stroke-width: 0.5; stroke-linejoin: miter; stroke-linecap: square"/>
   </g>
   <g id="legend_1">
    <g id="line2d_92">
     <path d="M 242.137223 116.211752 
L 252.137223 116.211752 
L 262.137223 116.211752 
" style="fill: none; stroke: #0c5da5; stroke-linecap: square"/>
    </g>
    <g id="text_15">
     <!-- $+\text{MSA}$ -->
     <g transform="translate(270.137223 119.711752) scale(0.1 -0.1)">
      <defs>
       <path id="CMR17-2b" d="M 2413 1472 
L 4109 1472 
C 4198 1472 4307 1472 4307 1580 
C 4307 1695 4205 1695 4109 1695 
L 2413 1695 
L 2413 3386 
C 2413 3475 2413 3584 2304 3584 
C 2189 3584 2189 3482 2189 3386 
L 2189 1695 
L 493 1695 
C 403 1695 294 1695 294 1587 
C 294 1472 397 1472 493 1472 
L 2189 1472 
L 2189 -218 
C 2189 -307 2189 -416 2298 -416 
C 2413 -416 2413 -314 2413 -218 
L 2413 1472 
z
" transform="scale(0.015625)"/>
      </defs>
      <use xlink:href="#CMR17-2b" transform="scale(0.996264)"/>
      <use xlink:href="#CMR17-4d" transform="translate(71.714788 0) scale(0.996264)"/>
      <use xlink:href="#CMR17-53" transform="translate(156.401729 0) scale(0.996264)"/>
      <use xlink:href="#CMR17-41" transform="translate(207.297099 0) scale(0.996264)"/>
     </g>
    </g>
    <g id="line2d_93">
     <path d="M 242.137223 130.14893 
L 252.137223 130.14893 
L 262.137223 130.14893 
" style="fill: none; stroke: #00b945; stroke-linecap: square"/>
    </g>
    <g id="text_16">
     <!-- $+\text{MSA} + \text{Sym}$ -->
     <g transform="translate(270.137223 133.64893) scale(0.1 -0.1)">
      <use xlink:href="#CMR17-2b" transform="scale(0.996264)"/>
      <use xlink:href="#CMR17-4d" transform="translate(71.714788 0) scale(0.996264)"/>
      <use xlink:href="#CMR17-53" transform="translate(156.401729 0) scale(0.996264)"/>
      <use xlink:href="#CMR17-41" transform="translate(207.297099 0) scale(0.996264)"/>
      <use xlink:href="#CMR17-2b" transform="translate(298.508736 0) scale(0.996264)"/>
      <use xlink:href="#CMR17-53" transform="translate(392.362731 0) scale(0.996264)"/>
      <use xlink:href="#CMR17-79" transform="translate(443.258101 0) scale(0.996264)"/>
      <use xlink:href="#CMR17-6d" transform="translate(491.551017 0) scale(0.996264)"/>
     </g>
    </g>
    <g id="line2d_94">
     <path d="M 242.137223 144.086108 
L 252.137223 144.086108 
L 262.137223 144.086108 
" style="fill: none; stroke: #ff9500; stroke-linecap: square"/>
    </g>
    <g id="text_17">
     <!-- $+\text{MSA} + \text{Sym+Ori}$ -->
     <g transform="translate(270.137223 147.586108) scale(0.1 -0.1)">
      <defs>
       <path id="CMR17-4f" d="M 4307 2135 
C 4307 3437 3366 4416 2304 4416 
C 1216 4416 294 3424 294 2135 
C 294 845 1229 -128 2298 -128 
C 3392 -128 4307 864 4307 2135 
z
M 2304 -13 
C 1574 -13 781 711 781 2217 
C 781 3716 1651 4301 2298 4301 
C 2976 4301 3821 3698 3821 2217 
C 3821 686 3008 -13 2304 -13 
z
" transform="scale(0.015625)"/>
      </defs>
      <use xlink:href="#CMR17-2b" transform="scale(0.996264)"/>
      <use xlink:href="#CMR17-4d" transform="translate(71.714788 0) scale(0.996264)"/>
      <use xlink:href="#CMR17-53" transform="translate(156.401729 0) scale(0.996264)"/>
      <use xlink:href="#CMR17-41" transform="translate(207.297099 0) scale(0.996264)"/>
      <use xlink:href="#CMR17-2b" transform="translate(298.508736 0) scale(0.996264)"/>
      <use xlink:href="#CMR17-53" transform="translate(392.362731 0) scale(0.996264)"/>
      <use xlink:href="#CMR17-79" transform="translate(443.258101 0) scale(0.996264)"/>
      <use xlink:href="#CMR17-6d" transform="translate(491.551017 0) scale(0.996264)"/>
      <use xlink:href="#CMR17-2b" transform="translate(568.470606 0) scale(0.996264)"/>
      <use xlink:href="#CMR17-4f" transform="translate(640.185395 0) scale(0.996264)"/>
      <use xlink:href="#CMR17-72" transform="translate(711.900183 0) scale(0.996264)"/>
      <use xlink:href="#CMR17-69" transform="translate(747.180951 0) scale(0.996264)"/>
     </g>
    </g>
    <g id="line2d_95">
     <path d="M 242.137223 158.023287 
L 252.137223 158.023287 
L 262.137223 158.023287 
" style="fill: none; stroke: #ff2c00; stroke-linecap: square"/>
    </g>
    <g id="text_18">
     <!-- $-\text{MSA}$ -->
     <g transform="translate(270.137223 161.523287) scale(0.1 -0.1)">
      <defs>
       <path id="CMSY10-0" d="M 4218 1472 
C 4326 1472 4442 1472 4442 1600 
C 4442 1728 4326 1728 4218 1728 
L 755 1728 
C 646 1728 531 1728 531 1600 
C 531 1472 646 1472 755 1472 
L 4218 1472 
z
" transform="scale(0.015625)"/>
      </defs>
      <use xlink:href="#CMSY10-0" transform="scale(0.996264)"/>
      <use xlink:href="#CMR17-4d" transform="translate(77.487468 0) scale(0.996264)"/>
      <use xlink:href="#CMR17-53" transform="translate(162.174408 0) scale(0.996264)"/>
      <use xlink:href="#CMR17-41" transform="translate(213.069778 0) scale(0.996264)"/>
     </g>
    </g>
    <g id="line2d_96">
     <path d="M 242.137223 171.960465 
L 252.137223 171.960465 
L 262.137223 171.960465 
" style="fill: none; stroke: #845b97; stroke-linecap: square"/>
    </g>
    <g id="text_19">
     <!-- $-\text{MSA} + \text{Sym}$ -->
     <g transform="translate(270.137223 175.460465) scale(0.1 -0.1)">
      <use xlink:href="#CMSY10-0" transform="scale(0.996264)"/>
      <use xlink:href="#CMR17-4d" transform="translate(77.487468 0) scale(0.996264)"/>
      <use xlink:href="#CMR17-53" transform="translate(162.174408 0) scale(0.996264)"/>
      <use xlink:href="#CMR17-41" transform="translate(213.069778 0) scale(0.996264)"/>
      <use xlink:href="#CMR17-2b" transform="translate(304.281415 0) scale(0.996264)"/>
      <use xlink:href="#CMR17-53" transform="translate(398.13541 0) scale(0.996264)"/>
      <use xlink:href="#CMR17-79" transform="translate(449.03078 0) scale(0.996264)"/>
      <use xlink:href="#CMR17-6d" transform="translate(497.323696 0) scale(0.996264)"/>
     </g>
    </g>
    <g id="line2d_97">
     <path d="M 242.137223 185.897643 
L 252.137223 185.897643 
L 262.137223 185.897643 
" style="fill: none; stroke: #474747; stroke-linecap: square"/>
    </g>
    <g id="text_20">
     <!-- $-\text{MSA} + \text{Sym+Ori}$ -->
     <g transform="translate(270.137223 189.397643) scale(0.1 -0.1)">
      <use xlink:href="#CMSY10-0" transform="scale(0.996264)"/>
      <use xlink:href="#CMR17-4d" transform="translate(77.487468 0) scale(0.996264)"/>
      <use xlink:href="#CMR17-53" transform="translate(162.174408 0) scale(0.996264)"/>
      <use xlink:href="#CMR17-41" transform="translate(213.069778 0) scale(0.996264)"/>
      <use xlink:href="#CMR17-2b" transform="translate(304.281415 0) scale(0.996264)"/>
      <use xlink:href="#CMR17-53" transform="translate(398.13541 0) scale(0.996264)"/>
      <use xlink:href="#CMR17-79" transform="translate(449.03078 0) scale(0.996264)"/>
      <use xlink:href="#CMR17-6d" transform="translate(497.323696 0) scale(0.996264)"/>
      <use xlink:href="#CMR17-2b" transform="translate(574.243286 0) scale(0.996264)"/>
      <use xlink:href="#CMR17-4f" transform="translate(645.958074 0) scale(0.996264)"/>
      <use xlink:href="#CMR17-72" transform="translate(717.672863 0) scale(0.996264)"/>
      <use xlink:href="#CMR17-69" transform="translate(752.95363 0) scale(0.996264)"/>
     </g>
    </g>
    <g id="line2d_98">
     <path d="M 242.137223 199.834822 
L 252.137223 199.834822 
L 262.137223 199.834822 
" style="fill: none; stroke: #9e9e9e; stroke-linecap: square"/>
    </g>
    <g id="text_21">
     <!-- AlphaFold 2 -->
     <g transform="translate(270.137223 203.334822) scale(0.1 -0.1)">
      <defs>
       <path id="CMR17-70" d="M 1408 -1063 
C 998 -1063 973 -1037 973 -789 
L 973 402 
C 1158 134 1427 -38 1766 -38 
C 2406 -38 3053 523 3053 1388 
C 3053 2191 2496 2802 1837 2802 
C 1453 2802 1139 2592 960 2338 
L 960 2802 
L 198 2732 
L 198 2567 
C 576 2567 634 2528 634 2223 
L 634 -789 
C 634 -1031 608 -1063 198 -1063 
L 198 -1228 
C 352 -1216 634 -1216 800 -1216 
C 966 -1216 1254 -1216 1408 -1228 
L 1408 -1063 
z
M 973 2012 
C 973 2102 973 2235 1222 2471 
C 1254 2497 1472 2688 1792 2688 
C 2259 2688 2643 2108 2643 1382 
C 2643 656 2234 64 1728 64 
C 1498 64 1248 172 1056 472 
C 973 612 973 650 973 752 
L 973 2012 
z
" transform="scale(0.015625)"/>
       <path id="CMR17-68" d="M 2656 1933 
C 2656 2259 2592 2790 1837 2790 
C 1312 2790 1056 2368 979 2157 
L 973 2157 
L 973 4396 
L 211 4326 
L 211 4160 
C 589 4160 646 4122 646 3817 
L 646 426 
C 646 184 621 153 211 153 
L 211 -13 
C 365 0 646 0 813 0 
C 979 0 1267 0 1421 -13 
L 1421 153 
C 1011 153 986 178 986 428 
L 986 1658 
C 986 2247 1344 2688 1792 2688 
C 2266 2688 2317 2266 2317 1958 
L 2317 428 
C 2317 184 2291 153 1882 153 
L 1882 -13 
C 2035 0 2317 0 2483 0 
C 2650 0 2938 0 3091 -13 
L 3091 153 
C 2682 153 2656 178 2656 428 
L 2656 1933 
z
" transform="scale(0.015625)"/>
       <path id="CMR17-46" d="M 3482 4325 
L 326 4325 
L 326 4160 
C 768 4160 838 4160 838 3874 
L 838 446 
C 838 160 768 160 326 160 
L 326 0 
C 512 0 870 0 1069 0 
C 1331 0 1638 0 1901 0 
L 1901 160 
L 1760 160 
C 1274 160 1261 223 1261 452 
L 1261 2075 
L 1837 2075 
C 2432 2075 2490 1865 2490 1332 
L 2605 1332 
L 2605 2987 
L 2490 2987 
C 2490 2450 2432 2240 1837 2240 
L 1261 2240 
L 1261 3911 
C 1261 4128 1274 4160 1530 4160 
L 2355 4160 
C 3322 4160 3430 3765 3520 2916 
L 3635 2916 
L 3482 4325 
z
" transform="scale(0.015625)"/>
       <path id="CMR17-64" d="M 1869 4326 
L 1869 4160 
C 2246 4160 2304 4122 2304 3820 
L 2304 2345 
C 2278 2377 2016 2790 1498 2790 
C 845 2790 211 2208 211 1364 
C 211 525 806 -64 1434 -64 
C 1978 -64 2259 337 2291 380 
L 2291 -63 
L 3066 -63 
L 3066 128 
C 2688 128 2630 166 2630 473 
L 2630 4396 
L 1869 4326 
z
M 2291 755 
C 2291 563 2176 390 2029 262 
C 1811 70 1594 38 1472 38 
C 1286 38 621 134 621 1356 
C 621 2612 1363 2688 1530 2688 
C 1824 2688 2061 2522 2208 2291 
C 2291 2157 2291 2138 2291 2023 
L 2291 755 
z
" transform="scale(0.015625)"/>
      </defs>
      <use xlink:href="#CMR17-41" transform="scale(0.996264)"/>
      <use xlink:href="#CMR17-6c" transform="translate(69.07243 0) scale(0.996264)"/>
      <use xlink:href="#CMR17-70" transform="translate(93.943488 0) scale(0.996264)"/>
      <use xlink:href="#CMR17-68" transform="translate(144.838858 0) scale(0.996264)"/>
      <use xlink:href="#CMR17-61" transform="translate(195.734228 0) scale(0.996264)"/>
      <use xlink:href="#CMR17-46" transform="translate(241.424705 0) scale(0.996264)"/>
      <use xlink:href="#CMR17-6f" transform="translate(293.601296 0) scale(0.996264)"/>
      <use xlink:href="#CMR17-6c" transform="translate(339.291773 0) scale(0.996264)"/>
      <use xlink:href="#CMR17-64" transform="translate(364.162832 0) scale(0.996264)"/>
      <use xlink:href="#CMR17-32" transform="translate(445.134168 0) scale(0.996264)"/>
     </g>
    </g>
   </g>
  </g>
 </g>
 <defs>
  <clipPath id="p24c5c4f847">
   <rect x="32.685756" y="3.6" width="329.778" height="210.672"/>
  </clipPath>
 </defs>
</svg>
