<?xml version="1.0" encoding="utf-8" standalone="no"?>
<!DOCTYPE svg PUBLIC "-//W3C//DTD SVG 1.1//EN"
  "http://www.w3.org/Graphics/SVG/1.1/DTD/svg11.dtd">
<svg xmlns:xlink="http://www.w3.org/1999/xlink" width="504pt" height="360pt" viewBox="0 0 504 360" xmlns="http://www.w3.org/2000/svg" version="1.1">
 <metadata>
  <rdf:RDF xmlns:dc="http://purl.org/dc/elements/1.1/" xmlns:cc="http://creativecommons.org/ns#" xmlns:rdf="http://www.w3.org/1999/02/22-rdf-syntax-ns#">
   <cc:Work>
    <dc:type rdf:resource="http://purl.org/dc/dcmitype/StillImage"/>
    <dc:date>2025-07-01T22:46:17.096806</dc:date>
    <dc:format>image/svg+xml</dc:format>
    <dc:creator>
     <cc:Agent>
      <dc:title>Matplotlib v3.10.1, https://matplotlib.org/</dc:title>
     </cc:Agent>
    </dc:creator>
   </cc:Work>
  </rdf:RDF>
 </metadata>
 <defs>
  <style type="text/css">*{stroke-linejoin: round; stroke-linecap: butt}</style>
 </defs>
 <g id="figure_1">
  <g id="patch_1">
   <path d="M 0 360 
L 504 360 
L 504 0 
L 0 0 
z
" style="fill: #ffffff"/>
  </g>
  <g id="axes_1">
   <g id="patch_2">
    <path d="M 63 320.4 
L 453.6 320.4 
L 453.6 43.2 
L 63 43.2 
z
" style="fill: #ffffff"/>
   </g>
   <g id="matplotlib.axis_1">
    <g id="xtick_1">
     <g id="line2d_1">
      <defs>
       <path id="m9c8b261f63" d="M 0 0 
L 0 3.5 
" style="stroke: #000000; stroke-width: 0.8"/>
      </defs>
      <g>
       <use xlink:href="#m9c8b261f63" x="63" y="320.4" style="stroke: #000000; stroke-width: 0.8"/>
      </g>
     </g>
     <g id="text_1">
      <!-- 0 -->
      <g transform="translate(60.219531 334.557813) scale(0.1 -0.1)">
       <defs>
        <path id="ArialMT-30" d="M 266 2259 
Q 266 3072 433 3567 
Q 600 4063 929 4331 
Q 1259 4600 1759 4600 
Q 2128 4600 2406 4451 
Q 2684 4303 2865 4023 
Q 3047 3744 3150 3342 
Q 3253 2941 3253 2259 
Q 3253 1453 3087 958 
Q 2922 463 2592 192 
Q 2263 -78 1759 -78 
Q 1097 -78 719 397 
Q 266 969 266 2259 
z
M 844 2259 
Q 844 1131 1108 757 
Q 1372 384 1759 384 
Q 2147 384 2411 759 
Q 2675 1134 2675 2259 
Q 2675 3391 2411 3762 
Q 2147 4134 1753 4134 
Q 1366 4134 1134 3806 
Q 844 3388 844 2259 
z
" transform="scale(0.015625)"/>
       </defs>
       <use xlink:href="#ArialMT-30"/>
      </g>
     </g>
    </g>
    <g id="xtick_2">
     <g id="line2d_2">
      <g>
       <use xlink:href="#m9c8b261f63" x="141.12" y="320.4" style="stroke: #000000; stroke-width: 0.8"/>
      </g>
     </g>
     <g id="text_2">
      <!-- 20 -->
      <g transform="translate(135.559063 334.557813) scale(0.1 -0.1)">
       <defs>
        <path id="ArialMT-32" d="M 3222 541 
L 3222 0 
L 194 0 
Q 188 203 259 391 
Q 375 700 629 1000 
Q 884 1300 1366 1694 
Q 2113 2306 2375 2664 
Q 2638 3022 2638 3341 
Q 2638 3675 2398 3904 
Q 2159 4134 1775 4134 
Q 1369 4134 1125 3890 
Q 881 3647 878 3216 
L 300 3275 
Q 359 3922 746 4261 
Q 1134 4600 1788 4600 
Q 2447 4600 2831 4234 
Q 3216 3869 3216 3328 
Q 3216 3053 3103 2787 
Q 2991 2522 2730 2228 
Q 2469 1934 1863 1422 
Q 1356 997 1212 845 
Q 1069 694 975 541 
L 3222 541 
z
" transform="scale(0.015625)"/>
       </defs>
       <use xlink:href="#ArialMT-32"/>
       <use xlink:href="#ArialMT-30" transform="translate(55.615234 0)"/>
      </g>
     </g>
    </g>
    <g id="xtick_3">
     <g id="line2d_3">
      <g>
       <use xlink:href="#m9c8b261f63" x="219.24" y="320.4" style="stroke: #000000; stroke-width: 0.8"/>
      </g>
     </g>
     <g id="text_3">
      <!-- 40 -->
      <g transform="translate(213.679063 334.557813) scale(0.1 -0.1)">
       <defs>
        <path id="ArialMT-34" d="M 2069 0 
L 2069 1097 
L 81 1097 
L 81 1613 
L 2172 4581 
L 2631 4581 
L 2631 1613 
L 3250 1613 
L 3250 1097 
L 2631 1097 
L 2631 0 
L 2069 0 
z
M 2069 1613 
L 2069 3678 
L 634 1613 
L 2069 1613 
z
" transform="scale(0.015625)"/>
       </defs>
       <use xlink:href="#ArialMT-34"/>
       <use xlink:href="#ArialMT-30" transform="translate(55.615234 0)"/>
      </g>
     </g>
    </g>
    <g id="xtick_4">
     <g id="line2d_4">
      <g>
       <use xlink:href="#m9c8b261f63" x="297.36" y="320.4" style="stroke: #000000; stroke-width: 0.8"/>
      </g>
     </g>
     <g id="text_4">
      <!-- 60 -->
      <g transform="translate(291.799062 334.557813) scale(0.1 -0.1)">
       <defs>
        <path id="ArialMT-36" d="M 3184 3459 
L 2625 3416 
Q 2550 3747 2413 3897 
Q 2184 4138 1850 4138 
Q 1581 4138 1378 3988 
Q 1113 3794 959 3422 
Q 806 3050 800 2363 
Q 1003 2672 1297 2822 
Q 1591 2972 1913 2972 
Q 2475 2972 2870 2558 
Q 3266 2144 3266 1488 
Q 3266 1056 3080 686 
Q 2894 316 2569 119 
Q 2244 -78 1831 -78 
Q 1128 -78 684 439 
Q 241 956 241 2144 
Q 241 3472 731 4075 
Q 1159 4600 1884 4600 
Q 2425 4600 2770 4297 
Q 3116 3994 3184 3459 
z
M 888 1484 
Q 888 1194 1011 928 
Q 1134 663 1356 523 
Q 1578 384 1822 384 
Q 2178 384 2434 671 
Q 2691 959 2691 1453 
Q 2691 1928 2437 2201 
Q 2184 2475 1800 2475 
Q 1419 2475 1153 2201 
Q 888 1928 888 1484 
z
" transform="scale(0.015625)"/>
       </defs>
       <use xlink:href="#ArialMT-36"/>
       <use xlink:href="#ArialMT-30" transform="translate(55.615234 0)"/>
      </g>
     </g>
    </g>
    <g id="xtick_5">
     <g id="line2d_5">
      <g>
       <use xlink:href="#m9c8b261f63" x="375.48" y="320.4" style="stroke: #000000; stroke-width: 0.8"/>
      </g>
     </g>
     <g id="text_5">
      <!-- 80 -->
      <g transform="translate(369.919062 334.557813) scale(0.1 -0.1)">
       <defs>
        <path id="ArialMT-38" d="M 1131 2484 
Q 781 2613 612 2850 
Q 444 3088 444 3419 
Q 444 3919 803 4259 
Q 1163 4600 1759 4600 
Q 2359 4600 2725 4251 
Q 3091 3903 3091 3403 
Q 3091 3084 2923 2848 
Q 2756 2613 2416 2484 
Q 2838 2347 3058 2040 
Q 3278 1734 3278 1309 
Q 3278 722 2862 322 
Q 2447 -78 1769 -78 
Q 1091 -78 675 323 
Q 259 725 259 1325 
Q 259 1772 486 2073 
Q 713 2375 1131 2484 
z
M 1019 3438 
Q 1019 3113 1228 2906 
Q 1438 2700 1772 2700 
Q 2097 2700 2305 2904 
Q 2513 3109 2513 3406 
Q 2513 3716 2298 3927 
Q 2084 4138 1766 4138 
Q 1444 4138 1231 3931 
Q 1019 3725 1019 3438 
z
M 838 1322 
Q 838 1081 952 856 
Q 1066 631 1291 507 
Q 1516 384 1775 384 
Q 2178 384 2440 643 
Q 2703 903 2703 1303 
Q 2703 1709 2433 1975 
Q 2163 2241 1756 2241 
Q 1359 2241 1098 1978 
Q 838 1716 838 1322 
z
" transform="scale(0.015625)"/>
       </defs>
       <use xlink:href="#ArialMT-38"/>
       <use xlink:href="#ArialMT-30" transform="translate(55.615234 0)"/>
      </g>
     </g>
    </g>
    <g id="xtick_6">
     <g id="line2d_6">
      <g>
       <use xlink:href="#m9c8b261f63" x="453.6" y="320.4" style="stroke: #000000; stroke-width: 0.8"/>
      </g>
     </g>
     <g id="text_6">
      <!-- 100 -->
      <g transform="translate(445.258594 334.557813) scale(0.1 -0.1)">
       <defs>
        <path id="ArialMT-31" d="M 2384 0 
L 1822 0 
L 1822 3584 
Q 1619 3391 1289 3197 
Q 959 3003 697 2906 
L 697 3450 
Q 1169 3672 1522 3987 
Q 1875 4303 2022 4600 
L 2384 4600 
L 2384 0 
z
" transform="scale(0.015625)"/>
       </defs>
       <use xlink:href="#ArialMT-31"/>
       <use xlink:href="#ArialMT-30" transform="translate(55.615234 0)"/>
       <use xlink:href="#ArialMT-30" transform="translate(111.230469 0)"/>
      </g>
     </g>
    </g>
    <g id="text_7">
     <!-- RMSD (Å) -->
     <g transform="translate(235.524219 349.253125) scale(0.1 -0.1)">
      <defs>
       <path id="ArialMT-52" d="M 503 0 
L 503 4581 
L 2534 4581 
Q 3147 4581 3465 4457 
Q 3784 4334 3975 4021 
Q 4166 3709 4166 3331 
Q 4166 2844 3850 2509 
Q 3534 2175 2875 2084 
Q 3116 1969 3241 1856 
Q 3506 1613 3744 1247 
L 4541 0 
L 3778 0 
L 3172 953 
Q 2906 1366 2734 1584 
Q 2563 1803 2427 1890 
Q 2291 1978 2150 2013 
Q 2047 2034 1813 2034 
L 1109 2034 
L 1109 0 
L 503 0 
z
M 1109 2559 
L 2413 2559 
Q 2828 2559 3062 2645 
Q 3297 2731 3419 2920 
Q 3541 3109 3541 3331 
Q 3541 3656 3305 3865 
Q 3069 4075 2559 4075 
L 1109 4075 
L 1109 2559 
z
" transform="scale(0.015625)"/>
       <path id="ArialMT-4d" d="M 475 0 
L 475 4581 
L 1388 4581 
L 2472 1338 
Q 2622 884 2691 659 
Q 2769 909 2934 1394 
L 4031 4581 
L 4847 4581 
L 4847 0 
L 4263 0 
L 4263 3834 
L 2931 0 
L 2384 0 
L 1059 3900 
L 1059 0 
L 475 0 
z
" transform="scale(0.015625)"/>
       <path id="ArialMT-53" d="M 288 1472 
L 859 1522 
Q 900 1178 1048 958 
Q 1197 738 1509 602 
Q 1822 466 2213 466 
Q 2559 466 2825 569 
Q 3091 672 3220 851 
Q 3350 1031 3350 1244 
Q 3350 1459 3225 1620 
Q 3100 1781 2813 1891 
Q 2628 1963 1997 2114 
Q 1366 2266 1113 2400 
Q 784 2572 623 2826 
Q 463 3081 463 3397 
Q 463 3744 659 4045 
Q 856 4347 1234 4503 
Q 1613 4659 2075 4659 
Q 2584 4659 2973 4495 
Q 3363 4331 3572 4012 
Q 3781 3694 3797 3291 
L 3216 3247 
Q 3169 3681 2898 3903 
Q 2628 4125 2100 4125 
Q 1550 4125 1298 3923 
Q 1047 3722 1047 3438 
Q 1047 3191 1225 3031 
Q 1400 2872 2139 2705 
Q 2878 2538 3153 2413 
Q 3553 2228 3743 1945 
Q 3934 1663 3934 1294 
Q 3934 928 3725 604 
Q 3516 281 3123 101 
Q 2731 -78 2241 -78 
Q 1619 -78 1198 103 
Q 778 284 539 648 
Q 300 1013 288 1472 
z
" transform="scale(0.015625)"/>
       <path id="ArialMT-44" d="M 494 0 
L 494 4581 
L 2072 4581 
Q 2606 4581 2888 4516 
Q 3281 4425 3559 4188 
Q 3922 3881 4101 3404 
Q 4281 2928 4281 2316 
Q 4281 1794 4159 1391 
Q 4038 988 3847 723 
Q 3656 459 3429 307 
Q 3203 156 2883 78 
Q 2563 0 2147 0 
L 494 0 
z
M 1100 541 
L 2078 541 
Q 2531 541 2789 625 
Q 3047 709 3200 863 
Q 3416 1078 3536 1442 
Q 3656 1806 3656 2325 
Q 3656 3044 3420 3430 
Q 3184 3816 2847 3947 
Q 2603 4041 2063 4041 
L 1100 4041 
L 1100 541 
z
" transform="scale(0.015625)"/>
       <path id="ArialMT-20" transform="scale(0.015625)"/>
       <path id="ArialMT-28" d="M 1497 -1347 
Q 1031 -759 709 28 
Q 388 816 388 1659 
Q 388 2403 628 3084 
Q 909 3875 1497 4659 
L 1900 4659 
Q 1522 4009 1400 3731 
Q 1209 3300 1100 2831 
Q 966 2247 966 1656 
Q 966 153 1900 -1347 
L 1497 -1347 
z
" transform="scale(0.015625)"/>
       <path id="ArialMT-c5" d="M -9 0 
L 1750 4581 
L 2403 4581 
L 4278 0 
L 3588 0 
L 3053 1388 
L 1138 1388 
L 634 0 
L -9 0 
z
M 1313 1881 
L 2866 1881 
L 2388 3150 
Q 2169 3728 2063 4100 
Q 1975 3659 1816 3225 
L 1313 1881 
z
M 1506 5013 
Q 1506 5241 1673 5407 
Q 1841 5573 2069 5573 
Q 2300 5573 2465 5405 
Q 2631 5238 2631 5001 
Q 2631 4760 2465 4594 
Q 2300 4429 2072 4429 
Q 1838 4429 1672 4596 
Q 1506 4763 1506 5013 
z
M 1744 5010 
Q 1744 4863 1842 4763 
Q 1941 4663 2075 4663 
Q 2209 4663 2307 4763 
Q 2406 4863 2406 5004 
Q 2406 5145 2309 5245 
Q 2213 5345 2075 5345 
Q 1941 5345 1842 5246 
Q 1744 5148 1744 5010 
z
" transform="scale(0.015625)"/>
       <path id="ArialMT-29" d="M 791 -1347 
L 388 -1347 
Q 1322 153 1322 1656 
Q 1322 2244 1188 2822 
Q 1081 3291 891 3722 
Q 769 4003 388 4659 
L 791 4659 
Q 1378 3875 1659 3084 
Q 1900 2403 1900 1659 
Q 1900 816 1576 28 
Q 1253 -759 791 -1347 
z
" transform="scale(0.015625)"/>
      </defs>
      <use xlink:href="#ArialMT-52"/>
      <use xlink:href="#ArialMT-4d" transform="translate(72.216797 0)"/>
      <use xlink:href="#ArialMT-53" transform="translate(155.517578 0)"/>
      <use xlink:href="#ArialMT-44" transform="translate(222.216797 0)"/>
      <use xlink:href="#ArialMT-20" transform="translate(294.433594 0)"/>
      <use xlink:href="#ArialMT-28" transform="translate(322.216797 0)"/>
      <use xlink:href="#ArialMT-c5" transform="translate(355.517578 0)"/>
      <use xlink:href="#ArialMT-29" transform="translate(422.216797 0)"/>
     </g>
    </g>
   </g>
   <g id="matplotlib.axis_2">
    <g id="ytick_1">
     <g id="line2d_7">
      <defs>
       <path id="m20a2cea516" d="M 0 0 
L -3.5 0 
" style="stroke: #000000; stroke-width: 0.8"/>
      </defs>
      <g>
       <use xlink:href="#m20a2cea516" x="63" y="320.4" style="stroke: #000000; stroke-width: 0.8"/>
      </g>
     </g>
     <g id="text_8">
      <!-- 0.0 -->
      <g transform="translate(42.1 323.978906) scale(0.1 -0.1)">
       <defs>
        <path id="ArialMT-2e" d="M 581 0 
L 581 641 
L 1222 641 
L 1222 0 
L 581 0 
z
" transform="scale(0.015625)"/>
       </defs>
       <use xlink:href="#ArialMT-30"/>
       <use xlink:href="#ArialMT-2e" transform="translate(55.615234 0)"/>
       <use xlink:href="#ArialMT-30" transform="translate(83.398438 0)"/>
      </g>
     </g>
    </g>
    <g id="ytick_2">
     <g id="line2d_8">
      <g>
       <use xlink:href="#m20a2cea516" x="63" y="267.59906" style="stroke: #000000; stroke-width: 0.8"/>
      </g>
     </g>
     <g id="text_9">
      <!-- 0.2 -->
      <g transform="translate(42.1 271.177966) scale(0.1 -0.1)">
       <use xlink:href="#ArialMT-30"/>
       <use xlink:href="#ArialMT-2e" transform="translate(55.615234 0)"/>
       <use xlink:href="#ArialMT-32" transform="translate(83.398438 0)"/>
      </g>
     </g>
    </g>
    <g id="ytick_3">
     <g id="line2d_9">
      <g>
       <use xlink:href="#m20a2cea516" x="63" y="214.79812" style="stroke: #000000; stroke-width: 0.8"/>
      </g>
     </g>
     <g id="text_10">
      <!-- 0.4 -->
      <g transform="translate(42.1 218.377027) scale(0.1 -0.1)">
       <use xlink:href="#ArialMT-30"/>
       <use xlink:href="#ArialMT-2e" transform="translate(55.615234 0)"/>
       <use xlink:href="#ArialMT-34" transform="translate(83.398438 0)"/>
      </g>
     </g>
    </g>
    <g id="ytick_4">
     <g id="line2d_10">
      <g>
       <use xlink:href="#m20a2cea516" x="63" y="161.99718" style="stroke: #000000; stroke-width: 0.8"/>
      </g>
     </g>
     <g id="text_11">
      <!-- 0.6 -->
      <g transform="translate(42.1 165.576087) scale(0.1 -0.1)">
       <use xlink:href="#ArialMT-30"/>
       <use xlink:href="#ArialMT-2e" transform="translate(55.615234 0)"/>
       <use xlink:href="#ArialMT-36" transform="translate(83.398438 0)"/>
      </g>
     </g>
    </g>
    <g id="ytick_5">
     <g id="line2d_11">
      <g>
       <use xlink:href="#m20a2cea516" x="63" y="109.196241" style="stroke: #000000; stroke-width: 0.8"/>
      </g>
     </g>
     <g id="text_12">
      <!-- 0.8 -->
      <g transform="translate(42.1 112.775147) scale(0.1 -0.1)">
       <use xlink:href="#ArialMT-30"/>
       <use xlink:href="#ArialMT-2e" transform="translate(55.615234 0)"/>
       <use xlink:href="#ArialMT-38" transform="translate(83.398438 0)"/>
      </g>
     </g>
    </g>
    <g id="ytick_6">
     <g id="line2d_12">
      <g>
       <use xlink:href="#m20a2cea516" x="63" y="56.395301" style="stroke: #000000; stroke-width: 0.8"/>
      </g>
     </g>
     <g id="text_13">
      <!-- 1.0 -->
      <g transform="translate(42.1 59.974207) scale(0.1 -0.1)">
       <use xlink:href="#ArialMT-31"/>
       <use xlink:href="#ArialMT-2e" transform="translate(55.615234 0)"/>
       <use xlink:href="#ArialMT-30" transform="translate(83.398438 0)"/>
      </g>
     </g>
    </g>
    <g id="text_14">
     <!-- Cumulative Probability -->
     <g transform="translate(35.995312 231.541406) rotate(-90) scale(0.1 -0.1)">
      <defs>
       <path id="ArialMT-43" d="M 3763 1606 
L 4369 1453 
Q 4178 706 3683 314 
Q 3188 -78 2472 -78 
Q 1731 -78 1267 223 
Q 803 525 561 1097 
Q 319 1669 319 2325 
Q 319 3041 592 3573 
Q 866 4106 1370 4382 
Q 1875 4659 2481 4659 
Q 3169 4659 3637 4309 
Q 4106 3959 4291 3325 
L 3694 3184 
Q 3534 3684 3231 3912 
Q 2928 4141 2469 4141 
Q 1941 4141 1586 3887 
Q 1231 3634 1087 3207 
Q 944 2781 944 2328 
Q 944 1744 1114 1308 
Q 1284 872 1643 656 
Q 2003 441 2422 441 
Q 2931 441 3284 734 
Q 3638 1028 3763 1606 
z
" transform="scale(0.015625)"/>
       <path id="ArialMT-75" d="M 2597 0 
L 2597 488 
Q 2209 -75 1544 -75 
Q 1250 -75 995 37 
Q 741 150 617 320 
Q 494 491 444 738 
Q 409 903 409 1263 
L 409 3319 
L 972 3319 
L 972 1478 
Q 972 1038 1006 884 
Q 1059 663 1231 536 
Q 1403 409 1656 409 
Q 1909 409 2131 539 
Q 2353 669 2445 892 
Q 2538 1116 2538 1541 
L 2538 3319 
L 3100 3319 
L 3100 0 
L 2597 0 
z
" transform="scale(0.015625)"/>
       <path id="ArialMT-6d" d="M 422 0 
L 422 3319 
L 925 3319 
L 925 2853 
Q 1081 3097 1340 3245 
Q 1600 3394 1931 3394 
Q 2300 3394 2536 3241 
Q 2772 3088 2869 2813 
Q 3263 3394 3894 3394 
Q 4388 3394 4653 3120 
Q 4919 2847 4919 2278 
L 4919 0 
L 4359 0 
L 4359 2091 
Q 4359 2428 4304 2576 
Q 4250 2725 4106 2815 
Q 3963 2906 3769 2906 
Q 3419 2906 3187 2673 
Q 2956 2441 2956 1928 
L 2956 0 
L 2394 0 
L 2394 2156 
Q 2394 2531 2256 2718 
Q 2119 2906 1806 2906 
Q 1569 2906 1367 2781 
Q 1166 2656 1075 2415 
Q 984 2175 984 1722 
L 984 0 
L 422 0 
z
" transform="scale(0.015625)"/>
       <path id="ArialMT-6c" d="M 409 0 
L 409 4581 
L 972 4581 
L 972 0 
L 409 0 
z
" transform="scale(0.015625)"/>
       <path id="ArialMT-61" d="M 2588 409 
Q 2275 144 1986 34 
Q 1697 -75 1366 -75 
Q 819 -75 525 192 
Q 231 459 231 875 
Q 231 1119 342 1320 
Q 453 1522 633 1644 
Q 813 1766 1038 1828 
Q 1203 1872 1538 1913 
Q 2219 1994 2541 2106 
Q 2544 2222 2544 2253 
Q 2544 2597 2384 2738 
Q 2169 2928 1744 2928 
Q 1347 2928 1158 2789 
Q 969 2650 878 2297 
L 328 2372 
Q 403 2725 575 2942 
Q 747 3159 1072 3276 
Q 1397 3394 1825 3394 
Q 2250 3394 2515 3294 
Q 2781 3194 2906 3042 
Q 3031 2891 3081 2659 
Q 3109 2516 3109 2141 
L 3109 1391 
Q 3109 606 3145 398 
Q 3181 191 3288 0 
L 2700 0 
Q 2613 175 2588 409 
z
M 2541 1666 
Q 2234 1541 1622 1453 
Q 1275 1403 1131 1340 
Q 988 1278 909 1158 
Q 831 1038 831 891 
Q 831 666 1001 516 
Q 1172 366 1500 366 
Q 1825 366 2078 508 
Q 2331 650 2450 897 
Q 2541 1088 2541 1459 
L 2541 1666 
z
" transform="scale(0.015625)"/>
       <path id="ArialMT-74" d="M 1650 503 
L 1731 6 
Q 1494 -44 1306 -44 
Q 1000 -44 831 53 
Q 663 150 594 308 
Q 525 466 525 972 
L 525 2881 
L 113 2881 
L 113 3319 
L 525 3319 
L 525 4141 
L 1084 4478 
L 1084 3319 
L 1650 3319 
L 1650 2881 
L 1084 2881 
L 1084 941 
Q 1084 700 1114 631 
Q 1144 563 1211 522 
Q 1278 481 1403 481 
Q 1497 481 1650 503 
z
" transform="scale(0.015625)"/>
       <path id="ArialMT-69" d="M 425 3934 
L 425 4581 
L 988 4581 
L 988 3934 
L 425 3934 
z
M 425 0 
L 425 3319 
L 988 3319 
L 988 0 
L 425 0 
z
" transform="scale(0.015625)"/>
       <path id="ArialMT-76" d="M 1344 0 
L 81 3319 
L 675 3319 
L 1388 1331 
Q 1503 1009 1600 663 
Q 1675 925 1809 1294 
L 2547 3319 
L 3125 3319 
L 1869 0 
L 1344 0 
z
" transform="scale(0.015625)"/>
       <path id="ArialMT-65" d="M 2694 1069 
L 3275 997 
Q 3138 488 2766 206 
Q 2394 -75 1816 -75 
Q 1088 -75 661 373 
Q 234 822 234 1631 
Q 234 2469 665 2931 
Q 1097 3394 1784 3394 
Q 2450 3394 2872 2941 
Q 3294 2488 3294 1666 
Q 3294 1616 3291 1516 
L 816 1516 
Q 847 969 1125 678 
Q 1403 388 1819 388 
Q 2128 388 2347 550 
Q 2566 713 2694 1069 
z
M 847 1978 
L 2700 1978 
Q 2663 2397 2488 2606 
Q 2219 2931 1791 2931 
Q 1403 2931 1139 2672 
Q 875 2413 847 1978 
z
" transform="scale(0.015625)"/>
       <path id="ArialMT-50" d="M 494 0 
L 494 4581 
L 2222 4581 
Q 2678 4581 2919 4538 
Q 3256 4481 3484 4323 
Q 3713 4166 3852 3881 
Q 3991 3597 3991 3256 
Q 3991 2672 3619 2267 
Q 3247 1863 2275 1863 
L 1100 1863 
L 1100 0 
L 494 0 
z
M 1100 2403 
L 2284 2403 
Q 2872 2403 3119 2622 
Q 3366 2841 3366 3238 
Q 3366 3525 3220 3729 
Q 3075 3934 2838 4000 
Q 2684 4041 2272 4041 
L 1100 4041 
L 1100 2403 
z
" transform="scale(0.015625)"/>
       <path id="ArialMT-72" d="M 416 0 
L 416 3319 
L 922 3319 
L 922 2816 
Q 1116 3169 1280 3281 
Q 1444 3394 1641 3394 
Q 1925 3394 2219 3213 
L 2025 2691 
Q 1819 2813 1613 2813 
Q 1428 2813 1281 2702 
Q 1134 2591 1072 2394 
Q 978 2094 978 1738 
L 978 0 
L 416 0 
z
" transform="scale(0.015625)"/>
       <path id="ArialMT-6f" d="M 213 1659 
Q 213 2581 725 3025 
Q 1153 3394 1769 3394 
Q 2453 3394 2887 2945 
Q 3322 2497 3322 1706 
Q 3322 1066 3130 698 
Q 2938 331 2570 128 
Q 2203 -75 1769 -75 
Q 1072 -75 642 372 
Q 213 819 213 1659 
z
M 791 1659 
Q 791 1022 1069 705 
Q 1347 388 1769 388 
Q 2188 388 2466 706 
Q 2744 1025 2744 1678 
Q 2744 2294 2464 2611 
Q 2184 2928 1769 2928 
Q 1347 2928 1069 2612 
Q 791 2297 791 1659 
z
" transform="scale(0.015625)"/>
       <path id="ArialMT-62" d="M 941 0 
L 419 0 
L 419 4581 
L 981 4581 
L 981 2947 
Q 1338 3394 1891 3394 
Q 2197 3394 2470 3270 
Q 2744 3147 2920 2923 
Q 3097 2700 3197 2384 
Q 3297 2069 3297 1709 
Q 3297 856 2875 390 
Q 2453 -75 1863 -75 
Q 1275 -75 941 416 
L 941 0 
z
M 934 1684 
Q 934 1088 1097 822 
Q 1363 388 1816 388 
Q 2184 388 2453 708 
Q 2722 1028 2722 1663 
Q 2722 2313 2464 2622 
Q 2206 2931 1841 2931 
Q 1472 2931 1203 2611 
Q 934 2291 934 1684 
z
" transform="scale(0.015625)"/>
       <path id="ArialMT-79" d="M 397 -1278 
L 334 -750 
Q 519 -800 656 -800 
Q 844 -800 956 -737 
Q 1069 -675 1141 -563 
Q 1194 -478 1313 -144 
Q 1328 -97 1363 -6 
L 103 3319 
L 709 3319 
L 1400 1397 
Q 1534 1031 1641 628 
Q 1738 1016 1872 1384 
L 2581 3319 
L 3144 3319 
L 1881 -56 
Q 1678 -603 1566 -809 
Q 1416 -1088 1222 -1217 
Q 1028 -1347 759 -1347 
Q 597 -1347 397 -1278 
z
" transform="scale(0.015625)"/>
      </defs>
      <use xlink:href="#ArialMT-43"/>
      <use xlink:href="#ArialMT-75" transform="translate(72.216797 0)"/>
      <use xlink:href="#ArialMT-6d" transform="translate(127.832031 0)"/>
      <use xlink:href="#ArialMT-75" transform="translate(211.132812 0)"/>
      <use xlink:href="#ArialMT-6c" transform="translate(266.748047 0)"/>
      <use xlink:href="#ArialMT-61" transform="translate(288.964844 0)"/>
      <use xlink:href="#ArialMT-74" transform="translate(344.580078 0)"/>
      <use xlink:href="#ArialMT-69" transform="translate(372.363281 0)"/>
      <use xlink:href="#ArialMT-76" transform="translate(394.580078 0)"/>
      <use xlink:href="#ArialMT-65" transform="translate(444.580078 0)"/>
      <use xlink:href="#ArialMT-20" transform="translate(500.195312 0)"/>
      <use xlink:href="#ArialMT-50" transform="translate(527.978516 0)"/>
      <use xlink:href="#ArialMT-72" transform="translate(594.677734 0)"/>
      <use xlink:href="#ArialMT-6f" transform="translate(627.978516 0)"/>
      <use xlink:href="#ArialMT-62" transform="translate(683.59375 0)"/>
      <use xlink:href="#ArialMT-61" transform="translate(739.208984 0)"/>
      <use xlink:href="#ArialMT-62" transform="translate(794.824219 0)"/>
      <use xlink:href="#ArialMT-69" transform="translate(850.439453 0)"/>
      <use xlink:href="#ArialMT-6c" transform="translate(872.65625 0)"/>
      <use xlink:href="#ArialMT-69" transform="translate(894.873047 0)"/>
      <use xlink:href="#ArialMT-74" transform="translate(917.089844 0)"/>
      <use xlink:href="#ArialMT-79" transform="translate(944.873047 0)"/>
     </g>
    </g>
   </g>
   <g id="line2d_13">
    <path d="M 76.958781 319.463536 
L 78.913511 312.409919 
L 81.147492 303.383457 
L 83.939964 291.003508 
L 92.59663 251.690607 
L 94.830609 242.968959 
L 96.785341 236.185307 
L 98.74007 230.256763 
L 100.415553 225.863106 
L 102.091037 222.084096 
L 103.766521 218.881546 
L 105.442008 216.204818 
L 107.117492 213.996104 
L 108.792972 212.195039 
L 110.468463 210.742368 
L 112.143946 209.58256 
L 114.098675 208.532977 
L 116.053403 207.744767 
L 118.287384 207.090353 
L 120.800609 206.586284 
L 123.872332 206.198576 
L 128.061041 205.906338 
L 141.464917 205.141666 
L 145.653627 204.605069 
L 150.12158 203.807171 
L 157.940509 202.117359 
L 163.525449 201.036547 
L 168.5519 200.30068 
L 182.514267 198.436732 
L 187.81997 197.365424 
L 198.710613 195.089532 
L 205.133303 194.076937 
L 210.438999 193.182442 
L 213.789966 192.389117 
L 216.582444 191.501886 
L 219.374921 190.368877 
L 222.167384 188.986034 
L 225.518351 187.047536 
L 231.382552 183.309475 
L 235.850513 180.60533 
L 239.480725 178.67573 
L 244.786421 176.164054 
L 248.695892 174.212079 
L 251.488355 172.557626 
L 254.001588 170.78834 
L 256.514806 168.712101 
L 259.028039 166.327554 
L 261.820502 163.361676 
L 265.450729 159.162761 
L 273.548902 149.688396 
L 276.62061 146.470263 
L 279.413087 143.838443 
L 282.205565 141.50354 
L 284.998043 139.446697 
L 288.34901 137.267144 
L 297.564163 131.488345 
L 300.077396 129.536959 
L 302.311369 127.536489 
L 304.545342 125.245292 
L 306.77933 122.641046 
L 309.013303 119.718009 
L 311.526536 116.061773 
L 314.318999 111.586704 
L 317.669966 105.755286 
L 322.696432 96.473102 
L 328.281358 86.268999 
L 331.632325 80.624712 
L 334.424803 76.343756 
L 336.93805 72.861132 
L 339.451268 69.734707 
L 341.964486 66.948447 
L 344.477704 64.47405 
L 347.270182 62.051921 
L 350.06266 59.937613 
L 352.855137 58.104596 
L 355.647615 56.537707 
L 355.926845 56.395301 
L 355.926845 56.395301 
" clip-path="url(#p94bd28f304)" style="fill: none; stroke: #1f77b4; stroke-width: 1.5; stroke-linecap: square"/>
   </g>
   <g id="line2d_14">
    <path d="M 75.0407 318.851159 
L 76.236402 303.219952 
L 78.229239 273.329688 
L 80.487787 240.544873 
L 82.214913 218.646206 
L 88.326278 144.531958 
L 90.186259 121.48725 
L 91.38196 109.199297 
L 92.444807 100.591647 
L 93.374799 94.874422 
L 94.171934 91.192057 
L 94.969066 88.465633 
L 95.766201 86.519072 
L 96.563336 85.18215 
L 97.360471 84.30214 
L 98.157606 83.74947 
L 99.087595 83.380659 
L 100.283299 83.160974 
L 102.276135 83.058725 
L 106.793233 82.869277 
L 108.254646 82.553313 
L 109.450346 82.070638 
L 110.646051 81.353326 
L 112.240321 80.113663 
L 115.428857 77.578666 
L 119.015963 74.869885 
L 121.67308 72.76816 
L 123.001638 72.025231 
L 124.197339 71.60237 
L 125.658755 71.338259 
L 127.784441 71.220063 
L 134.560087 71.200479 
L 188.233815 71.090707 
L 189.828093 70.835083 
L 191.02379 70.437123 
L 192.219502 69.805099 
L 193.548049 68.838227 
L 195.939458 66.742593 
L 206.302209 57.666633 
L 207.763622 56.395301 
L 207.763622 56.395301 
" clip-path="url(#p94bd28f304)" style="fill: none; stroke: #ff7f0e; stroke-width: 1.5; stroke-linecap: square"/>
   </g>
   <g id="line2d_15">
    <path d="M 72.586679 319.056946 
L 73.711389 308.422387 
L 75.157444 292.341018 
L 78.531574 251.392722 
L 80.780995 222.155788 
L 82.709067 193.889864 
L 86.886562 130.978999 
L 88.171945 115.668725 
L 89.296654 105.00103 
L 90.26069 97.940315 
L 91.064057 93.421158 
L 91.86742 89.988297 
L 92.670783 87.46595 
L 93.474147 85.673044 
L 94.277514 84.440623 
L 95.080877 83.622243 
L 95.88424 83.098205 
L 96.848276 82.728542 
L 98.133661 82.493669 
L 100.222406 82.382134 
L 107.452683 82.363403 
L 136.695145 82.255957 
L 138.462548 81.994453 
L 139.747929 81.59627 
L 141.033311 80.9627 
L 142.479368 79.967523 
L 144.40744 78.319853 
L 154.369153 69.398418 
L 157.421937 66.988486 
L 158.867995 66.139039 
L 160.153376 65.631484 
L 161.599434 65.308748 
L 163.527506 65.139379 
L 167.383657 65.091143 
L 198.393507 64.96009 
L 200.000241 64.701465 
L 201.285622 64.293887 
L 202.571004 63.663392 
L 204.177723 62.607205 
L 207.069838 60.65204 
L 208.35522 60.054874 
L 209.801285 59.644542 
L 211.408004 59.431963 
L 214.13945 59.340888 
L 227.314616 59.127505 
L 228.760666 58.819886 
L 230.046048 58.333175 
L 231.492113 57.521008 
L 233.098832 56.395301 
L 233.098832 56.395301 
" clip-path="url(#p94bd28f304)" style="fill: none; stroke: #2ca02c; stroke-width: 1.5; stroke-linecap: square"/>
   </g>
   <g id="line2d_16">
    <path d="M 249.661217 320.301315 
L 251.054074 318.688161 
L 252.214785 317.731046 
L 253.143366 316.886821 
L 253.76241 316.012146 
L 254.381454 314.728417 
L 255.07789 312.730487 
L 256.006471 309.32277 
L 258.018371 301.71649 
L 258.86956 299.370859 
L 259.643373 297.816071 
L 260.571954 296.451325 
L 261.655288 294.856169 
L 262.351709 293.391942 
L 263.125522 291.157801 
L 264.286233 286.957655 
L 265.679089 282.123298 
L 268.000527 274.635043 
L 269.161238 269.612089 
L 270.78624 261.503272 
L 272.024343 254.207314 
L 273.494576 244.060018 
L 276.202927 223.595761 
L 278.292204 206.288415 
L 282.548166 169.58064 
L 284.869603 154.448886 
L 286.726735 142.930927 
L 287.732693 138.043545 
L 289.048173 132.879653 
L 290.90532 125.503849 
L 292.762466 118.169473 
L 293.768424 115.153929 
L 294.851759 112.679551 
L 296.554137 108.923665 
L 297.482718 106.195445 
L 298.488661 102.485687 
L 300.345808 95.476969 
L 301.11962 93.505795 
L 301.816056 92.339444 
L 302.667245 91.393245 
L 303.673188 90.269454 
L 304.292247 89.249032 
L 304.988668 87.631312 
L 305.76248 85.231114 
L 307.000583 80.527623 
L 308.470817 75.165036 
L 309.322006 72.871933 
L 310.018441 71.560874 
L 310.714877 70.694067 
L 311.566066 70.020015 
L 312.881546 69.035839 
L 313.577982 68.205 
L 314.351779 66.90394 
L 315.512506 64.402417 
L 316.827956 61.664011 
L 317.601783 60.513759 
L 318.298219 59.839911 
L 318.994625 59.452655 
L 319.845844 59.235604 
L 321.238685 59.144419 
L 323.714891 58.98203 
L 324.56608 58.698316 
L 325.339908 58.19897 
L 326.191067 57.349426 
L 326.964895 56.395301 
L 326.964895 56.395301 
" clip-path="url(#p94bd28f304)" style="fill: none; stroke: #d62728; stroke-width: 1.5; stroke-linecap: square"/>
   </g>
   <g id="line2d_17">
    <path d="M 217.394416 320.273445 
L 222.786681 313.170451 
L 224.394906 311.868977 
L 225.435506 310.864597 
L 226.476122 309.535755 
L 227.895143 307.32464 
L 228.935759 305.31693 
L 229.787157 303.190339 
L 230.733171 300.172783 
L 232.057591 295.062426 
L 235.368625 282.085262 
L 236.882248 275.687513 
L 238.206668 269.122154 
L 239.720276 260.377187 
L 242.369115 244.754721 
L 244.071926 235.122881 
L 245.01794 228.156741 
L 246.153157 217.867563 
L 248.32899 197.861463 
L 249.653395 188.084315 
L 258.735101 126.54368 
L 261.100136 111.932182 
L 262.235353 106.179099 
L 263.086751 102.865366 
L 263.938164 100.409251 
L 264.789577 98.615458 
L 266.303199 96.115183 
L 267.249214 94.301647 
L 268.195213 91.954796 
L 271.411646 83.296783 
L 272.168458 82.118596 
L 272.925269 81.335965 
L 274.060486 80.546783 
L 274.911899 79.857476 
L 275.574109 79.044797 
L 276.33092 77.720172 
L 277.371521 75.362786 
L 278.69594 72.440998 
L 279.452752 71.272503 
L 280.114947 70.616528 
L 280.777172 70.239615 
L 281.62857 70.018752 
L 283.047591 69.929372 
L 287.30464 69.754661 
L 288.156052 69.472856 
L 288.912864 68.991088 
L 289.669675 68.227765 
L 290.521073 67.027618 
L 291.750906 64.851556 
L 293.548318 61.684913 
L 294.494332 60.476692 
L 295.251144 59.838025 
L 296.007955 59.460022 
L 296.953954 59.241007 
L 298.467577 59.154256 
L 308.779102 58.913876 
L 309.6305 58.567772 
L 310.387311 58.033207 
L 311.333325 57.067674 
L 311.900934 56.395301 
L 311.900934 56.395301 
" clip-path="url(#p94bd28f304)" style="fill: none; stroke: #9467bd; stroke-width: 1.5; stroke-linecap: square"/>
   </g>
   <g id="line2d_18">
    <path d="M 193.537351 320.203891 
L 196.475493 314.141118 
L 198.495469 310.719488 
L 200.423631 307.327671 
L 201.617256 304.771411 
L 202.902697 301.459899 
L 206.66719 291.24864 
L 207.677186 289.442284 
L 208.778982 287.970252 
L 212.451674 283.489718 
L 213.737115 281.416042 
L 214.747096 279.334251 
L 215.573446 277.128952 
L 216.399812 274.308167 
L 217.317978 270.338644 
L 218.419788 264.449231 
L 219.980674 254.647687 
L 223.561537 230.306518 
L 227.050584 206.581592 
L 228.24421 200.038737 
L 229.254191 195.618243 
L 230.172372 192.484376 
L 231.182367 189.831486 
L 232.284163 187.56156 
L 234.120509 184.377781 
L 235.865026 181.244984 
L 236.875021 178.994719 
L 237.793187 176.389306 
L 238.711353 173.06698 
L 239.813164 168.115515 
L 242.1086 156.270278 
L 243.761301 148.518527 
L 245.046742 143.479262 
L 246.148553 140.011642 
L 247.158534 137.568705 
L 248.35216 135.33031 
L 249.913046 132.405234 
L 250.831211 130.12266 
L 251.749392 127.190611 
L 252.759373 123.187468 
L 254.136629 116.688776 
L 259.278392 91.378834 
L 260.472003 86.90584 
L 261.481999 83.957062 
L 262.491995 81.680782 
L 264.052881 78.810323 
L 268.276464 71.502672 
L 269.745535 69.66183 
L 273.418227 65.202338 
L 276.54 61.453781 
L 277.733625 60.371888 
L 278.743621 59.753367 
L 279.845417 59.349883 
L 282.691759 58.465484 
L 283.70174 57.808344 
L 284.987166 56.662691 
L 285.262626 56.395301 
L 285.262626 56.395301 
" clip-path="url(#p94bd28f304)" style="fill: none; stroke: #8c564b; stroke-width: 1.5; stroke-linecap: square"/>
   </g>
   <g id="line2d_19">
    <path d="M 124.910895 320.231999 
L 128.133828 317.84629 
L 130.067585 316.69671 
L 131.78648 315.915284 
L 133.720244 315.280853 
L 136.298591 314.690604 
L 140.595833 313.727043 
L 143.17418 312.906336 
L 151.553803 309.994981 
L 153.917282 309.556981 
L 156.710489 309.284555 
L 160.578017 309.158032 
L 178.196708 308.841628 
L 180.775055 308.452572 
L 182.92368 307.910544 
L 185.072304 307.144782 
L 187.435775 306.056905 
L 190.014122 304.615582 
L 192.592469 302.919588 
L 194.955955 301.110057 
L 197.534301 298.841004 
L 201.61669 294.866878 
L 204.624759 292.081296 
L 206.773384 290.393547 
L 208.707133 289.162241 
L 210.640897 288.206732 
L 212.789521 287.411662 
L 216.227312 286.433885 
L 219.665103 285.384553 
L 223.31777 284.001379 
L 227.185282 282.593646 
L 229.548768 281.969418 
L 232.127115 281.52751 
L 239.217558 280.497479 
L 240.721599 279.956083 
L 242.010765 279.276559 
L 243.299946 278.342709 
L 244.589112 277.106286 
L 245.878293 275.529899 
L 247.167459 273.594032 
L 248.671501 270.888786 
L 250.390404 267.280763 
L 252.753875 261.729082 
L 256.406541 253.145693 
L 258.340305 249.227764 
L 259.844332 246.632255 
L 261.348374 244.438184 
L 262.852401 242.602549 
L 264.571304 240.854919 
L 266.505053 239.203417 
L 269.083399 237.310749 
L 272.306344 235.229218 
L 275.314413 233.54175 
L 278.107621 232.233618 
L 282.619716 230.442376 
L 285.412924 229.191178 
L 287.561549 227.99239 
L 289.710174 226.546739 
L 292.07366 224.68162 
L 294.652006 222.346611 
L 297.015492 219.92086 
L 299.164102 217.417964 
L 301.097866 214.838888 
L 302.816769 212.20629 
L 304.535657 209.172182 
L 306.25456 205.651015 
L 307.973463 201.551612 
L 309.477489 197.416143 
L 311.196392 191.980409 
L 312.91528 185.711187 
L 314.634168 178.553125 
L 316.567947 169.420969 
L 318.501696 159.208981 
L 320.865167 145.521018 
L 329.674527 93.007044 
L 331.608276 83.362302 
L 333.327194 75.759361 
L 335.046082 69.126621 
L 336.550109 64.135389 
L 338.054165 59.898557 
L 339.343331 56.852126 
L 339.558192 56.395301 
L 339.558192 56.395301 
" clip-path="url(#p94bd28f304)" style="fill: none; stroke: #e377c2; stroke-width: 1.5; stroke-linecap: square"/>
   </g>
   <g id="patch_3">
    <path d="M 63 320.4 
L 63 43.2 
" style="fill: none; stroke: #000000; stroke-width: 0.8; stroke-linejoin: miter; stroke-linecap: square"/>
   </g>
   <g id="patch_4">
    <path d="M 453.6 320.4 
L 453.6 43.2 
" style="fill: none; stroke: #000000; stroke-width: 0.8; stroke-linejoin: miter; stroke-linecap: square"/>
   </g>
   <g id="patch_5">
    <path d="M 63 320.4 
L 453.6 320.4 
" style="fill: none; stroke: #000000; stroke-width: 0.8; stroke-linejoin: miter; stroke-linecap: square"/>
   </g>
   <g id="patch_6">
    <path d="M 63 43.2 
L 453.6 43.2 
" style="fill: none; stroke: #000000; stroke-width: 0.8; stroke-linejoin: miter; stroke-linecap: square"/>
   </g>
   <g id="legend_1">
    <g id="patch_7">
     <path d="M 326.9 315.4 
L 446.6 315.4 
Q 448.6 315.4 448.6 313.4 
L 448.6 213.334375 
Q 448.6 211.334375 446.6 211.334375 
L 326.9 211.334375 
Q 324.9 211.334375 324.9 213.334375 
L 324.9 313.4 
Q 324.9 315.4 326.9 315.4 
z
" style="fill: #ffffff; opacity: 0.8; stroke: #cccccc; stroke-linejoin: miter"/>
    </g>
    <g id="line2d_20">
     <path d="M 328.9 218.992188 
L 338.9 218.992188 
L 348.9 218.992188 
" style="fill: none; stroke: #1f77b4; stroke-width: 1.5; stroke-linecap: square"/>
    </g>
    <g id="text_15">
     <!-- $+\text{MSA}$ -->
     <g transform="translate(356.9 222.492188) scale(0.1 -0.1)">
      <defs>
       <path id="DejaVuSans-2b" d="M 2944 4013 
L 2944 2272 
L 4684 2272 
L 4684 1741 
L 2944 1741 
L 2944 0 
L 2419 0 
L 2419 1741 
L 678 1741 
L 678 2272 
L 2419 2272 
L 2419 4013 
L 2944 4013 
z
" transform="scale(0.015625)"/>
       <path id="DejaVuSans-4d" d="M 628 4666 
L 1569 4666 
L 2759 1491 
L 3956 4666 
L 4897 4666 
L 4897 0 
L 4281 0 
L 4281 4097 
L 3078 897 
L 2444 897 
L 1241 4097 
L 1241 0 
L 628 0 
L 628 4666 
z
" transform="scale(0.015625)"/>
       <path id="DejaVuSans-53" d="M 3425 4513 
L 3425 3897 
Q 3066 4069 2747 4153 
Q 2428 4238 2131 4238 
Q 1616 4238 1336 4038 
Q 1056 3838 1056 3469 
Q 1056 3159 1242 3001 
Q 1428 2844 1947 2747 
L 2328 2669 
Q 3034 2534 3370 2195 
Q 3706 1856 3706 1288 
Q 3706 609 3251 259 
Q 2797 -91 1919 -91 
Q 1588 -91 1214 -16 
Q 841 59 441 206 
L 441 856 
Q 825 641 1194 531 
Q 1563 422 1919 422 
Q 2459 422 2753 634 
Q 3047 847 3047 1241 
Q 3047 1584 2836 1778 
Q 2625 1972 2144 2069 
L 1759 2144 
Q 1053 2284 737 2584 
Q 422 2884 422 3419 
Q 422 4038 858 4394 
Q 1294 4750 2059 4750 
Q 2388 4750 2728 4690 
Q 3069 4631 3425 4513 
z
" transform="scale(0.015625)"/>
       <path id="DejaVuSans-41" d="M 2188 4044 
L 1331 1722 
L 3047 1722 
L 2188 4044 
z
M 1831 4666 
L 2547 4666 
L 4325 0 
L 3669 0 
L 3244 1197 
L 1141 1197 
L 716 0 
L 50 0 
L 1831 4666 
z
" transform="scale(0.015625)"/>
      </defs>
      <use xlink:href="#DejaVuSans-2b" transform="translate(0 0.78125)"/>
      <use xlink:href="#DejaVuSans-4d" transform="translate(83.789062 0.78125)"/>
      <use xlink:href="#DejaVuSans-53" transform="translate(170.068359 0.78125)"/>
      <use xlink:href="#DejaVuSans-41" transform="translate(233.544922 0.78125)"/>
     </g>
    </g>
    <g id="line2d_21">
     <path d="M 328.9 233.479688 
L 338.9 233.479688 
L 348.9 233.479688 
" style="fill: none; stroke: #ff7f0e; stroke-width: 1.5; stroke-linecap: square"/>
    </g>
    <g id="text_16">
     <!-- $+\text{MSA} + \text{Sym}$ -->
     <g transform="translate(356.9 236.979688) scale(0.1 -0.1)">
      <defs>
       <path id="DejaVuSans-79" d="M 2059 -325 
Q 1816 -950 1584 -1140 
Q 1353 -1331 966 -1331 
L 506 -1331 
L 506 -850 
L 844 -850 
Q 1081 -850 1212 -737 
Q 1344 -625 1503 -206 
L 1606 56 
L 191 3500 
L 800 3500 
L 1894 763 
L 2988 3500 
L 3597 3500 
L 2059 -325 
z
" transform="scale(0.015625)"/>
       <path id="DejaVuSans-6d" d="M 3328 2828 
Q 3544 3216 3844 3400 
Q 4144 3584 4550 3584 
Q 5097 3584 5394 3201 
Q 5691 2819 5691 2113 
L 5691 0 
L 5113 0 
L 5113 2094 
Q 5113 2597 4934 2840 
Q 4756 3084 4391 3084 
Q 3944 3084 3684 2787 
Q 3425 2491 3425 1978 
L 3425 0 
L 2847 0 
L 2847 2094 
Q 2847 2600 2669 2842 
Q 2491 3084 2119 3084 
Q 1678 3084 1418 2786 
Q 1159 2488 1159 1978 
L 1159 0 
L 581 0 
L 581 3500 
L 1159 3500 
L 1159 2956 
Q 1356 3278 1631 3431 
Q 1906 3584 2284 3584 
Q 2666 3584 2933 3390 
Q 3200 3197 3328 2828 
z
" transform="scale(0.015625)"/>
      </defs>
      <use xlink:href="#DejaVuSans-2b" transform="translate(0 0.78125)"/>
      <use xlink:href="#DejaVuSans-4d" transform="translate(83.789062 0.78125)"/>
      <use xlink:href="#DejaVuSans-53" transform="translate(170.068359 0.78125)"/>
      <use xlink:href="#DejaVuSans-41" transform="translate(233.544922 0.78125)"/>
      <use xlink:href="#DejaVuSans-2b" transform="translate(321.435547 0.78125)"/>
      <use xlink:href="#DejaVuSans-53" transform="translate(424.707031 0.78125)"/>
      <use xlink:href="#DejaVuSans-79" transform="translate(488.183594 0.78125)"/>
      <use xlink:href="#DejaVuSans-6d" transform="translate(547.363281 0.78125)"/>
     </g>
    </g>
    <g id="line2d_22">
     <path d="M 328.9 248.179688 
L 338.9 248.179688 
L 348.9 248.179688 
" style="fill: none; stroke: #2ca02c; stroke-width: 1.5; stroke-linecap: square"/>
    </g>
    <g id="text_17">
     <!-- $+\text{MSA} + \text{Sym+Ori}$ -->
     <g transform="translate(356.9 251.679688) scale(0.1 -0.1)">
      <defs>
       <path id="DejaVuSans-4f" d="M 2522 4238 
Q 1834 4238 1429 3725 
Q 1025 3213 1025 2328 
Q 1025 1447 1429 934 
Q 1834 422 2522 422 
Q 3209 422 3611 934 
Q 4013 1447 4013 2328 
Q 4013 3213 3611 3725 
Q 3209 4238 2522 4238 
z
M 2522 4750 
Q 3503 4750 4090 4092 
Q 4678 3434 4678 2328 
Q 4678 1225 4090 567 
Q 3503 -91 2522 -91 
Q 1538 -91 948 565 
Q 359 1222 359 2328 
Q 359 3434 948 4092 
Q 1538 4750 2522 4750 
z
" transform="scale(0.015625)"/>
       <path id="DejaVuSans-72" d="M 2631 2963 
Q 2534 3019 2420 3045 
Q 2306 3072 2169 3072 
Q 1681 3072 1420 2755 
Q 1159 2438 1159 1844 
L 1159 0 
L 581 0 
L 581 3500 
L 1159 3500 
L 1159 2956 
Q 1341 3275 1631 3429 
Q 1922 3584 2338 3584 
Q 2397 3584 2469 3576 
Q 2541 3569 2628 3553 
L 2631 2963 
z
" transform="scale(0.015625)"/>
       <path id="DejaVuSans-69" d="M 603 3500 
L 1178 3500 
L 1178 0 
L 603 0 
L 603 3500 
z
M 603 4863 
L 1178 4863 
L 1178 4134 
L 603 4134 
L 603 4863 
z
" transform="scale(0.015625)"/>
      </defs>
      <use xlink:href="#DejaVuSans-2b" transform="translate(0 0.015625)"/>
      <use xlink:href="#DejaVuSans-4d" transform="translate(83.789062 0.015625)"/>
      <use xlink:href="#DejaVuSans-53" transform="translate(170.068359 0.015625)"/>
      <use xlink:href="#DejaVuSans-41" transform="translate(233.544922 0.015625)"/>
      <use xlink:href="#DejaVuSans-2b" transform="translate(321.435547 0.015625)"/>
      <use xlink:href="#DejaVuSans-53" transform="translate(424.707031 0.015625)"/>
      <use xlink:href="#DejaVuSans-79" transform="translate(488.183594 0.015625)"/>
      <use xlink:href="#DejaVuSans-6d" transform="translate(547.363281 0.015625)"/>
      <use xlink:href="#DejaVuSans-2b" transform="translate(644.775391 0.015625)"/>
      <use xlink:href="#DejaVuSans-4f" transform="translate(728.564453 0.015625)"/>
      <use xlink:href="#DejaVuSans-72" transform="translate(807.275391 0.015625)"/>
      <use xlink:href="#DejaVuSans-69" transform="translate(848.388672 0.015625)"/>
     </g>
    </g>
    <g id="line2d_23">
     <path d="M 328.9 262.4375 
L 338.9 262.4375 
L 348.9 262.4375 
" style="fill: none; stroke: #d62728; stroke-width: 1.5; stroke-linecap: square"/>
    </g>
    <g id="text_18">
     <!-- $-\text{MSA}$ -->
     <g transform="translate(356.9 265.9375) scale(0.1 -0.1)">
      <defs>
       <path id="DejaVuSans-2212" d="M 678 2272 
L 4684 2272 
L 4684 1741 
L 678 1741 
L 678 2272 
z
" transform="scale(0.015625)"/>
      </defs>
      <use xlink:href="#DejaVuSans-2212" transform="translate(0 0.78125)"/>
      <use xlink:href="#DejaVuSans-4d" transform="translate(83.789062 0.78125)"/>
      <use xlink:href="#DejaVuSans-53" transform="translate(170.068359 0.78125)"/>
      <use xlink:href="#DejaVuSans-41" transform="translate(233.544922 0.78125)"/>
     </g>
    </g>
    <g id="line2d_24">
     <path d="M 328.9 276.925 
L 338.9 276.925 
L 348.9 276.925 
" style="fill: none; stroke: #9467bd; stroke-width: 1.5; stroke-linecap: square"/>
    </g>
    <g id="text_19">
     <!-- $-\text{MSA} + \text{Sym}$ -->
     <g transform="translate(356.9 280.425) scale(0.1 -0.1)">
      <use xlink:href="#DejaVuSans-2212" transform="translate(0 0.78125)"/>
      <use xlink:href="#DejaVuSans-4d" transform="translate(83.789062 0.78125)"/>
      <use xlink:href="#DejaVuSans-53" transform="translate(170.068359 0.78125)"/>
      <use xlink:href="#DejaVuSans-41" transform="translate(233.544922 0.78125)"/>
      <use xlink:href="#DejaVuSans-2b" transform="translate(321.435547 0.78125)"/>
      <use xlink:href="#DejaVuSans-53" transform="translate(424.707031 0.78125)"/>
      <use xlink:href="#DejaVuSans-79" transform="translate(488.183594 0.78125)"/>
      <use xlink:href="#DejaVuSans-6d" transform="translate(547.363281 0.78125)"/>
     </g>
    </g>
    <g id="line2d_25">
     <path d="M 328.9 291.625 
L 338.9 291.625 
L 348.9 291.625 
" style="fill: none; stroke: #8c564b; stroke-width: 1.5; stroke-linecap: square"/>
    </g>
    <g id="text_20">
     <!-- $-\text{MSA} + \text{Sym+Ori}$ -->
     <g transform="translate(356.9 295.125) scale(0.1 -0.1)">
      <use xlink:href="#DejaVuSans-2212" transform="translate(0 0.015625)"/>
      <use xlink:href="#DejaVuSans-4d" transform="translate(83.789062 0.015625)"/>
      <use xlink:href="#DejaVuSans-53" transform="translate(170.068359 0.015625)"/>
      <use xlink:href="#DejaVuSans-41" transform="translate(233.544922 0.015625)"/>
      <use xlink:href="#DejaVuSans-2b" transform="translate(321.435547 0.015625)"/>
      <use xlink:href="#DejaVuSans-53" transform="translate(424.707031 0.015625)"/>
      <use xlink:href="#DejaVuSans-79" transform="translate(488.183594 0.015625)"/>
      <use xlink:href="#DejaVuSans-6d" transform="translate(547.363281 0.015625)"/>
      <use xlink:href="#DejaVuSans-2b" transform="translate(644.775391 0.015625)"/>
      <use xlink:href="#DejaVuSans-4f" transform="translate(728.564453 0.015625)"/>
      <use xlink:href="#DejaVuSans-72" transform="translate(807.275391 0.015625)"/>
      <use xlink:href="#DejaVuSans-69" transform="translate(848.388672 0.015625)"/>
     </g>
    </g>
    <g id="line2d_26">
     <path d="M 328.9 305.9125 
L 338.9 305.9125 
L 348.9 305.9125 
" style="fill: none; stroke: #e377c2; stroke-width: 1.5; stroke-linecap: square"/>
    </g>
    <g id="text_21">
     <!-- AlphaFold 2 -->
     <g transform="translate(356.9 309.4125) scale(0.1 -0.1)">
      <defs>
       <path id="ArialMT-41" d="M -9 0 
L 1750 4581 
L 2403 4581 
L 4278 0 
L 3588 0 
L 3053 1388 
L 1138 1388 
L 634 0 
L -9 0 
z
M 1313 1881 
L 2866 1881 
L 2388 3150 
Q 2169 3728 2063 4100 
Q 1975 3659 1816 3225 
L 1313 1881 
z
" transform="scale(0.015625)"/>
       <path id="ArialMT-70" d="M 422 -1272 
L 422 3319 
L 934 3319 
L 934 2888 
Q 1116 3141 1344 3267 
Q 1572 3394 1897 3394 
Q 2322 3394 2647 3175 
Q 2972 2956 3137 2557 
Q 3303 2159 3303 1684 
Q 3303 1175 3120 767 
Q 2938 359 2589 142 
Q 2241 -75 1856 -75 
Q 1575 -75 1351 44 
Q 1128 163 984 344 
L 984 -1272 
L 422 -1272 
z
M 931 1641 
Q 931 1000 1190 694 
Q 1450 388 1819 388 
Q 2194 388 2461 705 
Q 2728 1022 2728 1688 
Q 2728 2322 2467 2637 
Q 2206 2953 1844 2953 
Q 1484 2953 1207 2617 
Q 931 2281 931 1641 
z
" transform="scale(0.015625)"/>
       <path id="ArialMT-68" d="M 422 0 
L 422 4581 
L 984 4581 
L 984 2938 
Q 1378 3394 1978 3394 
Q 2347 3394 2619 3248 
Q 2891 3103 3008 2847 
Q 3125 2591 3125 2103 
L 3125 0 
L 2563 0 
L 2563 2103 
Q 2563 2525 2380 2717 
Q 2197 2909 1863 2909 
Q 1613 2909 1392 2779 
Q 1172 2650 1078 2428 
Q 984 2206 984 1816 
L 984 0 
L 422 0 
z
" transform="scale(0.015625)"/>
       <path id="ArialMT-46" d="M 525 0 
L 525 4581 
L 3616 4581 
L 3616 4041 
L 1131 4041 
L 1131 2622 
L 3281 2622 
L 3281 2081 
L 1131 2081 
L 1131 0 
L 525 0 
z
" transform="scale(0.015625)"/>
       <path id="ArialMT-64" d="M 2575 0 
L 2575 419 
Q 2259 -75 1647 -75 
Q 1250 -75 917 144 
Q 584 363 401 755 
Q 219 1147 219 1656 
Q 219 2153 384 2558 
Q 550 2963 881 3178 
Q 1213 3394 1622 3394 
Q 1922 3394 2156 3267 
Q 2391 3141 2538 2938 
L 2538 4581 
L 3097 4581 
L 3097 0 
L 2575 0 
z
M 797 1656 
Q 797 1019 1065 703 
Q 1334 388 1700 388 
Q 2069 388 2326 689 
Q 2584 991 2584 1609 
Q 2584 2291 2321 2609 
Q 2059 2928 1675 2928 
Q 1300 2928 1048 2622 
Q 797 2316 797 1656 
z
" transform="scale(0.015625)"/>
      </defs>
      <use xlink:href="#ArialMT-41"/>
      <use xlink:href="#ArialMT-6c" transform="translate(66.699219 0)"/>
      <use xlink:href="#ArialMT-70" transform="translate(88.916016 0)"/>
      <use xlink:href="#ArialMT-68" transform="translate(144.53125 0)"/>
      <use xlink:href="#ArialMT-61" transform="translate(200.146484 0)"/>
      <use xlink:href="#ArialMT-46" transform="translate(255.761719 0)"/>
      <use xlink:href="#ArialMT-6f" transform="translate(316.845703 0)"/>
      <use xlink:href="#ArialMT-6c" transform="translate(372.460938 0)"/>
      <use xlink:href="#ArialMT-64" transform="translate(394.677734 0)"/>
      <use xlink:href="#ArialMT-20" transform="translate(450.292969 0)"/>
      <use xlink:href="#ArialMT-32" transform="translate(478.076172 0)"/>
     </g>
    </g>
   </g>
  </g>
 </g>
 <defs>
  <clipPath id="p94bd28f304">
   <rect x="63" y="43.2" width="390.6" height="277.2"/>
  </clipPath>
 </defs>
</svg>
