<?xml version="1.0" encoding="utf-8" standalone="no"?>
<!DOCTYPE svg PUBLIC "-//W3C//DTD SVG 1.1//EN"
  "http://www.w3.org/Graphics/SVG/1.1/DTD/svg11.dtd">
<svg xmlns:xlink="http://www.w3.org/1999/xlink" width="432pt" height="288pt" viewBox="0 0 432 288" xmlns="http://www.w3.org/2000/svg" version="1.1">
 <metadata>
  <rdf:RDF xmlns:dc="http://purl.org/dc/elements/1.1/" xmlns:cc="http://creativecommons.org/ns#" xmlns:rdf="http://www.w3.org/1999/02/22-rdf-syntax-ns#">
   <cc:Work>
    <dc:type rdf:resource="http://purl.org/dc/dcmitype/StillImage"/>
    <dc:date>2025-07-03T13:00:41.556344</dc:date>
    <dc:format>image/svg+xml</dc:format>
    <dc:creator>
     <cc:Agent>
      <dc:title>Matplotlib v3.10.1, https://matplotlib.org/</dc:title>
     </cc:Agent>
    </dc:creator>
   </cc:Work>
  </rdf:RDF>
 </metadata>
 <defs>
  <style type="text/css">*{stroke-linejoin: round; stroke-linecap: butt}</style>
 </defs>
 <g id="figure_1">
  <g id="patch_1">
   <path d="M 0 288 
L 432 288 
L 432 0 
L 0 0 
z
" style="fill: #ffffff"/>
  </g>
  <g id="axes_1">
   <g id="patch_2">
    <path d="M 54 256.32 
L 388.8 256.32 
L 388.8 34.56 
L 54 34.56 
z
" style="fill: #ffffff"/>
   </g>
   <g id="matplotlib.axis_1">
    <g id="xtick_1">
     <g id="line2d_1">
      <defs>
       <path id="m9fbc9f5041" d="M 0 0 
L 0 3.5 
" style="stroke: #000000; stroke-width: 0.8"/>
      </defs>
      <g>
       <use xlink:href="#m9fbc9f5041" x="56.402619" y="256.32" style="stroke: #000000; stroke-width: 0.8"/>
      </g>
     </g>
     <g id="text_1">
      <!-- 2 -->
      <g transform="translate(53.62215 270.477813) scale(0.1 -0.1)">
       <defs>
        <path id="ArialMT-32" d="M 3222 541 
L 3222 0 
L 194 0 
Q 188 203 259 391 
Q 375 700 629 1000 
Q 884 1300 1366 1694 
Q 2113 2306 2375 2664 
Q 2638 3022 2638 3341 
Q 2638 3675 2398 3904 
Q 2159 4134 1775 4134 
Q 1369 4134 1125 3890 
Q 881 3647 878 3216 
L 300 3275 
Q 359 3922 746 4261 
Q 1134 4600 1788 4600 
Q 2447 4600 2831 4234 
Q 3216 3869 3216 3328 
Q 3216 3053 3103 2787 
Q 2991 2522 2730 2228 
Q 2469 1934 1863 1422 
Q 1356 997 1212 845 
Q 1069 694 975 541 
L 3222 541 
z
" transform="scale(0.015625)"/>
       </defs>
       <use xlink:href="#ArialMT-32"/>
      </g>
     </g>
    </g>
    <g id="xtick_2">
     <g id="line2d_2">
      <g>
       <use xlink:href="#m9fbc9f5041" x="107.151697" y="256.32" style="stroke: #000000; stroke-width: 0.8"/>
      </g>
     </g>
     <g id="text_2">
      <!-- 4 -->
      <g transform="translate(104.371228 270.477813) scale(0.1 -0.1)">
       <defs>
        <path id="ArialMT-34" d="M 2069 0 
L 2069 1097 
L 81 1097 
L 81 1613 
L 2172 4581 
L 2631 4581 
L 2631 1613 
L 3250 1613 
L 3250 1097 
L 2631 1097 
L 2631 0 
L 2069 0 
z
M 2069 1613 
L 2069 3678 
L 634 1613 
L 2069 1613 
z
" transform="scale(0.015625)"/>
       </defs>
       <use xlink:href="#ArialMT-34"/>
      </g>
     </g>
    </g>
    <g id="xtick_3">
     <g id="line2d_3">
      <g>
       <use xlink:href="#m9fbc9f5041" x="157.900774" y="256.32" style="stroke: #000000; stroke-width: 0.8"/>
      </g>
     </g>
     <g id="text_3">
      <!-- 6 -->
      <g transform="translate(155.120306 270.477813) scale(0.1 -0.1)">
       <defs>
        <path id="ArialMT-36" d="M 3184 3459 
L 2625 3416 
Q 2550 3747 2413 3897 
Q 2184 4138 1850 4138 
Q 1581 4138 1378 3988 
Q 1113 3794 959 3422 
Q 806 3050 800 2363 
Q 1003 2672 1297 2822 
Q 1591 2972 1913 2972 
Q 2475 2972 2870 2558 
Q 3266 2144 3266 1488 
Q 3266 1056 3080 686 
Q 2894 316 2569 119 
Q 2244 -78 1831 -78 
Q 1128 -78 684 439 
Q 241 956 241 2144 
Q 241 3472 731 4075 
Q 1159 4600 1884 4600 
Q 2425 4600 2770 4297 
Q 3116 3994 3184 3459 
z
M 888 1484 
Q 888 1194 1011 928 
Q 1134 663 1356 523 
Q 1578 384 1822 384 
Q 2178 384 2434 671 
Q 2691 959 2691 1453 
Q 2691 1928 2437 2201 
Q 2184 2475 1800 2475 
Q 1419 2475 1153 2201 
Q 888 1928 888 1484 
z
" transform="scale(0.015625)"/>
       </defs>
       <use xlink:href="#ArialMT-36"/>
      </g>
     </g>
    </g>
    <g id="xtick_4">
     <g id="line2d_4">
      <g>
       <use xlink:href="#m9fbc9f5041" x="208.649852" y="256.32" style="stroke: #000000; stroke-width: 0.8"/>
      </g>
     </g>
     <g id="text_4">
      <!-- 8 -->
      <g transform="translate(205.869384 270.477813) scale(0.1 -0.1)">
       <defs>
        <path id="ArialMT-38" d="M 1131 2484 
Q 781 2613 612 2850 
Q 444 3088 444 3419 
Q 444 3919 803 4259 
Q 1163 4600 1759 4600 
Q 2359 4600 2725 4251 
Q 3091 3903 3091 3403 
Q 3091 3084 2923 2848 
Q 2756 2613 2416 2484 
Q 2838 2347 3058 2040 
Q 3278 1734 3278 1309 
Q 3278 722 2862 322 
Q 2447 -78 1769 -78 
Q 1091 -78 675 323 
Q 259 725 259 1325 
Q 259 1772 486 2073 
Q 713 2375 1131 2484 
z
M 1019 3438 
Q 1019 3113 1228 2906 
Q 1438 2700 1772 2700 
Q 2097 2700 2305 2904 
Q 2513 3109 2513 3406 
Q 2513 3716 2298 3927 
Q 2084 4138 1766 4138 
Q 1444 4138 1231 3931 
Q 1019 3725 1019 3438 
z
M 838 1322 
Q 838 1081 952 856 
Q 1066 631 1291 507 
Q 1516 384 1775 384 
Q 2178 384 2440 643 
Q 2703 903 2703 1303 
Q 2703 1709 2433 1975 
Q 2163 2241 1756 2241 
Q 1359 2241 1098 1978 
Q 838 1716 838 1322 
z
" transform="scale(0.015625)"/>
       </defs>
       <use xlink:href="#ArialMT-38"/>
      </g>
     </g>
    </g>
    <g id="xtick_5">
     <g id="line2d_5">
      <g>
       <use xlink:href="#m9fbc9f5041" x="259.39893" y="256.32" style="stroke: #000000; stroke-width: 0.8"/>
      </g>
     </g>
     <g id="text_5">
      <!-- 10 -->
      <g transform="translate(253.837993 270.477813) scale(0.1 -0.1)">
       <defs>
        <path id="ArialMT-31" d="M 2384 0 
L 1822 0 
L 1822 3584 
Q 1619 3391 1289 3197 
Q 959 3003 697 2906 
L 697 3450 
Q 1169 3672 1522 3987 
Q 1875 4303 2022 4600 
L 2384 4600 
L 2384 0 
z
" transform="scale(0.015625)"/>
        <path id="ArialMT-30" d="M 266 2259 
Q 266 3072 433 3567 
Q 600 4063 929 4331 
Q 1259 4600 1759 4600 
Q 2128 4600 2406 4451 
Q 2684 4303 2865 4023 
Q 3047 3744 3150 3342 
Q 3253 2941 3253 2259 
Q 3253 1453 3087 958 
Q 2922 463 2592 192 
Q 2263 -78 1759 -78 
Q 1097 -78 719 397 
Q 266 969 266 2259 
z
M 844 2259 
Q 844 1131 1108 757 
Q 1372 384 1759 384 
Q 2147 384 2411 759 
Q 2675 1134 2675 2259 
Q 2675 3391 2411 3762 
Q 2147 4134 1753 4134 
Q 1366 4134 1134 3806 
Q 844 3388 844 2259 
z
" transform="scale(0.015625)"/>
       </defs>
       <use xlink:href="#ArialMT-31"/>
       <use xlink:href="#ArialMT-30" transform="translate(55.615234 0)"/>
      </g>
     </g>
    </g>
    <g id="xtick_6">
     <g id="line2d_6">
      <g>
       <use xlink:href="#m9fbc9f5041" x="310.148008" y="256.32" style="stroke: #000000; stroke-width: 0.8"/>
      </g>
     </g>
     <g id="text_6">
      <!-- 12 -->
      <g transform="translate(304.587071 270.477813) scale(0.1 -0.1)">
       <use xlink:href="#ArialMT-31"/>
       <use xlink:href="#ArialMT-32" transform="translate(55.615234 0)"/>
      </g>
     </g>
    </g>
    <g id="xtick_7">
     <g id="line2d_7">
      <g>
       <use xlink:href="#m9fbc9f5041" x="360.897086" y="256.32" style="stroke: #000000; stroke-width: 0.8"/>
      </g>
     </g>
     <g id="text_7">
      <!-- 14 -->
      <g transform="translate(355.336149 270.477813) scale(0.1 -0.1)">
       <use xlink:href="#ArialMT-31"/>
       <use xlink:href="#ArialMT-34" transform="translate(55.615234 0)"/>
      </g>
     </g>
    </g>
    <g id="text_8">
     <!-- x (nm) -->
     <g transform="translate(207.235938 283.745) scale(0.1 -0.1)">
      <defs>
       <path id="ArialMT-78" d="M 47 0 
L 1259 1725 
L 138 3319 
L 841 3319 
L 1350 2541 
Q 1494 2319 1581 2169 
Q 1719 2375 1834 2534 
L 2394 3319 
L 3066 3319 
L 1919 1756 
L 3153 0 
L 2463 0 
L 1781 1031 
L 1600 1309 
L 728 0 
L 47 0 
z
" transform="scale(0.015625)"/>
       <path id="ArialMT-20" transform="scale(0.015625)"/>
       <path id="ArialMT-28" d="M 1497 -1347 
Q 1031 -759 709 28 
Q 388 816 388 1659 
Q 388 2403 628 3084 
Q 909 3875 1497 4659 
L 1900 4659 
Q 1522 4009 1400 3731 
Q 1209 3300 1100 2831 
Q 966 2247 966 1656 
Q 966 153 1900 -1347 
L 1497 -1347 
z
" transform="scale(0.015625)"/>
       <path id="ArialMT-6e" d="M 422 0 
L 422 3319 
L 928 3319 
L 928 2847 
Q 1294 3394 1984 3394 
Q 2284 3394 2536 3286 
Q 2788 3178 2913 3003 
Q 3038 2828 3088 2588 
Q 3119 2431 3119 2041 
L 3119 0 
L 2556 0 
L 2556 2019 
Q 2556 2363 2490 2533 
Q 2425 2703 2258 2804 
Q 2091 2906 1866 2906 
Q 1506 2906 1245 2678 
Q 984 2450 984 1813 
L 984 0 
L 422 0 
z
" transform="scale(0.015625)"/>
       <path id="ArialMT-6d" d="M 422 0 
L 422 3319 
L 925 3319 
L 925 2853 
Q 1081 3097 1340 3245 
Q 1600 3394 1931 3394 
Q 2300 3394 2536 3241 
Q 2772 3088 2869 2813 
Q 3263 3394 3894 3394 
Q 4388 3394 4653 3120 
Q 4919 2847 4919 2278 
L 4919 0 
L 4359 0 
L 4359 2091 
Q 4359 2428 4304 2576 
Q 4250 2725 4106 2815 
Q 3963 2906 3769 2906 
Q 3419 2906 3187 2673 
Q 2956 2441 2956 1928 
L 2956 0 
L 2394 0 
L 2394 2156 
Q 2394 2531 2256 2718 
Q 2119 2906 1806 2906 
Q 1569 2906 1367 2781 
Q 1166 2656 1075 2415 
Q 984 2175 984 1722 
L 984 0 
L 422 0 
z
" transform="scale(0.015625)"/>
       <path id="ArialMT-29" d="M 791 -1347 
L 388 -1347 
Q 1322 153 1322 1656 
Q 1322 2244 1188 2822 
Q 1081 3291 891 3722 
Q 769 4003 388 4659 
L 791 4659 
Q 1378 3875 1659 3084 
Q 1900 2403 1900 1659 
Q 1900 816 1576 28 
Q 1253 -759 791 -1347 
z
" transform="scale(0.015625)"/>
      </defs>
      <use xlink:href="#ArialMT-78"/>
      <use xlink:href="#ArialMT-20" transform="translate(50 0)"/>
      <use xlink:href="#ArialMT-28" transform="translate(77.783203 0)"/>
      <use xlink:href="#ArialMT-6e" transform="translate(111.083984 0)"/>
      <use xlink:href="#ArialMT-6d" transform="translate(166.699219 0)"/>
      <use xlink:href="#ArialMT-29" transform="translate(250 0)"/>
     </g>
    </g>
   </g>
   <g id="matplotlib.axis_2">
    <g id="ytick_1">
     <g id="line2d_8">
      <defs>
       <path id="m62bc7cf680" d="M 0 0 
L -3.5 0 
" style="stroke: #000000; stroke-width: 0.8"/>
      </defs>
      <g>
       <use xlink:href="#m62bc7cf680" x="54" y="242.615872" style="stroke: #000000; stroke-width: 0.8"/>
      </g>
     </g>
     <g id="text_9">
      <!-- 0 -->
      <g transform="translate(41.439062 246.194779) scale(0.1 -0.1)">
       <use xlink:href="#ArialMT-30"/>
      </g>
     </g>
    </g>
    <g id="ytick_2">
     <g id="line2d_9">
      <g>
       <use xlink:href="#m62bc7cf680" x="54" y="212.603249" style="stroke: #000000; stroke-width: 0.8"/>
      </g>
     </g>
     <g id="text_10">
      <!-- 25 -->
      <g transform="translate(35.878125 216.182155) scale(0.1 -0.1)">
       <defs>
        <path id="ArialMT-35" d="M 266 1200 
L 856 1250 
Q 922 819 1161 601 
Q 1400 384 1738 384 
Q 2144 384 2425 690 
Q 2706 997 2706 1503 
Q 2706 1984 2436 2262 
Q 2166 2541 1728 2541 
Q 1456 2541 1237 2417 
Q 1019 2294 894 2097 
L 366 2166 
L 809 4519 
L 3088 4519 
L 3088 3981 
L 1259 3981 
L 1013 2750 
Q 1425 3038 1878 3038 
Q 2478 3038 2890 2622 
Q 3303 2206 3303 1553 
Q 3303 931 2941 478 
Q 2500 -78 1738 -78 
Q 1113 -78 717 272 
Q 322 622 266 1200 
z
" transform="scale(0.015625)"/>
       </defs>
       <use xlink:href="#ArialMT-32"/>
       <use xlink:href="#ArialMT-35" transform="translate(55.615234 0)"/>
      </g>
     </g>
    </g>
    <g id="ytick_3">
     <g id="line2d_10">
      <g>
       <use xlink:href="#m62bc7cf680" x="54" y="182.590625" style="stroke: #000000; stroke-width: 0.8"/>
      </g>
     </g>
     <g id="text_11">
      <!-- 50 -->
      <g transform="translate(35.878125 186.169531) scale(0.1 -0.1)">
       <use xlink:href="#ArialMT-35"/>
       <use xlink:href="#ArialMT-30" transform="translate(55.615234 0)"/>
      </g>
     </g>
    </g>
    <g id="ytick_4">
     <g id="line2d_11">
      <g>
       <use xlink:href="#m62bc7cf680" x="54" y="152.578001" style="stroke: #000000; stroke-width: 0.8"/>
      </g>
     </g>
     <g id="text_12">
      <!-- 75 -->
      <g transform="translate(35.878125 156.156907) scale(0.1 -0.1)">
       <defs>
        <path id="ArialMT-37" d="M 303 3981 
L 303 4522 
L 3269 4522 
L 3269 4084 
Q 2831 3619 2401 2847 
Q 1972 2075 1738 1259 
Q 1569 684 1522 0 
L 944 0 
Q 953 541 1156 1306 
Q 1359 2072 1739 2783 
Q 2119 3494 2547 3981 
L 303 3981 
z
" transform="scale(0.015625)"/>
       </defs>
       <use xlink:href="#ArialMT-37"/>
       <use xlink:href="#ArialMT-35" transform="translate(55.615234 0)"/>
      </g>
     </g>
    </g>
    <g id="ytick_5">
     <g id="line2d_12">
      <g>
       <use xlink:href="#m62bc7cf680" x="54" y="122.565377" style="stroke: #000000; stroke-width: 0.8"/>
      </g>
     </g>
     <g id="text_13">
      <!-- 100 -->
      <g transform="translate(30.317187 126.144283) scale(0.1 -0.1)">
       <use xlink:href="#ArialMT-31"/>
       <use xlink:href="#ArialMT-30" transform="translate(55.615234 0)"/>
       <use xlink:href="#ArialMT-30" transform="translate(111.230469 0)"/>
      </g>
     </g>
    </g>
    <g id="ytick_6">
     <g id="line2d_13">
      <g>
       <use xlink:href="#m62bc7cf680" x="54" y="92.552753" style="stroke: #000000; stroke-width: 0.8"/>
      </g>
     </g>
     <g id="text_14">
      <!-- 125 -->
      <g transform="translate(30.317187 96.131659) scale(0.1 -0.1)">
       <use xlink:href="#ArialMT-31"/>
       <use xlink:href="#ArialMT-32" transform="translate(55.615234 0)"/>
       <use xlink:href="#ArialMT-35" transform="translate(111.230469 0)"/>
      </g>
     </g>
    </g>
    <g id="ytick_7">
     <g id="line2d_14">
      <g>
       <use xlink:href="#m62bc7cf680" x="54" y="62.540129" style="stroke: #000000; stroke-width: 0.8"/>
      </g>
     </g>
     <g id="text_15">
      <!-- 150 -->
      <g transform="translate(30.317187 66.119035) scale(0.1 -0.1)">
       <use xlink:href="#ArialMT-31"/>
       <use xlink:href="#ArialMT-35" transform="translate(55.615234 0)"/>
       <use xlink:href="#ArialMT-30" transform="translate(111.230469 0)"/>
      </g>
     </g>
    </g>
    <g id="text_16">
     <!-- ΔG (kcal/mol) -->
     <g transform="translate(24.2125 175.724375) rotate(-90) scale(0.1 -0.1)">
      <defs>
       <path id="ArialMT-394" d="M -6 0 
L 1753 4581 
L 2406 4581 
L 4281 0 
L -6 0 
z
M 834 541 
L 3381 541 
L 2391 3150 
Q 2169 3738 2066 4100 
Q 1981 3675 1819 3225 
L 834 541 
z
" transform="scale(0.015625)"/>
       <path id="ArialMT-47" d="M 2638 1797 
L 2638 2334 
L 4578 2338 
L 4578 638 
Q 4131 281 3656 101 
Q 3181 -78 2681 -78 
Q 2006 -78 1454 211 
Q 903 500 622 1047 
Q 341 1594 341 2269 
Q 341 2938 620 3517 
Q 900 4097 1425 4378 
Q 1950 4659 2634 4659 
Q 3131 4659 3532 4498 
Q 3934 4338 4162 4050 
Q 4391 3763 4509 3300 
L 3963 3150 
Q 3859 3500 3706 3700 
Q 3553 3900 3268 4020 
Q 2984 4141 2638 4141 
Q 2222 4141 1919 4014 
Q 1616 3888 1430 3681 
Q 1244 3475 1141 3228 
Q 966 2803 966 2306 
Q 966 1694 1177 1281 
Q 1388 869 1791 669 
Q 2194 469 2647 469 
Q 3041 469 3416 620 
Q 3791 772 3984 944 
L 3984 1797 
L 2638 1797 
z
" transform="scale(0.015625)"/>
       <path id="ArialMT-6b" d="M 425 0 
L 425 4581 
L 988 4581 
L 988 1969 
L 2319 3319 
L 3047 3319 
L 1778 2088 
L 3175 0 
L 2481 0 
L 1384 1697 
L 988 1316 
L 988 0 
L 425 0 
z
" transform="scale(0.015625)"/>
       <path id="ArialMT-63" d="M 2588 1216 
L 3141 1144 
Q 3050 572 2676 248 
Q 2303 -75 1759 -75 
Q 1078 -75 664 370 
Q 250 816 250 1647 
Q 250 2184 428 2587 
Q 606 2991 970 3192 
Q 1334 3394 1763 3394 
Q 2303 3394 2647 3120 
Q 2991 2847 3088 2344 
L 2541 2259 
Q 2463 2594 2264 2762 
Q 2066 2931 1784 2931 
Q 1359 2931 1093 2626 
Q 828 2322 828 1663 
Q 828 994 1084 691 
Q 1341 388 1753 388 
Q 2084 388 2306 591 
Q 2528 794 2588 1216 
z
" transform="scale(0.015625)"/>
       <path id="ArialMT-61" d="M 2588 409 
Q 2275 144 1986 34 
Q 1697 -75 1366 -75 
Q 819 -75 525 192 
Q 231 459 231 875 
Q 231 1119 342 1320 
Q 453 1522 633 1644 
Q 813 1766 1038 1828 
Q 1203 1872 1538 1913 
Q 2219 1994 2541 2106 
Q 2544 2222 2544 2253 
Q 2544 2597 2384 2738 
Q 2169 2928 1744 2928 
Q 1347 2928 1158 2789 
Q 969 2650 878 2297 
L 328 2372 
Q 403 2725 575 2942 
Q 747 3159 1072 3276 
Q 1397 3394 1825 3394 
Q 2250 3394 2515 3294 
Q 2781 3194 2906 3042 
Q 3031 2891 3081 2659 
Q 3109 2516 3109 2141 
L 3109 1391 
Q 3109 606 3145 398 
Q 3181 191 3288 0 
L 2700 0 
Q 2613 175 2588 409 
z
M 2541 1666 
Q 2234 1541 1622 1453 
Q 1275 1403 1131 1340 
Q 988 1278 909 1158 
Q 831 1038 831 891 
Q 831 666 1001 516 
Q 1172 366 1500 366 
Q 1825 366 2078 508 
Q 2331 650 2450 897 
Q 2541 1088 2541 1459 
L 2541 1666 
z
" transform="scale(0.015625)"/>
       <path id="ArialMT-6c" d="M 409 0 
L 409 4581 
L 972 4581 
L 972 0 
L 409 0 
z
" transform="scale(0.015625)"/>
       <path id="ArialMT-2f" d="M 0 -78 
L 1328 4659 
L 1778 4659 
L 453 -78 
L 0 -78 
z
" transform="scale(0.015625)"/>
       <path id="ArialMT-6f" d="M 213 1659 
Q 213 2581 725 3025 
Q 1153 3394 1769 3394 
Q 2453 3394 2887 2945 
Q 3322 2497 3322 1706 
Q 3322 1066 3130 698 
Q 2938 331 2570 128 
Q 2203 -75 1769 -75 
Q 1072 -75 642 372 
Q 213 819 213 1659 
z
M 791 1659 
Q 791 1022 1069 705 
Q 1347 388 1769 388 
Q 2188 388 2466 706 
Q 2744 1025 2744 1678 
Q 2744 2294 2464 2611 
Q 2184 2928 1769 2928 
Q 1347 2928 1069 2612 
Q 791 2297 791 1659 
z
" transform="scale(0.015625)"/>
      </defs>
      <use xlink:href="#ArialMT-394"/>
      <use xlink:href="#ArialMT-47" transform="translate(66.796875 0)"/>
      <use xlink:href="#ArialMT-20" transform="translate(144.580078 0)"/>
      <use xlink:href="#ArialMT-28" transform="translate(172.363281 0)"/>
      <use xlink:href="#ArialMT-6b" transform="translate(205.664062 0)"/>
      <use xlink:href="#ArialMT-63" transform="translate(255.664062 0)"/>
      <use xlink:href="#ArialMT-61" transform="translate(305.664062 0)"/>
      <use xlink:href="#ArialMT-6c" transform="translate(361.279297 0)"/>
      <use xlink:href="#ArialMT-2f" transform="translate(383.496094 0)"/>
      <use xlink:href="#ArialMT-6d" transform="translate(411.279297 0)"/>
      <use xlink:href="#ArialMT-6f" transform="translate(494.580078 0)"/>
      <use xlink:href="#ArialMT-6c" transform="translate(550.195312 0)"/>
      <use xlink:href="#ArialMT-29" transform="translate(572.412109 0)"/>
     </g>
    </g>
   </g>
   <g id="line2d_15">
    <path d="M 70.461483 242.615872 
L 71.948939 243.787069 
L 73.43642 242.436609 
L 74.923875 243.857375 
L 76.411356 243.78156 
L 77.898812 241.227382 
L 79.386292 243.67968 
L 80.873748 244.076617 
L 83.848684 244.054572 
L 85.336165 243.760881 
L 86.823621 241.992698 
L 88.311101 241.020114 
L 89.798557 240.3148 
L 91.286038 240.044983 
L 92.773493 239.265687 
L 94.260974 238.781499 
L 97.23591 237.394229 
L 98.723366 236.314633 
L 100.210847 234.556335 
L 103.185783 230.201643 
L 106.160719 225.13532 
L 107.648175 223.718232 
L 110.623111 219.668076 
L 112.110592 217.85086 
L 113.598047 215.774731 
L 118.060465 208.402598 
L 119.54792 205.295619 
L 121.035376 202.554182 
L 124.010312 197.588713 
L 126.985248 191.88114 
L 128.472729 187.993737 
L 129.960185 185.200126 
L 131.447665 183.492552 
L 135.910057 177.357323 
L 137.397538 174.184809 
L 138.884994 171.671888 
L 140.372474 170.578276 
L 141.85993 169.665112 
L 144.834866 167.488272 
L 146.322347 167.375365 
L 147.809802 167.586918 
L 149.297283 165.42308 
L 150.784739 164.167315 
L 153.759675 163.420481 
L 155.247156 163.800489 
L 156.734611 163.899279 
L 158.222092 163.092299 
L 161.197029 162.470054 
L 164.171965 160.86511 
L 167.146901 159.58584 
L 168.634357 158.99117 
L 170.121838 159.136311 
L 174.584229 157.72076 
L 176.07171 157.785407 
L 179.046647 156.806683 
L 180.534102 156.625587 
L 183.509038 155.80096 
L 184.996519 155.508697 
L 186.483975 155.426607 
L 189.458911 154.849992 
L 190.946392 154.172283 
L 192.433847 153.680472 
L 193.921328 152.991023 
L 195.408784 152.757656 
L 199.871201 150.806067 
L 201.358656 149.462654 
L 204.333593 148.091414 
L 208.795984 146.354607 
L 210.283465 145.699948 
L 211.770921 144.759952 
L 213.258402 143.662079 
L 216.233338 142.249096 
L 217.720793 142.254871 
L 219.208274 140.979802 
L 222.183211 139.350477 
L 223.670666 138.25923 
L 226.645602 136.861578 
L 229.620539 135.837139 
L 231.108019 134.953243 
L 232.595475 134.302042 
L 235.570411 133.770062 
L 237.057892 132.573891 
L 238.545348 131.608024 
L 240.032828 131.266841 
L 243.007765 129.989648 
L 245.982701 128.1938 
L 247.470157 127.694282 
L 253.420029 124.202878 
L 254.90751 123.767575 
L 256.394966 122.520358 
L 262.344914 118.814399 
L 263.83237 118.478858 
L 265.319825 118.843211 
L 266.807281 118.275372 
L 268.294736 118.139355 
L 271.269647 118.367931 
L 272.757103 117.992053 
L 275.732014 117.757475 
L 278.706925 117.206923 
L 280.19438 117.035131 
L 284.656746 117.297321 
L 286.144456 117.622418 
L 287.631911 117.423974 
L 290.606822 117.321811 
L 293.581733 116.972584 
L 296.556644 117.068985 
L 298.044099 116.741367 
L 301.01901 116.805354 
L 302.506466 116.522995 
L 303.993921 116.478217 
L 305.481377 116.784946 
L 306.968832 116.637644 
L 308.456288 116.039432 
L 311.431199 115.676519 
L 314.40611 115.601128 
L 317.381274 115.431496 
L 320.356185 116.221068 
L 321.843641 116.107741 
L 323.331096 115.770879 
L 324.818552 115.644106 
L 326.306007 115.864278 
L 327.793463 115.594165 
L 329.280918 115.456947 
L 333.743285 115.372191 
L 335.23074 115.804373 
L 336.718195 115.261265 
L 339.693106 114.72752 
L 341.180562 114.604468 
L 345.642928 113.898692 
L 347.130638 113.80013 
L 350.105548 113.731221 
L 351.593004 113.960397 
L 353.080459 113.959317 
L 356.05537 114.236274 
L 357.542826 114.312866 
L 359.030281 114.531238 
L 360.517737 114.328472 
L 362.005192 114.300861 
L 363.492648 114.407586 
L 364.980103 114.329433 
L 366.467559 115.015761 
L 366.467559 115.015761 
" clip-path="url(#p33884ccf92)" style="fill: none; stroke: #d62728; stroke-width: 1.5; stroke-linecap: square"/>
   </g>
   <g id="line2d_16">
    <path d="M 70.907086 242.615872 
L 72.40426 242.789882 
L 73.901408 243.482673 
L 75.398557 244.358377 
L 76.895705 244.799285 
L 78.392854 244.512703 
L 79.890028 244.40734 
L 81.387176 243.448625 
L 82.884325 242.899374 
L 84.381473 241.573209 
L 85.878622 241.531982 
L 87.375796 241.921062 
L 88.872944 241.823174 
L 90.370093 241.223372 
L 91.867242 239.364602 
L 93.36439 238.521954 
L 94.861564 237.498707 
L 97.855861 234.630075 
L 99.35301 233.667876 
L 100.850158 232.960784 
L 102.347332 231.996228 
L 103.844481 230.312605 
L 106.838778 226.131163 
L 108.335926 223.509392 
L 109.8331 219.978623 
L 111.330249 217.640351 
L 112.827397 215.594439 
L 114.324546 213.145156 
L 117.318868 207.767927 
L 118.816017 205.243193 
L 120.313165 203.53455 
L 121.810314 201.592157 
L 124.804636 195.892148 
L 126.301785 193.173256 
L 127.798934 191.027197 
L 130.793231 187.19186 
L 133.787553 181.451814 
L 135.284702 178.814772 
L 136.78185 175.938927 
L 138.278999 173.306087 
L 139.776173 170.898991 
L 141.273321 168.093963 
L 144.267618 162.163625 
L 145.764767 157.791049 
L 147.261941 155.069769 
L 148.759089 153.849251 
L 150.256238 152.028878 
L 151.753386 149.977239 
L 154.747709 145.136731 
L 157.742006 140.239211 
L 162.233477 132.477274 
L 163.730626 129.9229 
L 165.227774 127.697572 
L 168.222071 122.937329 
L 169.719245 119.707455 
L 175.707839 110.148194 
L 177.204988 106.380529 
L 180.19931 101.43841 
L 181.696459 99.435728 
L 183.193607 97.758863 
L 184.690756 95.681629 
L 187.685078 92.025371 
L 189.182227 90.59641 
L 192.176524 85.811918 
L 195.170847 81.603668 
L 198.165144 77.925921 
L 199.662292 76.990247 
L 201.159466 76.23561 
L 202.656615 74.846625 
L 204.153763 73.90711 
L 205.650912 73.195691 
L 207.14806 71.734436 
L 208.645234 69.688776 
L 210.142383 68.734615 
L 214.633828 66.507558 
L 216.131002 66.182341 
L 217.628151 65.654119 
L 219.125299 64.862026 
L 220.622448 63.790095 
L 222.119597 62.47158 
L 226.611068 59.123012 
L 228.108216 59.069829 
L 231.102539 58.569339 
L 234.096836 58.605714 
L 235.593984 57.338221 
L 237.091133 57.072189 
L 240.085455 56.906159 
L 241.582604 57.096439 
L 243.079752 56.948177 
L 244.576901 56.987914 
L 246.074075 57.230656 
L 247.571223 56.866543 
L 250.56552 56.970266 
L 253.559843 56.355968 
L 256.55414 56.327636 
L 261.045484 56.287179 
L 262.542836 56.016225 
L 264.039934 55.865322 
L 265.537031 55.966164 
L 268.531481 55.096158 
L 270.028578 55.088715 
L 271.525676 54.924126 
L 273.022774 54.907079 
L 274.519872 55.062904 
L 276.017223 53.068625 
L 277.514321 52.348682 
L 279.011419 52.22347 
L 280.508517 52.332356 
L 282.005868 52.320471 
L 283.502966 52.496345 
L 286.497162 52.2949 
L 287.99426 52.048796 
L 292.485807 52.001736 
L 293.982904 52.239677 
L 295.480256 52.896353 
L 298.474452 52.585062 
L 299.971549 52.601749 
L 301.468647 52.81892 
L 302.965999 52.763337 
L 304.463097 52.946654 
L 307.457292 51.817699 
L 308.954644 52.014462 
L 311.948839 51.707613 
L 314.943035 51.565233 
L 316.440386 51.859477 
L 317.937484 51.852154 
L 320.93168 51.566433 
L 322.428778 51.53498 
L 323.926129 51.802573 
L 325.423227 51.871722 
L 328.417423 51.290797 
L 329.914774 51.01216 
L 331.411872 51.20064 
L 332.90897 51.205922 
L 334.406067 50.989351 
L 337.400517 50.906036 
L 338.897615 50.7729 
L 340.394712 51.10616 
L 343.389162 50.776381 
L 347.880455 50.816358 
L 349.377553 50.759574 
L 350.874905 51.655631 
L 352.372002 51.155741 
L 353.8691 51.025366 
L 355.366198 51.158142 
L 358.360647 51.097156 
L 362.851941 49.525335 
L 364.349292 49.549105 
L 367.343488 49.282713 
L 368.840586 49.731942 
L 368.840586 49.731942 
" clip-path="url(#p33884ccf92)" style="fill: none; stroke: #9467bd; stroke-width: 1.5; stroke-linecap: square"/>
   </g>
   <g id="line2d_17">
    <path d="M 69.218182 242.615872 
L 70.70952 243.673549 
L 72.200857 243.324782 
L 73.692195 243.094538 
L 75.183558 241.278079 
L 76.674896 241.678339 
L 78.166234 241.112975 
L 79.657597 237.953162 
L 81.148935 236.763384 
L 82.640273 237.031587 
L 84.13161 236.382552 
L 85.622974 235.234094 
L 88.605649 233.343758 
L 90.097012 231.98487 
L 91.58835 230.798564 
L 93.079688 229.889391 
L 96.062389 226.94292 
L 97.553726 225.946465 
L 99.045064 225.369682 
L 100.536427 223.935283 
L 102.027765 222.823591 
L 105.010441 220.966278 
L 106.501804 219.883699 
L 107.993142 218.640552 
L 109.484479 216.757536 
L 110.975843 214.593025 
L 112.46718 212.119241 
L 115.449881 207.64365 
L 116.941219 204.852693 
L 118.432557 203.122153 
L 122.906596 196.488666 
L 124.397933 193.873366 
L 127.380634 187.743888 
L 128.871972 184.984516 
L 130.36331 181.857332 
L 133.346011 175.244147 
L 134.837349 172.251432 
L 136.328712 169.58421 
L 137.820049 167.217955 
L 145.276764 157.031994 
L 146.768127 154.173784 
L 148.259465 151.719772 
L 149.750802 149.661146 
L 151.24214 147.154119 
L 154.224841 140.564632 
L 157.207542 134.14582 
L 160.190218 128.829264 
L 163.172919 124.184798 
L 166.155594 118.553289 
L 167.646957 115.550346 
L 172.120971 105.433931 
L 173.612334 103.947466 
L 175.103672 103.485031 
L 176.595009 100.175479 
L 178.086372 97.995963 
L 179.57771 96.201208 
L 181.069048 94.745235 
L 182.560386 93.705238 
L 184.051749 92.460914 
L 185.543087 91.503272 
L 187.034425 89.452209 
L 188.525788 88.271992 
L 190.017125 87.349404 
L 191.508463 86.597528 
L 192.999826 86.00748 
L 194.491164 85.688986 
L 198.965203 82.913419 
L 200.456541 82.366949 
L 201.947878 82.112922 
L 203.439242 81.671736 
L 204.930579 81.007737 
L 206.421917 80.646385 
L 207.913255 80.46703 
L 210.895956 79.083448 
L 212.387294 78.624014 
L 213.878657 78.363385 
L 215.369995 77.744044 
L 216.861332 77.528674 
L 218.35267 76.8313 
L 219.844033 75.864053 
L 221.335371 75.206897 
L 222.826709 74.068698 
L 228.792085 70.9337 
L 230.283448 70.248692 
L 231.774786 69.715067 
L 233.266124 69.306655 
L 234.757487 68.614204 
L 236.248825 68.156812 
L 240.722864 65.459277 
L 242.214201 64.770787 
L 245.196902 63.8021 
L 246.68824 63.197886 
L 251.162279 62.848059 
L 252.653617 62.531846 
L 254.144954 62.466778 
L 255.636318 61.769165 
L 258.618993 60.963266 
L 260.110432 60.945018 
L 261.601694 60.56998 
L 263.092956 59.565758 
L 266.075733 58.792753 
L 267.566994 58.709918 
L 269.05851 58.792273 
L 270.549771 57.865963 
L 276.515072 55.827746 
L 279.497849 55.423416 
L 280.989111 54.915602 
L 282.480626 54.576099 
L 283.971888 54.422075 
L 285.463149 53.998416 
L 286.954665 53.788208 
L 288.445926 53.899615 
L 289.937188 53.547627 
L 291.428703 53.339099 
L 292.919965 53.538023 
L 294.411227 52.011341 
L 295.902742 51.195838 
L 297.394004 50.86858 
L 304.850819 50.285014 
L 307.833343 49.077907 
L 310.81612 48.676818 
L 312.307382 48.123985 
L 313.798643 47.73118 
L 316.78142 47.505005 
L 318.272682 47.686161 
L 319.764197 47.406924 
L 321.255459 48.032147 
L 322.746721 47.821578 
L 325.729498 47.716054 
L 328.712275 47.404283 
L 331.694798 47.407644 
L 333.186313 47.140172 
L 334.677575 46.750848 
L 340.642875 46.256 
L 343.625652 46.013978 
L 345.116914 46.16068 
L 346.60843 45.960555 
L 349.590953 45.849269 
L 351.082468 45.214081 
L 352.57373 45.511567 
L 355.556507 45.444098 
L 357.047769 45.238572 
L 358.53903 44.880821 
L 360.030546 45.16234 
L 363.013069 44.642281 
L 364.504584 44.64 
L 365.995846 44.823197 
L 365.995846 44.823197 
" clip-path="url(#p33884ccf92)" style="fill: none; stroke: #1f77b4; stroke-width: 1.5; stroke-linecap: square"/>
   </g>
   <g id="line2d_18">
    <path d="M 69.358808 242.615872 
L 70.887547 243.865604 
L 72.416313 246.24 
L 73.945078 245.270343 
L 75.473843 243.974491 
L 77.002583 242.414478 
L 78.531348 240.207352 
L 81.588879 234.767254 
L 83.117618 241.469537 
L 84.646384 231.40078 
L 86.175149 231.831421 
L 87.703914 231.314009 
L 89.232679 230.250996 
L 92.290184 228.635356 
L 93.81895 228.480431 
L 95.347715 227.925305 
L 99.933985 221.264183 
L 101.46275 219.092962 
L 102.99149 215.331996 
L 104.520255 212.456031 
L 112.164056 201.081738 
L 118.279092 195.192565 
L 119.807857 193.994966 
L 122.865362 192.38414 
L 125.922892 188.544433 
L 127.451658 186.287928 
L 128.980397 183.675161 
L 133.566693 174.842602 
L 138.152963 168.144756 
L 142.739234 160.04543 
L 144.267999 156.821774 
L 145.796764 154.41709 
L 147.325504 151.290591 
L 148.854269 149.700054 
L 150.383034 149.074267 
L 151.9118 148.578182 
L 153.44054 148.228091 
L 154.969305 146.471812 
L 156.49807 145.207549 
L 159.555575 143.798456 
L 161.08434 142.785734 
L 162.613106 142.139718 
L 164.141871 141.179518 
L 165.670636 140.369646 
L 168.728141 138.593367 
L 170.256906 137.890339 
L 171.785671 137.763734 
L 173.314411 137.403462 
L 174.843177 136.832118 
L 177.900707 134.692974 
L 180.958212 133.28567 
L 184.015743 131.204811 
L 185.544482 130.314072 
L 187.073248 129.257028 
L 188.602013 128.568778 
L 190.130778 128.186693 
L 193.188283 126.210878 
L 196.245814 124.856108 
L 199.303319 123.241957 
L 200.832084 123.07307 
L 205.418354 121.240139 
L 206.947119 121.337981 
L 208.475885 121.107724 
L 211.53339 119.425216 
L 214.59092 118.719439 
L 216.119685 117.946794 
L 220.705956 116.39082 
L 222.234721 116.408467 
L 225.292226 115.023084 
L 229.878496 112.407184 
L 232.936027 111.228889 
L 234.464792 110.456484 
L 237.522297 109.42573 
L 239.051062 108.921158 
L 242.108567 108.649123 
L 243.637332 108.144191 
L 245.166098 107.854029 
L 246.694863 107.685358 
L 248.223628 107.194352 
L 251.281133 106.903349 
L 252.809898 105.921576 
L 254.338664 105.917014 
L 255.867403 104.802345 
L 257.396169 104.274603 
L 258.924934 104.419504 
L 260.45375 104.207015 
L 261.982566 104.412421 
L 266.56876 103.870994 
L 269.626138 103.845543 
L 271.154954 104.233066 
L 272.68377 103.943624 
L 275.741402 103.62405 
L 277.269964 103.335568 
L 278.79878 103.19703 
L 280.327596 103.194389 
L 281.856412 103.401836 
L 283.384975 102.489092 
L 284.91379 102.061353 
L 286.442606 102.002648 
L 287.971422 101.731694 
L 291.028801 101.776233 
L 292.557617 101.388109 
L 295.615249 101.044645 
L 297.143811 100.713065 
L 298.672627 101.203112 
L 300.201443 101.331325 
L 301.730259 101.338168 
L 303.258821 101.095906 
L 304.787637 101.006829 
L 310.902647 101.27118 
L 312.431463 101.040323 
L 315.489095 101.113194 
L 317.017657 99.689035 
L 318.546473 99.763106 
L 320.075289 99.600557 
L 323.132921 99.74978 
L 326.190299 99.941501 
L 329.247931 99.32144 
L 330.776493 99.133801 
L 333.834125 98.565362 
L 335.362941 98.476285 
L 336.891757 98.069553 
L 339.949136 97.853703 
L 341.477951 97.175537 
L 343.006767 97.059088 
L 346.064146 97.274939 
L 347.592962 97.500034 
L 350.650594 97.050205 
L 356.765604 97.079977 
L 358.294166 96.856323 
L 359.822982 97.278061 
L 361.351798 97.20519 
L 362.880614 96.998223 
L 365.937992 97.130278 
L 367.466808 96.597374 
L 368.995624 96.282122 
L 370.52444 96.100485 
L 372.053002 96.242985 
L 373.581818 96.627147 
L 373.581818 96.627147 
" clip-path="url(#p33884ccf92)" style="fill: none; stroke: #ff7f0e; stroke-width: 1.5; stroke-linecap: square"/>
   </g>
   <g id="line2d_19">
    <path d="M 71.272733 242.615872 
L 72.758767 242.751404 
L 74.244827 242.053072 
L 75.730887 242.728312 
L 77.216922 241.955913 
L 78.702981 240.142929 
L 80.189041 239.57969 
L 81.675076 238.807922 
L 83.161136 237.686018 
L 84.647196 236.120783 
L 87.61929 235.477135 
L 89.10535 234.911774 
L 90.591384 233.596151 
L 92.077444 232.553254 
L 93.563479 231.051705 
L 95.049539 230.118436 
L 96.535598 228.704829 
L 99.507693 225.558318 
L 100.993753 223.572046 
L 102.479787 220.346878 
L 103.965847 217.900465 
L 106.937941 213.58735 
L 108.424001 210.906971 
L 109.910061 208.666901 
L 114.368215 201.286689 
L 115.85425 199.543303 
L 118.82637 196.822287 
L 120.312404 196.10615 
L 121.798464 195.195699 
L 123.284499 194.147862 
L 126.256618 192.390695 
L 129.228713 191.777453 
L 130.714773 190.989814 
L 132.200807 189.556699 
L 133.686867 188.985895 
L 135.172927 188.853563 
L 136.658961 188.93677 
L 138.145021 188.186118 
L 139.631081 187.733984 
L 142.603175 186.343763 
L 144.089235 185.769046 
L 145.57527 185.406265 
L 148.547364 184.362438 
L 150.033424 183.985972 
L 151.519484 183.803183 
L 155.977638 180.692818 
L 157.463673 180.071917 
L 160.435792 179.131178 
L 161.921827 178.439867 
L 164.893947 177.6523 
L 166.379981 176.80724 
L 172.324195 172.771298 
L 173.810255 172.264241 
L 175.29629 171.345867 
L 176.78235 170.862243 
L 178.268384 170.158604 
L 181.240504 169.585266 
L 184.212598 166.962847 
L 185.698658 166.074294 
L 190.156812 164.332853 
L 193.128907 162.22341 
L 194.614967 161.632773 
L 196.101001 160.843057 
L 199.073121 159.602635 
L 202.045215 157.961821 
L 203.53125 157.346034 
L 205.01731 155.634931 
L 206.503369 154.200531 
L 210.961524 151.118043 
L 212.447558 150.260834 
L 215.419678 147.661777 
L 216.905712 146.051444 
L 218.391772 145.84881 
L 219.877832 145.207068 
L 221.363867 144.419021 
L 222.849927 143.839237 
L 224.335986 143.030337 
L 225.822021 141.72977 
L 227.308081 140.687575 
L 228.794141 139.892637 
L 230.280175 139.304258 
L 234.738329 138.50549 
L 236.224389 137.622482 
L 239.196484 136.850894 
L 242.168578 135.271677 
L 248.112792 131.851079 
L 254.057006 127.763924 
L 255.543041 127.141654 
L 258.515135 125.289407 
L 260.001322 124.707342 
L 261.487255 123.725773 
L 265.945308 121.411452 
L 267.431494 121.177713 
L 268.917427 120.09918 
L 270.403614 117.252302 
L 271.889547 115.60701 
L 273.375734 114.446482 
L 274.861667 113.120044 
L 276.347854 112.27753 
L 277.833787 112.167203 
L 280.805906 112.347639 
L 282.291839 112.655689 
L 283.778026 112.415228 
L 285.263959 112.51595 
L 288.236079 112.125306 
L 291.208199 111.674876 
L 292.694385 111.567671 
L 294.180318 111.634899 
L 295.666505 111.483516 
L 297.152438 110.950612 
L 298.638625 110.754209 
L 300.124558 110.135709 
L 303.096678 108.320065 
L 304.582611 107.709728 
L 306.068797 107.245013 
L 307.55473 107.228566 
L 309.040917 107.350777 
L 310.52685 107.150893 
L 317.957276 106.689059 
L 319.443209 106.900348 
L 320.929396 106.987865 
L 322.415329 106.584375 
L 323.901516 106.532273 
L 325.387449 106.710428 
L 326.873382 107.122201 
L 328.359569 106.700584 
L 331.331688 106.292652 
L 334.303808 106.243912 
L 335.789741 105.64426 
L 337.275928 105.459502 
L 338.761861 104.969576 
L 340.248048 104.747963 
L 341.733981 104.778455 
L 346.192033 103.995246 
L 349.164153 103.595958 
L 350.65034 103.578671 
L 352.136273 103.326205 
L 358.080512 102.866171 
L 361.052632 102.372763 
L 362.538819 102.473366 
L 364.024752 102.43591 
L 365.510939 102.557881 
L 366.996872 103.103271 
L 366.996872 103.103271 
" clip-path="url(#p33884ccf92)" style="fill: none; stroke: #2ca02c; stroke-width: 1.5; stroke-linecap: square"/>
   </g>
   <g id="patch_3">
    <path d="M 54 256.32 
L 54 34.56 
" style="fill: none; stroke: #000000; stroke-width: 0.8; stroke-linejoin: miter; stroke-linecap: square"/>
   </g>
   <g id="patch_4">
    <path d="M 388.8 256.32 
L 388.8 34.56 
" style="fill: none; stroke: #000000; stroke-width: 0.8; stroke-linejoin: miter; stroke-linecap: square"/>
   </g>
   <g id="patch_5">
    <path d="M 54 256.32 
L 388.8 256.32 
" style="fill: none; stroke: #000000; stroke-width: 0.8; stroke-linejoin: miter; stroke-linecap: square"/>
   </g>
   <g id="patch_6">
    <path d="M 54 34.56 
L 388.8 34.56 
" style="fill: none; stroke: #000000; stroke-width: 0.8; stroke-linejoin: miter; stroke-linecap: square"/>
   </g>
   <g id="legend_1">
    <g id="patch_7">
     <path d="M 244.204688 251.32 
L 381.8 251.32 
Q 383.8 251.32 383.8 249.32 
L 383.8 178.398125 
Q 383.8 176.398125 381.8 176.398125 
L 244.204688 176.398125 
Q 242.204688 176.398125 242.204688 178.398125 
L 242.204688 249.32 
Q 242.204688 251.32 244.204688 251.32 
z
" style="fill: #ffffff; opacity: 0.8; stroke: #cccccc; stroke-linejoin: miter"/>
    </g>
    <g id="line2d_20">
     <path d="M 246.204688 184.177813 
L 256.204687 184.177813 
L 266.204687 184.177813 
" style="fill: none; stroke: #d62728; stroke-width: 1.5; stroke-linecap: square"/>
    </g>
    <g id="text_17">
     <!-- Wildtype (Predicted) -->
     <g transform="translate(274.204687 187.677813) scale(0.1 -0.1)">
      <defs>
       <path id="ArialMT-57" d="M 1294 0 
L 78 4581 
L 700 4581 
L 1397 1578 
Q 1509 1106 1591 641 
Q 1766 1375 1797 1488 
L 2669 4581 
L 3400 4581 
L 4056 2263 
Q 4303 1400 4413 641 
Q 4500 1075 4641 1638 
L 5359 4581 
L 5969 4581 
L 4713 0 
L 4128 0 
L 3163 3491 
Q 3041 3928 3019 4028 
Q 2947 3713 2884 3491 
L 1913 0 
L 1294 0 
z
" transform="scale(0.015625)"/>
       <path id="ArialMT-69" d="M 425 3934 
L 425 4581 
L 988 4581 
L 988 3934 
L 425 3934 
z
M 425 0 
L 425 3319 
L 988 3319 
L 988 0 
L 425 0 
z
" transform="scale(0.015625)"/>
       <path id="ArialMT-64" d="M 2575 0 
L 2575 419 
Q 2259 -75 1647 -75 
Q 1250 -75 917 144 
Q 584 363 401 755 
Q 219 1147 219 1656 
Q 219 2153 384 2558 
Q 550 2963 881 3178 
Q 1213 3394 1622 3394 
Q 1922 3394 2156 3267 
Q 2391 3141 2538 2938 
L 2538 4581 
L 3097 4581 
L 3097 0 
L 2575 0 
z
M 797 1656 
Q 797 1019 1065 703 
Q 1334 388 1700 388 
Q 2069 388 2326 689 
Q 2584 991 2584 1609 
Q 2584 2291 2321 2609 
Q 2059 2928 1675 2928 
Q 1300 2928 1048 2622 
Q 797 2316 797 1656 
z
" transform="scale(0.015625)"/>
       <path id="ArialMT-74" d="M 1650 503 
L 1731 6 
Q 1494 -44 1306 -44 
Q 1000 -44 831 53 
Q 663 150 594 308 
Q 525 466 525 972 
L 525 2881 
L 113 2881 
L 113 3319 
L 525 3319 
L 525 4141 
L 1084 4478 
L 1084 3319 
L 1650 3319 
L 1650 2881 
L 1084 2881 
L 1084 941 
Q 1084 700 1114 631 
Q 1144 563 1211 522 
Q 1278 481 1403 481 
Q 1497 481 1650 503 
z
" transform="scale(0.015625)"/>
       <path id="ArialMT-79" d="M 397 -1278 
L 334 -750 
Q 519 -800 656 -800 
Q 844 -800 956 -737 
Q 1069 -675 1141 -563 
Q 1194 -478 1313 -144 
Q 1328 -97 1363 -6 
L 103 3319 
L 709 3319 
L 1400 1397 
Q 1534 1031 1641 628 
Q 1738 1016 1872 1384 
L 2581 3319 
L 3144 3319 
L 1881 -56 
Q 1678 -603 1566 -809 
Q 1416 -1088 1222 -1217 
Q 1028 -1347 759 -1347 
Q 597 -1347 397 -1278 
z
" transform="scale(0.015625)"/>
       <path id="ArialMT-70" d="M 422 -1272 
L 422 3319 
L 934 3319 
L 934 2888 
Q 1116 3141 1344 3267 
Q 1572 3394 1897 3394 
Q 2322 3394 2647 3175 
Q 2972 2956 3137 2557 
Q 3303 2159 3303 1684 
Q 3303 1175 3120 767 
Q 2938 359 2589 142 
Q 2241 -75 1856 -75 
Q 1575 -75 1351 44 
Q 1128 163 984 344 
L 984 -1272 
L 422 -1272 
z
M 931 1641 
Q 931 1000 1190 694 
Q 1450 388 1819 388 
Q 2194 388 2461 705 
Q 2728 1022 2728 1688 
Q 2728 2322 2467 2637 
Q 2206 2953 1844 2953 
Q 1484 2953 1207 2617 
Q 931 2281 931 1641 
z
" transform="scale(0.015625)"/>
       <path id="ArialMT-65" d="M 2694 1069 
L 3275 997 
Q 3138 488 2766 206 
Q 2394 -75 1816 -75 
Q 1088 -75 661 373 
Q 234 822 234 1631 
Q 234 2469 665 2931 
Q 1097 3394 1784 3394 
Q 2450 3394 2872 2941 
Q 3294 2488 3294 1666 
Q 3294 1616 3291 1516 
L 816 1516 
Q 847 969 1125 678 
Q 1403 388 1819 388 
Q 2128 388 2347 550 
Q 2566 713 2694 1069 
z
M 847 1978 
L 2700 1978 
Q 2663 2397 2488 2606 
Q 2219 2931 1791 2931 
Q 1403 2931 1139 2672 
Q 875 2413 847 1978 
z
" transform="scale(0.015625)"/>
       <path id="ArialMT-50" d="M 494 0 
L 494 4581 
L 2222 4581 
Q 2678 4581 2919 4538 
Q 3256 4481 3484 4323 
Q 3713 4166 3852 3881 
Q 3991 3597 3991 3256 
Q 3991 2672 3619 2267 
Q 3247 1863 2275 1863 
L 1100 1863 
L 1100 0 
L 494 0 
z
M 1100 2403 
L 2284 2403 
Q 2872 2403 3119 2622 
Q 3366 2841 3366 3238 
Q 3366 3525 3220 3729 
Q 3075 3934 2838 4000 
Q 2684 4041 2272 4041 
L 1100 4041 
L 1100 2403 
z
" transform="scale(0.015625)"/>
       <path id="ArialMT-72" d="M 416 0 
L 416 3319 
L 922 3319 
L 922 2816 
Q 1116 3169 1280 3281 
Q 1444 3394 1641 3394 
Q 1925 3394 2219 3213 
L 2025 2691 
Q 1819 2813 1613 2813 
Q 1428 2813 1281 2702 
Q 1134 2591 1072 2394 
Q 978 2094 978 1738 
L 978 0 
L 416 0 
z
" transform="scale(0.015625)"/>
      </defs>
      <use xlink:href="#ArialMT-57"/>
      <use xlink:href="#ArialMT-69" transform="translate(94.384766 0)"/>
      <use xlink:href="#ArialMT-6c" transform="translate(116.601562 0)"/>
      <use xlink:href="#ArialMT-64" transform="translate(138.818359 0)"/>
      <use xlink:href="#ArialMT-74" transform="translate(194.433594 0)"/>
      <use xlink:href="#ArialMT-79" transform="translate(222.216797 0)"/>
      <use xlink:href="#ArialMT-70" transform="translate(272.216797 0)"/>
      <use xlink:href="#ArialMT-65" transform="translate(327.832031 0)"/>
      <use xlink:href="#ArialMT-20" transform="translate(383.447266 0)"/>
      <use xlink:href="#ArialMT-28" transform="translate(411.230469 0)"/>
      <use xlink:href="#ArialMT-50" transform="translate(444.53125 0)"/>
      <use xlink:href="#ArialMT-72" transform="translate(511.230469 0)"/>
      <use xlink:href="#ArialMT-65" transform="translate(544.53125 0)"/>
      <use xlink:href="#ArialMT-64" transform="translate(600.146484 0)"/>
      <use xlink:href="#ArialMT-69" transform="translate(655.761719 0)"/>
      <use xlink:href="#ArialMT-63" transform="translate(677.978516 0)"/>
      <use xlink:href="#ArialMT-74" transform="translate(727.978516 0)"/>
      <use xlink:href="#ArialMT-65" transform="translate(755.761719 0)"/>
      <use xlink:href="#ArialMT-64" transform="translate(811.376953 0)"/>
      <use xlink:href="#ArialMT-29" transform="translate(866.992188 0)"/>
     </g>
    </g>
    <g id="line2d_21">
     <path d="M 246.204688 198.562188 
L 256.204687 198.562188 
L 266.204687 198.562188 
" style="fill: none; stroke: #9467bd; stroke-width: 1.5; stroke-linecap: square"/>
    </g>
    <g id="text_18">
     <!-- Wildtype (PDB) -->
     <g transform="translate(274.204687 202.062188) scale(0.1 -0.1)">
      <defs>
       <path id="ArialMT-44" d="M 494 0 
L 494 4581 
L 2072 4581 
Q 2606 4581 2888 4516 
Q 3281 4425 3559 4188 
Q 3922 3881 4101 3404 
Q 4281 2928 4281 2316 
Q 4281 1794 4159 1391 
Q 4038 988 3847 723 
Q 3656 459 3429 307 
Q 3203 156 2883 78 
Q 2563 0 2147 0 
L 494 0 
z
M 1100 541 
L 2078 541 
Q 2531 541 2789 625 
Q 3047 709 3200 863 
Q 3416 1078 3536 1442 
Q 3656 1806 3656 2325 
Q 3656 3044 3420 3430 
Q 3184 3816 2847 3947 
Q 2603 4041 2063 4041 
L 1100 4041 
L 1100 541 
z
" transform="scale(0.015625)"/>
       <path id="ArialMT-42" d="M 469 0 
L 469 4581 
L 2188 4581 
Q 2713 4581 3030 4442 
Q 3347 4303 3526 4014 
Q 3706 3725 3706 3409 
Q 3706 3116 3547 2856 
Q 3388 2597 3066 2438 
Q 3481 2316 3704 2022 
Q 3928 1728 3928 1328 
Q 3928 1006 3792 729 
Q 3656 453 3456 303 
Q 3256 153 2954 76 
Q 2653 0 2216 0 
L 469 0 
z
M 1075 2656 
L 2066 2656 
Q 2469 2656 2644 2709 
Q 2875 2778 2992 2937 
Q 3109 3097 3109 3338 
Q 3109 3566 3000 3739 
Q 2891 3913 2687 3977 
Q 2484 4041 1991 4041 
L 1075 4041 
L 1075 2656 
z
M 1075 541 
L 2216 541 
Q 2509 541 2628 563 
Q 2838 600 2978 687 
Q 3119 775 3209 942 
Q 3300 1109 3300 1328 
Q 3300 1584 3169 1773 
Q 3038 1963 2805 2039 
Q 2572 2116 2134 2116 
L 1075 2116 
L 1075 541 
z
" transform="scale(0.015625)"/>
      </defs>
      <use xlink:href="#ArialMT-57"/>
      <use xlink:href="#ArialMT-69" transform="translate(94.384766 0)"/>
      <use xlink:href="#ArialMT-6c" transform="translate(116.601562 0)"/>
      <use xlink:href="#ArialMT-64" transform="translate(138.818359 0)"/>
      <use xlink:href="#ArialMT-74" transform="translate(194.433594 0)"/>
      <use xlink:href="#ArialMT-79" transform="translate(222.216797 0)"/>
      <use xlink:href="#ArialMT-70" transform="translate(272.216797 0)"/>
      <use xlink:href="#ArialMT-65" transform="translate(327.832031 0)"/>
      <use xlink:href="#ArialMT-20" transform="translate(383.447266 0)"/>
      <use xlink:href="#ArialMT-28" transform="translate(411.230469 0)"/>
      <use xlink:href="#ArialMT-50" transform="translate(444.53125 0)"/>
      <use xlink:href="#ArialMT-44" transform="translate(511.230469 0)"/>
      <use xlink:href="#ArialMT-42" transform="translate(583.447266 0)"/>
      <use xlink:href="#ArialMT-29" transform="translate(650.146484 0)"/>
     </g>
    </g>
    <g id="line2d_22">
     <path d="M 246.204688 212.946563 
L 256.204687 212.946563 
L 266.204687 212.946563 
" style="fill: none; stroke: #1f77b4; stroke-width: 1.5; stroke-linecap: square"/>
    </g>
    <g id="text_19">
     <!-- Design A (90% Identity) -->
     <g transform="translate(274.204687 216.446563) scale(0.1 -0.1)">
      <defs>
       <path id="ArialMT-73" d="M 197 991 
L 753 1078 
Q 800 744 1014 566 
Q 1228 388 1613 388 
Q 2000 388 2187 545 
Q 2375 703 2375 916 
Q 2375 1106 2209 1216 
Q 2094 1291 1634 1406 
Q 1016 1563 777 1677 
Q 538 1791 414 1992 
Q 291 2194 291 2438 
Q 291 2659 392 2848 
Q 494 3038 669 3163 
Q 800 3259 1026 3326 
Q 1253 3394 1513 3394 
Q 1903 3394 2198 3281 
Q 2494 3169 2634 2976 
Q 2775 2784 2828 2463 
L 2278 2388 
Q 2241 2644 2061 2787 
Q 1881 2931 1553 2931 
Q 1166 2931 1000 2803 
Q 834 2675 834 2503 
Q 834 2394 903 2306 
Q 972 2216 1119 2156 
Q 1203 2125 1616 2013 
Q 2213 1853 2448 1751 
Q 2684 1650 2818 1456 
Q 2953 1263 2953 975 
Q 2953 694 2789 445 
Q 2625 197 2315 61 
Q 2006 -75 1616 -75 
Q 969 -75 630 194 
Q 291 463 197 991 
z
" transform="scale(0.015625)"/>
       <path id="ArialMT-67" d="M 319 -275 
L 866 -356 
Q 900 -609 1056 -725 
Q 1266 -881 1628 -881 
Q 2019 -881 2231 -725 
Q 2444 -569 2519 -288 
Q 2563 -116 2559 434 
Q 2191 0 1641 0 
Q 956 0 581 494 
Q 206 988 206 1678 
Q 206 2153 378 2554 
Q 550 2956 876 3175 
Q 1203 3394 1644 3394 
Q 2231 3394 2613 2919 
L 2613 3319 
L 3131 3319 
L 3131 450 
Q 3131 -325 2973 -648 
Q 2816 -972 2473 -1159 
Q 2131 -1347 1631 -1347 
Q 1038 -1347 672 -1080 
Q 306 -813 319 -275 
z
M 784 1719 
Q 784 1066 1043 766 
Q 1303 466 1694 466 
Q 2081 466 2343 764 
Q 2606 1063 2606 1700 
Q 2606 2309 2336 2618 
Q 2066 2928 1684 2928 
Q 1309 2928 1046 2623 
Q 784 2319 784 1719 
z
" transform="scale(0.015625)"/>
       <path id="ArialMT-41" d="M -9 0 
L 1750 4581 
L 2403 4581 
L 4278 0 
L 3588 0 
L 3053 1388 
L 1138 1388 
L 634 0 
L -9 0 
z
M 1313 1881 
L 2866 1881 
L 2388 3150 
Q 2169 3728 2063 4100 
Q 1975 3659 1816 3225 
L 1313 1881 
z
" transform="scale(0.015625)"/>
       <path id="ArialMT-39" d="M 350 1059 
L 891 1109 
Q 959 728 1153 556 
Q 1347 384 1650 384 
Q 1909 384 2104 503 
Q 2300 622 2425 820 
Q 2550 1019 2634 1356 
Q 2719 1694 2719 2044 
Q 2719 2081 2716 2156 
Q 2547 1888 2255 1720 
Q 1963 1553 1622 1553 
Q 1053 1553 659 1965 
Q 266 2378 266 3053 
Q 266 3750 677 4175 
Q 1088 4600 1706 4600 
Q 2153 4600 2523 4359 
Q 2894 4119 3086 3673 
Q 3278 3228 3278 2384 
Q 3278 1506 3087 986 
Q 2897 466 2520 194 
Q 2144 -78 1638 -78 
Q 1100 -78 759 220 
Q 419 519 350 1059 
z
M 2653 3081 
Q 2653 3566 2395 3850 
Q 2138 4134 1775 4134 
Q 1400 4134 1122 3828 
Q 844 3522 844 3034 
Q 844 2597 1108 2323 
Q 1372 2050 1759 2050 
Q 2150 2050 2401 2323 
Q 2653 2597 2653 3081 
z
" transform="scale(0.015625)"/>
       <path id="ArialMT-25" d="M 372 3481 
Q 372 3972 619 4315 
Q 866 4659 1334 4659 
Q 1766 4659 2048 4351 
Q 2331 4044 2331 3447 
Q 2331 2866 2045 2552 
Q 1759 2238 1341 2238 
Q 925 2238 648 2547 
Q 372 2856 372 3481 
z
M 1350 4272 
Q 1141 4272 1002 4090 
Q 863 3909 863 3425 
Q 863 2984 1003 2804 
Q 1144 2625 1350 2625 
Q 1563 2625 1702 2806 
Q 1841 2988 1841 3469 
Q 1841 3913 1700 4092 
Q 1559 4272 1350 4272 
z
M 1353 -169 
L 3859 4659 
L 4316 4659 
L 1819 -169 
L 1353 -169 
z
M 3334 1075 
Q 3334 1569 3581 1911 
Q 3828 2253 4300 2253 
Q 4731 2253 5014 1945 
Q 5297 1638 5297 1041 
Q 5297 459 5011 145 
Q 4725 -169 4303 -169 
Q 3888 -169 3611 142 
Q 3334 453 3334 1075 
z
M 4316 1866 
Q 4103 1866 3964 1684 
Q 3825 1503 3825 1019 
Q 3825 581 3965 400 
Q 4106 219 4313 219 
Q 4528 219 4667 400 
Q 4806 581 4806 1063 
Q 4806 1506 4665 1686 
Q 4525 1866 4316 1866 
z
" transform="scale(0.015625)"/>
       <path id="ArialMT-49" d="M 597 0 
L 597 4581 
L 1203 4581 
L 1203 0 
L 597 0 
z
" transform="scale(0.015625)"/>
      </defs>
      <use xlink:href="#ArialMT-44"/>
      <use xlink:href="#ArialMT-65" transform="translate(72.216797 0)"/>
      <use xlink:href="#ArialMT-73" transform="translate(127.832031 0)"/>
      <use xlink:href="#ArialMT-69" transform="translate(177.832031 0)"/>
      <use xlink:href="#ArialMT-67" transform="translate(200.048828 0)"/>
      <use xlink:href="#ArialMT-6e" transform="translate(255.664062 0)"/>
      <use xlink:href="#ArialMT-20" transform="translate(311.279297 0)"/>
      <use xlink:href="#ArialMT-41" transform="translate(333.5625 0)"/>
      <use xlink:href="#ArialMT-20" transform="translate(394.761719 0)"/>
      <use xlink:href="#ArialMT-28" transform="translate(422.544922 0)"/>
      <use xlink:href="#ArialMT-39" transform="translate(455.845703 0)"/>
      <use xlink:href="#ArialMT-30" transform="translate(511.460938 0)"/>
      <use xlink:href="#ArialMT-25" transform="translate(567.076172 0)"/>
      <use xlink:href="#ArialMT-20" transform="translate(655.992188 0)"/>
      <use xlink:href="#ArialMT-49" transform="translate(683.775391 0)"/>
      <use xlink:href="#ArialMT-64" transform="translate(711.558594 0)"/>
      <use xlink:href="#ArialMT-65" transform="translate(767.173828 0)"/>
      <use xlink:href="#ArialMT-6e" transform="translate(822.789062 0)"/>
      <use xlink:href="#ArialMT-74" transform="translate(878.404297 0)"/>
      <use xlink:href="#ArialMT-69" transform="translate(906.1875 0)"/>
      <use xlink:href="#ArialMT-74" transform="translate(928.404297 0)"/>
      <use xlink:href="#ArialMT-79" transform="translate(956.1875 0)"/>
      <use xlink:href="#ArialMT-29" transform="translate(1006.1875 0)"/>
     </g>
    </g>
    <g id="line2d_23">
     <path d="M 246.204688 227.330938 
L 256.204687 227.330938 
L 266.204687 227.330938 
" style="fill: none; stroke: #ff7f0e; stroke-width: 1.5; stroke-linecap: square"/>
    </g>
    <g id="text_20">
     <!-- Design B (53% Identity) -->
     <g transform="translate(274.204687 230.830938) scale(0.1 -0.1)">
      <defs>
       <path id="ArialMT-33" d="M 269 1209 
L 831 1284 
Q 928 806 1161 595 
Q 1394 384 1728 384 
Q 2125 384 2398 659 
Q 2672 934 2672 1341 
Q 2672 1728 2419 1979 
Q 2166 2231 1775 2231 
Q 1616 2231 1378 2169 
L 1441 2663 
Q 1497 2656 1531 2656 
Q 1891 2656 2178 2843 
Q 2466 3031 2466 3422 
Q 2466 3731 2256 3934 
Q 2047 4138 1716 4138 
Q 1388 4138 1169 3931 
Q 950 3725 888 3313 
L 325 3413 
Q 428 3978 793 4289 
Q 1159 4600 1703 4600 
Q 2078 4600 2393 4439 
Q 2709 4278 2876 4000 
Q 3044 3722 3044 3409 
Q 3044 3113 2884 2869 
Q 2725 2625 2413 2481 
Q 2819 2388 3044 2092 
Q 3269 1797 3269 1353 
Q 3269 753 2831 336 
Q 2394 -81 1725 -81 
Q 1122 -81 723 278 
Q 325 638 269 1209 
z
" transform="scale(0.015625)"/>
      </defs>
      <use xlink:href="#ArialMT-44"/>
      <use xlink:href="#ArialMT-65" transform="translate(72.216797 0)"/>
      <use xlink:href="#ArialMT-73" transform="translate(127.832031 0)"/>
      <use xlink:href="#ArialMT-69" transform="translate(177.832031 0)"/>
      <use xlink:href="#ArialMT-67" transform="translate(200.048828 0)"/>
      <use xlink:href="#ArialMT-6e" transform="translate(255.664062 0)"/>
      <use xlink:href="#ArialMT-20" transform="translate(311.279297 0)"/>
      <use xlink:href="#ArialMT-42" transform="translate(339.0625 0)"/>
      <use xlink:href="#ArialMT-20" transform="translate(405.761719 0)"/>
      <use xlink:href="#ArialMT-28" transform="translate(433.544922 0)"/>
      <use xlink:href="#ArialMT-35" transform="translate(466.845703 0)"/>
      <use xlink:href="#ArialMT-33" transform="translate(522.460938 0)"/>
      <use xlink:href="#ArialMT-25" transform="translate(578.076172 0)"/>
      <use xlink:href="#ArialMT-20" transform="translate(666.992188 0)"/>
      <use xlink:href="#ArialMT-49" transform="translate(694.775391 0)"/>
      <use xlink:href="#ArialMT-64" transform="translate(722.558594 0)"/>
      <use xlink:href="#ArialMT-65" transform="translate(778.173828 0)"/>
      <use xlink:href="#ArialMT-6e" transform="translate(833.789062 0)"/>
      <use xlink:href="#ArialMT-74" transform="translate(889.404297 0)"/>
      <use xlink:href="#ArialMT-69" transform="translate(917.1875 0)"/>
      <use xlink:href="#ArialMT-74" transform="translate(939.404297 0)"/>
      <use xlink:href="#ArialMT-79" transform="translate(967.1875 0)"/>
      <use xlink:href="#ArialMT-29" transform="translate(1017.1875 0)"/>
     </g>
    </g>
    <g id="line2d_24">
     <path d="M 246.204688 241.715313 
L 256.204687 241.715313 
L 266.204687 241.715313 
" style="fill: none; stroke: #2ca02c; stroke-width: 1.5; stroke-linecap: square"/>
    </g>
    <g id="text_21">
     <!-- Design C (92% Identity) -->
     <g transform="translate(274.204687 245.215313) scale(0.1 -0.1)">
      <defs>
       <path id="ArialMT-43" d="M 3763 1606 
L 4369 1453 
Q 4178 706 3683 314 
Q 3188 -78 2472 -78 
Q 1731 -78 1267 223 
Q 803 525 561 1097 
Q 319 1669 319 2325 
Q 319 3041 592 3573 
Q 866 4106 1370 4382 
Q 1875 4659 2481 4659 
Q 3169 4659 3637 4309 
Q 4106 3959 4291 3325 
L 3694 3184 
Q 3534 3684 3231 3912 
Q 2928 4141 2469 4141 
Q 1941 4141 1586 3887 
Q 1231 3634 1087 3207 
Q 944 2781 944 2328 
Q 944 1744 1114 1308 
Q 1284 872 1643 656 
Q 2003 441 2422 441 
Q 2931 441 3284 734 
Q 3638 1028 3763 1606 
z
" transform="scale(0.015625)"/>
      </defs>
      <use xlink:href="#ArialMT-44"/>
      <use xlink:href="#ArialMT-65" transform="translate(72.216797 0)"/>
      <use xlink:href="#ArialMT-73" transform="translate(127.832031 0)"/>
      <use xlink:href="#ArialMT-69" transform="translate(177.832031 0)"/>
      <use xlink:href="#ArialMT-67" transform="translate(200.048828 0)"/>
      <use xlink:href="#ArialMT-6e" transform="translate(255.664062 0)"/>
      <use xlink:href="#ArialMT-20" transform="translate(311.279297 0)"/>
      <use xlink:href="#ArialMT-43" transform="translate(339.0625 0)"/>
      <use xlink:href="#ArialMT-20" transform="translate(411.279297 0)"/>
      <use xlink:href="#ArialMT-28" transform="translate(439.0625 0)"/>
      <use xlink:href="#ArialMT-39" transform="translate(472.363281 0)"/>
      <use xlink:href="#ArialMT-32" transform="translate(527.978516 0)"/>
      <use xlink:href="#ArialMT-25" transform="translate(583.59375 0)"/>
      <use xlink:href="#ArialMT-20" transform="translate(672.509766 0)"/>
      <use xlink:href="#ArialMT-49" transform="translate(700.292969 0)"/>
      <use xlink:href="#ArialMT-64" transform="translate(728.076172 0)"/>
      <use xlink:href="#ArialMT-65" transform="translate(783.691406 0)"/>
      <use xlink:href="#ArialMT-6e" transform="translate(839.306641 0)"/>
      <use xlink:href="#ArialMT-74" transform="translate(894.921875 0)"/>
      <use xlink:href="#ArialMT-69" transform="translate(922.705078 0)"/>
      <use xlink:href="#ArialMT-74" transform="translate(944.921875 0)"/>
      <use xlink:href="#ArialMT-79" transform="translate(972.705078 0)"/>
      <use xlink:href="#ArialMT-29" transform="translate(1022.705078 0)"/>
     </g>
    </g>
   </g>
  </g>
 </g>
 <defs>
  <clipPath id="p33884ccf92">
   <rect x="54" y="34.56" width="334.8" height="221.76"/>
  </clipPath>
 </defs>
</svg>
