<?xml version="1.0" encoding="utf-8" standalone="no"?>
<!DOCTYPE svg PUBLIC "-//W3C//DTD SVG 1.1//EN"
  "http://www.w3.org/Graphics/SVG/1.1/DTD/svg11.dtd">
<svg xmlns:xlink="http://www.w3.org/1999/xlink" width="411.12pt" height="259.2pt" viewBox="0 0 411.12 259.2" xmlns="http://www.w3.org/2000/svg" version="1.1">
 <metadata>
  <rdf:RDF xmlns:dc="http://purl.org/dc/elements/1.1/" xmlns:cc="http://creativecommons.org/ns#" xmlns:rdf="http://www.w3.org/1999/02/22-rdf-syntax-ns#">
   <cc:Work>
    <dc:type rdf:resource="http://purl.org/dc/dcmitype/StillImage"/>
    <dc:date>2025-05-18T20:37:34.351699</dc:date>
    <dc:format>image/svg+xml</dc:format>
    <dc:creator>
     <cc:Agent>
      <dc:title>Matplotlib v3.10.1, https://matplotlib.org/</dc:title>
     </cc:Agent>
    </dc:creator>
   </cc:Work>
  </rdf:RDF>
 </metadata>
 <defs>
  <style type="text/css">*{stroke-linejoin: round; stroke-linecap: butt}</style>
 </defs>
 <g id="figure_1">
  <g id="patch_1">
   <path d="M -0 259.2 
L 411.12 259.2 
L 411.12 0 
L -0 0 
z
" style="fill: #ffffff"/>
  </g>
  <g id="axes_1">
   <g id="patch_2">
    <path d="M 32.685756 243.244323 
L 407.52 243.244323 
L 407.52 3.6 
L 32.685756 3.6 
z
" style="fill: #ffffff"/>
   </g>
   <g id="patch_3">
    <path d="M 49.723676 243.244323 
L 63.921943 243.244323 
L 63.921943 61.024119 
L 49.723676 61.024119 
z
" clip-path="url(#p35d9663f01)" style="fill: #4477aa"/>
   </g>
   <g id="patch_4">
    <path d="M 144.378788 243.244323 
L 158.577055 243.244323 
L 158.577055 66.537159 
L 144.378788 66.537159 
z
" clip-path="url(#p35d9663f01)" style="fill: #4477aa"/>
   </g>
   <g id="patch_5">
    <path d="M 239.0339 243.244323 
L 253.232167 243.244323 
L 253.232167 129.258605 
L 239.0339 129.258605 
z
" clip-path="url(#p35d9663f01)" style="fill: #4477aa"/>
   </g>
   <g id="patch_6">
    <path d="M 333.689012 243.244323 
L 347.887279 243.244323 
L 347.887279 115.052742 
L 333.689012 115.052742 
z
" clip-path="url(#p35d9663f01)" style="fill: #4477aa"/>
   </g>
   <g id="patch_7">
    <path d="M 63.921943 243.244323 
L 78.12021 243.244323 
L 78.12021 23.217181 
L 63.921943 23.217181 
z
" clip-path="url(#p35d9663f01)" style="fill: #ee6677"/>
   </g>
   <g id="patch_8">
    <path d="M 158.577055 243.244323 
L 172.775322 243.244323 
L 172.775322 33.404566 
L 158.577055 33.404566 
z
" clip-path="url(#p35d9663f01)" style="fill: #ee6677"/>
   </g>
   <g id="patch_9">
    <path d="M 253.232167 243.244323 
L 267.430434 243.244323 
L 267.430434 124.883096 
L 253.232167 124.883096 
z
" clip-path="url(#p35d9663f01)" style="fill: #ee6677"/>
   </g>
   <g id="patch_10">
    <path d="M 347.887279 243.244323 
L 362.085546 243.244323 
L 362.085546 113.277782 
L 347.887279 113.277782 
z
" clip-path="url(#p35d9663f01)" style="fill: #ee6677"/>
   </g>
   <g id="patch_11">
    <path d="M 78.12021 243.244323 
L 92.318476 243.244323 
L 92.318476 24.564678 
L 78.12021 24.564678 
z
" clip-path="url(#p35d9663f01)" style="fill: #228833"/>
   </g>
   <g id="patch_12">
    <path d="M 172.775322 243.244323 
L 186.973589 243.244323 
L 186.973589 27.461736 
L 172.775322 27.461736 
z
" clip-path="url(#p35d9663f01)" style="fill: #228833"/>
   </g>
   <g id="patch_13">
    <path d="M 267.430434 243.244323 
L 281.628701 243.244323 
L 281.628701 126.4034 
L 267.430434 126.4034 
z
" clip-path="url(#p35d9663f01)" style="fill: #228833"/>
   </g>
   <g id="patch_14">
    <path d="M 362.085546 243.244323 
L 376.283813 243.244323 
L 376.283813 117.616574 
L 362.085546 117.616574 
z
" clip-path="url(#p35d9663f01)" style="fill: #228833"/>
   </g>
   <g id="patch_15">
    <path d="M 92.318476 243.244323 
L 106.516743 243.244323 
L 106.516743 26.528175 
L 92.318476 26.528175 
z
" clip-path="url(#p35d9663f01)" style="fill: #ccbb44"/>
   </g>
   <g id="patch_16">
    <path d="M 186.973589 243.244323 
L 201.171855 243.244323 
L 201.171855 25.726219 
L 186.973589 25.726219 
z
" clip-path="url(#p35d9663f01)" style="fill: #ccbb44"/>
   </g>
   <g id="patch_17">
    <path d="M 281.628701 243.244323 
L 295.826968 243.244323 
L 295.826968 131.260957 
L 281.628701 131.260957 
z
" clip-path="url(#p35d9663f01)" style="fill: #ccbb44"/>
   </g>
   <g id="patch_18">
    <path d="M 376.283813 243.244323 
L 390.48208 243.244323 
L 390.48208 123.257003 
L 376.283813 123.257003 
z
" clip-path="url(#p35d9663f01)" style="fill: #ccbb44"/>
   </g>
   <g id="matplotlib.axis_1">
    <g id="xtick_1">
     <g id="line2d_1">
      <defs>
       <path id="mb0a89ef71e" d="M 0 0 
L 0 -3 
" style="stroke: #000000; stroke-width: 0.5"/>
      </defs>
      <g>
       <use xlink:href="#mb0a89ef71e" x="78.12021" y="243.244323" style="stroke: #000000; stroke-width: 0.5"/>
      </g>
     </g>
     <g id="line2d_2">
      <defs>
       <path id="m72ea585713" d="M 0 0 
L 0 3 
" style="stroke: #000000; stroke-width: 0.5"/>
      </defs>
      <g>
       <use xlink:href="#m72ea585713" x="78.12021" y="3.6" style="stroke: #000000; stroke-width: 0.5"/>
      </g>
     </g>
     <g id="text_1">
      <!-- PVX -->
      <g transform="translate(67.258141 253.662822) scale(0.1 -0.1)">
       <defs>
        <path id="CMR17-50" d="M 1267 2042 
L 2291 2042 
C 3117 2042 3718 2578 3718 3184 
C 3718 3791 3130 4352 2291 4352 
L 333 4352 
L 333 4186 
C 774 4186 845 4186 845 3899 
L 845 446 
C 845 160 774 160 333 160 
L 333 0 
C 518 0 858 0 1056 0 
C 1254 0 1594 0 1779 0 
L 1779 160 
C 1338 160 1267 160 1267 446 
L 1267 2042 
z
M 1254 2176 
L 1254 3938 
C 1254 4155 1267 4186 1523 4186 
L 2170 4186 
C 2995 4186 3232 3714 3232 3184 
C 3232 2604 2950 2176 2170 2176 
L 1254 2176 
z
" transform="scale(0.015625)"/>
        <path id="CMR17-56" d="M 3776 3745 
C 3834 3886 3936 4160 4365 4160 
L 4365 4332 
C 4218 4319 4051 4319 3891 4319 
C 3738 4319 3475 4319 3328 4332 
L 3328 4160 
C 3648 4160 3661 3936 3661 3898 
C 3661 3827 3642 3783 3622 3732 
L 2362 446 
L 1043 3886 
C 1024 3931 1011 3963 1011 3994 
C 1011 4160 1267 4160 1402 4160 
L 1402 4319 
C 1197 4319 896 4319 685 4319 
C 518 4319 218 4319 64 4332 
L 64 4160 
C 435 4160 506 4135 582 3931 
L 2106 -26 
C 2138 -115 2144 -128 2214 -128 
C 2285 -128 2291 -115 2323 -26 
L 3776 3745 
z
" transform="scale(0.015625)"/>
        <path id="CMR17-58" d="M 2336 2398 
L 3283 3753 
C 3379 3886 3571 4160 4096 4160 
L 4096 4332 
C 3949 4319 3706 4319 3552 4319 
C 3341 4319 3078 4319 2918 4332 
L 2918 4166 
C 3123 4147 3174 4020 3174 3918 
C 3174 3843 3142 3792 3098 3728 
L 2253 2513 
L 1306 3887 
C 1261 3956 1254 3975 1254 3994 
C 1254 4052 1325 4160 1536 4160 
L 1536 4319 
C 1331 4319 1018 4319 806 4319 
C 640 4319 320 4319 166 4332 
L 166 4160 
C 518 4160 634 4148 774 3951 
L 2010 2163 
L 896 549 
C 621 153 205 153 83 153 
L 83 -13 
C 230 0 474 0 627 0 
C 800 0 1101 0 1261 -13 
L 1261 153 
C 1062 172 1005 299 1005 401 
C 1005 483 1037 528 1069 572 
L 2093 2048 
L 3206 422 
C 3258 352 3258 333 3258 314 
C 3258 263 3200 153 2976 153 
L 2976 0 
C 3181 0 3494 0 3706 0 
C 3872 0 4192 0 4346 -13 
L 4346 153 
C 3936 153 3872 184 3744 363 
L 2336 2398 
z
" transform="scale(0.015625)"/>
       </defs>
       <use xlink:href="#CMR17-50" transform="scale(0.996264)"/>
       <use xlink:href="#CMR17-56" transform="translate(62.586301 0) scale(0.996264)"/>
       <use xlink:href="#CMR17-58" transform="translate(131.65873 0) scale(0.996264)"/>
      </g>
     </g>
    </g>
    <g id="xtick_2">
     <g id="line2d_3">
      <g>
       <use xlink:href="#mb0a89ef71e" x="172.775322" y="243.244323" style="stroke: #000000; stroke-width: 0.5"/>
      </g>
     </g>
     <g id="line2d_4">
      <g>
       <use xlink:href="#m72ea585713" x="172.775322" y="3.6" style="stroke: #000000; stroke-width: 0.5"/>
      </g>
     </g>
     <g id="text_2">
      <!-- TMV -->
      <g transform="translate(160.875481 253.662822) scale(0.1 -0.1)">
       <defs>
        <path id="CMR17-54" d="M 3981 4326 
L 288 4326 
L 179 2918 
L 294 2918 
C 378 3976 467 4160 1453 4160 
C 1568 4160 1754 4160 1805 4154 
C 1926 4135 1926 4058 1926 3912 
L 1926 459 
C 1926 230 1907 160 1376 160 
L 1197 160 
L 1197 0 
C 1504 0 1824 0 2138 0 
C 2451 0 2771 0 3078 0 
L 3078 160 
L 2899 160 
C 2368 160 2349 230 2349 459 
L 2349 3912 
C 2349 4052 2349 4129 2464 4154 
C 2515 4160 2701 4160 2816 4160 
C 3795 4160 3891 3976 3974 2918 
L 4090 2918 
L 3981 4326 
z
" transform="scale(0.015625)"/>
        <path id="CMR17-4d" d="M 1338 4224 
C 1299 4320 1293 4320 1158 4320 
L 339 4320 
L 339 4160 
C 781 4160 851 4160 851 3875 
L 851 610 
C 851 451 851 153 339 153 
L 339 -13 
C 486 0 755 0 915 0 
C 1075 0 1344 0 1491 -13 
L 1491 153 
C 979 153 979 451 979 610 
L 979 4135 
L 986 4135 
L 2490 89 
C 2515 25 2528 -13 2579 -13 
C 2630 -13 2643 25 2669 89 
L 4186 4166 
L 4192 4166 
L 4192 438 
C 4192 153 4122 153 3680 153 
L 3680 -13 
C 3853 0 4198 0 4384 0 
C 4570 0 4922 0 5094 -13 
L 5094 153 
C 4653 153 4582 153 4582 438 
L 4582 3875 
C 4582 4160 4653 4160 5094 4160 
L 5094 4320 
L 4282 4320 
C 4147 4320 4141 4314 4102 4218 
L 2720 502 
L 1338 4224 
z
" transform="scale(0.015625)"/>
       </defs>
       <use xlink:href="#CMR17-54" transform="scale(0.996264)"/>
       <use xlink:href="#CMR17-4d" transform="translate(66.509881 0) scale(0.996264)"/>
       <use xlink:href="#CMR17-56" transform="translate(151.196821 0) scale(0.996264)"/>
      </g>
     </g>
    </g>
    <g id="xtick_3">
     <g id="line2d_5">
      <g>
       <use xlink:href="#mb0a89ef71e" x="267.430434" y="243.244323" style="stroke: #000000; stroke-width: 0.5"/>
      </g>
     </g>
     <g id="line2d_6">
      <g>
       <use xlink:href="#m72ea585713" x="267.430434" y="3.6" style="stroke: #000000; stroke-width: 0.5"/>
      </g>
     </g>
     <g id="text_3">
      <!-- PepMV -->
      <g transform="translate(250.895189 253.662822) scale(0.1 -0.1)">
       <defs>
        <path id="CMR17-65" d="M 2438 1472 
C 2464 1498 2464 1511 2464 1576 
C 2464 2238 2118 2816 1389 2816 
C 710 2816 173 2169 173 1383 
C 173 551 781 -64 1459 -64 
C 2176 -64 2458 607 2458 740 
C 2458 784 2419 784 2406 784 
C 2362 784 2355 771 2330 696 
C 2189 265 1837 51 1504 51 
C 1229 51 954 203 781 480 
C 582 803 582 1176 582 1472 
L 2438 1472 
z
M 589 1568 
C 634 2505 1126 2714 1382 2714 
C 1818 2714 2112 2297 2118 1568 
L 589 1568 
z
" transform="scale(0.015625)"/>
        <path id="CMR17-70" d="M 1408 -1063 
C 998 -1063 973 -1037 973 -789 
L 973 402 
C 1158 134 1427 -38 1766 -38 
C 2406 -38 3053 523 3053 1388 
C 3053 2191 2496 2802 1837 2802 
C 1453 2802 1139 2592 960 2338 
L 960 2802 
L 198 2732 
L 198 2567 
C 576 2567 634 2528 634 2223 
L 634 -789 
C 634 -1031 608 -1063 198 -1063 
L 198 -1228 
C 352 -1216 634 -1216 800 -1216 
C 966 -1216 1254 -1216 1408 -1228 
L 1408 -1063 
z
M 973 2012 
C 973 2102 973 2235 1222 2471 
C 1254 2497 1472 2688 1792 2688 
C 2259 2688 2643 2108 2643 1382 
C 2643 656 2234 64 1728 64 
C 1498 64 1248 172 1056 472 
C 973 612 973 650 973 752 
L 973 2012 
z
" transform="scale(0.015625)"/>
       </defs>
       <use xlink:href="#CMR17-50" transform="scale(0.996264)"/>
       <use xlink:href="#CMR17-65" transform="translate(59.983847 0) scale(0.996264)"/>
       <use xlink:href="#CMR17-70" transform="translate(100.469507 0) scale(0.996264)"/>
       <use xlink:href="#CMR17-4d" transform="translate(151.364877 0) scale(0.996264)"/>
       <use xlink:href="#CMR17-56" transform="translate(236.051817 0) scale(0.996264)"/>
      </g>
     </g>
    </g>
    <g id="xtick_4">
     <g id="line2d_7">
      <g>
       <use xlink:href="#mb0a89ef71e" x="362.085546" y="243.244323" style="stroke: #000000; stroke-width: 0.5"/>
      </g>
     </g>
     <g id="line2d_8">
      <g>
       <use xlink:href="#m72ea585713" x="362.085546" y="3.6" style="stroke: #000000; stroke-width: 0.5"/>
      </g>
     </g>
     <g id="text_4">
      <!-- BMV -->
      <g transform="translate(350.254881 253.662822) scale(0.1 -0.1)">
       <defs>
        <path id="CMR17-42" d="M 333 4352 
L 333 4186 
C 774 4186 845 4186 845 3900 
L 845 452 
C 845 166 774 166 333 166 
L 333 0 
L 2534 0 
C 3354 0 3885 583 3885 1164 
C 3885 1741 3360 2233 2675 2233 
C 3290 2356 3718 2771 3718 3264 
C 3718 3802 3194 4352 2368 4352 
L 333 4352 
z
M 1248 2304 
L 1248 3937 
C 1248 4155 1261 4186 1517 4186 
L 2336 4186 
C 2970 4186 3251 3674 3251 3277 
C 3251 2791 2861 2304 2170 2304 
L 1248 2304 
z
M 1517 166 
C 1261 166 1248 197 1248 413 
L 1248 2202 
L 2432 2202 
C 3091 2202 3411 1625 3411 1162 
C 3411 699 3046 166 2349 166 
L 1517 166 
z
" transform="scale(0.015625)"/>
       </defs>
       <use xlink:href="#CMR17-42" transform="scale(0.996264)"/>
       <use xlink:href="#CMR17-4d" transform="translate(65.188754 0) scale(0.996264)"/>
       <use xlink:href="#CMR17-56" transform="translate(149.875695 0) scale(0.996264)"/>
      </g>
     </g>
    </g>
    <g id="xtick_5">
     <g id="line2d_9">
      <defs>
       <path id="m1760ee4ad5" d="M 0 0 
L 0 -1.5 
" style="stroke: #000000; stroke-width: 0.5"/>
      </defs>
      <g>
       <use xlink:href="#m1760ee4ad5" x="40.258165" y="243.244323" style="stroke: #000000; stroke-width: 0.5"/>
      </g>
     </g>
     <g id="line2d_10">
      <defs>
       <path id="mf51a62ea62" d="M 0 0 
L 0 1.5 
" style="stroke: #000000; stroke-width: 0.5"/>
      </defs>
      <g>
       <use xlink:href="#mf51a62ea62" x="40.258165" y="3.6" style="stroke: #000000; stroke-width: 0.5"/>
      </g>
     </g>
    </g>
    <g id="xtick_6">
     <g id="line2d_11">
      <g>
       <use xlink:href="#m1760ee4ad5" x="59.189187" y="243.244323" style="stroke: #000000; stroke-width: 0.5"/>
      </g>
     </g>
     <g id="line2d_12">
      <g>
       <use xlink:href="#mf51a62ea62" x="59.189187" y="3.6" style="stroke: #000000; stroke-width: 0.5"/>
      </g>
     </g>
    </g>
    <g id="xtick_7">
     <g id="line2d_13">
      <g>
       <use xlink:href="#m1760ee4ad5" x="97.051232" y="243.244323" style="stroke: #000000; stroke-width: 0.5"/>
      </g>
     </g>
     <g id="line2d_14">
      <g>
       <use xlink:href="#mf51a62ea62" x="97.051232" y="3.6" style="stroke: #000000; stroke-width: 0.5"/>
      </g>
     </g>
    </g>
    <g id="xtick_8">
     <g id="line2d_15">
      <g>
       <use xlink:href="#m1760ee4ad5" x="115.982254" y="243.244323" style="stroke: #000000; stroke-width: 0.5"/>
      </g>
     </g>
     <g id="line2d_16">
      <g>
       <use xlink:href="#mf51a62ea62" x="115.982254" y="3.6" style="stroke: #000000; stroke-width: 0.5"/>
      </g>
     </g>
    </g>
    <g id="xtick_9">
     <g id="line2d_17">
      <g>
       <use xlink:href="#m1760ee4ad5" x="134.913277" y="243.244323" style="stroke: #000000; stroke-width: 0.5"/>
      </g>
     </g>
     <g id="line2d_18">
      <g>
       <use xlink:href="#mf51a62ea62" x="134.913277" y="3.6" style="stroke: #000000; stroke-width: 0.5"/>
      </g>
     </g>
    </g>
    <g id="xtick_10">
     <g id="line2d_19">
      <g>
       <use xlink:href="#m1760ee4ad5" x="153.844299" y="243.244323" style="stroke: #000000; stroke-width: 0.5"/>
      </g>
     </g>
     <g id="line2d_20">
      <g>
       <use xlink:href="#mf51a62ea62" x="153.844299" y="3.6" style="stroke: #000000; stroke-width: 0.5"/>
      </g>
     </g>
    </g>
    <g id="xtick_11">
     <g id="line2d_21">
      <g>
       <use xlink:href="#m1760ee4ad5" x="191.706344" y="243.244323" style="stroke: #000000; stroke-width: 0.5"/>
      </g>
     </g>
     <g id="line2d_22">
      <g>
       <use xlink:href="#mf51a62ea62" x="191.706344" y="3.6" style="stroke: #000000; stroke-width: 0.5"/>
      </g>
     </g>
    </g>
    <g id="xtick_12">
     <g id="line2d_23">
      <g>
       <use xlink:href="#m1760ee4ad5" x="210.637367" y="243.244323" style="stroke: #000000; stroke-width: 0.5"/>
      </g>
     </g>
     <g id="line2d_24">
      <g>
       <use xlink:href="#mf51a62ea62" x="210.637367" y="3.6" style="stroke: #000000; stroke-width: 0.5"/>
      </g>
     </g>
    </g>
    <g id="xtick_13">
     <g id="line2d_25">
      <g>
       <use xlink:href="#m1760ee4ad5" x="229.568389" y="243.244323" style="stroke: #000000; stroke-width: 0.5"/>
      </g>
     </g>
     <g id="line2d_26">
      <g>
       <use xlink:href="#mf51a62ea62" x="229.568389" y="3.6" style="stroke: #000000; stroke-width: 0.5"/>
      </g>
     </g>
    </g>
    <g id="xtick_14">
     <g id="line2d_27">
      <g>
       <use xlink:href="#m1760ee4ad5" x="248.499412" y="243.244323" style="stroke: #000000; stroke-width: 0.5"/>
      </g>
     </g>
     <g id="line2d_28">
      <g>
       <use xlink:href="#mf51a62ea62" x="248.499412" y="3.6" style="stroke: #000000; stroke-width: 0.5"/>
      </g>
     </g>
    </g>
    <g id="xtick_15">
     <g id="line2d_29">
      <g>
       <use xlink:href="#m1760ee4ad5" x="286.361456" y="243.244323" style="stroke: #000000; stroke-width: 0.5"/>
      </g>
     </g>
     <g id="line2d_30">
      <g>
       <use xlink:href="#mf51a62ea62" x="286.361456" y="3.6" style="stroke: #000000; stroke-width: 0.5"/>
      </g>
     </g>
    </g>
    <g id="xtick_16">
     <g id="line2d_31">
      <g>
       <use xlink:href="#m1760ee4ad5" x="305.292479" y="243.244323" style="stroke: #000000; stroke-width: 0.5"/>
      </g>
     </g>
     <g id="line2d_32">
      <g>
       <use xlink:href="#mf51a62ea62" x="305.292479" y="3.6" style="stroke: #000000; stroke-width: 0.5"/>
      </g>
     </g>
    </g>
    <g id="xtick_17">
     <g id="line2d_33">
      <g>
       <use xlink:href="#m1760ee4ad5" x="324.223501" y="243.244323" style="stroke: #000000; stroke-width: 0.5"/>
      </g>
     </g>
     <g id="line2d_34">
      <g>
       <use xlink:href="#mf51a62ea62" x="324.223501" y="3.6" style="stroke: #000000; stroke-width: 0.5"/>
      </g>
     </g>
    </g>
    <g id="xtick_18">
     <g id="line2d_35">
      <g>
       <use xlink:href="#m1760ee4ad5" x="343.154524" y="243.244323" style="stroke: #000000; stroke-width: 0.5"/>
      </g>
     </g>
     <g id="line2d_36">
      <g>
       <use xlink:href="#mf51a62ea62" x="343.154524" y="3.6" style="stroke: #000000; stroke-width: 0.5"/>
      </g>
     </g>
    </g>
    <g id="xtick_19">
     <g id="line2d_37">
      <g>
       <use xlink:href="#m1760ee4ad5" x="381.016569" y="243.244323" style="stroke: #000000; stroke-width: 0.5"/>
      </g>
     </g>
     <g id="line2d_38">
      <g>
       <use xlink:href="#mf51a62ea62" x="381.016569" y="3.6" style="stroke: #000000; stroke-width: 0.5"/>
      </g>
     </g>
    </g>
    <g id="xtick_20">
     <g id="line2d_39">
      <g>
       <use xlink:href="#m1760ee4ad5" x="399.947591" y="243.244323" style="stroke: #000000; stroke-width: 0.5"/>
      </g>
     </g>
     <g id="line2d_40">
      <g>
       <use xlink:href="#mf51a62ea62" x="399.947591" y="3.6" style="stroke: #000000; stroke-width: 0.5"/>
      </g>
     </g>
    </g>
   </g>
   <g id="matplotlib.axis_2">
    <g id="ytick_1">
     <g id="line2d_41">
      <defs>
       <path id="m2ff96aac6c" d="M 0 0 
L 3 0 
" style="stroke: #000000; stroke-width: 0.5"/>
      </defs>
      <g>
       <use xlink:href="#m2ff96aac6c" x="32.685756" y="243.244323" style="stroke: #000000; stroke-width: 0.5"/>
      </g>
     </g>
     <g id="line2d_42">
      <defs>
       <path id="md6e738e749" d="M 0 0 
L -3 0 
" style="stroke: #000000; stroke-width: 0.5"/>
      </defs>
      <g>
       <use xlink:href="#md6e738e749" x="407.52" y="243.244323" style="stroke: #000000; stroke-width: 0.5"/>
      </g>
     </g>
     <g id="text_5">
      <!-- $\mathdefault{0.0}$ -->
      <g transform="translate(16.455677 246.703572) scale(0.1 -0.1)">
       <defs>
        <path id="CMR17-30" d="M 2688 2025 
C 2688 2416 2682 3080 2413 3591 
C 2176 4039 1798 4198 1466 4198 
C 1158 4198 768 4058 525 3597 
C 269 3118 243 2524 243 2025 
C 243 1661 250 1106 448 619 
C 723 -39 1216 -128 1466 -128 
C 1760 -128 2208 -7 2470 600 
C 2662 1042 2688 1559 2688 2025 
z
M 1466 -26 
C 1056 -26 813 325 723 812 
C 653 1188 653 1738 653 2096 
C 653 2588 653 2997 736 3387 
C 858 3929 1216 4096 1466 4096 
C 1728 4096 2067 3923 2189 3400 
C 2272 3036 2278 2607 2278 2096 
C 2278 1680 2278 1169 2202 792 
C 2067 95 1690 -26 1466 -26 
z
" transform="scale(0.015625)"/>
        <path id="CMMI12-3a" d="M 1178 307 
C 1178 492 1024 619 870 619 
C 685 619 557 466 557 313 
C 557 128 710 0 864 0 
C 1050 0 1178 153 1178 307 
z
" transform="scale(0.015625)"/>
       </defs>
       <use xlink:href="#CMR17-30" transform="scale(0.996264)"/>
       <use xlink:href="#CMMI12-3a" transform="translate(45.690477 0) scale(0.996264)"/>
       <use xlink:href="#CMR17-30" transform="translate(72.787654 0) scale(0.996264)"/>
      </g>
     </g>
    </g>
    <g id="ytick_2">
     <g id="line2d_43">
      <g>
       <use xlink:href="#m2ff96aac6c" x="32.685756" y="203.011889" style="stroke: #000000; stroke-width: 0.5"/>
      </g>
     </g>
     <g id="line2d_44">
      <g>
       <use xlink:href="#md6e738e749" x="407.52" y="203.011889" style="stroke: #000000; stroke-width: 0.5"/>
      </g>
     </g>
     <g id="text_6">
      <!-- $\mathdefault{0.1}$ -->
      <g transform="translate(16.455677 206.471138) scale(0.1 -0.1)">
       <defs>
        <path id="CMR17-31" d="M 1702 4058 
C 1702 4192 1696 4192 1606 4192 
C 1357 3916 979 3827 621 3827 
C 602 3827 570 3827 563 3808 
C 557 3795 557 3782 557 3648 
C 755 3648 1088 3686 1344 3839 
L 1344 461 
C 1344 236 1331 160 781 160 
L 589 160 
L 589 0 
C 896 0 1216 0 1523 0 
C 1830 0 2150 0 2458 0 
L 2458 160 
L 2266 160 
C 1715 160 1702 230 1702 458 
L 1702 4058 
z
" transform="scale(0.015625)"/>
       </defs>
       <use xlink:href="#CMR17-30" transform="scale(0.996264)"/>
       <use xlink:href="#CMMI12-3a" transform="translate(45.690477 0) scale(0.996264)"/>
       <use xlink:href="#CMR17-31" transform="translate(72.787654 0) scale(0.996264)"/>
      </g>
     </g>
    </g>
    <g id="ytick_3">
     <g id="line2d_45">
      <g>
       <use xlink:href="#m2ff96aac6c" x="32.685756" y="162.779454" style="stroke: #000000; stroke-width: 0.5"/>
      </g>
     </g>
     <g id="line2d_46">
      <g>
       <use xlink:href="#md6e738e749" x="407.52" y="162.779454" style="stroke: #000000; stroke-width: 0.5"/>
      </g>
     </g>
     <g id="text_7">
      <!-- $\mathdefault{0.2}$ -->
      <g transform="translate(16.455677 166.238703) scale(0.1 -0.1)">
       <defs>
        <path id="CMR17-32" d="M 2669 989 
L 2554 989 
C 2490 536 2438 459 2413 420 
C 2381 369 1920 369 1830 369 
L 602 369 
C 832 619 1280 1072 1824 1597 
C 2214 1967 2669 2402 2669 3035 
C 2669 3790 2067 4224 1395 4224 
C 691 4224 262 3604 262 3030 
C 262 2780 448 2748 525 2748 
C 589 2748 781 2787 781 3010 
C 781 3207 614 3264 525 3264 
C 486 3264 448 3258 422 3245 
C 544 3790 915 4058 1306 4058 
C 1862 4058 2227 3617 2227 3035 
C 2227 2479 1901 2000 1536 1584 
L 262 146 
L 262 0 
L 2515 0 
L 2669 989 
z
" transform="scale(0.015625)"/>
       </defs>
       <use xlink:href="#CMR17-30" transform="scale(0.996264)"/>
       <use xlink:href="#CMMI12-3a" transform="translate(45.690477 0) scale(0.996264)"/>
       <use xlink:href="#CMR17-32" transform="translate(72.787654 0) scale(0.996264)"/>
      </g>
     </g>
    </g>
    <g id="ytick_4">
     <g id="line2d_47">
      <g>
       <use xlink:href="#m2ff96aac6c" x="32.685756" y="122.547019" style="stroke: #000000; stroke-width: 0.5"/>
      </g>
     </g>
     <g id="line2d_48">
      <g>
       <use xlink:href="#md6e738e749" x="407.52" y="122.547019" style="stroke: #000000; stroke-width: 0.5"/>
      </g>
     </g>
     <g id="text_8">
      <!-- $\mathdefault{0.3}$ -->
      <g transform="translate(16.455677 126.006268) scale(0.1 -0.1)">
       <defs>
        <path id="CMR17-33" d="M 1414 2157 
C 1984 2157 2234 1662 2234 1090 
C 2234 320 1824 25 1453 25 
C 1114 25 563 194 390 693 
C 422 680 454 680 486 680 
C 640 680 755 782 755 948 
C 755 1133 614 1216 486 1216 
C 378 1216 211 1165 211 926 
C 211 335 787 -128 1466 -128 
C 2176 -128 2720 430 2720 1085 
C 2720 1707 2208 2157 1600 2227 
C 2086 2328 2554 2756 2554 3329 
C 2554 3820 2048 4179 1472 4179 
C 890 4179 378 3829 378 3329 
C 378 3110 544 3072 627 3072 
C 762 3072 877 3155 877 3321 
C 877 3486 762 3569 627 3569 
C 602 3569 570 3569 544 3557 
C 730 3959 1235 4032 1459 4032 
C 1683 4032 2106 3925 2106 3320 
C 2106 3143 2080 2828 1862 2550 
C 1670 2304 1453 2304 1242 2284 
C 1210 2284 1062 2269 1037 2269 
C 992 2263 966 2257 966 2208 
C 966 2163 973 2157 1101 2157 
L 1414 2157 
z
" transform="scale(0.015625)"/>
       </defs>
       <use xlink:href="#CMR17-30" transform="scale(0.996264)"/>
       <use xlink:href="#CMMI12-3a" transform="translate(45.690477 0) scale(0.996264)"/>
       <use xlink:href="#CMR17-33" transform="translate(72.787654 0) scale(0.996264)"/>
      </g>
     </g>
    </g>
    <g id="ytick_5">
     <g id="line2d_49">
      <g>
       <use xlink:href="#m2ff96aac6c" x="32.685756" y="82.314585" style="stroke: #000000; stroke-width: 0.5"/>
      </g>
     </g>
     <g id="line2d_50">
      <g>
       <use xlink:href="#md6e738e749" x="407.52" y="82.314585" style="stroke: #000000; stroke-width: 0.5"/>
      </g>
     </g>
     <g id="text_9">
      <!-- $\mathdefault{0.4}$ -->
      <g transform="translate(16.455677 85.773834) scale(0.1 -0.1)">
       <defs>
        <path id="CMR17-34" d="M 2150 4122 
C 2150 4256 2144 4256 2029 4256 
L 128 1254 
L 128 1088 
L 1779 1088 
L 1779 457 
C 1779 224 1766 160 1318 160 
L 1197 160 
L 1197 0 
C 1402 0 1747 0 1965 0 
C 2182 0 2528 0 2733 0 
L 2733 160 
L 2611 160 
C 2163 160 2150 224 2150 457 
L 2150 1088 
L 2803 1088 
L 2803 1254 
L 2150 1254 
L 2150 4122 
z
M 1798 3703 
L 1798 1254 
L 256 1254 
L 1798 3703 
z
" transform="scale(0.015625)"/>
       </defs>
       <use xlink:href="#CMR17-30" transform="scale(0.996264)"/>
       <use xlink:href="#CMMI12-3a" transform="translate(45.690477 0) scale(0.996264)"/>
       <use xlink:href="#CMR17-34" transform="translate(72.787654 0) scale(0.996264)"/>
      </g>
     </g>
    </g>
    <g id="ytick_6">
     <g id="line2d_51">
      <g>
       <use xlink:href="#m2ff96aac6c" x="32.685756" y="42.08215" style="stroke: #000000; stroke-width: 0.5"/>
      </g>
     </g>
     <g id="line2d_52">
      <g>
       <use xlink:href="#md6e738e749" x="407.52" y="42.08215" style="stroke: #000000; stroke-width: 0.5"/>
      </g>
     </g>
     <g id="text_10">
      <!-- $\mathdefault{0.5}$ -->
      <g transform="translate(16.455677 45.541399) scale(0.1 -0.1)">
       <defs>
        <path id="CMR17-35" d="M 730 3692 
C 794 3666 1056 3584 1325 3584 
C 1920 3584 2246 3911 2432 4100 
C 2432 4157 2432 4192 2394 4192 
C 2387 4192 2374 4192 2323 4163 
C 2099 4058 1837 3973 1517 3973 
C 1325 3973 1037 3999 723 4139 
C 653 4171 640 4171 634 4171 
C 602 4171 595 4164 595 4037 
L 595 2203 
C 595 2089 595 2057 659 2057 
C 691 2057 704 2070 736 2114 
C 941 2401 1222 2522 1542 2522 
C 1766 2522 2246 2382 2246 1289 
C 2246 1085 2246 715 2054 421 
C 1894 159 1645 25 1370 25 
C 947 25 518 320 403 814 
C 429 807 480 795 506 795 
C 589 795 749 840 749 1038 
C 749 1210 627 1280 506 1280 
C 358 1280 262 1190 262 1011 
C 262 454 704 -128 1382 -128 
C 2042 -128 2669 440 2669 1264 
C 2669 2030 2170 2624 1549 2624 
C 1222 2624 947 2503 730 2274 
L 730 3692 
z
" transform="scale(0.015625)"/>
       </defs>
       <use xlink:href="#CMR17-30" transform="scale(0.996264)"/>
       <use xlink:href="#CMMI12-3a" transform="translate(45.690477 0) scale(0.996264)"/>
       <use xlink:href="#CMR17-35" transform="translate(72.787654 0) scale(0.996264)"/>
      </g>
     </g>
    </g>
    <g id="ytick_7">
     <g id="line2d_53">
      <defs>
       <path id="mb43ed6896a" d="M 0 0 
L 1.5 0 
" style="stroke: #000000; stroke-width: 0.5"/>
      </defs>
      <g>
       <use xlink:href="#mb43ed6896a" x="32.685756" y="235.197836" style="stroke: #000000; stroke-width: 0.5"/>
      </g>
     </g>
     <g id="line2d_54">
      <defs>
       <path id="mbd5fcde289" d="M 0 0 
L -1.5 0 
" style="stroke: #000000; stroke-width: 0.5"/>
      </defs>
      <g>
       <use xlink:href="#mbd5fcde289" x="407.52" y="235.197836" style="stroke: #000000; stroke-width: 0.5"/>
      </g>
     </g>
    </g>
    <g id="ytick_8">
     <g id="line2d_55">
      <g>
       <use xlink:href="#mb43ed6896a" x="32.685756" y="227.151349" style="stroke: #000000; stroke-width: 0.5"/>
      </g>
     </g>
     <g id="line2d_56">
      <g>
       <use xlink:href="#mbd5fcde289" x="407.52" y="227.151349" style="stroke: #000000; stroke-width: 0.5"/>
      </g>
     </g>
    </g>
    <g id="ytick_9">
     <g id="line2d_57">
      <g>
       <use xlink:href="#mb43ed6896a" x="32.685756" y="219.104862" style="stroke: #000000; stroke-width: 0.5"/>
      </g>
     </g>
     <g id="line2d_58">
      <g>
       <use xlink:href="#mbd5fcde289" x="407.52" y="219.104862" style="stroke: #000000; stroke-width: 0.5"/>
      </g>
     </g>
    </g>
    <g id="ytick_10">
     <g id="line2d_59">
      <g>
       <use xlink:href="#mb43ed6896a" x="32.685756" y="211.058376" style="stroke: #000000; stroke-width: 0.5"/>
      </g>
     </g>
     <g id="line2d_60">
      <g>
       <use xlink:href="#mbd5fcde289" x="407.52" y="211.058376" style="stroke: #000000; stroke-width: 0.5"/>
      </g>
     </g>
    </g>
    <g id="ytick_11">
     <g id="line2d_61">
      <g>
       <use xlink:href="#mb43ed6896a" x="32.685756" y="194.965402" style="stroke: #000000; stroke-width: 0.5"/>
      </g>
     </g>
     <g id="line2d_62">
      <g>
       <use xlink:href="#mbd5fcde289" x="407.52" y="194.965402" style="stroke: #000000; stroke-width: 0.5"/>
      </g>
     </g>
    </g>
    <g id="ytick_12">
     <g id="line2d_63">
      <g>
       <use xlink:href="#mb43ed6896a" x="32.685756" y="186.918915" style="stroke: #000000; stroke-width: 0.5"/>
      </g>
     </g>
     <g id="line2d_64">
      <g>
       <use xlink:href="#mbd5fcde289" x="407.52" y="186.918915" style="stroke: #000000; stroke-width: 0.5"/>
      </g>
     </g>
    </g>
    <g id="ytick_13">
     <g id="line2d_65">
      <g>
       <use xlink:href="#mb43ed6896a" x="32.685756" y="178.872428" style="stroke: #000000; stroke-width: 0.5"/>
      </g>
     </g>
     <g id="line2d_66">
      <g>
       <use xlink:href="#mbd5fcde289" x="407.52" y="178.872428" style="stroke: #000000; stroke-width: 0.5"/>
      </g>
     </g>
    </g>
    <g id="ytick_14">
     <g id="line2d_67">
      <g>
       <use xlink:href="#mb43ed6896a" x="32.685756" y="170.825941" style="stroke: #000000; stroke-width: 0.5"/>
      </g>
     </g>
     <g id="line2d_68">
      <g>
       <use xlink:href="#mbd5fcde289" x="407.52" y="170.825941" style="stroke: #000000; stroke-width: 0.5"/>
      </g>
     </g>
    </g>
    <g id="ytick_15">
     <g id="line2d_69">
      <g>
       <use xlink:href="#mb43ed6896a" x="32.685756" y="154.732967" style="stroke: #000000; stroke-width: 0.5"/>
      </g>
     </g>
     <g id="line2d_70">
      <g>
       <use xlink:href="#mbd5fcde289" x="407.52" y="154.732967" style="stroke: #000000; stroke-width: 0.5"/>
      </g>
     </g>
    </g>
    <g id="ytick_16">
     <g id="line2d_71">
      <g>
       <use xlink:href="#mb43ed6896a" x="32.685756" y="146.68648" style="stroke: #000000; stroke-width: 0.5"/>
      </g>
     </g>
     <g id="line2d_72">
      <g>
       <use xlink:href="#mbd5fcde289" x="407.52" y="146.68648" style="stroke: #000000; stroke-width: 0.5"/>
      </g>
     </g>
    </g>
    <g id="ytick_17">
     <g id="line2d_73">
      <g>
       <use xlink:href="#mb43ed6896a" x="32.685756" y="138.639993" style="stroke: #000000; stroke-width: 0.5"/>
      </g>
     </g>
     <g id="line2d_74">
      <g>
       <use xlink:href="#mbd5fcde289" x="407.52" y="138.639993" style="stroke: #000000; stroke-width: 0.5"/>
      </g>
     </g>
    </g>
    <g id="ytick_18">
     <g id="line2d_75">
      <g>
       <use xlink:href="#mb43ed6896a" x="32.685756" y="130.593506" style="stroke: #000000; stroke-width: 0.5"/>
      </g>
     </g>
     <g id="line2d_76">
      <g>
       <use xlink:href="#mbd5fcde289" x="407.52" y="130.593506" style="stroke: #000000; stroke-width: 0.5"/>
      </g>
     </g>
    </g>
    <g id="ytick_19">
     <g id="line2d_77">
      <g>
       <use xlink:href="#mb43ed6896a" x="32.685756" y="114.500532" style="stroke: #000000; stroke-width: 0.5"/>
      </g>
     </g>
     <g id="line2d_78">
      <g>
       <use xlink:href="#mbd5fcde289" x="407.52" y="114.500532" style="stroke: #000000; stroke-width: 0.5"/>
      </g>
     </g>
    </g>
    <g id="ytick_20">
     <g id="line2d_79">
      <g>
       <use xlink:href="#mb43ed6896a" x="32.685756" y="106.454045" style="stroke: #000000; stroke-width: 0.5"/>
      </g>
     </g>
     <g id="line2d_80">
      <g>
       <use xlink:href="#mbd5fcde289" x="407.52" y="106.454045" style="stroke: #000000; stroke-width: 0.5"/>
      </g>
     </g>
    </g>
    <g id="ytick_21">
     <g id="line2d_81">
      <g>
       <use xlink:href="#mb43ed6896a" x="32.685756" y="98.407558" style="stroke: #000000; stroke-width: 0.5"/>
      </g>
     </g>
     <g id="line2d_82">
      <g>
       <use xlink:href="#mbd5fcde289" x="407.52" y="98.407558" style="stroke: #000000; stroke-width: 0.5"/>
      </g>
     </g>
    </g>
    <g id="ytick_22">
     <g id="line2d_83">
      <g>
       <use xlink:href="#mb43ed6896a" x="32.685756" y="90.361072" style="stroke: #000000; stroke-width: 0.5"/>
      </g>
     </g>
     <g id="line2d_84">
      <g>
       <use xlink:href="#mbd5fcde289" x="407.52" y="90.361072" style="stroke: #000000; stroke-width: 0.5"/>
      </g>
     </g>
    </g>
    <g id="ytick_23">
     <g id="line2d_85">
      <g>
       <use xlink:href="#mb43ed6896a" x="32.685756" y="74.268098" style="stroke: #000000; stroke-width: 0.5"/>
      </g>
     </g>
     <g id="line2d_86">
      <g>
       <use xlink:href="#mbd5fcde289" x="407.52" y="74.268098" style="stroke: #000000; stroke-width: 0.5"/>
      </g>
     </g>
    </g>
    <g id="ytick_24">
     <g id="line2d_87">
      <g>
       <use xlink:href="#mb43ed6896a" x="32.685756" y="66.221611" style="stroke: #000000; stroke-width: 0.5"/>
      </g>
     </g>
     <g id="line2d_88">
      <g>
       <use xlink:href="#mbd5fcde289" x="407.52" y="66.221611" style="stroke: #000000; stroke-width: 0.5"/>
      </g>
     </g>
    </g>
    <g id="ytick_25">
     <g id="line2d_89">
      <g>
       <use xlink:href="#mb43ed6896a" x="32.685756" y="58.175124" style="stroke: #000000; stroke-width: 0.5"/>
      </g>
     </g>
     <g id="line2d_90">
      <g>
       <use xlink:href="#mbd5fcde289" x="407.52" y="58.175124" style="stroke: #000000; stroke-width: 0.5"/>
      </g>
     </g>
    </g>
    <g id="ytick_26">
     <g id="line2d_91">
      <g>
       <use xlink:href="#mb43ed6896a" x="32.685756" y="50.128637" style="stroke: #000000; stroke-width: 0.5"/>
      </g>
     </g>
     <g id="line2d_92">
      <g>
       <use xlink:href="#mbd5fcde289" x="407.52" y="50.128637" style="stroke: #000000; stroke-width: 0.5"/>
      </g>
     </g>
    </g>
    <g id="ytick_27">
     <g id="line2d_93">
      <g>
       <use xlink:href="#mb43ed6896a" x="32.685756" y="34.035663" style="stroke: #000000; stroke-width: 0.5"/>
      </g>
     </g>
     <g id="line2d_94">
      <g>
       <use xlink:href="#mbd5fcde289" x="407.52" y="34.035663" style="stroke: #000000; stroke-width: 0.5"/>
      </g>
     </g>
    </g>
    <g id="ytick_28">
     <g id="line2d_95">
      <g>
       <use xlink:href="#mb43ed6896a" x="32.685756" y="25.989176" style="stroke: #000000; stroke-width: 0.5"/>
      </g>
     </g>
     <g id="line2d_96">
      <g>
       <use xlink:href="#mbd5fcde289" x="407.52" y="25.989176" style="stroke: #000000; stroke-width: 0.5"/>
      </g>
     </g>
    </g>
    <g id="ytick_29">
     <g id="line2d_97">
      <g>
       <use xlink:href="#mb43ed6896a" x="32.685756" y="17.942689" style="stroke: #000000; stroke-width: 0.5"/>
      </g>
     </g>
     <g id="line2d_98">
      <g>
       <use xlink:href="#mbd5fcde289" x="407.52" y="17.942689" style="stroke: #000000; stroke-width: 0.5"/>
      </g>
     </g>
    </g>
    <g id="ytick_30">
     <g id="line2d_99">
      <g>
       <use xlink:href="#mb43ed6896a" x="32.685756" y="9.896202" style="stroke: #000000; stroke-width: 0.5"/>
      </g>
     </g>
     <g id="line2d_100">
      <g>
       <use xlink:href="#mbd5fcde289" x="407.52" y="9.896202" style="stroke: #000000; stroke-width: 0.5"/>
      </g>
     </g>
    </g>
    <g id="text_11">
     <!-- Mean Identity to Wildtype -->
     <g transform="translate(10.518498 182.229535) rotate(-90) scale(0.1 -0.1)">
      <defs>
       <path id="CMR17-61" d="M 2304 1653 
C 2304 2072 2304 2294 2035 2543 
C 1798 2752 1523 2816 1306 2816 
C 800 2816 435 2407 435 1971 
C 435 1728 627 1728 666 1728 
C 749 1728 896 1778 896 1954 
C 896 2112 774 2181 666 2181 
C 640 2181 608 2174 589 2168 
C 723 2592 1069 2714 1293 2714 
C 1613 2714 1965 2429 1965 1885 
L 1965 1600 
C 1587 1600 1133 1549 774 1357 
C 371 1133 256 813 256 570 
C 256 77 832 -64 1171 -64 
C 1523 -64 1850 139 1990 511 
C 2003 233 2182 -18 2464 -18 
C 2598 -18 2938 70 2938 567 
L 2938 920 
L 2822 920 
L 2822 562 
C 2822 178 2650 128 2566 128 
C 2304 128 2304 458 2304 738 
L 2304 1653 
z
M 1965 870 
C 1965 317 1568 38 1216 38 
C 896 38 646 275 646 570 
C 646 761 730 1100 1101 1305 
C 1408 1478 1760 1504 1965 1504 
L 1965 870 
z
" transform="scale(0.015625)"/>
       <path id="CMR17-6e" d="M 2656 1933 
C 2656 2259 2592 2790 1837 2790 
C 1331 2790 1069 2400 973 2144 
L 966 2144 
L 966 2790 
L 211 2720 
L 211 2554 
C 589 2554 646 2515 646 2208 
L 646 428 
C 646 184 621 153 211 153 
L 211 -13 
C 365 0 646 0 813 0 
C 979 0 1267 0 1421 -13 
L 1421 153 
C 1011 153 986 178 986 428 
L 986 1658 
C 986 2247 1344 2688 1792 2688 
C 2266 2688 2317 2266 2317 1958 
L 2317 428 
C 2317 184 2291 153 1882 153 
L 1882 -13 
C 2035 0 2317 0 2483 0 
C 2650 0 2938 0 3091 -13 
L 3091 153 
C 2682 153 2656 178 2656 428 
L 2656 1933 
z
" transform="scale(0.015625)"/>
       <path id="CMR17-49" d="M 1261 3905 
C 1261 4192 1338 4192 1798 4192 
L 1798 4352 
C 1594 4352 1267 4352 1050 4352 
C 832 4352 506 4352 301 4352 
L 301 4192 
C 762 4192 838 4192 838 3905 
L 838 447 
C 838 160 762 160 301 160 
L 301 0 
C 506 0 832 0 1050 0 
C 1267 0 1594 0 1798 0 
L 1798 160 
C 1338 160 1261 160 1261 447 
L 1261 3905 
z
" transform="scale(0.015625)"/>
       <path id="CMR17-64" d="M 1869 4326 
L 1869 4160 
C 2246 4160 2304 4122 2304 3820 
L 2304 2345 
C 2278 2377 2016 2790 1498 2790 
C 845 2790 211 2208 211 1364 
C 211 525 806 -64 1434 -64 
C 1978 -64 2259 337 2291 380 
L 2291 -63 
L 3066 -63 
L 3066 128 
C 2688 128 2630 166 2630 473 
L 2630 4396 
L 1869 4326 
z
M 2291 755 
C 2291 563 2176 390 2029 262 
C 1811 70 1594 38 1472 38 
C 1286 38 621 134 621 1356 
C 621 2612 1363 2688 1530 2688 
C 1824 2688 2061 2522 2208 2291 
C 2291 2157 2291 2138 2291 2023 
L 2291 755 
z
" transform="scale(0.015625)"/>
       <path id="CMR17-74" d="M 966 2560 
L 1862 2560 
L 1862 2725 
L 966 2725 
L 966 3904 
L 851 3904 
C 838 3245 614 2668 70 2668 
L 70 2560 
L 627 2560 
L 627 771 
C 627 650 627 -64 1370 -64 
C 1747 -64 1965 306 1965 777 
L 1965 1140 
L 1850 1140 
L 1850 783 
C 1850 344 1677 51 1408 51 
C 1222 51 966 178 966 758 
L 966 2560 
z
" transform="scale(0.015625)"/>
       <path id="CMR17-69" d="M 992 3909 
C 992 4049 877 4170 730 4170 
C 589 4170 467 4056 467 3909 
C 467 3769 582 3648 730 3648 
C 870 3648 992 3763 992 3909 
z
M 243 2706 
L 243 2541 
C 602 2541 653 2502 653 2197 
L 653 427 
C 653 184 627 153 218 153 
L 218 -13 
C 371 0 646 0 806 0 
C 960 0 1222 0 1370 -13 
L 1370 153 
C 992 153 979 191 979 420 
L 979 2776 
L 243 2706 
z
" transform="scale(0.015625)"/>
       <path id="CMR17-79" d="M 2496 2197 
C 2656 2586 2944 2586 3034 2586 
L 3034 2752 
C 2912 2752 2752 2752 2630 2752 
C 2496 2752 2285 2752 2157 2758 
L 2157 2592 
C 2400 2573 2406 2394 2406 2343 
C 2406 2280 2394 2248 2362 2171 
L 1664 449 
L 902 2306 
C 870 2382 870 2426 870 2433 
C 870 2573 1018 2586 1171 2586 
L 1171 2758 
C 1018 2752 742 2752 582 2752 
C 410 2752 205 2752 64 2758 
L 64 2586 
C 410 2586 448 2554 531 2350 
L 1485 15 
C 1197 -738 1030 -1178 627 -1178 
C 557 -1178 397 -1159 282 -1044 
C 429 -1031 493 -942 493 -833 
C 493 -725 416 -629 288 -629 
C 147 -629 77 -725 77 -840 
C 77 -1095 339 -1280 627 -1280 
C 998 -1280 1229 -922 1357 -604 
L 2496 2197 
z
" transform="scale(0.015625)"/>
       <path id="CMR17-6f" d="M 2758 1356 
C 2758 2176 2163 2816 1466 2816 
C 768 2816 173 2176 173 1356 
C 173 551 768 -64 1466 -64 
C 2163 -64 2758 551 2758 1356 
z
M 1466 51 
C 1165 51 909 230 762 480 
C 602 767 582 1126 582 1408 
C 582 1677 595 2010 762 2298 
C 890 2509 1139 2714 1466 2714 
C 1754 2714 1997 2554 2150 2330 
C 2349 2029 2349 1607 2349 1408 
C 2349 1158 2336 775 2163 467 
C 1984 173 1709 51 1466 51 
z
" transform="scale(0.015625)"/>
       <path id="CMR17-57" d="M 5523 3764 
C 5581 3936 5677 4160 6048 4160 
L 6048 4326 
C 5939 4326 5715 4326 5600 4326 
C 5440 4326 5158 4326 5005 4332 
L 5005 4160 
C 5293 4160 5414 4000 5414 3847 
C 5414 3802 5408 3777 5382 3707 
L 4390 555 
L 3347 3873 
C 3328 3937 3322 3963 3322 3988 
C 3322 4160 3603 4160 3725 4160 
L 3725 4326 
C 3539 4326 3219 4326 3021 4326 
C 2861 4326 2573 4326 2426 4332 
L 2426 4160 
C 2720 4160 2797 4141 2861 4027 
C 2886 3969 2989 3638 2989 3619 
C 2989 3593 2976 3555 2970 3536 
L 2029 561 
L 986 3867 
C 954 3957 954 3969 954 3982 
C 954 4160 1235 4160 1363 4160 
L 1363 4326 
C 1178 4326 858 4326 659 4326 
C 493 4326 211 4326 58 4332 
L 58 4160 
C 442 4160 467 4122 531 3918 
L 1779 -20 
C 1811 -115 1811 -128 1869 -128 
C 1920 -128 1939 -115 1965 -26 
L 3053 3433 
L 4141 -26 
C 4166 -115 4186 -128 4237 -128 
C 4294 -128 4294 -115 4326 -20 
L 5523 3764 
z
" transform="scale(0.015625)"/>
       <path id="CMR17-6c" d="M 979 4396 
L 218 4326 
L 218 4160 
C 595 4160 653 4122 653 3817 
L 653 426 
C 653 184 627 153 218 153 
L 218 -13 
C 371 0 653 0 813 0 
C 979 0 1261 0 1414 -13 
L 1414 153 
C 1005 153 979 178 979 426 
L 979 4396 
z
" transform="scale(0.015625)"/>
      </defs>
      <use xlink:href="#CMR17-4d" transform="scale(0.996264)"/>
      <use xlink:href="#CMR17-65" transform="translate(84.686941 0) scale(0.996264)"/>
      <use xlink:href="#CMR17-61" transform="translate(125.172601 0) scale(0.996264)"/>
      <use xlink:href="#CMR17-6e" transform="translate(170.863078 0) scale(0.996264)"/>
      <use xlink:href="#CMR17-49" transform="translate(251.834414 0) scale(0.996264)"/>
      <use xlink:href="#CMR17-64" transform="translate(284.472823 0) scale(0.996264)"/>
      <use xlink:href="#CMR17-65" transform="translate(335.368193 0) scale(0.996264)"/>
      <use xlink:href="#CMR17-6e" transform="translate(375.853854 0) scale(0.996264)"/>
      <use xlink:href="#CMR17-74" transform="translate(424.14677 0) scale(0.996264)"/>
      <use xlink:href="#CMR17-69" transform="translate(459.427537 0) scale(0.996264)"/>
      <use xlink:href="#CMR17-74" transform="translate(484.298596 0) scale(0.996264)"/>
      <use xlink:href="#CMR17-79" transform="translate(516.97691 0) scale(0.996264)"/>
      <use xlink:href="#CMR17-74" transform="translate(595.345792 0) scale(0.996264)"/>
      <use xlink:href="#CMR17-6f" transform="translate(630.62656 0) scale(0.996264)"/>
      <use xlink:href="#CMR17-57" transform="translate(706.393003 0) scale(0.996264)"/>
      <use xlink:href="#CMR17-69" transform="translate(801.489653 0) scale(0.996264)"/>
      <use xlink:href="#CMR17-6c" transform="translate(826.360712 0) scale(0.996264)"/>
      <use xlink:href="#CMR17-64" transform="translate(851.23177 0) scale(0.996264)"/>
      <use xlink:href="#CMR17-74" transform="translate(902.12714 0) scale(0.996264)"/>
      <use xlink:href="#CMR17-79" transform="translate(934.805454 0) scale(0.996264)"/>
      <use xlink:href="#CMR17-70" transform="translate(983.09837 0) scale(0.996264)"/>
      <use xlink:href="#CMR17-65" transform="translate(1036.596178 0) scale(0.996264)"/>
     </g>
    </g>
   </g>
   <g id="LineCollection_1">
    <path d="M 56.822809 66.311522 
L 56.822809 55.736717 
" clip-path="url(#p35d9663f01)" style="fill: none; stroke: #000000"/>
    <path d="M 151.477921 76.263017 
L 151.477921 56.811301 
" clip-path="url(#p35d9663f01)" style="fill: none; stroke: #000000"/>
    <path d="M 246.133034 134.153242 
L 246.133034 124.363968 
" clip-path="url(#p35d9663f01)" style="fill: none; stroke: #000000"/>
    <path d="M 340.788146 121.769739 
L 340.788146 108.335745 
" clip-path="url(#p35d9663f01)" style="fill: none; stroke: #000000"/>
   </g>
   <g id="line2d_101">
    <defs>
     <path id="m33f34c4b92" d="M 5 0 
L -5 -0 
" style="stroke: #000000"/>
    </defs>
    <g clip-path="url(#p35d9663f01)">
     <use xlink:href="#m33f34c4b92" x="56.822809" y="66.311522" style="stroke: #000000"/>
     <use xlink:href="#m33f34c4b92" x="151.477921" y="76.263017" style="stroke: #000000"/>
     <use xlink:href="#m33f34c4b92" x="246.133034" y="134.153242" style="stroke: #000000"/>
     <use xlink:href="#m33f34c4b92" x="340.788146" y="121.769739" style="stroke: #000000"/>
    </g>
   </g>
   <g id="line2d_102">
    <g clip-path="url(#p35d9663f01)">
     <use xlink:href="#m33f34c4b92" x="56.822809" y="55.736717" style="stroke: #000000"/>
     <use xlink:href="#m33f34c4b92" x="151.477921" y="56.811301" style="stroke: #000000"/>
     <use xlink:href="#m33f34c4b92" x="246.133034" y="124.363968" style="stroke: #000000"/>
     <use xlink:href="#m33f34c4b92" x="340.788146" y="108.335745" style="stroke: #000000"/>
    </g>
   </g>
   <g id="LineCollection_2">
    <path d="M 71.021076 31.422727 
L 71.021076 15.011634 
" clip-path="url(#p35d9663f01)" style="fill: none; stroke: #000000"/>
    <path d="M 165.676188 43.843664 
L 165.676188 22.965468 
" clip-path="url(#p35d9663f01)" style="fill: none; stroke: #000000"/>
    <path d="M 260.331301 130.23556 
L 260.331301 119.530632 
" clip-path="url(#p35d9663f01)" style="fill: none; stroke: #000000"/>
    <path d="M 354.986413 119.184447 
L 354.986413 107.371117 
" clip-path="url(#p35d9663f01)" style="fill: none; stroke: #000000"/>
   </g>
   <g id="line2d_103">
    <g clip-path="url(#p35d9663f01)">
     <use xlink:href="#m33f34c4b92" x="71.021076" y="31.422727" style="stroke: #000000"/>
     <use xlink:href="#m33f34c4b92" x="165.676188" y="43.843664" style="stroke: #000000"/>
     <use xlink:href="#m33f34c4b92" x="260.331301" y="130.23556" style="stroke: #000000"/>
     <use xlink:href="#m33f34c4b92" x="354.986413" y="119.184447" style="stroke: #000000"/>
    </g>
   </g>
   <g id="line2d_104">
    <g clip-path="url(#p35d9663f01)">
     <use xlink:href="#m33f34c4b92" x="71.021076" y="15.011634" style="stroke: #000000"/>
     <use xlink:href="#m33f34c4b92" x="165.676188" y="22.965468" style="stroke: #000000"/>
     <use xlink:href="#m33f34c4b92" x="260.331301" y="119.530632" style="stroke: #000000"/>
     <use xlink:href="#m33f34c4b92" x="354.986413" y="107.371117" style="stroke: #000000"/>
    </g>
   </g>
   <g id="LineCollection_3">
    <path d="M 85.219343 31.505353 
L 85.219343 17.624003 
" clip-path="url(#p35d9663f01)" style="fill: none; stroke: #000000"/>
    <path d="M 179.874455 38.758612 
L 179.874455 16.164859 
" clip-path="url(#p35d9663f01)" style="fill: none; stroke: #000000"/>
    <path d="M 274.529567 132.283801 
L 274.529567 120.522999 
" clip-path="url(#p35d9663f01)" style="fill: none; stroke: #000000"/>
    <path d="M 369.18468 124.987878 
L 369.18468 110.245269 
" clip-path="url(#p35d9663f01)" style="fill: none; stroke: #000000"/>
   </g>
   <g id="line2d_105">
    <g clip-path="url(#p35d9663f01)">
     <use xlink:href="#m33f34c4b92" x="85.219343" y="31.505353" style="stroke: #000000"/>
     <use xlink:href="#m33f34c4b92" x="179.874455" y="38.758612" style="stroke: #000000"/>
     <use xlink:href="#m33f34c4b92" x="274.529567" y="132.283801" style="stroke: #000000"/>
     <use xlink:href="#m33f34c4b92" x="369.18468" y="124.987878" style="stroke: #000000"/>
    </g>
   </g>
   <g id="line2d_106">
    <g clip-path="url(#p35d9663f01)">
     <use xlink:href="#m33f34c4b92" x="85.219343" y="17.624003" style="stroke: #000000"/>
     <use xlink:href="#m33f34c4b92" x="179.874455" y="16.164859" style="stroke: #000000"/>
     <use xlink:href="#m33f34c4b92" x="274.529567" y="120.522999" style="stroke: #000000"/>
     <use xlink:href="#m33f34c4b92" x="369.18468" y="110.245269" style="stroke: #000000"/>
    </g>
   </g>
   <g id="LineCollection_4">
    <path d="M 99.41761 33.813621 
L 99.41761 19.24273 
" clip-path="url(#p35d9663f01)" style="fill: none; stroke: #000000"/>
    <path d="M 194.072722 35.883853 
L 194.072722 15.568585 
" clip-path="url(#p35d9663f01)" style="fill: none; stroke: #000000"/>
    <path d="M 288.727834 137.432396 
L 288.727834 125.089517 
" clip-path="url(#p35d9663f01)" style="fill: none; stroke: #000000"/>
    <path d="M 383.382946 129.333873 
L 383.382946 117.180134 
" clip-path="url(#p35d9663f01)" style="fill: none; stroke: #000000"/>
   </g>
   <g id="line2d_107">
    <g clip-path="url(#p35d9663f01)">
     <use xlink:href="#m33f34c4b92" x="99.41761" y="33.813621" style="stroke: #000000"/>
     <use xlink:href="#m33f34c4b92" x="194.072722" y="35.883853" style="stroke: #000000"/>
     <use xlink:href="#m33f34c4b92" x="288.727834" y="137.432396" style="stroke: #000000"/>
     <use xlink:href="#m33f34c4b92" x="383.382946" y="129.333873" style="stroke: #000000"/>
    </g>
   </g>
   <g id="line2d_108">
    <g clip-path="url(#p35d9663f01)">
     <use xlink:href="#m33f34c4b92" x="99.41761" y="19.24273" style="stroke: #000000"/>
     <use xlink:href="#m33f34c4b92" x="194.072722" y="15.568585" style="stroke: #000000"/>
     <use xlink:href="#m33f34c4b92" x="288.727834" y="125.089517" style="stroke: #000000"/>
     <use xlink:href="#m33f34c4b92" x="383.382946" y="117.180134" style="stroke: #000000"/>
    </g>
   </g>
   <g id="patch_19">
    <path d="M 32.685756 243.244323 
L 32.685756 3.6 
" style="fill: none; stroke: #000000; stroke-width: 0.5; stroke-linejoin: miter; stroke-linecap: square"/>
   </g>
   <g id="patch_20">
    <path d="M 407.52 243.244323 
L 407.52 3.6 
" style="fill: none; stroke: #000000; stroke-width: 0.5; stroke-linejoin: miter; stroke-linecap: square"/>
   </g>
   <g id="patch_21">
    <path d="M 32.685756 243.244323 
L 407.52 243.244323 
" style="fill: none; stroke: #000000; stroke-width: 0.5; stroke-linejoin: miter; stroke-linecap: square"/>
   </g>
   <g id="patch_22">
    <path d="M 32.685756 3.6 
L 407.52 3.6 
" style="fill: none; stroke: #000000; stroke-width: 0.5; stroke-linejoin: miter; stroke-linecap: square"/>
   </g>
   <g id="legend_1">
    <g id="patch_23">
     <path d="M 284.979495 19.6 
L 304.979495 19.6 
L 304.979495 12.6 
L 284.979495 12.6 
z
" style="fill: #4477aa"/>
    </g>
    <g id="text_12">
     <!-- P-MPNN Monomer -->
     <g transform="translate(312.979495 19.6) scale(0.1 -0.1)">
      <defs>
       <path id="CMR17-2d" d="M 1632 1216 
L 1632 1496 
L 26 1496 
L 26 1216 
L 1632 1216 
z
" transform="scale(0.015625)"/>
       <path id="CMR17-4e" d="M 1312 4250 
C 1267 4320 1261 4320 1139 4320 
L 326 4320 
L 326 4160 
L 448 4160 
C 704 4160 819 4129 838 4122 
L 838 610 
C 838 451 838 153 326 153 
L 326 -13 
C 474 0 742 0 902 0 
C 1062 0 1331 0 1478 -13 
L 1478 153 
C 966 153 966 451 966 610 
L 966 4033 
C 1011 3995 1011 3982 1056 3919 
L 3430 76 
C 3475 0 3494 0 3526 0 
C 3590 0 3590 19 3590 139 
L 3590 3705 
C 3590 3863 3590 4160 4102 4160 
L 4102 4326 
C 3955 4320 3686 4320 3526 4320 
C 3366 4320 3098 4320 2950 4326 
L 2950 4160 
C 3462 4160 3462 3862 3462 3703 
L 3462 763 
L 1312 4250 
z
" transform="scale(0.015625)"/>
       <path id="CMR17-6d" d="M 4326 1933 
C 4326 2252 4269 2790 3507 2790 
C 3072 2790 2771 2496 2656 2151 
L 2650 2151 
C 2573 2676 2195 2790 1837 2790 
C 1331 2790 1069 2400 973 2144 
L 966 2144 
L 966 2790 
L 211 2720 
L 211 2554 
C 589 2554 646 2515 646 2208 
L 646 428 
C 646 184 621 153 211 153 
L 211 -13 
C 365 0 646 0 813 0 
C 979 0 1267 0 1421 -13 
L 1421 153 
C 1011 153 986 178 986 428 
L 986 1658 
C 986 2247 1344 2688 1792 2688 
C 2266 2688 2317 2266 2317 1958 
L 2317 428 
C 2317 184 2291 153 1882 153 
L 1882 -13 
C 2035 0 2317 0 2483 0 
C 2650 0 2938 0 3091 -13 
L 3091 153 
C 2682 153 2656 178 2656 428 
L 2656 1658 
C 2656 2247 3014 2688 3462 2688 
C 3936 2688 3987 2266 3987 1958 
L 3987 428 
C 3987 184 3962 153 3552 153 
L 3552 -13 
C 3706 0 3987 0 4154 0 
C 4320 0 4608 0 4762 -13 
L 4762 153 
C 4352 153 4326 178 4326 428 
L 4326 1933 
z
" transform="scale(0.015625)"/>
       <path id="CMR17-72" d="M 960 1497 
C 960 2112 1222 2688 1702 2688 
C 1747 2688 1792 2682 1837 2662 
C 1837 2662 1696 2617 1696 2452 
C 1696 2298 1818 2234 1914 2234 
C 1990 2234 2131 2279 2131 2458 
C 2131 2663 1926 2790 1709 2790 
C 1222 2790 1011 2317 947 2093 
L 941 2093 
L 941 2790 
L 198 2720 
L 198 2554 
C 576 2554 634 2515 634 2208 
L 634 428 
C 634 184 608 153 198 153 
L 198 -13 
C 352 0 646 0 813 0 
C 998 0 1325 0 1498 -13 
L 1498 153 
C 1037 153 960 153 960 440 
L 960 1497 
z
" transform="scale(0.015625)"/>
      </defs>
      <use xlink:href="#CMR17-50" transform="scale(0.996264)"/>
      <use xlink:href="#CMR17-2d" transform="translate(62.586301 0) scale(0.996264)"/>
      <use xlink:href="#CMR17-4d" transform="translate(92.662267 0) scale(0.996264)"/>
      <use xlink:href="#CMR17-50" transform="translate(177.349207 0) scale(0.996264)"/>
      <use xlink:href="#CMR17-4e" transform="translate(239.935508 0) scale(0.996264)"/>
      <use xlink:href="#CMR17-4e" transform="translate(309.007938 0) scale(0.996264)"/>
      <use xlink:href="#CMR17-4d" transform="translate(408.156334 0) scale(0.996264)"/>
      <use xlink:href="#CMR17-6f" transform="translate(492.843274 0) scale(0.996264)"/>
      <use xlink:href="#CMR17-6e" transform="translate(538.533752 0) scale(0.996264)"/>
      <use xlink:href="#CMR17-6f" transform="translate(589.429121 0) scale(0.996264)"/>
      <use xlink:href="#CMR17-6d" transform="translate(635.119599 0) scale(0.996264)"/>
      <use xlink:href="#CMR17-65" transform="translate(712.039188 0) scale(0.996264)"/>
      <use xlink:href="#CMR17-72" transform="translate(752.524849 0) scale(0.996264)"/>
     </g>
    </g>
    <g id="patch_24">
     <path d="M 284.979495 33.537178 
L 304.979495 33.537178 
L 304.979495 26.537178 
L 284.979495 26.537178 
z
" style="fill: #ee6677"/>
    </g>
    <g id="text_13">
     <!-- P-MPNN 2x2 -->
     <g transform="translate(312.979495 33.537178) scale(0.1 -0.1)">
      <defs>
       <path id="CMR17-78" d="M 1664 1477 
C 1856 1726 2074 2006 2253 2216 
C 2464 2458 2707 2560 2989 2560 
L 2989 2726 
C 2880 2726 2656 2726 2541 2726 
C 2368 2726 2170 2726 2022 2732 
L 2022 2566 
C 2112 2553 2163 2489 2163 2400 
C 2163 2285 2099 2215 2067 2171 
L 1594 1573 
L 1030 2306 
C 973 2376 973 2388 973 2420 
C 973 2497 1037 2560 1146 2560 
L 1146 2732 
C 992 2726 717 2726 557 2726 
C 384 2726 179 2726 38 2732 
L 38 2560 
C 384 2560 461 2534 614 2343 
L 1350 1395 
C 1363 1382 1395 1344 1395 1325 
C 1395 1299 838 619 768 530 
C 480 185 179 160 6 160 
L 6 0 
C 115 0 339 0 454 0 
C 582 0 864 0 979 -6 
L 979 160 
C 941 166 838 179 838 325 
C 838 440 890 510 947 586 
L 1478 1236 
L 2035 512 
C 2086 442 2163 346 2163 301 
C 2163 211 2086 160 1984 160 
L 1984 -6 
C 2138 0 2413 0 2573 0 
C 2746 0 2950 0 3091 -6 
L 3091 160 
C 2771 160 2675 172 2522 370 
L 1664 1477 
z
" transform="scale(0.015625)"/>
      </defs>
      <use xlink:href="#CMR17-50" transform="scale(0.996264)"/>
      <use xlink:href="#CMR17-2d" transform="translate(62.586301 0) scale(0.996264)"/>
      <use xlink:href="#CMR17-4d" transform="translate(92.662267 0) scale(0.996264)"/>
      <use xlink:href="#CMR17-50" transform="translate(177.349207 0) scale(0.996264)"/>
      <use xlink:href="#CMR17-4e" transform="translate(239.935508 0) scale(0.996264)"/>
      <use xlink:href="#CMR17-4e" transform="translate(309.007938 0) scale(0.996264)"/>
      <use xlink:href="#CMR17-32" transform="translate(408.156334 0) scale(0.996264)"/>
      <use xlink:href="#CMR17-78" transform="translate(453.846811 0) scale(0.996264)"/>
      <use xlink:href="#CMR17-32" transform="translate(502.139727 0) scale(0.996264)"/>
     </g>
    </g>
    <g id="patch_25">
     <path d="M 284.979495 47.474357 
L 304.979495 47.474357 
L 304.979495 40.474357 
L 284.979495 40.474357 
z
" style="fill: #228833"/>
    </g>
    <g id="text_14">
     <!-- P-MPNN 3x3 -->
     <g transform="translate(312.979495 47.474357) scale(0.1 -0.1)">
      <use xlink:href="#CMR17-50" transform="scale(0.996264)"/>
      <use xlink:href="#CMR17-2d" transform="translate(62.586301 0) scale(0.996264)"/>
      <use xlink:href="#CMR17-4d" transform="translate(92.662267 0) scale(0.996264)"/>
      <use xlink:href="#CMR17-50" transform="translate(177.349207 0) scale(0.996264)"/>
      <use xlink:href="#CMR17-4e" transform="translate(239.935508 0) scale(0.996264)"/>
      <use xlink:href="#CMR17-4e" transform="translate(309.007938 0) scale(0.996264)"/>
      <use xlink:href="#CMR17-33" transform="translate(408.156334 0) scale(0.996264)"/>
      <use xlink:href="#CMR17-78" transform="translate(453.846811 0) scale(0.996264)"/>
      <use xlink:href="#CMR17-33" transform="translate(502.139727 0) scale(0.996264)"/>
     </g>
    </g>
    <g id="patch_26">
     <path d="M 284.979495 61.411535 
L 304.979495 61.411535 
L 304.979495 54.411535 
L 284.979495 54.411535 
z
" style="fill: #ccbb44"/>
    </g>
    <g id="text_15">
     <!-- P-MPNN Sym -->
     <g transform="translate(312.979495 61.411535) scale(0.1 -0.1)">
      <defs>
       <path id="CMR17-53" d="M 2803 4290 
C 2803 4404 2797 4411 2758 4411 
C 2720 4411 2707 4385 2682 4328 
L 2490 3907 
C 2246 4257 1875 4416 1472 4416 
C 819 4416 294 3901 294 3253 
C 294 3056 339 2776 557 2510 
C 794 2218 1018 2167 1530 2033 
C 1722 1982 2042 1899 2106 1874 
C 2470 1722 2662 1341 2662 985 
C 2662 527 2336 38 1779 38 
C 1094 38 454 419 410 1311 
C 403 1413 397 1419 352 1419 
C 301 1419 294 1413 294 1285 
L 294 -1 
C 294 -115 301 -122 339 -122 
C 384 -122 397 -90 486 108 
C 493 127 493 140 614 381 
C 934 -39 1472 -128 1779 -128 
C 2477 -128 2970 451 2970 1124 
C 2970 1454 2848 1708 2778 1823 
C 2509 2230 2221 2306 1914 2382 
C 1869 2402 1856 2402 1498 2490 
C 1152 2579 1005 2624 845 2796 
C 666 2992 602 3196 602 3399 
C 602 3812 934 4263 1478 4263 
C 2157 4263 2579 3786 2675 2993 
C 2694 2878 2701 2872 2746 2872 
C 2803 2872 2803 2891 2803 2999 
L 2803 4290 
z
" transform="scale(0.015625)"/>
      </defs>
      <use xlink:href="#CMR17-50" transform="scale(0.996264)"/>
      <use xlink:href="#CMR17-2d" transform="translate(62.586301 0) scale(0.996264)"/>
      <use xlink:href="#CMR17-4d" transform="translate(92.662267 0) scale(0.996264)"/>
      <use xlink:href="#CMR17-50" transform="translate(177.349207 0) scale(0.996264)"/>
      <use xlink:href="#CMR17-4e" transform="translate(239.935508 0) scale(0.996264)"/>
      <use xlink:href="#CMR17-4e" transform="translate(309.007938 0) scale(0.996264)"/>
      <use xlink:href="#CMR17-53" transform="translate(408.156334 0) scale(0.996264)"/>
      <use xlink:href="#CMR17-79" transform="translate(459.051704 0) scale(0.996264)"/>
      <use xlink:href="#CMR17-6d" transform="translate(507.34462 0) scale(0.996264)"/>
     </g>
    </g>
   </g>
  </g>
 </g>
 <defs>
  <clipPath id="p35d9663f01">
   <rect x="32.685756" y="3.6" width="374.834244" height="239.644323"/>
  </clipPath>
 </defs>
</svg>
