<?xml version="1.0" encoding="utf-8" standalone="no"?>
<!DOCTYPE svg PUBLIC "-//W3C//DTD SVG 1.1//EN"
  "http://www.w3.org/Graphics/SVG/1.1/DTD/svg11.dtd">
<svg xmlns:xlink="http://www.w3.org/1999/xlink" width="576pt" height="288pt" viewBox="0 0 576 288" xmlns="http://www.w3.org/2000/svg" version="1.1">
 <metadata>
  <rdf:RDF xmlns:dc="http://purl.org/dc/elements/1.1/" xmlns:cc="http://creativecommons.org/ns#" xmlns:rdf="http://www.w3.org/1999/02/22-rdf-syntax-ns#">
   <cc:Work>
    <dc:type rdf:resource="http://purl.org/dc/dcmitype/StillImage"/>
    <dc:date>2025-07-02T23:31:21.285929</dc:date>
    <dc:format>image/svg+xml</dc:format>
    <dc:creator>
     <cc:Agent>
      <dc:title>Matplotlib v3.10.1, https://matplotlib.org/</dc:title>
     </cc:Agent>
    </dc:creator>
   </cc:Work>
  </rdf:RDF>
 </metadata>
 <defs>
  <style type="text/css">*{stroke-linejoin: round; stroke-linecap: butt}</style>
 </defs>
 <g id="figure_1">
  <g id="patch_1">
   <path d="M 0 288 
L 576 288 
L 576 0 
L 0 0 
z
" style="fill: #ffffff"/>
  </g>
  <g id="axes_1">
   <g id="patch_2">
    <path d="M 72 256.32 
L 518.4 256.32 
L 518.4 34.56 
L 72 34.56 
z
" style="fill: #ffffff"/>
   </g>
   <g id="matplotlib.axis_1">
    <g id="xtick_1">
     <g id="line2d_1">
      <defs>
       <path id="m105fe43b9d" d="M 0 0 
L 0 3.5 
" style="stroke: #000000; stroke-width: 0.8"/>
      </defs>
      <g>
       <use xlink:href="#m105fe43b9d" x="75.203492" y="256.32" style="stroke: #000000; stroke-width: 0.8"/>
      </g>
     </g>
     <g id="text_1">
      <!-- 2 -->
      <g transform="translate(72.423023 270.477813) scale(0.1 -0.1)">
       <defs>
        <path id="ArialMT-32" d="M 3222 541 
L 3222 0 
L 194 0 
Q 188 203 259 391 
Q 375 700 629 1000 
Q 884 1300 1366 1694 
Q 2113 2306 2375 2664 
Q 2638 3022 2638 3341 
Q 2638 3675 2398 3904 
Q 2159 4134 1775 4134 
Q 1369 4134 1125 3890 
Q 881 3647 878 3216 
L 300 3275 
Q 359 3922 746 4261 
Q 1134 4600 1788 4600 
Q 2447 4600 2831 4234 
Q 3216 3869 3216 3328 
Q 3216 3053 3103 2787 
Q 2991 2522 2730 2228 
Q 2469 1934 1863 1422 
Q 1356 997 1212 845 
Q 1069 694 975 541 
L 3222 541 
z
" transform="scale(0.015625)"/>
       </defs>
       <use xlink:href="#ArialMT-32"/>
      </g>
     </g>
    </g>
    <g id="xtick_2">
     <g id="line2d_2">
      <g>
       <use xlink:href="#m105fe43b9d" x="142.868929" y="256.32" style="stroke: #000000; stroke-width: 0.8"/>
      </g>
     </g>
     <g id="text_2">
      <!-- 4 -->
      <g transform="translate(140.08846 270.477813) scale(0.1 -0.1)">
       <defs>
        <path id="ArialMT-34" d="M 2069 0 
L 2069 1097 
L 81 1097 
L 81 1613 
L 2172 4581 
L 2631 4581 
L 2631 1613 
L 3250 1613 
L 3250 1097 
L 2631 1097 
L 2631 0 
L 2069 0 
z
M 2069 1613 
L 2069 3678 
L 634 1613 
L 2069 1613 
z
" transform="scale(0.015625)"/>
       </defs>
       <use xlink:href="#ArialMT-34"/>
      </g>
     </g>
    </g>
    <g id="xtick_3">
     <g id="line2d_3">
      <g>
       <use xlink:href="#m105fe43b9d" x="210.534366" y="256.32" style="stroke: #000000; stroke-width: 0.8"/>
      </g>
     </g>
     <g id="text_3">
      <!-- 6 -->
      <g transform="translate(207.753897 270.477813) scale(0.1 -0.1)">
       <defs>
        <path id="ArialMT-36" d="M 3184 3459 
L 2625 3416 
Q 2550 3747 2413 3897 
Q 2184 4138 1850 4138 
Q 1581 4138 1378 3988 
Q 1113 3794 959 3422 
Q 806 3050 800 2363 
Q 1003 2672 1297 2822 
Q 1591 2972 1913 2972 
Q 2475 2972 2870 2558 
Q 3266 2144 3266 1488 
Q 3266 1056 3080 686 
Q 2894 316 2569 119 
Q 2244 -78 1831 -78 
Q 1128 -78 684 439 
Q 241 956 241 2144 
Q 241 3472 731 4075 
Q 1159 4600 1884 4600 
Q 2425 4600 2770 4297 
Q 3116 3994 3184 3459 
z
M 888 1484 
Q 888 1194 1011 928 
Q 1134 663 1356 523 
Q 1578 384 1822 384 
Q 2178 384 2434 671 
Q 2691 959 2691 1453 
Q 2691 1928 2437 2201 
Q 2184 2475 1800 2475 
Q 1419 2475 1153 2201 
Q 888 1928 888 1484 
z
" transform="scale(0.015625)"/>
       </defs>
       <use xlink:href="#ArialMT-36"/>
      </g>
     </g>
    </g>
    <g id="xtick_4">
     <g id="line2d_4">
      <g>
       <use xlink:href="#m105fe43b9d" x="278.199803" y="256.32" style="stroke: #000000; stroke-width: 0.8"/>
      </g>
     </g>
     <g id="text_4">
      <!-- 8 -->
      <g transform="translate(275.419334 270.477813) scale(0.1 -0.1)">
       <defs>
        <path id="ArialMT-38" d="M 1131 2484 
Q 781 2613 612 2850 
Q 444 3088 444 3419 
Q 444 3919 803 4259 
Q 1163 4600 1759 4600 
Q 2359 4600 2725 4251 
Q 3091 3903 3091 3403 
Q 3091 3084 2923 2848 
Q 2756 2613 2416 2484 
Q 2838 2347 3058 2040 
Q 3278 1734 3278 1309 
Q 3278 722 2862 322 
Q 2447 -78 1769 -78 
Q 1091 -78 675 323 
Q 259 725 259 1325 
Q 259 1772 486 2073 
Q 713 2375 1131 2484 
z
M 1019 3438 
Q 1019 3113 1228 2906 
Q 1438 2700 1772 2700 
Q 2097 2700 2305 2904 
Q 2513 3109 2513 3406 
Q 2513 3716 2298 3927 
Q 2084 4138 1766 4138 
Q 1444 4138 1231 3931 
Q 1019 3725 1019 3438 
z
M 838 1322 
Q 838 1081 952 856 
Q 1066 631 1291 507 
Q 1516 384 1775 384 
Q 2178 384 2440 643 
Q 2703 903 2703 1303 
Q 2703 1709 2433 1975 
Q 2163 2241 1756 2241 
Q 1359 2241 1098 1978 
Q 838 1716 838 1322 
z
" transform="scale(0.015625)"/>
       </defs>
       <use xlink:href="#ArialMT-38"/>
      </g>
     </g>
    </g>
    <g id="xtick_5">
     <g id="line2d_5">
      <g>
       <use xlink:href="#m105fe43b9d" x="345.86524" y="256.32" style="stroke: #000000; stroke-width: 0.8"/>
      </g>
     </g>
     <g id="text_5">
      <!-- 10 -->
      <g transform="translate(340.304303 270.477813) scale(0.1 -0.1)">
       <defs>
        <path id="ArialMT-31" d="M 2384 0 
L 1822 0 
L 1822 3584 
Q 1619 3391 1289 3197 
Q 959 3003 697 2906 
L 697 3450 
Q 1169 3672 1522 3987 
Q 1875 4303 2022 4600 
L 2384 4600 
L 2384 0 
z
" transform="scale(0.015625)"/>
        <path id="ArialMT-30" d="M 266 2259 
Q 266 3072 433 3567 
Q 600 4063 929 4331 
Q 1259 4600 1759 4600 
Q 2128 4600 2406 4451 
Q 2684 4303 2865 4023 
Q 3047 3744 3150 3342 
Q 3253 2941 3253 2259 
Q 3253 1453 3087 958 
Q 2922 463 2592 192 
Q 2263 -78 1759 -78 
Q 1097 -78 719 397 
Q 266 969 266 2259 
z
M 844 2259 
Q 844 1131 1108 757 
Q 1372 384 1759 384 
Q 2147 384 2411 759 
Q 2675 1134 2675 2259 
Q 2675 3391 2411 3762 
Q 2147 4134 1753 4134 
Q 1366 4134 1134 3806 
Q 844 3388 844 2259 
z
" transform="scale(0.015625)"/>
       </defs>
       <use xlink:href="#ArialMT-31"/>
       <use xlink:href="#ArialMT-30" transform="translate(55.615234 0)"/>
      </g>
     </g>
    </g>
    <g id="xtick_6">
     <g id="line2d_6">
      <g>
       <use xlink:href="#m105fe43b9d" x="413.530678" y="256.32" style="stroke: #000000; stroke-width: 0.8"/>
      </g>
     </g>
     <g id="text_6">
      <!-- 12 -->
      <g transform="translate(407.96974 270.477813) scale(0.1 -0.1)">
       <use xlink:href="#ArialMT-31"/>
       <use xlink:href="#ArialMT-32" transform="translate(55.615234 0)"/>
      </g>
     </g>
    </g>
    <g id="xtick_7">
     <g id="line2d_7">
      <g>
       <use xlink:href="#m105fe43b9d" x="481.196115" y="256.32" style="stroke: #000000; stroke-width: 0.8"/>
      </g>
     </g>
     <g id="text_7">
      <!-- 14 -->
      <g transform="translate(475.635177 270.477813) scale(0.1 -0.1)">
       <use xlink:href="#ArialMT-31"/>
       <use xlink:href="#ArialMT-34" transform="translate(55.615234 0)"/>
      </g>
     </g>
    </g>
    <g id="text_8">
     <!-- x (nm) -->
     <g transform="translate(281.035937 283.745) scale(0.1 -0.1)">
      <defs>
       <path id="ArialMT-78" d="M 47 0 
L 1259 1725 
L 138 3319 
L 841 3319 
L 1350 2541 
Q 1494 2319 1581 2169 
Q 1719 2375 1834 2534 
L 2394 3319 
L 3066 3319 
L 1919 1756 
L 3153 0 
L 2463 0 
L 1781 1031 
L 1600 1309 
L 728 0 
L 47 0 
z
" transform="scale(0.015625)"/>
       <path id="ArialMT-20" transform="scale(0.015625)"/>
       <path id="ArialMT-28" d="M 1497 -1347 
Q 1031 -759 709 28 
Q 388 816 388 1659 
Q 388 2403 628 3084 
Q 909 3875 1497 4659 
L 1900 4659 
Q 1522 4009 1400 3731 
Q 1209 3300 1100 2831 
Q 966 2247 966 1656 
Q 966 153 1900 -1347 
L 1497 -1347 
z
" transform="scale(0.015625)"/>
       <path id="ArialMT-6e" d="M 422 0 
L 422 3319 
L 928 3319 
L 928 2847 
Q 1294 3394 1984 3394 
Q 2284 3394 2536 3286 
Q 2788 3178 2913 3003 
Q 3038 2828 3088 2588 
Q 3119 2431 3119 2041 
L 3119 0 
L 2556 0 
L 2556 2019 
Q 2556 2363 2490 2533 
Q 2425 2703 2258 2804 
Q 2091 2906 1866 2906 
Q 1506 2906 1245 2678 
Q 984 2450 984 1813 
L 984 0 
L 422 0 
z
" transform="scale(0.015625)"/>
       <path id="ArialMT-6d" d="M 422 0 
L 422 3319 
L 925 3319 
L 925 2853 
Q 1081 3097 1340 3245 
Q 1600 3394 1931 3394 
Q 2300 3394 2536 3241 
Q 2772 3088 2869 2813 
Q 3263 3394 3894 3394 
Q 4388 3394 4653 3120 
Q 4919 2847 4919 2278 
L 4919 0 
L 4359 0 
L 4359 2091 
Q 4359 2428 4304 2576 
Q 4250 2725 4106 2815 
Q 3963 2906 3769 2906 
Q 3419 2906 3187 2673 
Q 2956 2441 2956 1928 
L 2956 0 
L 2394 0 
L 2394 2156 
Q 2394 2531 2256 2718 
Q 2119 2906 1806 2906 
Q 1569 2906 1367 2781 
Q 1166 2656 1075 2415 
Q 984 2175 984 1722 
L 984 0 
L 422 0 
z
" transform="scale(0.015625)"/>
       <path id="ArialMT-29" d="M 791 -1347 
L 388 -1347 
Q 1322 153 1322 1656 
Q 1322 2244 1188 2822 
Q 1081 3291 891 3722 
Q 769 4003 388 4659 
L 791 4659 
Q 1378 3875 1659 3084 
Q 1900 2403 1900 1659 
Q 1900 816 1576 28 
Q 1253 -759 791 -1347 
z
" transform="scale(0.015625)"/>
      </defs>
      <use xlink:href="#ArialMT-78"/>
      <use xlink:href="#ArialMT-20" transform="translate(50 0)"/>
      <use xlink:href="#ArialMT-28" transform="translate(77.783203 0)"/>
      <use xlink:href="#ArialMT-6e" transform="translate(111.083984 0)"/>
      <use xlink:href="#ArialMT-6d" transform="translate(166.699219 0)"/>
      <use xlink:href="#ArialMT-29" transform="translate(250 0)"/>
     </g>
    </g>
   </g>
   <g id="matplotlib.axis_2">
    <g id="ytick_1">
     <g id="line2d_8">
      <defs>
       <path id="m4ec7baa8ed" d="M 0 0 
L -3.5 0 
" style="stroke: #000000; stroke-width: 0.8"/>
      </defs>
      <g>
       <use xlink:href="#m4ec7baa8ed" x="72" y="242.615872" style="stroke: #000000; stroke-width: 0.8"/>
      </g>
     </g>
     <g id="text_9">
      <!-- 0 -->
      <g transform="translate(59.439062 246.194779) scale(0.1 -0.1)">
       <use xlink:href="#ArialMT-30"/>
      </g>
     </g>
    </g>
    <g id="ytick_2">
     <g id="line2d_9">
      <g>
       <use xlink:href="#m4ec7baa8ed" x="72" y="212.603249" style="stroke: #000000; stroke-width: 0.8"/>
      </g>
     </g>
     <g id="text_10">
      <!-- 25 -->
      <g transform="translate(53.878125 216.182155) scale(0.1 -0.1)">
       <defs>
        <path id="ArialMT-35" d="M 266 1200 
L 856 1250 
Q 922 819 1161 601 
Q 1400 384 1738 384 
Q 2144 384 2425 690 
Q 2706 997 2706 1503 
Q 2706 1984 2436 2262 
Q 2166 2541 1728 2541 
Q 1456 2541 1237 2417 
Q 1019 2294 894 2097 
L 366 2166 
L 809 4519 
L 3088 4519 
L 3088 3981 
L 1259 3981 
L 1013 2750 
Q 1425 3038 1878 3038 
Q 2478 3038 2890 2622 
Q 3303 2206 3303 1553 
Q 3303 931 2941 478 
Q 2500 -78 1738 -78 
Q 1113 -78 717 272 
Q 322 622 266 1200 
z
" transform="scale(0.015625)"/>
       </defs>
       <use xlink:href="#ArialMT-32"/>
       <use xlink:href="#ArialMT-35" transform="translate(55.615234 0)"/>
      </g>
     </g>
    </g>
    <g id="ytick_3">
     <g id="line2d_10">
      <g>
       <use xlink:href="#m4ec7baa8ed" x="72" y="182.590625" style="stroke: #000000; stroke-width: 0.8"/>
      </g>
     </g>
     <g id="text_11">
      <!-- 50 -->
      <g transform="translate(53.878125 186.169531) scale(0.1 -0.1)">
       <use xlink:href="#ArialMT-35"/>
       <use xlink:href="#ArialMT-30" transform="translate(55.615234 0)"/>
      </g>
     </g>
    </g>
    <g id="ytick_4">
     <g id="line2d_11">
      <g>
       <use xlink:href="#m4ec7baa8ed" x="72" y="152.578001" style="stroke: #000000; stroke-width: 0.8"/>
      </g>
     </g>
     <g id="text_12">
      <!-- 75 -->
      <g transform="translate(53.878125 156.156907) scale(0.1 -0.1)">
       <defs>
        <path id="ArialMT-37" d="M 303 3981 
L 303 4522 
L 3269 4522 
L 3269 4084 
Q 2831 3619 2401 2847 
Q 1972 2075 1738 1259 
Q 1569 684 1522 0 
L 944 0 
Q 953 541 1156 1306 
Q 1359 2072 1739 2783 
Q 2119 3494 2547 3981 
L 303 3981 
z
" transform="scale(0.015625)"/>
       </defs>
       <use xlink:href="#ArialMT-37"/>
       <use xlink:href="#ArialMT-35" transform="translate(55.615234 0)"/>
      </g>
     </g>
    </g>
    <g id="ytick_5">
     <g id="line2d_12">
      <g>
       <use xlink:href="#m4ec7baa8ed" x="72" y="122.565377" style="stroke: #000000; stroke-width: 0.8"/>
      </g>
     </g>
     <g id="text_13">
      <!-- 100 -->
      <g transform="translate(48.317188 126.144283) scale(0.1 -0.1)">
       <use xlink:href="#ArialMT-31"/>
       <use xlink:href="#ArialMT-30" transform="translate(55.615234 0)"/>
       <use xlink:href="#ArialMT-30" transform="translate(111.230469 0)"/>
      </g>
     </g>
    </g>
    <g id="ytick_6">
     <g id="line2d_13">
      <g>
       <use xlink:href="#m4ec7baa8ed" x="72" y="92.552753" style="stroke: #000000; stroke-width: 0.8"/>
      </g>
     </g>
     <g id="text_14">
      <!-- 125 -->
      <g transform="translate(48.317188 96.131659) scale(0.1 -0.1)">
       <use xlink:href="#ArialMT-31"/>
       <use xlink:href="#ArialMT-32" transform="translate(55.615234 0)"/>
       <use xlink:href="#ArialMT-35" transform="translate(111.230469 0)"/>
      </g>
     </g>
    </g>
    <g id="ytick_7">
     <g id="line2d_14">
      <g>
       <use xlink:href="#m4ec7baa8ed" x="72" y="62.540129" style="stroke: #000000; stroke-width: 0.8"/>
      </g>
     </g>
     <g id="text_15">
      <!-- 150 -->
      <g transform="translate(48.317188 66.119035) scale(0.1 -0.1)">
       <use xlink:href="#ArialMT-31"/>
       <use xlink:href="#ArialMT-35" transform="translate(55.615234 0)"/>
       <use xlink:href="#ArialMT-30" transform="translate(111.230469 0)"/>
      </g>
     </g>
    </g>
    <g id="text_16">
     <!-- ΔG (kcal) -->
     <g transform="translate(42.2125 166.279063) rotate(-90) scale(0.1 -0.1)">
      <defs>
       <path id="ArialMT-394" d="M -6 0 
L 1753 4581 
L 2406 4581 
L 4281 0 
L -6 0 
z
M 834 541 
L 3381 541 
L 2391 3150 
Q 2169 3738 2066 4100 
Q 1981 3675 1819 3225 
L 834 541 
z
" transform="scale(0.015625)"/>
       <path id="ArialMT-47" d="M 2638 1797 
L 2638 2334 
L 4578 2338 
L 4578 638 
Q 4131 281 3656 101 
Q 3181 -78 2681 -78 
Q 2006 -78 1454 211 
Q 903 500 622 1047 
Q 341 1594 341 2269 
Q 341 2938 620 3517 
Q 900 4097 1425 4378 
Q 1950 4659 2634 4659 
Q 3131 4659 3532 4498 
Q 3934 4338 4162 4050 
Q 4391 3763 4509 3300 
L 3963 3150 
Q 3859 3500 3706 3700 
Q 3553 3900 3268 4020 
Q 2984 4141 2638 4141 
Q 2222 4141 1919 4014 
Q 1616 3888 1430 3681 
Q 1244 3475 1141 3228 
Q 966 2803 966 2306 
Q 966 1694 1177 1281 
Q 1388 869 1791 669 
Q 2194 469 2647 469 
Q 3041 469 3416 620 
Q 3791 772 3984 944 
L 3984 1797 
L 2638 1797 
z
" transform="scale(0.015625)"/>
       <path id="ArialMT-6b" d="M 425 0 
L 425 4581 
L 988 4581 
L 988 1969 
L 2319 3319 
L 3047 3319 
L 1778 2088 
L 3175 0 
L 2481 0 
L 1384 1697 
L 988 1316 
L 988 0 
L 425 0 
z
" transform="scale(0.015625)"/>
       <path id="ArialMT-63" d="M 2588 1216 
L 3141 1144 
Q 3050 572 2676 248 
Q 2303 -75 1759 -75 
Q 1078 -75 664 370 
Q 250 816 250 1647 
Q 250 2184 428 2587 
Q 606 2991 970 3192 
Q 1334 3394 1763 3394 
Q 2303 3394 2647 3120 
Q 2991 2847 3088 2344 
L 2541 2259 
Q 2463 2594 2264 2762 
Q 2066 2931 1784 2931 
Q 1359 2931 1093 2626 
Q 828 2322 828 1663 
Q 828 994 1084 691 
Q 1341 388 1753 388 
Q 2084 388 2306 591 
Q 2528 794 2588 1216 
z
" transform="scale(0.015625)"/>
       <path id="ArialMT-61" d="M 2588 409 
Q 2275 144 1986 34 
Q 1697 -75 1366 -75 
Q 819 -75 525 192 
Q 231 459 231 875 
Q 231 1119 342 1320 
Q 453 1522 633 1644 
Q 813 1766 1038 1828 
Q 1203 1872 1538 1913 
Q 2219 1994 2541 2106 
Q 2544 2222 2544 2253 
Q 2544 2597 2384 2738 
Q 2169 2928 1744 2928 
Q 1347 2928 1158 2789 
Q 969 2650 878 2297 
L 328 2372 
Q 403 2725 575 2942 
Q 747 3159 1072 3276 
Q 1397 3394 1825 3394 
Q 2250 3394 2515 3294 
Q 2781 3194 2906 3042 
Q 3031 2891 3081 2659 
Q 3109 2516 3109 2141 
L 3109 1391 
Q 3109 606 3145 398 
Q 3181 191 3288 0 
L 2700 0 
Q 2613 175 2588 409 
z
M 2541 1666 
Q 2234 1541 1622 1453 
Q 1275 1403 1131 1340 
Q 988 1278 909 1158 
Q 831 1038 831 891 
Q 831 666 1001 516 
Q 1172 366 1500 366 
Q 1825 366 2078 508 
Q 2331 650 2450 897 
Q 2541 1088 2541 1459 
L 2541 1666 
z
" transform="scale(0.015625)"/>
       <path id="ArialMT-6c" d="M 409 0 
L 409 4581 
L 972 4581 
L 972 0 
L 409 0 
z
" transform="scale(0.015625)"/>
      </defs>
      <use xlink:href="#ArialMT-394"/>
      <use xlink:href="#ArialMT-47" transform="translate(66.796875 0)"/>
      <use xlink:href="#ArialMT-20" transform="translate(144.580078 0)"/>
      <use xlink:href="#ArialMT-28" transform="translate(172.363281 0)"/>
      <use xlink:href="#ArialMT-6b" transform="translate(205.664062 0)"/>
      <use xlink:href="#ArialMT-63" transform="translate(255.664062 0)"/>
      <use xlink:href="#ArialMT-61" transform="translate(305.664062 0)"/>
      <use xlink:href="#ArialMT-6c" transform="translate(361.279297 0)"/>
      <use xlink:href="#ArialMT-29" transform="translate(383.496094 0)"/>
     </g>
    </g>
   </g>
   <g id="line2d_15">
    <path d="M 94.912234 242.615872 
L 96.910395 243.603438 
L 100.906749 244.735447 
L 102.90491 244.649153 
L 104.903104 244.399619 
L 106.901264 243.64772 
L 108.899424 243.548788 
L 110.897619 243.865073 
L 112.895779 243.474244 
L 114.893939 242.781936 
L 116.8921 242.211497 
L 118.890294 242.212359 
L 122.886615 241.878508 
L 126.882969 240.243858 
L 128.88113 239.552349 
L 130.879324 238.272662 
L 132.877484 237.316485 
L 136.873839 235.813569 
L 138.871999 234.715371 
L 140.870159 232.904379 
L 142.868354 230.435021 
L 148.862869 222.106374 
L 150.861029 219.665255 
L 154.857383 213.818064 
L 156.855544 211.507344 
L 158.853704 208.944818 
L 160.851898 206.601432 
L 162.850059 204.586901 
L 164.848219 202.813131 
L 168.844574 198.615289 
L 170.842734 195.992906 
L 172.840928 193.605222 
L 174.839089 192.236802 
L 176.837249 191.655301 
L 178.835443 190.053096 
L 180.833603 187.839653 
L 182.831764 185.382231 
L 184.829958 241.637653 
L 186.828118 183.090875 
L 188.826279 182.304928 
L 190.824473 181.252662 
L 192.822633 181.021421 
L 194.820794 180.603045 
L 198.817148 179.038823 
L 202.813469 177.794031 
L 204.811663 177.22498 
L 206.809824 176.129903 
L 208.807984 175.295504 
L 210.806178 174.641037 
L 212.804338 173.745244 
L 214.802499 172.98045 
L 216.800693 172.441964 
L 224.793368 169.595243 
L 226.791529 167.999976 
L 228.789723 167.45413 
L 230.787883 167.171099 
L 234.784238 166.216145 
L 236.782398 166.702122 
L 238.780558 165.983343 
L 244.775073 164.632643 
L 246.773268 164.050278 
L 248.771428 163.634123 
L 250.769588 162.974302 
L 254.765943 161.143652 
L 256.764103 160.195433 
L 260.760458 159.01524 
L 262.758618 158.352502 
L 264.756812 157.899683 
L 266.754973 157.674516 
L 268.753133 156.372413 
L 272.749488 154.646471 
L 274.747648 154.220568 
L 276.745842 153.604733 
L 280.742163 151.801802 
L 282.740357 151.199533 
L 284.738517 150.946647 
L 290.733032 149.459545 
L 292.731193 148.458384 
L 294.729353 147.195873 
L 300.723868 144.994051 
L 306.718383 141.961107 
L 308.716577 140.750398 
L 310.714737 241.637653 
L 312.712898 139.368269 
L 314.711092 138.238029 
L 318.707413 137.406619 
L 322.703767 137.108378 
L 324.701928 136.400536 
L 332.694637 134.808847 
L 334.692797 134.148653 
L 336.690957 133.647106 
L 340.687312 133.383139 
L 342.685472 133.31932 
L 344.683667 133.015388 
L 346.681962 132.996636 
L 348.680123 132.792767 
L 354.674604 132.744326 
L 356.672764 133.196485 
L 358.670924 132.341437 
L 360.669085 131.976243 
L 362.667245 131.879927 
L 364.665406 131.979389 
L 366.663566 131.708603 
L 368.661726 131.560016 
L 372.658047 131.493232 
L 374.656207 131.61219 
L 376.654368 131.57399 
L 378.652528 131.273984 
L 380.650688 131.505225 
L 384.647009 131.28929 
L 392.639651 130.192929 
L 398.634132 129.988747 
L 400.632292 129.738262 
L 404.628951 129.90368 
L 410.623432 129.968099 
L 414.619753 129.272742 
L 418.616074 129.038884 
L 420.614234 128.672057 
L 428.606875 128.521454 
L 430.605036 128.314067 
L 434.601356 128.260284 
L 436.599517 127.762555 
L 444.592158 126.570442 
L 446.590319 126.587321 
L 448.588479 126.406296 
L 450.586639 126.093025 
L 452.5848 126.064981 
L 454.58296 126.329884 
L 458.579281 125.748624 
L 460.577441 125.709727 
L 464.5741 125.297822 
L 466.572261 125.127771 
L 472.566742 125.222106 
L 474.564902 124.860574 
L 476.563062 124.363421 
L 480.559383 124.05632 
L 482.557543 122.558414 
L 484.555704 122.915192 
L 486.553864 122.821613 
L 488.552025 122.426478 
L 490.550185 122.244722 
L 492.548345 122.347125 
L 492.548345 122.347125 
" clip-path="url(#p175d2873d5)" style="fill: none; stroke: #d62728; stroke-width: 1.5; stroke-linecap: square"/>
   </g>
   <g id="line2d_16">
    <path d="M 94.542781 242.615872 
L 96.539013 242.789882 
L 98.535211 243.482673 
L 100.531409 244.358377 
L 102.527607 244.799285 
L 104.523805 244.512703 
L 106.520037 244.40734 
L 108.516235 243.448625 
L 110.512433 242.899374 
L 112.508631 241.573209 
L 114.504829 241.531982 
L 116.501061 241.921062 
L 118.497259 241.823174 
L 120.493457 241.223372 
L 122.489655 239.364602 
L 124.485853 238.521954 
L 126.482085 237.498707 
L 130.474481 234.630075 
L 132.47068 233.667876 
L 134.466878 232.960784 
L 136.46311 231.996228 
L 138.459308 230.312605 
L 142.451704 226.131163 
L 144.447902 223.509392 
L 146.444134 219.978623 
L 148.440332 217.640351 
L 150.43653 215.594439 
L 152.432728 213.145156 
L 156.425158 207.767927 
L 158.421356 205.243193 
L 160.417554 203.53455 
L 162.413752 201.592157 
L 166.406182 195.892148 
L 168.40238 193.173256 
L 170.398578 191.027197 
L 174.390974 187.19186 
L 178.383404 181.451814 
L 180.379602 178.814772 
L 182.3758 175.938927 
L 184.371998 173.306087 
L 186.36823 170.898991 
L 188.364428 168.093963 
L 190.360626 165.018449 
L 192.356824 162.163625 
L 194.353023 157.791049 
L 196.349254 155.069769 
L 198.345452 153.849251 
L 200.341651 152.028878 
L 202.337849 149.977239 
L 204.334047 147.460056 
L 208.326477 142.708061 
L 210.322675 140.239211 
L 216.311303 132.477274 
L 218.307501 129.9229 
L 220.303699 127.697572 
L 222.299897 125.213631 
L 224.296095 122.937329 
L 226.292327 119.707455 
L 234.277119 110.148194 
L 236.273317 106.380529 
L 238.269549 103.805326 
L 240.265747 101.43841 
L 242.261945 99.435728 
L 244.258143 97.758863 
L 246.254341 95.681629 
L 250.246771 92.025371 
L 252.242969 90.59641 
L 256.235365 85.811918 
L 260.227795 81.603668 
L 264.220192 77.925921 
L 266.21639 76.990247 
L 268.212622 76.23561 
L 270.20882 74.846625 
L 272.205018 73.90711 
L 274.201216 73.195691 
L 276.197414 71.734436 
L 278.193646 69.688776 
L 280.189844 68.734615 
L 286.178438 66.507558 
L 288.17467 66.182341 
L 290.170868 65.654119 
L 292.167066 64.862026 
L 294.163264 63.790095 
L 296.159462 62.47158 
L 302.14809 59.123012 
L 304.144288 59.069829 
L 308.136718 58.569339 
L 312.129114 58.605714 
L 314.125312 57.338221 
L 316.12151 57.072189 
L 320.11394 56.906159 
L 322.110138 57.096439 
L 324.106336 56.948177 
L 326.102535 56.987914 
L 328.098766 57.230656 
L 330.094964 56.866543 
L 334.087361 56.970266 
L 338.079791 56.355968 
L 342.072187 56.327636 
L 348.060646 56.287179 
L 350.057114 56.016225 
L 352.053245 55.865322 
L 354.049375 55.966164 
L 358.041974 55.096158 
L 360.038105 55.088715 
L 362.034235 54.924126 
L 364.030365 54.907079 
L 366.026496 55.062904 
L 368.022965 53.068625 
L 370.019095 52.348682 
L 372.015225 52.22347 
L 374.011356 52.332356 
L 376.007824 52.320471 
L 378.003955 52.496345 
L 381.996216 52.2949 
L 383.992346 52.048796 
L 389.981076 52.001736 
L 391.977206 52.239677 
L 393.973675 52.896353 
L 397.965935 52.585062 
L 399.962066 52.601749 
L 401.958196 52.81892 
L 403.954665 52.763337 
L 405.950795 52.946654 
L 409.943056 51.817699 
L 411.939525 52.014462 
L 415.931786 51.707613 
L 419.924046 51.565233 
L 421.920515 51.859477 
L 423.916646 51.852154 
L 427.908906 51.566433 
L 429.905037 51.53498 
L 431.901506 51.802573 
L 433.897636 51.871722 
L 437.889897 51.290797 
L 439.886365 51.01216 
L 441.882496 51.20064 
L 443.878626 51.205922 
L 445.874757 50.989351 
L 449.867356 50.906036 
L 451.863486 50.7729 
L 453.859617 51.10616 
L 457.852216 50.776381 
L 463.840607 50.816358 
L 465.836737 50.759574 
L 467.833206 51.655631 
L 469.829336 51.155741 
L 471.825467 51.025366 
L 473.821597 51.158142 
L 477.814196 51.097156 
L 483.802588 49.525335 
L 485.799056 49.549105 
L 489.791317 49.282713 
L 491.787447 49.731942 
L 491.787447 49.731942 
" clip-path="url(#p175d2873d5)" style="fill: none; stroke: #9467bd; stroke-width: 1.5; stroke-linecap: square"/>
   </g>
   <g id="line2d_17">
    <path d="M 92.290909 242.615872 
L 94.279359 243.673549 
L 96.26781 243.324782 
L 98.25626 243.094538 
L 100.244744 241.278079 
L 102.233195 241.678339 
L 104.221645 241.112975 
L 106.210129 237.953162 
L 108.19858 236.763384 
L 110.18703 237.031587 
L 112.17548 236.382552 
L 114.163965 235.234094 
L 118.140865 233.343758 
L 120.12935 231.98487 
L 122.1178 230.798564 
L 124.10625 229.889391 
L 128.083185 226.94292 
L 130.071635 225.946465 
L 132.060086 225.369682 
L 134.04857 223.935283 
L 136.03702 222.823591 
L 140.013921 220.966278 
L 142.002405 219.883699 
L 143.990856 218.640552 
L 145.979306 216.757536 
L 147.96779 214.593025 
L 149.956241 212.119241 
L 153.933175 207.64365 
L 155.921625 204.852693 
L 157.910076 203.122153 
L 163.875461 196.488666 
L 165.863911 193.873366 
L 169.840846 187.743888 
L 171.829296 184.984516 
L 173.817746 181.857332 
L 175.806231 178.425725 
L 179.783131 172.251432 
L 181.771616 169.58421 
L 183.760066 167.217955 
L 193.702352 157.031994 
L 195.690836 154.173784 
L 197.679286 151.719772 
L 199.667737 149.661146 
L 201.656187 147.154119 
L 205.633122 140.564632 
L 209.610056 134.14582 
L 213.586957 128.829264 
L 217.563891 124.184798 
L 221.540792 118.553289 
L 223.529276 115.550346 
L 229.494628 105.433931 
L 231.483112 103.947466 
L 233.471562 103.485031 
L 235.460012 100.175479 
L 237.448497 97.995963 
L 239.436947 96.201208 
L 241.425397 94.745235 
L 243.413848 93.705238 
L 245.402332 92.460914 
L 247.390782 91.503272 
L 249.379233 89.452209 
L 251.367717 88.271992 
L 253.356167 87.349404 
L 255.344618 86.597528 
L 257.333102 86.00748 
L 259.321552 85.688986 
L 265.286937 82.913419 
L 267.275388 82.366949 
L 269.263838 82.112922 
L 271.252322 81.671736 
L 273.240772 81.007737 
L 275.229223 80.646385 
L 277.217673 80.46703 
L 281.194608 79.083448 
L 283.183058 78.624014 
L 285.171542 78.363385 
L 287.159993 77.744044 
L 289.148443 77.528674 
L 291.136893 76.8313 
L 293.125378 75.864053 
L 295.113828 75.206897 
L 297.102278 74.068698 
L 305.056114 70.9337 
L 307.044598 70.248692 
L 309.033048 69.715067 
L 311.021499 69.306655 
L 313.009983 68.614204 
L 314.998433 68.156812 
L 320.963818 65.459277 
L 322.952269 64.770787 
L 326.929203 63.8021 
L 328.917654 63.197886 
L 334.883038 62.848059 
L 336.871489 62.531846 
L 338.859939 62.466778 
L 340.848423 61.769165 
L 344.825324 60.963266 
L 346.81391 60.945018 
L 348.802259 60.56998 
L 350.790608 59.565758 
L 354.767644 58.792753 
L 356.755993 58.709918 
L 358.74468 58.792273 
L 360.733029 57.865963 
L 368.686762 55.827746 
L 372.663799 55.423416 
L 374.652147 54.915602 
L 376.640835 54.576099 
L 378.629183 54.422075 
L 380.617532 53.998416 
L 382.60622 53.788208 
L 384.594568 53.899615 
L 386.582917 53.547627 
L 388.571604 53.339099 
L 390.559953 53.538023 
L 392.548302 52.011341 
L 394.536989 51.195838 
L 396.525338 50.86858 
L 406.467759 50.285014 
L 410.444457 49.077907 
L 414.421493 48.676818 
L 416.409842 48.123985 
L 418.398191 47.73118 
L 422.375227 47.505005 
L 424.363576 47.686161 
L 426.352263 47.406924 
L 428.340612 48.032147 
L 430.328961 47.821578 
L 434.305997 47.716054 
L 438.283033 47.404283 
L 442.259731 47.407644 
L 444.248418 47.140172 
L 446.236767 46.750848 
L 454.190501 46.256 
L 458.167537 46.013978 
L 460.155886 46.16068 
L 462.144573 45.960555 
L 466.12127 45.849269 
L 468.109958 45.214081 
L 470.098307 45.511567 
L 474.075343 45.444098 
L 476.063691 45.238572 
L 478.05204 44.880821 
L 480.040728 45.16234 
L 484.017425 44.642281 
L 486.006112 44.64 
L 487.994461 44.823197 
L 487.994461 44.823197 
" clip-path="url(#p175d2873d5)" style="fill: none; stroke: #ff7f0e; stroke-width: 1.5; stroke-linecap: square"/>
   </g>
   <g id="line2d_18">
    <path d="M 92.47841 242.615872 
L 94.51673 243.865604 
L 96.555083 246.24 
L 98.593437 245.270343 
L 100.631791 243.974491 
L 102.670111 242.414478 
L 104.708464 240.207352 
L 108.785171 234.767254 
L 110.823491 241.469537 
L 112.861845 231.40078 
L 114.900198 231.831421 
L 116.938552 231.314009 
L 118.976906 230.250996 
L 123.053579 228.635356 
L 125.091933 228.480431 
L 127.130286 227.925305 
L 131.20696 223.517591 
L 135.283667 219.092962 
L 137.321987 215.331996 
L 139.360341 212.456031 
L 141.398694 210.144062 
L 143.437048 208.00361 
L 145.475368 205.353087 
L 149.552075 201.081738 
L 157.705456 195.192565 
L 159.743809 193.994966 
L 163.820483 192.38414 
L 167.89719 188.544433 
L 169.935543 186.287928 
L 171.973863 183.675161 
L 178.088924 174.842602 
L 184.203951 168.144756 
L 190.318978 160.04543 
L 192.357332 156.821774 
L 194.395686 154.41709 
L 196.434005 151.290591 
L 198.472359 149.700054 
L 200.510713 149.074267 
L 202.549066 148.578182 
L 204.587386 148.228091 
L 206.62574 146.471812 
L 208.664093 145.207549 
L 212.740767 143.798456 
L 214.77912 142.785734 
L 216.817474 142.139718 
L 218.855828 141.179518 
L 220.894181 140.369646 
L 224.970855 138.593367 
L 227.009208 137.890339 
L 229.047562 137.763734 
L 231.085882 137.403462 
L 233.124235 136.832118 
L 237.200943 134.692974 
L 241.277616 133.28567 
L 245.354323 131.204811 
L 247.392643 130.314072 
L 249.430997 129.257028 
L 251.46935 128.568778 
L 253.507704 128.186693 
L 257.584377 126.210878 
L 261.661085 124.856108 
L 265.737758 123.241957 
L 267.776112 123.07307 
L 273.891139 121.240139 
L 275.929492 121.337981 
L 277.967846 121.107724 
L 282.04452 119.425216 
L 286.121227 118.719439 
L 288.15958 117.946794 
L 294.274607 116.39082 
L 296.312961 116.408467 
L 300.389635 115.023084 
L 306.504662 112.407184 
L 310.581369 111.228889 
L 312.619722 110.456484 
L 316.696396 109.42573 
L 318.73475 108.921158 
L 322.811423 108.649123 
L 324.849777 108.144191 
L 326.88813 107.854029 
L 328.926484 107.685358 
L 330.964838 107.194352 
L 335.041511 106.903349 
L 337.079865 105.921576 
L 339.118218 105.917014 
L 341.156538 104.802345 
L 343.194892 104.274603 
L 345.233245 104.419504 
L 347.271667 104.207015 
L 349.310088 104.412421 
L 355.425013 103.870994 
L 359.501518 103.845543 
L 361.539939 104.233066 
L 363.57836 103.943624 
L 367.655203 103.62405 
L 369.693286 103.335568 
L 371.731707 103.19703 
L 373.770128 103.194389 
L 375.80855 103.401836 
L 377.846633 102.489092 
L 379.885054 102.061353 
L 381.923475 102.002648 
L 383.961897 101.731694 
L 388.038401 101.776233 
L 390.076822 101.388109 
L 394.153665 101.044645 
L 396.191748 100.713065 
L 398.230169 101.203112 
L 400.26859 101.331325 
L 402.307012 101.338168 
L 404.345095 101.095906 
L 406.383516 101.006829 
L 414.536863 101.27118 
L 416.575284 101.040323 
L 420.652127 101.113194 
L 422.69021 99.689035 
L 424.728631 99.763106 
L 426.767052 99.600557 
L 430.843895 99.74978 
L 434.920399 99.941501 
L 438.997242 99.32144 
L 441.035325 99.133801 
L 445.112167 98.565362 
L 447.150588 98.476285 
L 449.18901 98.069553 
L 453.265514 97.853703 
L 455.303935 97.175537 
L 457.342357 97.059088 
L 461.418861 97.274939 
L 463.457282 97.500034 
L 467.534125 97.050205 
L 475.687472 97.079977 
L 477.725555 96.856323 
L 479.763976 97.278061 
L 481.802397 97.20519 
L 483.840818 96.998223 
L 487.917323 97.130278 
L 489.955744 96.597374 
L 491.994165 96.282122 
L 494.032587 96.100485 
L 496.07067 96.242985 
L 498.109091 96.627147 
L 498.109091 96.627147 
" clip-path="url(#p175d2873d5)" style="fill: none; stroke: #2ca02c; stroke-width: 1.5; stroke-linecap: square"/>
   </g>
   <g id="line2d_19">
    <path d="M 95.03031 242.615872 
L 97.01169 242.751404 
L 98.993103 242.053072 
L 100.974516 242.728312 
L 102.955895 241.955913 
L 104.937309 240.142929 
L 106.918722 239.57969 
L 108.900101 238.807922 
L 110.881514 237.686018 
L 112.862927 236.120783 
L 116.82572 235.477135 
L 118.807133 234.911774 
L 120.788512 233.596151 
L 122.769926 232.553254 
L 124.751305 231.051705 
L 126.732718 230.118436 
L 128.714131 228.704829 
L 132.676924 225.558318 
L 134.658337 223.572046 
L 136.639716 220.346878 
L 138.621129 217.900465 
L 142.583922 213.58735 
L 144.565335 210.906971 
L 146.546748 208.666901 
L 152.490954 201.286689 
L 154.472333 199.543303 
L 158.43516 196.822287 
L 160.416539 196.10615 
L 162.397952 195.195699 
L 164.379331 194.147862 
L 168.342158 192.390695 
L 172.30495 191.777453 
L 174.286363 190.989814 
L 176.267743 189.556699 
L 178.249156 188.985895 
L 180.230569 188.853563 
L 182.211948 188.93677 
L 184.193362 188.186118 
L 186.174775 187.733984 
L 190.137567 186.343763 
L 192.11898 185.769046 
L 194.10036 185.406265 
L 198.063152 184.362438 
L 200.044565 183.985972 
L 202.025979 183.803183 
L 204.007358 182.77058 
L 205.988771 181.607123 
L 207.970184 180.692818 
L 209.951564 180.071917 
L 213.91439 179.131178 
L 215.895769 178.439867 
L 219.858596 177.6523 
L 221.839975 176.80724 
L 229.765594 172.771298 
L 231.747007 172.264241 
L 233.728386 171.345867 
L 235.709799 170.862243 
L 237.691179 170.158604 
L 241.654005 169.585266 
L 243.635384 168.199716 
L 245.616798 166.962847 
L 247.598211 166.074294 
L 253.542416 164.332853 
L 257.505209 162.22341 
L 259.486622 161.632773 
L 261.468001 160.843057 
L 265.430828 159.602635 
L 269.39362 157.961821 
L 271.375 157.346034 
L 273.356413 155.634931 
L 275.337826 154.200531 
L 281.282032 151.118043 
L 283.263411 150.260834 
L 287.226237 147.661777 
L 289.207617 146.051444 
L 291.18903 145.84881 
L 293.170443 145.207068 
L 295.151822 144.419021 
L 297.133235 143.839237 
L 299.114649 143.030337 
L 301.096028 141.72977 
L 303.077441 140.687575 
L 305.058854 139.892637 
L 307.040234 139.304258 
L 312.984439 138.50549 
L 314.965852 137.622482 
L 318.928645 136.850894 
L 320.910058 135.997371 
L 324.872851 134.439031 
L 326.854264 133.661788 
L 328.835643 132.680796 
L 330.817056 131.851079 
L 338.742675 127.763924 
L 340.724054 127.141654 
L 342.705468 126.278899 
L 344.686847 125.289407 
L 346.668429 124.707342 
L 348.649673 123.725773 
L 350.630917 122.945289 
L 352.6125 122.284219 
L 354.593744 121.411452 
L 356.575326 121.177713 
L 358.55657 120.09918 
L 360.538152 117.252302 
L 362.519396 115.60701 
L 364.500979 114.446482 
L 366.482223 113.120044 
L 368.463805 112.27753 
L 370.445049 112.167203 
L 374.407875 112.347639 
L 376.389119 112.655689 
L 378.370701 112.415228 
L 380.351945 112.51595 
L 384.314772 112.125306 
L 388.277598 111.674876 
L 390.25918 111.567671 
L 392.240424 111.634899 
L 394.222007 111.483516 
L 396.203251 110.950612 
L 398.184833 110.754209 
L 400.166077 110.135709 
L 404.128903 108.320065 
L 406.110147 107.709728 
L 408.09173 107.245013 
L 410.072974 107.228566 
L 412.054556 107.350777 
L 414.0358 107.150893 
L 423.943035 106.689059 
L 425.924279 106.900348 
L 427.905861 106.987865 
L 429.887105 106.584375 
L 431.868688 106.532273 
L 433.849932 106.710428 
L 435.831176 107.122201 
L 437.812758 106.700584 
L 441.775584 106.292652 
L 445.738411 106.243912 
L 447.719655 105.64426 
L 449.701237 105.459502 
L 451.682481 104.969576 
L 453.664063 104.747963 
L 455.645307 104.778455 
L 461.589378 103.995246 
L 465.552204 103.595958 
L 467.533786 103.578671 
L 469.51503 103.326205 
L 477.440683 102.866171 
L 481.403509 102.372763 
L 483.385092 102.473366 
L 485.366336 102.43591 
L 487.347918 102.557881 
L 489.329162 103.103271 
L 489.329162 103.103271 
" clip-path="url(#p175d2873d5)" style="fill: none; stroke: #1f77b4; stroke-width: 1.5; stroke-linecap: square"/>
   </g>
   <g id="patch_3">
    <path d="M 72 256.32 
L 72 34.56 
" style="fill: none; stroke: #000000; stroke-width: 0.8; stroke-linejoin: miter; stroke-linecap: square"/>
   </g>
   <g id="patch_4">
    <path d="M 518.4 256.32 
L 518.4 34.56 
" style="fill: none; stroke: #000000; stroke-width: 0.8; stroke-linejoin: miter; stroke-linecap: square"/>
   </g>
   <g id="patch_5">
    <path d="M 72 256.32 
L 518.4 256.32 
" style="fill: none; stroke: #000000; stroke-width: 0.8; stroke-linejoin: miter; stroke-linecap: square"/>
   </g>
   <g id="patch_6">
    <path d="M 72 34.56 
L 518.4 34.56 
" style="fill: none; stroke: #000000; stroke-width: 0.8; stroke-linejoin: miter; stroke-linecap: square"/>
   </g>
   <g id="legend_1">
    <g id="patch_7">
     <path d="M 79 114.481875 
L 216.595313 114.481875 
Q 218.595313 114.481875 218.595313 112.481875 
L 218.595313 41.56 
Q 218.595313 39.56 216.595313 39.56 
L 79 39.56 
Q 77 39.56 77 41.56 
L 77 112.481875 
Q 77 114.481875 79 114.481875 
z
" style="fill: #ffffff; opacity: 0.8; stroke: #cccccc; stroke-linejoin: miter"/>
    </g>
    <g id="line2d_20">
     <path d="M 81 47.339687 
L 91 47.339687 
L 101 47.339687 
" style="fill: none; stroke: #d62728; stroke-width: 1.5; stroke-linecap: square"/>
    </g>
    <g id="text_17">
     <!-- Wildtype (Predicted) -->
     <g transform="translate(109 50.839687) scale(0.1 -0.1)">
      <defs>
       <path id="ArialMT-57" d="M 1294 0 
L 78 4581 
L 700 4581 
L 1397 1578 
Q 1509 1106 1591 641 
Q 1766 1375 1797 1488 
L 2669 4581 
L 3400 4581 
L 4056 2263 
Q 4303 1400 4413 641 
Q 4500 1075 4641 1638 
L 5359 4581 
L 5969 4581 
L 4713 0 
L 4128 0 
L 3163 3491 
Q 3041 3928 3019 4028 
Q 2947 3713 2884 3491 
L 1913 0 
L 1294 0 
z
" transform="scale(0.015625)"/>
       <path id="ArialMT-69" d="M 425 3934 
L 425 4581 
L 988 4581 
L 988 3934 
L 425 3934 
z
M 425 0 
L 425 3319 
L 988 3319 
L 988 0 
L 425 0 
z
" transform="scale(0.015625)"/>
       <path id="ArialMT-64" d="M 2575 0 
L 2575 419 
Q 2259 -75 1647 -75 
Q 1250 -75 917 144 
Q 584 363 401 755 
Q 219 1147 219 1656 
Q 219 2153 384 2558 
Q 550 2963 881 3178 
Q 1213 3394 1622 3394 
Q 1922 3394 2156 3267 
Q 2391 3141 2538 2938 
L 2538 4581 
L 3097 4581 
L 3097 0 
L 2575 0 
z
M 797 1656 
Q 797 1019 1065 703 
Q 1334 388 1700 388 
Q 2069 388 2326 689 
Q 2584 991 2584 1609 
Q 2584 2291 2321 2609 
Q 2059 2928 1675 2928 
Q 1300 2928 1048 2622 
Q 797 2316 797 1656 
z
" transform="scale(0.015625)"/>
       <path id="ArialMT-74" d="M 1650 503 
L 1731 6 
Q 1494 -44 1306 -44 
Q 1000 -44 831 53 
Q 663 150 594 308 
Q 525 466 525 972 
L 525 2881 
L 113 2881 
L 113 3319 
L 525 3319 
L 525 4141 
L 1084 4478 
L 1084 3319 
L 1650 3319 
L 1650 2881 
L 1084 2881 
L 1084 941 
Q 1084 700 1114 631 
Q 1144 563 1211 522 
Q 1278 481 1403 481 
Q 1497 481 1650 503 
z
" transform="scale(0.015625)"/>
       <path id="ArialMT-79" d="M 397 -1278 
L 334 -750 
Q 519 -800 656 -800 
Q 844 -800 956 -737 
Q 1069 -675 1141 -563 
Q 1194 -478 1313 -144 
Q 1328 -97 1363 -6 
L 103 3319 
L 709 3319 
L 1400 1397 
Q 1534 1031 1641 628 
Q 1738 1016 1872 1384 
L 2581 3319 
L 3144 3319 
L 1881 -56 
Q 1678 -603 1566 -809 
Q 1416 -1088 1222 -1217 
Q 1028 -1347 759 -1347 
Q 597 -1347 397 -1278 
z
" transform="scale(0.015625)"/>
       <path id="ArialMT-70" d="M 422 -1272 
L 422 3319 
L 934 3319 
L 934 2888 
Q 1116 3141 1344 3267 
Q 1572 3394 1897 3394 
Q 2322 3394 2647 3175 
Q 2972 2956 3137 2557 
Q 3303 2159 3303 1684 
Q 3303 1175 3120 767 
Q 2938 359 2589 142 
Q 2241 -75 1856 -75 
Q 1575 -75 1351 44 
Q 1128 163 984 344 
L 984 -1272 
L 422 -1272 
z
M 931 1641 
Q 931 1000 1190 694 
Q 1450 388 1819 388 
Q 2194 388 2461 705 
Q 2728 1022 2728 1688 
Q 2728 2322 2467 2637 
Q 2206 2953 1844 2953 
Q 1484 2953 1207 2617 
Q 931 2281 931 1641 
z
" transform="scale(0.015625)"/>
       <path id="ArialMT-65" d="M 2694 1069 
L 3275 997 
Q 3138 488 2766 206 
Q 2394 -75 1816 -75 
Q 1088 -75 661 373 
Q 234 822 234 1631 
Q 234 2469 665 2931 
Q 1097 3394 1784 3394 
Q 2450 3394 2872 2941 
Q 3294 2488 3294 1666 
Q 3294 1616 3291 1516 
L 816 1516 
Q 847 969 1125 678 
Q 1403 388 1819 388 
Q 2128 388 2347 550 
Q 2566 713 2694 1069 
z
M 847 1978 
L 2700 1978 
Q 2663 2397 2488 2606 
Q 2219 2931 1791 2931 
Q 1403 2931 1139 2672 
Q 875 2413 847 1978 
z
" transform="scale(0.015625)"/>
       <path id="ArialMT-50" d="M 494 0 
L 494 4581 
L 2222 4581 
Q 2678 4581 2919 4538 
Q 3256 4481 3484 4323 
Q 3713 4166 3852 3881 
Q 3991 3597 3991 3256 
Q 3991 2672 3619 2267 
Q 3247 1863 2275 1863 
L 1100 1863 
L 1100 0 
L 494 0 
z
M 1100 2403 
L 2284 2403 
Q 2872 2403 3119 2622 
Q 3366 2841 3366 3238 
Q 3366 3525 3220 3729 
Q 3075 3934 2838 4000 
Q 2684 4041 2272 4041 
L 1100 4041 
L 1100 2403 
z
" transform="scale(0.015625)"/>
       <path id="ArialMT-72" d="M 416 0 
L 416 3319 
L 922 3319 
L 922 2816 
Q 1116 3169 1280 3281 
Q 1444 3394 1641 3394 
Q 1925 3394 2219 3213 
L 2025 2691 
Q 1819 2813 1613 2813 
Q 1428 2813 1281 2702 
Q 1134 2591 1072 2394 
Q 978 2094 978 1738 
L 978 0 
L 416 0 
z
" transform="scale(0.015625)"/>
      </defs>
      <use xlink:href="#ArialMT-57"/>
      <use xlink:href="#ArialMT-69" transform="translate(94.384766 0)"/>
      <use xlink:href="#ArialMT-6c" transform="translate(116.601562 0)"/>
      <use xlink:href="#ArialMT-64" transform="translate(138.818359 0)"/>
      <use xlink:href="#ArialMT-74" transform="translate(194.433594 0)"/>
      <use xlink:href="#ArialMT-79" transform="translate(222.216797 0)"/>
      <use xlink:href="#ArialMT-70" transform="translate(272.216797 0)"/>
      <use xlink:href="#ArialMT-65" transform="translate(327.832031 0)"/>
      <use xlink:href="#ArialMT-20" transform="translate(383.447266 0)"/>
      <use xlink:href="#ArialMT-28" transform="translate(411.230469 0)"/>
      <use xlink:href="#ArialMT-50" transform="translate(444.53125 0)"/>
      <use xlink:href="#ArialMT-72" transform="translate(511.230469 0)"/>
      <use xlink:href="#ArialMT-65" transform="translate(544.53125 0)"/>
      <use xlink:href="#ArialMT-64" transform="translate(600.146484 0)"/>
      <use xlink:href="#ArialMT-69" transform="translate(655.761719 0)"/>
      <use xlink:href="#ArialMT-63" transform="translate(677.978516 0)"/>
      <use xlink:href="#ArialMT-74" transform="translate(727.978516 0)"/>
      <use xlink:href="#ArialMT-65" transform="translate(755.761719 0)"/>
      <use xlink:href="#ArialMT-64" transform="translate(811.376953 0)"/>
      <use xlink:href="#ArialMT-29" transform="translate(866.992188 0)"/>
     </g>
    </g>
    <g id="line2d_21">
     <path d="M 81 61.724063 
L 91 61.724063 
L 101 61.724063 
" style="fill: none; stroke: #9467bd; stroke-width: 1.5; stroke-linecap: square"/>
    </g>
    <g id="text_18">
     <!-- Wildtype (PDB) -->
     <g transform="translate(109 65.224063) scale(0.1 -0.1)">
      <defs>
       <path id="ArialMT-44" d="M 494 0 
L 494 4581 
L 2072 4581 
Q 2606 4581 2888 4516 
Q 3281 4425 3559 4188 
Q 3922 3881 4101 3404 
Q 4281 2928 4281 2316 
Q 4281 1794 4159 1391 
Q 4038 988 3847 723 
Q 3656 459 3429 307 
Q 3203 156 2883 78 
Q 2563 0 2147 0 
L 494 0 
z
M 1100 541 
L 2078 541 
Q 2531 541 2789 625 
Q 3047 709 3200 863 
Q 3416 1078 3536 1442 
Q 3656 1806 3656 2325 
Q 3656 3044 3420 3430 
Q 3184 3816 2847 3947 
Q 2603 4041 2063 4041 
L 1100 4041 
L 1100 541 
z
" transform="scale(0.015625)"/>
       <path id="ArialMT-42" d="M 469 0 
L 469 4581 
L 2188 4581 
Q 2713 4581 3030 4442 
Q 3347 4303 3526 4014 
Q 3706 3725 3706 3409 
Q 3706 3116 3547 2856 
Q 3388 2597 3066 2438 
Q 3481 2316 3704 2022 
Q 3928 1728 3928 1328 
Q 3928 1006 3792 729 
Q 3656 453 3456 303 
Q 3256 153 2954 76 
Q 2653 0 2216 0 
L 469 0 
z
M 1075 2656 
L 2066 2656 
Q 2469 2656 2644 2709 
Q 2875 2778 2992 2937 
Q 3109 3097 3109 3338 
Q 3109 3566 3000 3739 
Q 2891 3913 2687 3977 
Q 2484 4041 1991 4041 
L 1075 4041 
L 1075 2656 
z
M 1075 541 
L 2216 541 
Q 2509 541 2628 563 
Q 2838 600 2978 687 
Q 3119 775 3209 942 
Q 3300 1109 3300 1328 
Q 3300 1584 3169 1773 
Q 3038 1963 2805 2039 
Q 2572 2116 2134 2116 
L 1075 2116 
L 1075 541 
z
" transform="scale(0.015625)"/>
      </defs>
      <use xlink:href="#ArialMT-57"/>
      <use xlink:href="#ArialMT-69" transform="translate(94.384766 0)"/>
      <use xlink:href="#ArialMT-6c" transform="translate(116.601562 0)"/>
      <use xlink:href="#ArialMT-64" transform="translate(138.818359 0)"/>
      <use xlink:href="#ArialMT-74" transform="translate(194.433594 0)"/>
      <use xlink:href="#ArialMT-79" transform="translate(222.216797 0)"/>
      <use xlink:href="#ArialMT-70" transform="translate(272.216797 0)"/>
      <use xlink:href="#ArialMT-65" transform="translate(327.832031 0)"/>
      <use xlink:href="#ArialMT-20" transform="translate(383.447266 0)"/>
      <use xlink:href="#ArialMT-28" transform="translate(411.230469 0)"/>
      <use xlink:href="#ArialMT-50" transform="translate(444.53125 0)"/>
      <use xlink:href="#ArialMT-44" transform="translate(511.230469 0)"/>
      <use xlink:href="#ArialMT-42" transform="translate(583.447266 0)"/>
      <use xlink:href="#ArialMT-29" transform="translate(650.146484 0)"/>
     </g>
    </g>
    <g id="line2d_22">
     <path d="M 81 76.108437 
L 91 76.108437 
L 101 76.108437 
" style="fill: none; stroke: #ff7f0e; stroke-width: 1.5; stroke-linecap: square"/>
    </g>
    <g id="text_19">
     <!-- Design A (90% Identity) -->
     <g transform="translate(109 79.608437) scale(0.1 -0.1)">
      <defs>
       <path id="ArialMT-73" d="M 197 991 
L 753 1078 
Q 800 744 1014 566 
Q 1228 388 1613 388 
Q 2000 388 2187 545 
Q 2375 703 2375 916 
Q 2375 1106 2209 1216 
Q 2094 1291 1634 1406 
Q 1016 1563 777 1677 
Q 538 1791 414 1992 
Q 291 2194 291 2438 
Q 291 2659 392 2848 
Q 494 3038 669 3163 
Q 800 3259 1026 3326 
Q 1253 3394 1513 3394 
Q 1903 3394 2198 3281 
Q 2494 3169 2634 2976 
Q 2775 2784 2828 2463 
L 2278 2388 
Q 2241 2644 2061 2787 
Q 1881 2931 1553 2931 
Q 1166 2931 1000 2803 
Q 834 2675 834 2503 
Q 834 2394 903 2306 
Q 972 2216 1119 2156 
Q 1203 2125 1616 2013 
Q 2213 1853 2448 1751 
Q 2684 1650 2818 1456 
Q 2953 1263 2953 975 
Q 2953 694 2789 445 
Q 2625 197 2315 61 
Q 2006 -75 1616 -75 
Q 969 -75 630 194 
Q 291 463 197 991 
z
" transform="scale(0.015625)"/>
       <path id="ArialMT-67" d="M 319 -275 
L 866 -356 
Q 900 -609 1056 -725 
Q 1266 -881 1628 -881 
Q 2019 -881 2231 -725 
Q 2444 -569 2519 -288 
Q 2563 -116 2559 434 
Q 2191 0 1641 0 
Q 956 0 581 494 
Q 206 988 206 1678 
Q 206 2153 378 2554 
Q 550 2956 876 3175 
Q 1203 3394 1644 3394 
Q 2231 3394 2613 2919 
L 2613 3319 
L 3131 3319 
L 3131 450 
Q 3131 -325 2973 -648 
Q 2816 -972 2473 -1159 
Q 2131 -1347 1631 -1347 
Q 1038 -1347 672 -1080 
Q 306 -813 319 -275 
z
M 784 1719 
Q 784 1066 1043 766 
Q 1303 466 1694 466 
Q 2081 466 2343 764 
Q 2606 1063 2606 1700 
Q 2606 2309 2336 2618 
Q 2066 2928 1684 2928 
Q 1309 2928 1046 2623 
Q 784 2319 784 1719 
z
" transform="scale(0.015625)"/>
       <path id="ArialMT-41" d="M -9 0 
L 1750 4581 
L 2403 4581 
L 4278 0 
L 3588 0 
L 3053 1388 
L 1138 1388 
L 634 0 
L -9 0 
z
M 1313 1881 
L 2866 1881 
L 2388 3150 
Q 2169 3728 2063 4100 
Q 1975 3659 1816 3225 
L 1313 1881 
z
" transform="scale(0.015625)"/>
       <path id="ArialMT-39" d="M 350 1059 
L 891 1109 
Q 959 728 1153 556 
Q 1347 384 1650 384 
Q 1909 384 2104 503 
Q 2300 622 2425 820 
Q 2550 1019 2634 1356 
Q 2719 1694 2719 2044 
Q 2719 2081 2716 2156 
Q 2547 1888 2255 1720 
Q 1963 1553 1622 1553 
Q 1053 1553 659 1965 
Q 266 2378 266 3053 
Q 266 3750 677 4175 
Q 1088 4600 1706 4600 
Q 2153 4600 2523 4359 
Q 2894 4119 3086 3673 
Q 3278 3228 3278 2384 
Q 3278 1506 3087 986 
Q 2897 466 2520 194 
Q 2144 -78 1638 -78 
Q 1100 -78 759 220 
Q 419 519 350 1059 
z
M 2653 3081 
Q 2653 3566 2395 3850 
Q 2138 4134 1775 4134 
Q 1400 4134 1122 3828 
Q 844 3522 844 3034 
Q 844 2597 1108 2323 
Q 1372 2050 1759 2050 
Q 2150 2050 2401 2323 
Q 2653 2597 2653 3081 
z
" transform="scale(0.015625)"/>
       <path id="ArialMT-25" d="M 372 3481 
Q 372 3972 619 4315 
Q 866 4659 1334 4659 
Q 1766 4659 2048 4351 
Q 2331 4044 2331 3447 
Q 2331 2866 2045 2552 
Q 1759 2238 1341 2238 
Q 925 2238 648 2547 
Q 372 2856 372 3481 
z
M 1350 4272 
Q 1141 4272 1002 4090 
Q 863 3909 863 3425 
Q 863 2984 1003 2804 
Q 1144 2625 1350 2625 
Q 1563 2625 1702 2806 
Q 1841 2988 1841 3469 
Q 1841 3913 1700 4092 
Q 1559 4272 1350 4272 
z
M 1353 -169 
L 3859 4659 
L 4316 4659 
L 1819 -169 
L 1353 -169 
z
M 3334 1075 
Q 3334 1569 3581 1911 
Q 3828 2253 4300 2253 
Q 4731 2253 5014 1945 
Q 5297 1638 5297 1041 
Q 5297 459 5011 145 
Q 4725 -169 4303 -169 
Q 3888 -169 3611 142 
Q 3334 453 3334 1075 
z
M 4316 1866 
Q 4103 1866 3964 1684 
Q 3825 1503 3825 1019 
Q 3825 581 3965 400 
Q 4106 219 4313 219 
Q 4528 219 4667 400 
Q 4806 581 4806 1063 
Q 4806 1506 4665 1686 
Q 4525 1866 4316 1866 
z
" transform="scale(0.015625)"/>
       <path id="ArialMT-49" d="M 597 0 
L 597 4581 
L 1203 4581 
L 1203 0 
L 597 0 
z
" transform="scale(0.015625)"/>
      </defs>
      <use xlink:href="#ArialMT-44"/>
      <use xlink:href="#ArialMT-65" transform="translate(72.216797 0)"/>
      <use xlink:href="#ArialMT-73" transform="translate(127.832031 0)"/>
      <use xlink:href="#ArialMT-69" transform="translate(177.832031 0)"/>
      <use xlink:href="#ArialMT-67" transform="translate(200.048828 0)"/>
      <use xlink:href="#ArialMT-6e" transform="translate(255.664062 0)"/>
      <use xlink:href="#ArialMT-20" transform="translate(311.279297 0)"/>
      <use xlink:href="#ArialMT-41" transform="translate(333.5625 0)"/>
      <use xlink:href="#ArialMT-20" transform="translate(394.761719 0)"/>
      <use xlink:href="#ArialMT-28" transform="translate(422.544922 0)"/>
      <use xlink:href="#ArialMT-39" transform="translate(455.845703 0)"/>
      <use xlink:href="#ArialMT-30" transform="translate(511.460938 0)"/>
      <use xlink:href="#ArialMT-25" transform="translate(567.076172 0)"/>
      <use xlink:href="#ArialMT-20" transform="translate(655.992188 0)"/>
      <use xlink:href="#ArialMT-49" transform="translate(683.775391 0)"/>
      <use xlink:href="#ArialMT-64" transform="translate(711.558594 0)"/>
      <use xlink:href="#ArialMT-65" transform="translate(767.173828 0)"/>
      <use xlink:href="#ArialMT-6e" transform="translate(822.789062 0)"/>
      <use xlink:href="#ArialMT-74" transform="translate(878.404297 0)"/>
      <use xlink:href="#ArialMT-69" transform="translate(906.1875 0)"/>
      <use xlink:href="#ArialMT-74" transform="translate(928.404297 0)"/>
      <use xlink:href="#ArialMT-79" transform="translate(956.1875 0)"/>
      <use xlink:href="#ArialMT-29" transform="translate(1006.1875 0)"/>
     </g>
    </g>
    <g id="line2d_23">
     <path d="M 81 90.492813 
L 91 90.492813 
L 101 90.492813 
" style="fill: none; stroke: #2ca02c; stroke-width: 1.5; stroke-linecap: square"/>
    </g>
    <g id="text_20">
     <!-- Design C (92% Identity) -->
     <g transform="translate(109 93.992813) scale(0.1 -0.1)">
      <defs>
       <path id="ArialMT-43" d="M 3763 1606 
L 4369 1453 
Q 4178 706 3683 314 
Q 3188 -78 2472 -78 
Q 1731 -78 1267 223 
Q 803 525 561 1097 
Q 319 1669 319 2325 
Q 319 3041 592 3573 
Q 866 4106 1370 4382 
Q 1875 4659 2481 4659 
Q 3169 4659 3637 4309 
Q 4106 3959 4291 3325 
L 3694 3184 
Q 3534 3684 3231 3912 
Q 2928 4141 2469 4141 
Q 1941 4141 1586 3887 
Q 1231 3634 1087 3207 
Q 944 2781 944 2328 
Q 944 1744 1114 1308 
Q 1284 872 1643 656 
Q 2003 441 2422 441 
Q 2931 441 3284 734 
Q 3638 1028 3763 1606 
z
" transform="scale(0.015625)"/>
      </defs>
      <use xlink:href="#ArialMT-44"/>
      <use xlink:href="#ArialMT-65" transform="translate(72.216797 0)"/>
      <use xlink:href="#ArialMT-73" transform="translate(127.832031 0)"/>
      <use xlink:href="#ArialMT-69" transform="translate(177.832031 0)"/>
      <use xlink:href="#ArialMT-67" transform="translate(200.048828 0)"/>
      <use xlink:href="#ArialMT-6e" transform="translate(255.664062 0)"/>
      <use xlink:href="#ArialMT-20" transform="translate(311.279297 0)"/>
      <use xlink:href="#ArialMT-43" transform="translate(339.0625 0)"/>
      <use xlink:href="#ArialMT-20" transform="translate(411.279297 0)"/>
      <use xlink:href="#ArialMT-28" transform="translate(439.0625 0)"/>
      <use xlink:href="#ArialMT-39" transform="translate(472.363281 0)"/>
      <use xlink:href="#ArialMT-32" transform="translate(527.978516 0)"/>
      <use xlink:href="#ArialMT-25" transform="translate(583.59375 0)"/>
      <use xlink:href="#ArialMT-20" transform="translate(672.509766 0)"/>
      <use xlink:href="#ArialMT-49" transform="translate(700.292969 0)"/>
      <use xlink:href="#ArialMT-64" transform="translate(728.076172 0)"/>
      <use xlink:href="#ArialMT-65" transform="translate(783.691406 0)"/>
      <use xlink:href="#ArialMT-6e" transform="translate(839.306641 0)"/>
      <use xlink:href="#ArialMT-74" transform="translate(894.921875 0)"/>
      <use xlink:href="#ArialMT-69" transform="translate(922.705078 0)"/>
      <use xlink:href="#ArialMT-74" transform="translate(944.921875 0)"/>
      <use xlink:href="#ArialMT-79" transform="translate(972.705078 0)"/>
      <use xlink:href="#ArialMT-29" transform="translate(1022.705078 0)"/>
     </g>
    </g>
    <g id="line2d_24">
     <path d="M 81 104.877187 
L 91 104.877187 
L 101 104.877187 
" style="fill: none; stroke: #1f77b4; stroke-width: 1.5; stroke-linecap: square"/>
    </g>
    <g id="text_21">
     <!-- Design B (53% Identity) -->
     <g transform="translate(109 108.377187) scale(0.1 -0.1)">
      <defs>
       <path id="ArialMT-33" d="M 269 1209 
L 831 1284 
Q 928 806 1161 595 
Q 1394 384 1728 384 
Q 2125 384 2398 659 
Q 2672 934 2672 1341 
Q 2672 1728 2419 1979 
Q 2166 2231 1775 2231 
Q 1616 2231 1378 2169 
L 1441 2663 
Q 1497 2656 1531 2656 
Q 1891 2656 2178 2843 
Q 2466 3031 2466 3422 
Q 2466 3731 2256 3934 
Q 2047 4138 1716 4138 
Q 1388 4138 1169 3931 
Q 950 3725 888 3313 
L 325 3413 
Q 428 3978 793 4289 
Q 1159 4600 1703 4600 
Q 2078 4600 2393 4439 
Q 2709 4278 2876 4000 
Q 3044 3722 3044 3409 
Q 3044 3113 2884 2869 
Q 2725 2625 2413 2481 
Q 2819 2388 3044 2092 
Q 3269 1797 3269 1353 
Q 3269 753 2831 336 
Q 2394 -81 1725 -81 
Q 1122 -81 723 278 
Q 325 638 269 1209 
z
" transform="scale(0.015625)"/>
      </defs>
      <use xlink:href="#ArialMT-44"/>
      <use xlink:href="#ArialMT-65" transform="translate(72.216797 0)"/>
      <use xlink:href="#ArialMT-73" transform="translate(127.832031 0)"/>
      <use xlink:href="#ArialMT-69" transform="translate(177.832031 0)"/>
      <use xlink:href="#ArialMT-67" transform="translate(200.048828 0)"/>
      <use xlink:href="#ArialMT-6e" transform="translate(255.664062 0)"/>
      <use xlink:href="#ArialMT-20" transform="translate(311.279297 0)"/>
      <use xlink:href="#ArialMT-42" transform="translate(339.0625 0)"/>
      <use xlink:href="#ArialMT-20" transform="translate(405.761719 0)"/>
      <use xlink:href="#ArialMT-28" transform="translate(433.544922 0)"/>
      <use xlink:href="#ArialMT-35" transform="translate(466.845703 0)"/>
      <use xlink:href="#ArialMT-33" transform="translate(522.460938 0)"/>
      <use xlink:href="#ArialMT-25" transform="translate(578.076172 0)"/>
      <use xlink:href="#ArialMT-20" transform="translate(666.992188 0)"/>
      <use xlink:href="#ArialMT-49" transform="translate(694.775391 0)"/>
      <use xlink:href="#ArialMT-64" transform="translate(722.558594 0)"/>
      <use xlink:href="#ArialMT-65" transform="translate(778.173828 0)"/>
      <use xlink:href="#ArialMT-6e" transform="translate(833.789062 0)"/>
      <use xlink:href="#ArialMT-74" transform="translate(889.404297 0)"/>
      <use xlink:href="#ArialMT-69" transform="translate(917.1875 0)"/>
      <use xlink:href="#ArialMT-74" transform="translate(939.404297 0)"/>
      <use xlink:href="#ArialMT-79" transform="translate(967.1875 0)"/>
      <use xlink:href="#ArialMT-29" transform="translate(1017.1875 0)"/>
     </g>
    </g>
   </g>
  </g>
 </g>
 <defs>
  <clipPath id="p175d2873d5">
   <rect x="72" y="34.56" width="446.4" height="221.76"/>
  </clipPath>
 </defs>
</svg>
