<?xml version="1.0" encoding="utf-8" standalone="no"?>
<!DOCTYPE svg PUBLIC "-//W3C//DTD SVG 1.1//EN"
  "http://www.w3.org/Graphics/SVG/1.1/DTD/svg11.dtd">
<svg xmlns:xlink="http://www.w3.org/1999/xlink" width="369.384646pt" height="258.492497pt" viewBox="0 0 369.384646 258.492497" xmlns="http://www.w3.org/2000/svg" version="1.1">
 <metadata>
  <rdf:RDF xmlns:dc="http://purl.org/dc/elements/1.1/" xmlns:cc="http://creativecommons.org/ns#" xmlns:rdf="http://www.w3.org/1999/02/22-rdf-syntax-ns#">
   <cc:Work>
    <dc:type rdf:resource="http://purl.org/dc/dcmitype/StillImage"/>
    <dc:date>2025-05-25T23:43:44.935786</dc:date>
    <dc:format>image/svg+xml</dc:format>
    <dc:creator>
     <cc:Agent>
      <dc:title>Matplotlib v3.9.2, https://matplotlib.org/</dc:title>
     </cc:Agent>
    </dc:creator>
   </cc:Work>
  </rdf:RDF>
 </metadata>
 <defs>
  <style type="text/css">*{stroke-linejoin: round; stroke-linecap: butt}</style>
 </defs>
 <g id="figure_1">
  <g id="patch_1">
   <path d="M 0 258.492497 
L 369.384646 258.492497 
L 369.384646 0 
L 0 0 
z
" style="fill: #ffffff"/>
  </g>
  <g id="axes_1">
   <g id="patch_2">
    <path d="M 36.006646 228.57418 
L 365.784646 228.57418 
L 365.784646 17.90218 
L 36.006646 17.90218 
z
" style="fill: #ffffff"/>
   </g>
   <g id="matplotlib.axis_1">
    <g id="xtick_1">
     <g id="line2d_1">
      <defs>
       <path id="mcd05db6143" d="M 0 0 
L 0 -3 
" style="stroke: #000000; stroke-width: 0.5"/>
      </defs>
      <g>
       <use xlink:href="#mcd05db6143" x="38.373225" y="228.57418" style="stroke: #000000; stroke-width: 0.5"/>
      </g>
     </g>
     <g id="line2d_2">
      <defs>
       <path id="mceae0c034c" d="M 0 0 
L 0 3 
" style="stroke: #000000; stroke-width: 0.5"/>
      </defs>
      <g>
       <use xlink:href="#mceae0c034c" x="38.373225" y="17.90218" style="stroke: #000000; stroke-width: 0.5"/>
      </g>
     </g>
     <g id="text_1">
      <!-- $\mathdefault{2}$ -->
      <g transform="translate(35.882558 238.992678) scale(0.1 -0.1)">
       <defs>
        <path id="CMR17-32" d="M 2669 989 
L 2554 989 
C 2490 536 2438 459 2413 420 
C 2381 369 1920 369 1830 369 
L 602 369 
C 832 619 1280 1072 1824 1597 
C 2214 1967 2669 2402 2669 3035 
C 2669 3790 2067 4224 1395 4224 
C 691 4224 262 3604 262 3030 
C 262 2780 448 2748 525 2748 
C 589 2748 781 2787 781 3010 
C 781 3207 614 3264 525 3264 
C 486 3264 448 3258 422 3245 
C 544 3790 915 4058 1306 4058 
C 1862 4058 2227 3617 2227 3035 
C 2227 2479 1901 2000 1536 1584 
L 262 146 
L 262 0 
L 2515 0 
L 2669 989 
z
" transform="scale(0.015625)"/>
       </defs>
       <use xlink:href="#CMR17-32" transform="scale(0.996264)"/>
      </g>
     </g>
    </g>
    <g id="xtick_2">
     <g id="line2d_3">
      <g>
       <use xlink:href="#mcd05db6143" x="88.361067" y="228.57418" style="stroke: #000000; stroke-width: 0.5"/>
      </g>
     </g>
     <g id="line2d_4">
      <g>
       <use xlink:href="#mceae0c034c" x="88.361067" y="17.90218" style="stroke: #000000; stroke-width: 0.5"/>
      </g>
     </g>
     <g id="text_2">
      <!-- $\mathdefault{4}$ -->
      <g transform="translate(85.870399 238.992678) scale(0.1 -0.1)">
       <defs>
        <path id="CMR17-34" d="M 2150 4122 
C 2150 4256 2144 4256 2029 4256 
L 128 1254 
L 128 1088 
L 1779 1088 
L 1779 457 
C 1779 224 1766 160 1318 160 
L 1197 160 
L 1197 0 
C 1402 0 1747 0 1965 0 
C 2182 0 2528 0 2733 0 
L 2733 160 
L 2611 160 
C 2163 160 2150 224 2150 457 
L 2150 1088 
L 2803 1088 
L 2803 1254 
L 2150 1254 
L 2150 4122 
z
M 1798 3703 
L 1798 1254 
L 256 1254 
L 1798 3703 
z
" transform="scale(0.015625)"/>
       </defs>
       <use xlink:href="#CMR17-34" transform="scale(0.996264)"/>
      </g>
     </g>
    </g>
    <g id="xtick_3">
     <g id="line2d_5">
      <g>
       <use xlink:href="#mcd05db6143" x="138.348909" y="228.57418" style="stroke: #000000; stroke-width: 0.5"/>
      </g>
     </g>
     <g id="line2d_6">
      <g>
       <use xlink:href="#mceae0c034c" x="138.348909" y="17.90218" style="stroke: #000000; stroke-width: 0.5"/>
      </g>
     </g>
     <g id="text_3">
      <!-- $\mathdefault{6}$ -->
      <g transform="translate(135.858241 238.992678) scale(0.1 -0.1)">
       <defs>
        <path id="CMR17-36" d="M 678 2176 
C 678 3690 1395 4032 1811 4032 
C 1946 4032 2272 4009 2400 3776 
C 2298 3776 2106 3776 2106 3553 
C 2106 3381 2246 3323 2336 3323 
C 2394 3323 2566 3348 2566 3560 
C 2566 3954 2246 4179 1805 4179 
C 1043 4179 243 3390 243 1984 
C 243 253 966 -128 1478 -128 
C 2099 -128 2688 427 2688 1283 
C 2688 2081 2170 2662 1517 2662 
C 1126 2662 838 2407 678 1960 
L 678 2176 
z
M 1478 25 
C 691 25 691 1200 691 1436 
C 691 1896 909 2560 1504 2560 
C 1613 2560 1926 2560 2138 2120 
C 2253 1870 2253 1609 2253 1289 
C 2253 944 2253 690 2118 434 
C 1978 171 1773 25 1478 25 
z
" transform="scale(0.015625)"/>
       </defs>
       <use xlink:href="#CMR17-36" transform="scale(0.996264)"/>
      </g>
     </g>
    </g>
    <g id="xtick_4">
     <g id="line2d_7">
      <g>
       <use xlink:href="#mcd05db6143" x="188.33675" y="228.57418" style="stroke: #000000; stroke-width: 0.5"/>
      </g>
     </g>
     <g id="line2d_8">
      <g>
       <use xlink:href="#mceae0c034c" x="188.33675" y="17.90218" style="stroke: #000000; stroke-width: 0.5"/>
      </g>
     </g>
     <g id="text_4">
      <!-- $\mathdefault{8}$ -->
      <g transform="translate(185.846083 238.992678) scale(0.1 -0.1)">
       <defs>
        <path id="CMR17-38" d="M 1741 2264 
C 2144 2467 2554 2773 2554 3263 
C 2554 3841 1990 4179 1472 4179 
C 890 4179 378 3759 378 3180 
C 378 3021 416 2747 666 2505 
C 730 2442 998 2251 1171 2130 
C 883 1983 211 1634 211 934 
C 211 279 838 -128 1459 -128 
C 2144 -128 2720 362 2720 1010 
C 2720 1590 2330 1857 2074 2029 
L 1741 2264 
z
M 902 2822 
C 851 2854 595 3051 595 3351 
C 595 3739 998 4032 1459 4032 
C 1965 4032 2336 3676 2336 3262 
C 2336 2669 1670 2331 1638 2331 
C 1632 2331 1626 2331 1574 2370 
L 902 2822 
z
M 2080 1519 
C 2176 1449 2483 1240 2483 851 
C 2483 381 2010 25 1472 25 
C 890 25 448 438 448 940 
C 448 1443 838 1862 1280 2060 
L 2080 1519 
z
" transform="scale(0.015625)"/>
       </defs>
       <use xlink:href="#CMR17-38" transform="scale(0.996264)"/>
      </g>
     </g>
    </g>
    <g id="xtick_5">
     <g id="line2d_9">
      <g>
       <use xlink:href="#mcd05db6143" x="238.324592" y="228.57418" style="stroke: #000000; stroke-width: 0.5"/>
      </g>
     </g>
     <g id="line2d_10">
      <g>
       <use xlink:href="#mceae0c034c" x="238.324592" y="17.90218" style="stroke: #000000; stroke-width: 0.5"/>
      </g>
     </g>
     <g id="text_5">
      <!-- $\mathdefault{10}$ -->
      <g transform="translate(233.343257 238.992678) scale(0.1 -0.1)">
       <defs>
        <path id="CMR17-31" d="M 1702 4058 
C 1702 4192 1696 4192 1606 4192 
C 1357 3916 979 3827 621 3827 
C 602 3827 570 3827 563 3808 
C 557 3795 557 3782 557 3648 
C 755 3648 1088 3686 1344 3839 
L 1344 461 
C 1344 236 1331 160 781 160 
L 589 160 
L 589 0 
C 896 0 1216 0 1523 0 
C 1830 0 2150 0 2458 0 
L 2458 160 
L 2266 160 
C 1715 160 1702 230 1702 458 
L 1702 4058 
z
" transform="scale(0.015625)"/>
        <path id="CMR17-30" d="M 2688 2025 
C 2688 2416 2682 3080 2413 3591 
C 2176 4039 1798 4198 1466 4198 
C 1158 4198 768 4058 525 3597 
C 269 3118 243 2524 243 2025 
C 243 1661 250 1106 448 619 
C 723 -39 1216 -128 1466 -128 
C 1760 -128 2208 -7 2470 600 
C 2662 1042 2688 1559 2688 2025 
z
M 1466 -26 
C 1056 -26 813 325 723 812 
C 653 1188 653 1738 653 2096 
C 653 2588 653 2997 736 3387 
C 858 3929 1216 4096 1466 4096 
C 1728 4096 2067 3923 2189 3400 
C 2272 3036 2278 2607 2278 2096 
C 2278 1680 2278 1169 2202 792 
C 2067 95 1690 -26 1466 -26 
z
" transform="scale(0.015625)"/>
       </defs>
       <use xlink:href="#CMR17-31" transform="scale(0.996264)"/>
       <use xlink:href="#CMR17-30" transform="translate(45.690477 0) scale(0.996264)"/>
      </g>
     </g>
    </g>
    <g id="xtick_6">
     <g id="line2d_11">
      <g>
       <use xlink:href="#mcd05db6143" x="288.312434" y="228.57418" style="stroke: #000000; stroke-width: 0.5"/>
      </g>
     </g>
     <g id="line2d_12">
      <g>
       <use xlink:href="#mceae0c034c" x="288.312434" y="17.90218" style="stroke: #000000; stroke-width: 0.5"/>
      </g>
     </g>
     <g id="text_6">
      <!-- $\mathdefault{12}$ -->
      <g transform="translate(283.331099 238.992678) scale(0.1 -0.1)">
       <use xlink:href="#CMR17-31" transform="scale(0.996264)"/>
       <use xlink:href="#CMR17-32" transform="translate(45.690477 0) scale(0.996264)"/>
      </g>
     </g>
    </g>
    <g id="xtick_7">
     <g id="line2d_13">
      <g>
       <use xlink:href="#mcd05db6143" x="338.300276" y="228.57418" style="stroke: #000000; stroke-width: 0.5"/>
      </g>
     </g>
     <g id="line2d_14">
      <g>
       <use xlink:href="#mceae0c034c" x="338.300276" y="17.90218" style="stroke: #000000; stroke-width: 0.5"/>
      </g>
     </g>
     <g id="text_7">
      <!-- $\mathdefault{14}$ -->
      <g transform="translate(333.31894 238.992678) scale(0.1 -0.1)">
       <use xlink:href="#CMR17-31" transform="scale(0.996264)"/>
       <use xlink:href="#CMR17-34" transform="translate(45.690477 0) scale(0.996264)"/>
      </g>
     </g>
    </g>
    <g id="xtick_8">
     <g id="line2d_15">
      <defs>
       <path id="m67e64e848f" d="M 0 0 
L 0 -1.5 
" style="stroke: #000000; stroke-width: 0.5"/>
      </defs>
      <g>
       <use xlink:href="#m67e64e848f" x="50.870186" y="228.57418" style="stroke: #000000; stroke-width: 0.5"/>
      </g>
     </g>
     <g id="line2d_16">
      <defs>
       <path id="m301116e2c8" d="M 0 0 
L 0 1.5 
" style="stroke: #000000; stroke-width: 0.5"/>
      </defs>
      <g>
       <use xlink:href="#m301116e2c8" x="50.870186" y="17.90218" style="stroke: #000000; stroke-width: 0.5"/>
      </g>
     </g>
    </g>
    <g id="xtick_9">
     <g id="line2d_17">
      <g>
       <use xlink:href="#m67e64e848f" x="63.367146" y="228.57418" style="stroke: #000000; stroke-width: 0.5"/>
      </g>
     </g>
     <g id="line2d_18">
      <g>
       <use xlink:href="#m301116e2c8" x="63.367146" y="17.90218" style="stroke: #000000; stroke-width: 0.5"/>
      </g>
     </g>
    </g>
    <g id="xtick_10">
     <g id="line2d_19">
      <g>
       <use xlink:href="#m67e64e848f" x="75.864107" y="228.57418" style="stroke: #000000; stroke-width: 0.5"/>
      </g>
     </g>
     <g id="line2d_20">
      <g>
       <use xlink:href="#m301116e2c8" x="75.864107" y="17.90218" style="stroke: #000000; stroke-width: 0.5"/>
      </g>
     </g>
    </g>
    <g id="xtick_11">
     <g id="line2d_21">
      <g>
       <use xlink:href="#m67e64e848f" x="100.858027" y="228.57418" style="stroke: #000000; stroke-width: 0.5"/>
      </g>
     </g>
     <g id="line2d_22">
      <g>
       <use xlink:href="#m301116e2c8" x="100.858027" y="17.90218" style="stroke: #000000; stroke-width: 0.5"/>
      </g>
     </g>
    </g>
    <g id="xtick_12">
     <g id="line2d_23">
      <g>
       <use xlink:href="#m67e64e848f" x="113.354988" y="228.57418" style="stroke: #000000; stroke-width: 0.5"/>
      </g>
     </g>
     <g id="line2d_24">
      <g>
       <use xlink:href="#m301116e2c8" x="113.354988" y="17.90218" style="stroke: #000000; stroke-width: 0.5"/>
      </g>
     </g>
    </g>
    <g id="xtick_13">
     <g id="line2d_25">
      <g>
       <use xlink:href="#m67e64e848f" x="125.851948" y="228.57418" style="stroke: #000000; stroke-width: 0.5"/>
      </g>
     </g>
     <g id="line2d_26">
      <g>
       <use xlink:href="#m301116e2c8" x="125.851948" y="17.90218" style="stroke: #000000; stroke-width: 0.5"/>
      </g>
     </g>
    </g>
    <g id="xtick_14">
     <g id="line2d_27">
      <g>
       <use xlink:href="#m67e64e848f" x="150.845869" y="228.57418" style="stroke: #000000; stroke-width: 0.5"/>
      </g>
     </g>
     <g id="line2d_28">
      <g>
       <use xlink:href="#m301116e2c8" x="150.845869" y="17.90218" style="stroke: #000000; stroke-width: 0.5"/>
      </g>
     </g>
    </g>
    <g id="xtick_15">
     <g id="line2d_29">
      <g>
       <use xlink:href="#m67e64e848f" x="163.34283" y="228.57418" style="stroke: #000000; stroke-width: 0.5"/>
      </g>
     </g>
     <g id="line2d_30">
      <g>
       <use xlink:href="#m301116e2c8" x="163.34283" y="17.90218" style="stroke: #000000; stroke-width: 0.5"/>
      </g>
     </g>
    </g>
    <g id="xtick_16">
     <g id="line2d_31">
      <g>
       <use xlink:href="#m67e64e848f" x="175.83979" y="228.57418" style="stroke: #000000; stroke-width: 0.5"/>
      </g>
     </g>
     <g id="line2d_32">
      <g>
       <use xlink:href="#m301116e2c8" x="175.83979" y="17.90218" style="stroke: #000000; stroke-width: 0.5"/>
      </g>
     </g>
    </g>
    <g id="xtick_17">
     <g id="line2d_33">
      <g>
       <use xlink:href="#m67e64e848f" x="200.833711" y="228.57418" style="stroke: #000000; stroke-width: 0.5"/>
      </g>
     </g>
     <g id="line2d_34">
      <g>
       <use xlink:href="#m301116e2c8" x="200.833711" y="17.90218" style="stroke: #000000; stroke-width: 0.5"/>
      </g>
     </g>
    </g>
    <g id="xtick_18">
     <g id="line2d_35">
      <g>
       <use xlink:href="#m67e64e848f" x="213.330671" y="228.57418" style="stroke: #000000; stroke-width: 0.5"/>
      </g>
     </g>
     <g id="line2d_36">
      <g>
       <use xlink:href="#m301116e2c8" x="213.330671" y="17.90218" style="stroke: #000000; stroke-width: 0.5"/>
      </g>
     </g>
    </g>
    <g id="xtick_19">
     <g id="line2d_37">
      <g>
       <use xlink:href="#m67e64e848f" x="225.827632" y="228.57418" style="stroke: #000000; stroke-width: 0.5"/>
      </g>
     </g>
     <g id="line2d_38">
      <g>
       <use xlink:href="#m301116e2c8" x="225.827632" y="17.90218" style="stroke: #000000; stroke-width: 0.5"/>
      </g>
     </g>
    </g>
    <g id="xtick_20">
     <g id="line2d_39">
      <g>
       <use xlink:href="#m67e64e848f" x="250.821553" y="228.57418" style="stroke: #000000; stroke-width: 0.5"/>
      </g>
     </g>
     <g id="line2d_40">
      <g>
       <use xlink:href="#m301116e2c8" x="250.821553" y="17.90218" style="stroke: #000000; stroke-width: 0.5"/>
      </g>
     </g>
    </g>
    <g id="xtick_21">
     <g id="line2d_41">
      <g>
       <use xlink:href="#m67e64e848f" x="263.318513" y="228.57418" style="stroke: #000000; stroke-width: 0.5"/>
      </g>
     </g>
     <g id="line2d_42">
      <g>
       <use xlink:href="#m301116e2c8" x="263.318513" y="17.90218" style="stroke: #000000; stroke-width: 0.5"/>
      </g>
     </g>
    </g>
    <g id="xtick_22">
     <g id="line2d_43">
      <g>
       <use xlink:href="#m67e64e848f" x="275.815474" y="228.57418" style="stroke: #000000; stroke-width: 0.5"/>
      </g>
     </g>
     <g id="line2d_44">
      <g>
       <use xlink:href="#m301116e2c8" x="275.815474" y="17.90218" style="stroke: #000000; stroke-width: 0.5"/>
      </g>
     </g>
    </g>
    <g id="xtick_23">
     <g id="line2d_45">
      <g>
       <use xlink:href="#m67e64e848f" x="300.809394" y="228.57418" style="stroke: #000000; stroke-width: 0.5"/>
      </g>
     </g>
     <g id="line2d_46">
      <g>
       <use xlink:href="#m301116e2c8" x="300.809394" y="17.90218" style="stroke: #000000; stroke-width: 0.5"/>
      </g>
     </g>
    </g>
    <g id="xtick_24">
     <g id="line2d_47">
      <g>
       <use xlink:href="#m67e64e848f" x="313.306355" y="228.57418" style="stroke: #000000; stroke-width: 0.5"/>
      </g>
     </g>
     <g id="line2d_48">
      <g>
       <use xlink:href="#m301116e2c8" x="313.306355" y="17.90218" style="stroke: #000000; stroke-width: 0.5"/>
      </g>
     </g>
    </g>
    <g id="xtick_25">
     <g id="line2d_49">
      <g>
       <use xlink:href="#m67e64e848f" x="325.803315" y="228.57418" style="stroke: #000000; stroke-width: 0.5"/>
      </g>
     </g>
     <g id="line2d_50">
      <g>
       <use xlink:href="#m301116e2c8" x="325.803315" y="17.90218" style="stroke: #000000; stroke-width: 0.5"/>
      </g>
     </g>
    </g>
    <g id="xtick_26">
     <g id="line2d_51">
      <g>
       <use xlink:href="#m67e64e848f" x="350.797236" y="228.57418" style="stroke: #000000; stroke-width: 0.5"/>
      </g>
     </g>
     <g id="line2d_52">
      <g>
       <use xlink:href="#m301116e2c8" x="350.797236" y="17.90218" style="stroke: #000000; stroke-width: 0.5"/>
      </g>
     </g>
    </g>
    <g id="xtick_27">
     <g id="line2d_53">
      <g>
       <use xlink:href="#m67e64e848f" x="363.294197" y="228.57418" style="stroke: #000000; stroke-width: 0.5"/>
      </g>
     </g>
     <g id="line2d_54">
      <g>
       <use xlink:href="#m301116e2c8" x="363.294197" y="17.90218" style="stroke: #000000; stroke-width: 0.5"/>
      </g>
     </g>
    </g>
    <g id="text_8">
     <!-- x (nm) -->
     <g transform="translate(185.813273 252.401837) scale(0.1 -0.1)">
      <defs>
       <path id="CMR17-78" d="M 1664 1477 
C 1856 1726 2074 2006 2253 2216 
C 2464 2458 2707 2560 2989 2560 
L 2989 2726 
C 2880 2726 2656 2726 2541 2726 
C 2368 2726 2170 2726 2022 2732 
L 2022 2566 
C 2112 2553 2163 2489 2163 2400 
C 2163 2285 2099 2215 2067 2171 
L 1594 1573 
L 1030 2306 
C 973 2376 973 2388 973 2420 
C 973 2497 1037 2560 1146 2560 
L 1146 2732 
C 992 2726 717 2726 557 2726 
C 384 2726 179 2726 38 2732 
L 38 2560 
C 384 2560 461 2534 614 2343 
L 1350 1395 
C 1363 1382 1395 1344 1395 1325 
C 1395 1299 838 619 768 530 
C 480 185 179 160 6 160 
L 6 0 
C 115 0 339 0 454 0 
C 582 0 864 0 979 -6 
L 979 160 
C 941 166 838 179 838 325 
C 838 440 890 510 947 586 
L 1478 1236 
L 2035 512 
C 2086 442 2163 346 2163 301 
C 2163 211 2086 160 1984 160 
L 1984 -6 
C 2138 0 2413 0 2573 0 
C 2746 0 2950 0 3091 -6 
L 3091 160 
C 2771 160 2675 172 2522 370 
L 1664 1477 
z
" transform="scale(0.015625)"/>
       <path id="CMR17-28" d="M 1958 -1561 
C 1958 -1555 1958 -1542 1939 -1523 
C 1645 -1224 858 -407 858 1581 
C 858 3569 1632 4379 1946 4697 
C 1946 4704 1958 4717 1958 4736 
C 1958 4755 1939 4768 1914 4768 
C 1843 4768 1299 4296 986 3594 
C 666 2887 576 2199 576 1588 
C 576 1128 621 351 1005 -471 
C 1312 -1135 1837 -1600 1914 -1600 
C 1946 -1600 1958 -1587 1958 -1561 
z
" transform="scale(0.015625)"/>
       <path id="CMR17-6e" d="M 2656 1933 
C 2656 2259 2592 2790 1837 2790 
C 1331 2790 1069 2400 973 2144 
L 966 2144 
L 966 2790 
L 211 2720 
L 211 2554 
C 589 2554 646 2515 646 2208 
L 646 428 
C 646 184 621 153 211 153 
L 211 -13 
C 365 0 646 0 813 0 
C 979 0 1267 0 1421 -13 
L 1421 153 
C 1011 153 986 178 986 428 
L 986 1658 
C 986 2247 1344 2688 1792 2688 
C 2266 2688 2317 2266 2317 1958 
L 2317 428 
C 2317 184 2291 153 1882 153 
L 1882 -13 
C 2035 0 2317 0 2483 0 
C 2650 0 2938 0 3091 -13 
L 3091 153 
C 2682 153 2656 178 2656 428 
L 2656 1933 
z
" transform="scale(0.015625)"/>
       <path id="CMR17-6d" d="M 4326 1933 
C 4326 2252 4269 2790 3507 2790 
C 3072 2790 2771 2496 2656 2151 
L 2650 2151 
C 2573 2676 2195 2790 1837 2790 
C 1331 2790 1069 2400 973 2144 
L 966 2144 
L 966 2790 
L 211 2720 
L 211 2554 
C 589 2554 646 2515 646 2208 
L 646 428 
C 646 184 621 153 211 153 
L 211 -13 
C 365 0 646 0 813 0 
C 979 0 1267 0 1421 -13 
L 1421 153 
C 1011 153 986 178 986 428 
L 986 1658 
C 986 2247 1344 2688 1792 2688 
C 2266 2688 2317 2266 2317 1958 
L 2317 428 
C 2317 184 2291 153 1882 153 
L 1882 -13 
C 2035 0 2317 0 2483 0 
C 2650 0 2938 0 3091 -13 
L 3091 153 
C 2682 153 2656 178 2656 428 
L 2656 1658 
C 2656 2247 3014 2688 3462 2688 
C 3936 2688 3987 2266 3987 1958 
L 3987 428 
C 3987 184 3962 153 3552 153 
L 3552 -13 
C 3706 0 3987 0 4154 0 
C 4320 0 4608 0 4762 -13 
L 4762 153 
C 4352 153 4326 178 4326 428 
L 4326 1933 
z
" transform="scale(0.015625)"/>
       <path id="CMR17-29" d="M 1683 1581 
C 1683 2040 1638 2817 1254 3639 
C 947 4303 422 4768 346 4768 
C 326 4768 301 4761 301 4729 
C 301 4717 307 4710 314 4697 
C 621 4378 1402 3568 1402 1584 
C 1402 -407 627 -1217 314 -1537 
C 307 -1549 301 -1556 301 -1568 
C 301 -1600 326 -1600 346 -1600 
C 416 -1600 960 -1128 1274 -426 
C 1594 281 1683 969 1683 1581 
z
" transform="scale(0.015625)"/>
      </defs>
      <use xlink:href="#CMR17-78" transform="scale(0.996264)"/>
      <use xlink:href="#CMR17-28" transform="translate(78.368882 0) scale(0.996264)"/>
      <use xlink:href="#CMR17-6e" transform="translate(113.64965 0) scale(0.996264)"/>
      <use xlink:href="#CMR17-6d" transform="translate(164.54502 0) scale(0.996264)"/>
      <use xlink:href="#CMR17-29" transform="translate(241.46461 0) scale(0.996264)"/>
     </g>
    </g>
   </g>
   <g id="matplotlib.axis_2">
    <g id="ytick_1">
     <g id="line2d_55">
      <defs>
       <path id="m988912dbfe" d="M 0 0 
L 3 0 
" style="stroke: #000000; stroke-width: 0.5"/>
      </defs>
      <g>
       <use xlink:href="#m988912dbfe" x="36.006646" y="215.555259" style="stroke: #000000; stroke-width: 0.5"/>
      </g>
     </g>
     <g id="line2d_56">
      <defs>
       <path id="m6026e0c758" d="M 0 0 
L -3 0 
" style="stroke: #000000; stroke-width: 0.5"/>
      </defs>
      <g>
       <use xlink:href="#m6026e0c758" x="365.784646" y="215.555259" style="stroke: #000000; stroke-width: 0.5"/>
      </g>
     </g>
     <g id="text_9">
      <!-- $\mathdefault{0}$ -->
      <g transform="translate(27.525311 219.014508) scale(0.1 -0.1)">
       <use xlink:href="#CMR17-30" transform="scale(0.996264)"/>
      </g>
     </g>
    </g>
    <g id="ytick_2">
     <g id="line2d_57">
      <g>
       <use xlink:href="#m988912dbfe" x="36.006646" y="187.043266" style="stroke: #000000; stroke-width: 0.5"/>
      </g>
     </g>
     <g id="line2d_58">
      <g>
       <use xlink:href="#m6026e0c758" x="365.784646" y="187.043266" style="stroke: #000000; stroke-width: 0.5"/>
      </g>
     </g>
     <g id="text_10">
      <!-- $\mathdefault{25}$ -->
      <g transform="translate(22.543975 190.502515) scale(0.1 -0.1)">
       <defs>
        <path id="CMR17-35" d="M 730 3692 
C 794 3666 1056 3584 1325 3584 
C 1920 3584 2246 3911 2432 4100 
C 2432 4157 2432 4192 2394 4192 
C 2387 4192 2374 4192 2323 4163 
C 2099 4058 1837 3973 1517 3973 
C 1325 3973 1037 3999 723 4139 
C 653 4171 640 4171 634 4171 
C 602 4171 595 4164 595 4037 
L 595 2203 
C 595 2089 595 2057 659 2057 
C 691 2057 704 2070 736 2114 
C 941 2401 1222 2522 1542 2522 
C 1766 2522 2246 2382 2246 1289 
C 2246 1085 2246 715 2054 421 
C 1894 159 1645 25 1370 25 
C 947 25 518 320 403 814 
C 429 807 480 795 506 795 
C 589 795 749 840 749 1038 
C 749 1210 627 1280 506 1280 
C 358 1280 262 1190 262 1011 
C 262 454 704 -128 1382 -128 
C 2042 -128 2669 440 2669 1264 
C 2669 2030 2170 2624 1549 2624 
C 1222 2624 947 2503 730 2274 
L 730 3692 
z
" transform="scale(0.015625)"/>
       </defs>
       <use xlink:href="#CMR17-32" transform="scale(0.996264)"/>
       <use xlink:href="#CMR17-35" transform="translate(45.690477 0) scale(0.996264)"/>
      </g>
     </g>
    </g>
    <g id="ytick_3">
     <g id="line2d_59">
      <g>
       <use xlink:href="#m988912dbfe" x="36.006646" y="158.531273" style="stroke: #000000; stroke-width: 0.5"/>
      </g>
     </g>
     <g id="line2d_60">
      <g>
       <use xlink:href="#m6026e0c758" x="365.784646" y="158.531273" style="stroke: #000000; stroke-width: 0.5"/>
      </g>
     </g>
     <g id="text_11">
      <!-- $\mathdefault{50}$ -->
      <g transform="translate(22.543975 161.990522) scale(0.1 -0.1)">
       <use xlink:href="#CMR17-35" transform="scale(0.996264)"/>
       <use xlink:href="#CMR17-30" transform="translate(45.690477 0) scale(0.996264)"/>
      </g>
     </g>
    </g>
    <g id="ytick_4">
     <g id="line2d_61">
      <g>
       <use xlink:href="#m988912dbfe" x="36.006646" y="130.019281" style="stroke: #000000; stroke-width: 0.5"/>
      </g>
     </g>
     <g id="line2d_62">
      <g>
       <use xlink:href="#m6026e0c758" x="365.784646" y="130.019281" style="stroke: #000000; stroke-width: 0.5"/>
      </g>
     </g>
     <g id="text_12">
      <!-- $\mathdefault{75}$ -->
      <g transform="translate(22.543975 133.47853) scale(0.1 -0.1)">
       <defs>
        <path id="CMR17-37" d="M 2886 3941 
L 2886 4081 
L 1382 4081 
C 634 4081 621 4165 595 4288 
L 480 4288 
L 294 3094 
L 410 3094 
C 429 3215 474 3540 550 3661 
C 589 3712 1062 3712 1171 3712 
L 2579 3712 
L 1869 2661 
C 1395 1954 1069 999 1069 165 
C 1069 89 1069 -128 1299 -128 
C 1530 -128 1530 89 1530 171 
L 1530 465 
C 1530 1508 1709 2196 2003 2636 
L 2886 3941 
z
" transform="scale(0.015625)"/>
       </defs>
       <use xlink:href="#CMR17-37" transform="scale(0.996264)"/>
       <use xlink:href="#CMR17-35" transform="translate(45.690477 0) scale(0.996264)"/>
      </g>
     </g>
    </g>
    <g id="ytick_5">
     <g id="line2d_63">
      <g>
       <use xlink:href="#m988912dbfe" x="36.006646" y="101.507288" style="stroke: #000000; stroke-width: 0.5"/>
      </g>
     </g>
     <g id="line2d_64">
      <g>
       <use xlink:href="#m6026e0c758" x="365.784646" y="101.507288" style="stroke: #000000; stroke-width: 0.5"/>
      </g>
     </g>
     <g id="text_13">
      <!-- $\mathdefault{100}$ -->
      <g transform="translate(17.56264 104.966537) scale(0.1 -0.1)">
       <use xlink:href="#CMR17-31" transform="scale(0.996264)"/>
       <use xlink:href="#CMR17-30" transform="translate(45.690477 0) scale(0.996264)"/>
       <use xlink:href="#CMR17-30" transform="translate(91.380954 0) scale(0.996264)"/>
      </g>
     </g>
    </g>
    <g id="ytick_6">
     <g id="line2d_65">
      <g>
       <use xlink:href="#m988912dbfe" x="36.006646" y="72.995295" style="stroke: #000000; stroke-width: 0.5"/>
      </g>
     </g>
     <g id="line2d_66">
      <g>
       <use xlink:href="#m6026e0c758" x="365.784646" y="72.995295" style="stroke: #000000; stroke-width: 0.5"/>
      </g>
     </g>
     <g id="text_14">
      <!-- $\mathdefault{125}$ -->
      <g transform="translate(17.56264 76.454544) scale(0.1 -0.1)">
       <use xlink:href="#CMR17-31" transform="scale(0.996264)"/>
       <use xlink:href="#CMR17-32" transform="translate(45.690477 0) scale(0.996264)"/>
       <use xlink:href="#CMR17-35" transform="translate(91.380954 0) scale(0.996264)"/>
      </g>
     </g>
    </g>
    <g id="ytick_7">
     <g id="line2d_67">
      <g>
       <use xlink:href="#m988912dbfe" x="36.006646" y="44.483302" style="stroke: #000000; stroke-width: 0.5"/>
      </g>
     </g>
     <g id="line2d_68">
      <g>
       <use xlink:href="#m6026e0c758" x="365.784646" y="44.483302" style="stroke: #000000; stroke-width: 0.5"/>
      </g>
     </g>
     <g id="text_15">
      <!-- $\mathdefault{150}$ -->
      <g transform="translate(17.56264 47.942552) scale(0.1 -0.1)">
       <use xlink:href="#CMR17-31" transform="scale(0.996264)"/>
       <use xlink:href="#CMR17-35" transform="translate(45.690477 0) scale(0.996264)"/>
       <use xlink:href="#CMR17-30" transform="translate(91.380954 0) scale(0.996264)"/>
      </g>
     </g>
    </g>
    <g id="ytick_8">
     <g id="line2d_69">
      <defs>
       <path id="m3392ed98c9" d="M 0 0 
L 1.5 0 
" style="stroke: #000000; stroke-width: 0.5"/>
      </defs>
      <g>
       <use xlink:href="#m3392ed98c9" x="36.006646" y="226.960056" style="stroke: #000000; stroke-width: 0.5"/>
      </g>
     </g>
     <g id="line2d_70">
      <defs>
       <path id="me3b8f74e29" d="M 0 0 
L -1.5 0 
" style="stroke: #000000; stroke-width: 0.5"/>
      </defs>
      <g>
       <use xlink:href="#me3b8f74e29" x="365.784646" y="226.960056" style="stroke: #000000; stroke-width: 0.5"/>
      </g>
     </g>
    </g>
    <g id="ytick_9">
     <g id="line2d_71">
      <g>
       <use xlink:href="#m3392ed98c9" x="36.006646" y="221.257657" style="stroke: #000000; stroke-width: 0.5"/>
      </g>
     </g>
     <g id="line2d_72">
      <g>
       <use xlink:href="#me3b8f74e29" x="365.784646" y="221.257657" style="stroke: #000000; stroke-width: 0.5"/>
      </g>
     </g>
    </g>
    <g id="ytick_10">
     <g id="line2d_73">
      <g>
       <use xlink:href="#m3392ed98c9" x="36.006646" y="209.85286" style="stroke: #000000; stroke-width: 0.5"/>
      </g>
     </g>
     <g id="line2d_74">
      <g>
       <use xlink:href="#me3b8f74e29" x="365.784646" y="209.85286" style="stroke: #000000; stroke-width: 0.5"/>
      </g>
     </g>
    </g>
    <g id="ytick_11">
     <g id="line2d_75">
      <g>
       <use xlink:href="#m3392ed98c9" x="36.006646" y="204.150462" style="stroke: #000000; stroke-width: 0.5"/>
      </g>
     </g>
     <g id="line2d_76">
      <g>
       <use xlink:href="#me3b8f74e29" x="365.784646" y="204.150462" style="stroke: #000000; stroke-width: 0.5"/>
      </g>
     </g>
    </g>
    <g id="ytick_12">
     <g id="line2d_77">
      <g>
       <use xlink:href="#m3392ed98c9" x="36.006646" y="198.448063" style="stroke: #000000; stroke-width: 0.5"/>
      </g>
     </g>
     <g id="line2d_78">
      <g>
       <use xlink:href="#me3b8f74e29" x="365.784646" y="198.448063" style="stroke: #000000; stroke-width: 0.5"/>
      </g>
     </g>
    </g>
    <g id="ytick_13">
     <g id="line2d_79">
      <g>
       <use xlink:href="#m3392ed98c9" x="36.006646" y="192.745664" style="stroke: #000000; stroke-width: 0.5"/>
      </g>
     </g>
     <g id="line2d_80">
      <g>
       <use xlink:href="#me3b8f74e29" x="365.784646" y="192.745664" style="stroke: #000000; stroke-width: 0.5"/>
      </g>
     </g>
    </g>
    <g id="ytick_14">
     <g id="line2d_81">
      <g>
       <use xlink:href="#m3392ed98c9" x="36.006646" y="181.340867" style="stroke: #000000; stroke-width: 0.5"/>
      </g>
     </g>
     <g id="line2d_82">
      <g>
       <use xlink:href="#me3b8f74e29" x="365.784646" y="181.340867" style="stroke: #000000; stroke-width: 0.5"/>
      </g>
     </g>
    </g>
    <g id="ytick_15">
     <g id="line2d_83">
      <g>
       <use xlink:href="#m3392ed98c9" x="36.006646" y="175.638469" style="stroke: #000000; stroke-width: 0.5"/>
      </g>
     </g>
     <g id="line2d_84">
      <g>
       <use xlink:href="#me3b8f74e29" x="365.784646" y="175.638469" style="stroke: #000000; stroke-width: 0.5"/>
      </g>
     </g>
    </g>
    <g id="ytick_16">
     <g id="line2d_85">
      <g>
       <use xlink:href="#m3392ed98c9" x="36.006646" y="169.93607" style="stroke: #000000; stroke-width: 0.5"/>
      </g>
     </g>
     <g id="line2d_86">
      <g>
       <use xlink:href="#me3b8f74e29" x="365.784646" y="169.93607" style="stroke: #000000; stroke-width: 0.5"/>
      </g>
     </g>
    </g>
    <g id="ytick_17">
     <g id="line2d_87">
      <g>
       <use xlink:href="#m3392ed98c9" x="36.006646" y="164.233672" style="stroke: #000000; stroke-width: 0.5"/>
      </g>
     </g>
     <g id="line2d_88">
      <g>
       <use xlink:href="#me3b8f74e29" x="365.784646" y="164.233672" style="stroke: #000000; stroke-width: 0.5"/>
      </g>
     </g>
    </g>
    <g id="ytick_18">
     <g id="line2d_89">
      <g>
       <use xlink:href="#m3392ed98c9" x="36.006646" y="152.828875" style="stroke: #000000; stroke-width: 0.5"/>
      </g>
     </g>
     <g id="line2d_90">
      <g>
       <use xlink:href="#me3b8f74e29" x="365.784646" y="152.828875" style="stroke: #000000; stroke-width: 0.5"/>
      </g>
     </g>
    </g>
    <g id="ytick_19">
     <g id="line2d_91">
      <g>
       <use xlink:href="#m3392ed98c9" x="36.006646" y="147.126476" style="stroke: #000000; stroke-width: 0.5"/>
      </g>
     </g>
     <g id="line2d_92">
      <g>
       <use xlink:href="#me3b8f74e29" x="365.784646" y="147.126476" style="stroke: #000000; stroke-width: 0.5"/>
      </g>
     </g>
    </g>
    <g id="ytick_20">
     <g id="line2d_93">
      <g>
       <use xlink:href="#m3392ed98c9" x="36.006646" y="141.424078" style="stroke: #000000; stroke-width: 0.5"/>
      </g>
     </g>
     <g id="line2d_94">
      <g>
       <use xlink:href="#me3b8f74e29" x="365.784646" y="141.424078" style="stroke: #000000; stroke-width: 0.5"/>
      </g>
     </g>
    </g>
    <g id="ytick_21">
     <g id="line2d_95">
      <g>
       <use xlink:href="#m3392ed98c9" x="36.006646" y="135.721679" style="stroke: #000000; stroke-width: 0.5"/>
      </g>
     </g>
     <g id="line2d_96">
      <g>
       <use xlink:href="#me3b8f74e29" x="365.784646" y="135.721679" style="stroke: #000000; stroke-width: 0.5"/>
      </g>
     </g>
    </g>
    <g id="ytick_22">
     <g id="line2d_97">
      <g>
       <use xlink:href="#m3392ed98c9" x="36.006646" y="124.316882" style="stroke: #000000; stroke-width: 0.5"/>
      </g>
     </g>
     <g id="line2d_98">
      <g>
       <use xlink:href="#me3b8f74e29" x="365.784646" y="124.316882" style="stroke: #000000; stroke-width: 0.5"/>
      </g>
     </g>
    </g>
    <g id="ytick_23">
     <g id="line2d_99">
      <g>
       <use xlink:href="#m3392ed98c9" x="36.006646" y="118.614483" style="stroke: #000000; stroke-width: 0.5"/>
      </g>
     </g>
     <g id="line2d_100">
      <g>
       <use xlink:href="#me3b8f74e29" x="365.784646" y="118.614483" style="stroke: #000000; stroke-width: 0.5"/>
      </g>
     </g>
    </g>
    <g id="ytick_24">
     <g id="line2d_101">
      <g>
       <use xlink:href="#m3392ed98c9" x="36.006646" y="112.912085" style="stroke: #000000; stroke-width: 0.5"/>
      </g>
     </g>
     <g id="line2d_102">
      <g>
       <use xlink:href="#me3b8f74e29" x="365.784646" y="112.912085" style="stroke: #000000; stroke-width: 0.5"/>
      </g>
     </g>
    </g>
    <g id="ytick_25">
     <g id="line2d_103">
      <g>
       <use xlink:href="#m3392ed98c9" x="36.006646" y="107.209686" style="stroke: #000000; stroke-width: 0.5"/>
      </g>
     </g>
     <g id="line2d_104">
      <g>
       <use xlink:href="#me3b8f74e29" x="365.784646" y="107.209686" style="stroke: #000000; stroke-width: 0.5"/>
      </g>
     </g>
    </g>
    <g id="ytick_26">
     <g id="line2d_105">
      <g>
       <use xlink:href="#m3392ed98c9" x="36.006646" y="95.804889" style="stroke: #000000; stroke-width: 0.5"/>
      </g>
     </g>
     <g id="line2d_106">
      <g>
       <use xlink:href="#me3b8f74e29" x="365.784646" y="95.804889" style="stroke: #000000; stroke-width: 0.5"/>
      </g>
     </g>
    </g>
    <g id="ytick_27">
     <g id="line2d_107">
      <g>
       <use xlink:href="#m3392ed98c9" x="36.006646" y="90.102491" style="stroke: #000000; stroke-width: 0.5"/>
      </g>
     </g>
     <g id="line2d_108">
      <g>
       <use xlink:href="#me3b8f74e29" x="365.784646" y="90.102491" style="stroke: #000000; stroke-width: 0.5"/>
      </g>
     </g>
    </g>
    <g id="ytick_28">
     <g id="line2d_109">
      <g>
       <use xlink:href="#m3392ed98c9" x="36.006646" y="84.400092" style="stroke: #000000; stroke-width: 0.5"/>
      </g>
     </g>
     <g id="line2d_110">
      <g>
       <use xlink:href="#me3b8f74e29" x="365.784646" y="84.400092" style="stroke: #000000; stroke-width: 0.5"/>
      </g>
     </g>
    </g>
    <g id="ytick_29">
     <g id="line2d_111">
      <g>
       <use xlink:href="#m3392ed98c9" x="36.006646" y="78.697694" style="stroke: #000000; stroke-width: 0.5"/>
      </g>
     </g>
     <g id="line2d_112">
      <g>
       <use xlink:href="#me3b8f74e29" x="365.784646" y="78.697694" style="stroke: #000000; stroke-width: 0.5"/>
      </g>
     </g>
    </g>
    <g id="ytick_30">
     <g id="line2d_113">
      <g>
       <use xlink:href="#m3392ed98c9" x="36.006646" y="67.292897" style="stroke: #000000; stroke-width: 0.5"/>
      </g>
     </g>
     <g id="line2d_114">
      <g>
       <use xlink:href="#me3b8f74e29" x="365.784646" y="67.292897" style="stroke: #000000; stroke-width: 0.5"/>
      </g>
     </g>
    </g>
    <g id="ytick_31">
     <g id="line2d_115">
      <g>
       <use xlink:href="#m3392ed98c9" x="36.006646" y="61.590498" style="stroke: #000000; stroke-width: 0.5"/>
      </g>
     </g>
     <g id="line2d_116">
      <g>
       <use xlink:href="#me3b8f74e29" x="365.784646" y="61.590498" style="stroke: #000000; stroke-width: 0.5"/>
      </g>
     </g>
    </g>
    <g id="ytick_32">
     <g id="line2d_117">
      <g>
       <use xlink:href="#m3392ed98c9" x="36.006646" y="55.8881" style="stroke: #000000; stroke-width: 0.5"/>
      </g>
     </g>
     <g id="line2d_118">
      <g>
       <use xlink:href="#me3b8f74e29" x="365.784646" y="55.8881" style="stroke: #000000; stroke-width: 0.5"/>
      </g>
     </g>
    </g>
    <g id="ytick_33">
     <g id="line2d_119">
      <g>
       <use xlink:href="#m3392ed98c9" x="36.006646" y="50.185701" style="stroke: #000000; stroke-width: 0.5"/>
      </g>
     </g>
     <g id="line2d_120">
      <g>
       <use xlink:href="#me3b8f74e29" x="365.784646" y="50.185701" style="stroke: #000000; stroke-width: 0.5"/>
      </g>
     </g>
    </g>
    <g id="ytick_34">
     <g id="line2d_121">
      <g>
       <use xlink:href="#m3392ed98c9" x="36.006646" y="38.780904" style="stroke: #000000; stroke-width: 0.5"/>
      </g>
     </g>
     <g id="line2d_122">
      <g>
       <use xlink:href="#me3b8f74e29" x="365.784646" y="38.780904" style="stroke: #000000; stroke-width: 0.5"/>
      </g>
     </g>
    </g>
    <g id="ytick_35">
     <g id="line2d_123">
      <g>
       <use xlink:href="#m3392ed98c9" x="36.006646" y="33.078505" style="stroke: #000000; stroke-width: 0.5"/>
      </g>
     </g>
     <g id="line2d_124">
      <g>
       <use xlink:href="#me3b8f74e29" x="365.784646" y="33.078505" style="stroke: #000000; stroke-width: 0.5"/>
      </g>
     </g>
    </g>
    <g id="ytick_36">
     <g id="line2d_125">
      <g>
       <use xlink:href="#m3392ed98c9" x="36.006646" y="27.376107" style="stroke: #000000; stroke-width: 0.5"/>
      </g>
     </g>
     <g id="line2d_126">
      <g>
       <use xlink:href="#me3b8f74e29" x="365.784646" y="27.376107" style="stroke: #000000; stroke-width: 0.5"/>
      </g>
     </g>
    </g>
    <g id="ytick_37">
     <g id="line2d_127">
      <g>
       <use xlink:href="#m3392ed98c9" x="36.006646" y="21.673708" style="stroke: #000000; stroke-width: 0.5"/>
      </g>
     </g>
     <g id="line2d_128">
      <g>
       <use xlink:href="#me3b8f74e29" x="365.784646" y="21.673708" style="stroke: #000000; stroke-width: 0.5"/>
      </g>
     </g>
    </g>
    <g id="text_16">
     <!-- $\Delta$ G (kcal) -->
     <g transform="translate(11.07198 147.072454) rotate(-90) scale(0.1 -0.1)">
      <defs>
       <path id="CMR17-1" d="M 2598 4403 
C 2547 4512 2522 4512 2470 4512 
C 2394 4512 2387 4499 2342 4409 
L 269 109 
C 262 96 237 38 237 32 
C 237 6 243 0 358 0 
L 4576 0 
C 4691 0 4698 6 4698 32 
C 4698 38 4672 96 4666 109 
L 2598 4403 
z
M 2310 4038 
L 4083 358 
L 531 358 
L 2310 4038 
z
" transform="scale(0.015625)"/>
       <path id="CMR17-47" d="M 3974 1233 
C 3974 1473 3994 1505 4390 1505 
L 4390 1670 
C 4237 1664 3891 1664 3718 1664 
C 3539 1664 3040 1664 2797 1664 
L 2797 1505 
L 2989 1505 
C 3539 1505 3552 1434 3552 1201 
L 3552 774 
C 3552 63 2720 63 2522 63 
C 1862 63 781 511 781 2160 
C 781 3808 1843 4250 2464 4250 
C 3187 4250 3712 3626 3834 2741 
C 3846 2664 3846 2651 3904 2651 
C 3974 2651 3974 2664 3974 2779 
L 3974 4288 
C 3974 4402 3968 4409 3930 4409 
C 3904 4409 3898 4402 3853 4326 
L 3571 3791 
C 3258 4187 2874 4416 2381 4416 
C 1286 4416 294 3456 294 2148 
C 294 845 1267 -128 2394 -128 
C 2912 -128 3418 56 3616 417 
C 3725 158 3904 -20 3936 -20 
C 3968 -20 3974 -13 3974 100 
L 3974 1233 
z
" transform="scale(0.015625)"/>
       <path id="CMR17-6b" d="M 1670 1673 
C 1664 1686 1632 1724 1632 1743 
C 1632 1756 2086 2171 2144 2222 
C 2509 2528 2739 2560 2906 2560 
L 2906 2733 
C 2867 2733 2854 2733 2848 2720 
L 2534 2720 
C 2355 2720 2080 2720 1907 2733 
L 1907 2566 
C 1997 2559 2061 2508 2061 2419 
C 2061 2291 1933 2170 1926 2170 
L 960 1289 
L 960 4396 
L 198 4326 
L 198 4160 
C 576 4160 634 4122 634 3817 
L 634 426 
C 634 184 608 153 198 153 
L 198 -13 
C 352 0 634 0 794 0 
C 954 0 1235 0 1389 -13 
L 1389 153 
C 979 153 954 178 954 428 
L 954 1130 
L 1395 1532 
L 2042 574 
C 2118 459 2182 369 2182 286 
C 2182 172 2067 153 1990 153 
L 1990 -13 
C 2144 0 2419 0 2579 0 
C 2694 0 2931 0 3040 0 
L 3040 153 
C 2739 153 2669 210 2477 491 
L 1670 1673 
z
" transform="scale(0.015625)"/>
       <path id="CMR17-63" d="M 2234 2240 
C 2112 2240 1933 2240 1933 2017 
C 1933 1838 2080 1787 2163 1787 
C 2208 1787 2394 1807 2394 2024 
C 2394 2467 1958 2803 1466 2803 
C 787 2803 211 2178 211 1363 
C 211 516 813 -64 1466 -64 
C 2259 -64 2458 677 2458 748 
C 2458 774 2451 793 2406 793 
C 2362 793 2355 787 2330 703 
C 2163 180 1798 51 1523 51 
C 1114 51 621 427 621 1369 
C 621 2338 1094 2688 1472 2688 
C 1722 2688 2093 2573 2234 2240 
z
" transform="scale(0.015625)"/>
       <path id="CMR17-61" d="M 2304 1653 
C 2304 2072 2304 2294 2035 2543 
C 1798 2752 1523 2816 1306 2816 
C 800 2816 435 2407 435 1971 
C 435 1728 627 1728 666 1728 
C 749 1728 896 1778 896 1954 
C 896 2112 774 2181 666 2181 
C 640 2181 608 2174 589 2168 
C 723 2592 1069 2714 1293 2714 
C 1613 2714 1965 2429 1965 1885 
L 1965 1600 
C 1587 1600 1133 1549 774 1357 
C 371 1133 256 813 256 570 
C 256 77 832 -64 1171 -64 
C 1523 -64 1850 139 1990 511 
C 2003 233 2182 -18 2464 -18 
C 2598 -18 2938 70 2938 567 
L 2938 920 
L 2822 920 
L 2822 562 
C 2822 178 2650 128 2566 128 
C 2304 128 2304 458 2304 738 
L 2304 1653 
z
M 1965 870 
C 1965 317 1568 38 1216 38 
C 896 38 646 275 646 570 
C 646 761 730 1100 1101 1305 
C 1408 1478 1760 1504 1965 1504 
L 1965 870 
z
" transform="scale(0.015625)"/>
       <path id="CMR17-6c" d="M 979 4396 
L 218 4326 
L 218 4160 
C 595 4160 653 4122 653 3817 
L 653 426 
C 653 184 627 153 218 153 
L 218 -13 
C 371 0 653 0 813 0 
C 979 0 1261 0 1414 -13 
L 1414 153 
C 1005 153 979 178 979 426 
L 979 4396 
z
" transform="scale(0.015625)"/>
      </defs>
      <use xlink:href="#CMR17-1" transform="scale(0.996264)"/>
      <use xlink:href="#CMR17-47" transform="translate(106.995556 0) scale(0.996264)"/>
      <use xlink:href="#CMR17-28" transform="translate(209.426868 0) scale(0.996264)"/>
      <use xlink:href="#CMR17-6b" transform="translate(244.707636 0) scale(0.996264)"/>
      <use xlink:href="#CMR17-63" transform="translate(290.398098 0) scale(0.996264)"/>
      <use xlink:href="#CMR17-61" transform="translate(330.883759 0) scale(0.996264)"/>
      <use xlink:href="#CMR17-6c" transform="translate(376.574236 0) scale(0.996264)"/>
      <use xlink:href="#CMR17-29" transform="translate(401.445294 0) scale(0.996264)"/>
     </g>
    </g>
   </g>
   <g id="line2d_129">
    <path d="M 52.933059 215.555259 
L 54.4092 216.493446 
L 57.361507 217.568854 
L 58.837648 217.486875 
L 60.313814 217.249818 
L 61.789955 216.535514 
L 63.266096 216.441528 
L 64.742262 216.742 
L 66.218403 216.370712 
L 69.170685 215.171102 
L 70.646851 215.171921 
L 73.599132 214.854762 
L 76.551439 213.301845 
L 78.02758 212.644912 
L 79.503746 211.429208 
L 80.979887 210.52084 
L 83.932194 209.09307 
L 85.408335 208.049782 
L 86.884476 206.32934 
L 88.360642 203.98345 
L 92.78909 196.071235 
L 94.265231 193.752172 
L 97.217538 188.19734 
L 98.693679 186.002156 
L 101.645986 181.34154 
L 103.122127 179.427735 
L 104.598268 177.742654 
L 107.550575 173.754704 
L 109.026716 171.26344 
L 110.502882 168.99514 
L 111.979023 167.695142 
L 113.455163 167.142716 
L 114.931329 165.620621 
L 116.40747 163.51785 
L 117.883611 161.183299 
L 119.359777 214.62595 
L 120.835918 159.006511 
L 122.312059 158.259862 
L 123.788225 157.260209 
L 125.264366 157.040529 
L 126.740507 156.643072 
L 131.168955 154.545525 
L 134.121262 153.433911 
L 135.597403 152.393588 
L 137.073544 151.600909 
L 138.54971 150.979165 
L 141.501992 149.401608 
L 142.978158 148.890046 
L 148.882747 146.18566 
L 150.358888 144.670157 
L 151.835054 144.151603 
L 153.311195 143.882724 
L 156.263501 142.975518 
L 157.739642 143.437195 
L 159.215783 142.754356 
L 163.644231 141.471191 
L 165.120397 140.917944 
L 166.596538 140.522597 
L 168.072679 139.895766 
L 172.501127 137.255841 
L 175.453434 136.134658 
L 176.929575 135.505056 
L 178.405741 135.074879 
L 179.881882 134.86097 
L 181.358023 133.623972 
L 184.31033 131.984327 
L 185.786471 131.579719 
L 187.262637 130.994676 
L 190.214919 129.281892 
L 191.691085 128.709736 
L 193.167226 128.469494 
L 197.595673 127.056748 
L 199.071814 126.105645 
L 200.547955 124.906259 
L 204.976403 122.814528 
L 209.404851 119.933232 
L 210.881017 118.783058 
L 212.357158 214.62595 
L 213.833299 117.470035 
L 215.309465 116.396307 
L 218.261747 115.606468 
L 221.214054 115.323139 
L 222.690195 114.650689 
L 228.594809 113.138584 
L 230.07095 112.5114 
L 231.547091 112.034931 
L 234.499398 111.784162 
L 235.975539 111.723534 
L 237.451705 111.434799 
L 238.927945 111.416984 
L 240.404086 111.223308 
L 244.832509 111.17729 
L 246.30865 111.60684 
L 247.784791 110.794545 
L 249.260932 110.447611 
L 250.737073 110.35611 
L 252.213214 110.450599 
L 253.689355 110.193352 
L 256.641637 110.022543 
L 258.117778 109.98875 
L 259.593919 110.10176 
L 261.07006 110.06547 
L 262.546201 109.780465 
L 264.022342 110.000144 
L 266.974624 109.795006 
L 272.879188 108.753463 
L 277.307611 108.55949 
L 278.783752 108.321529 
L 281.736283 108.478675 
L 286.164706 108.539874 
L 289.116988 107.879285 
L 292.06927 107.657119 
L 293.545411 107.308634 
L 299.449975 107.165561 
L 300.926116 106.968543 
L 303.878398 106.91745 
L 305.354539 106.444607 
L 311.259103 105.312099 
L 312.735244 105.328134 
L 314.211385 105.156161 
L 315.687526 104.858553 
L 317.163667 104.831912 
L 318.639808 105.08357 
L 321.59209 104.531372 
L 323.068231 104.494421 
L 326.020762 104.103111 
L 327.496903 103.941562 
L 331.925326 104.031181 
L 333.401467 103.687725 
L 334.877608 103.21543 
L 337.82989 102.923684 
L 339.306031 101.500673 
L 340.782172 101.839612 
L 342.258313 101.750712 
L 343.734454 101.375334 
L 345.210595 101.202666 
L 346.686736 101.299949 
L 346.686736 101.299949 
" clip-path="url(#p2ea10de862)" style="fill: none; stroke: #ff2c00; stroke-linecap: square"/>
   </g>
   <g id="line2d_130">
    <path d="M 52.660125 215.555259 
L 54.134842 215.720568 
L 55.609533 216.378719 
L 57.084224 217.210638 
L 58.558916 217.6295 
L 60.033607 217.357247 
L 61.508323 217.257153 
L 62.983015 216.346373 
L 64.457706 215.824585 
L 65.932397 214.564729 
L 67.407089 214.525562 
L 68.881805 214.895189 
L 70.356496 214.802195 
L 71.831187 214.232383 
L 73.305879 212.466552 
L 74.78057 211.666036 
L 76.255286 210.693951 
L 79.204669 207.968751 
L 80.67936 207.054662 
L 82.154052 206.382924 
L 83.628768 205.466597 
L 85.103459 203.867155 
L 88.052842 199.894784 
L 89.527533 197.404102 
L 91.00225 194.049871 
L 92.476941 191.828513 
L 93.951632 189.884897 
L 95.426324 187.558078 
L 98.375731 182.44971 
L 99.850423 180.051213 
L 101.325114 178.428002 
L 102.799805 176.582729 
L 105.749213 171.16772 
L 107.223904 168.584773 
L 108.698595 166.546017 
L 111.647978 162.902447 
L 114.597386 157.449403 
L 116.072077 154.944214 
L 119.02146 149.710963 
L 120.496176 147.424221 
L 121.970867 144.759445 
L 124.92025 139.125623 
L 126.394941 134.971677 
L 127.869658 132.38646 
L 129.344349 131.226969 
L 130.81904 129.497614 
L 132.293732 127.548557 
L 135.243139 122.950074 
L 138.192522 118.29743 
L 142.616621 110.92359 
L 144.091312 108.496934 
L 145.566003 106.382873 
L 148.515386 101.860643 
L 149.990102 98.792262 
L 155.888868 89.710964 
L 157.363559 86.131683 
L 160.312967 81.43667 
L 161.787658 79.534122 
L 163.262349 77.941099 
L 164.737041 75.967727 
L 167.686448 72.494282 
L 169.161139 71.136769 
L 172.110522 66.591502 
L 175.05993 62.593664 
L 178.009312 59.099804 
L 179.484004 58.210915 
L 180.95872 57.494009 
L 182.433411 56.174474 
L 183.908103 55.281935 
L 185.382794 54.606086 
L 186.857485 53.217894 
L 188.332202 51.274517 
L 189.806893 50.368064 
L 194.230967 48.25236 
L 195.705683 47.943404 
L 197.180374 47.441593 
L 198.655066 46.689104 
L 200.129757 45.67077 
L 201.604448 44.418181 
L 206.028547 41.237041 
L 207.503239 41.186518 
L 210.452646 40.711052 
L 213.402029 40.745608 
L 214.87672 39.54149 
L 216.351412 39.28876 
L 219.300819 39.131031 
L 220.775511 39.311797 
L 222.250202 39.170948 
L 223.724893 39.208698 
L 225.19961 39.439303 
L 226.674301 39.093395 
L 229.623683 39.191933 
L 232.573091 38.608349 
L 235.522474 38.581434 
L 241.421339 38.285594 
L 242.89598 38.142235 
L 244.370622 38.238036 
L 247.320154 37.41153 
L 248.794796 37.404459 
L 250.269437 37.248099 
L 251.744078 37.231904 
L 253.21872 37.379939 
L 254.693611 35.485374 
L 256.168252 34.801428 
L 257.642894 34.682476 
L 259.117535 34.785918 
L 260.592426 34.774627 
L 262.067067 34.941707 
L 265.01635 34.750335 
L 266.490991 34.516536 
L 270.915165 34.471829 
L 272.389807 34.697873 
L 273.864698 35.321715 
L 276.813981 35.025989 
L 278.288622 35.041841 
L 279.763263 35.248154 
L 281.238155 35.19535 
L 282.712796 35.369501 
L 285.662079 34.296994 
L 287.13697 34.483919 
L 290.086253 34.192412 
L 293.035535 34.057151 
L 294.510426 34.336683 
L 295.985068 34.329726 
L 298.93435 34.058292 
L 300.408992 34.028411 
L 301.883883 34.282624 
L 303.358524 34.348316 
L 306.307807 33.796437 
L 307.782698 33.531732 
L 309.25734 33.710787 
L 310.731981 33.715805 
L 312.206622 33.510063 
L 315.156155 33.430914 
L 316.630796 33.304434 
L 318.105438 33.621032 
L 321.05497 33.307742 
L 325.478894 33.34572 
L 326.953536 33.291775 
L 328.428427 34.143029 
L 329.903068 33.668133 
L 331.377709 33.544277 
L 332.852351 33.670414 
L 335.801883 33.612478 
L 340.225807 32.119248 
L 341.700699 32.141829 
L 344.649981 31.888757 
L 346.124623 32.315524 
L 346.124623 32.315524 
" clip-path="url(#p2ea10de862)" style="fill: none; stroke: #845b97; stroke-linecap: square"/>
   </g>
   <g id="line2d_131">
    <path d="M 50.996555 215.555259 
L 52.465523 216.560051 
L 55.403458 216.009991 
L 56.872451 214.284355 
L 58.341418 214.664602 
L 59.810386 214.127506 
L 61.279379 211.125683 
L 62.748347 209.995395 
L 64.217314 210.250187 
L 65.686282 209.633604 
L 67.155275 208.542569 
L 70.09321 206.74675 
L 71.562203 205.455807 
L 73.031171 204.328815 
L 74.500138 203.465102 
L 77.438099 200.665954 
L 78.907066 199.719322 
L 80.376034 199.171378 
L 81.845027 197.808699 
L 83.313995 196.752592 
L 86.25193 194.988144 
L 87.720923 193.959694 
L 89.18989 192.778704 
L 90.658858 190.989839 
L 92.127851 188.933554 
L 93.596819 186.583459 
L 96.534779 182.331648 
L 98.003747 179.680238 
L 99.472714 178.036225 
L 103.879642 171.734413 
L 105.34861 169.249878 
L 108.286571 163.426874 
L 109.755538 160.80547 
L 111.224506 157.834645 
L 114.162466 151.552119 
L 115.631434 148.70904 
L 117.100427 146.175179 
L 118.569395 143.927237 
L 125.914258 134.250574 
L 127.383251 131.535275 
L 128.852219 129.203963 
L 130.321186 127.248268 
L 131.790154 124.866593 
L 134.728114 118.60658 
L 137.666075 112.508709 
L 140.60401 107.45798 
L 143.541971 103.045738 
L 146.479906 97.695805 
L 147.948899 94.843009 
L 152.355802 85.232414 
L 153.824795 83.820272 
L 155.293762 83.38096 
L 156.76273 80.236885 
L 158.231723 78.166344 
L 159.70069 76.461327 
L 161.169658 75.078153 
L 162.638626 74.090156 
L 164.107619 72.908048 
L 165.576586 71.998288 
L 167.045554 70.049778 
L 168.514547 68.928573 
L 169.983514 68.052114 
L 171.452482 67.337832 
L 172.921475 66.777286 
L 174.390443 66.474717 
L 178.797371 63.837927 
L 180.266338 63.318781 
L 181.735306 63.077456 
L 183.204299 62.658329 
L 184.673267 62.02753 
L 186.142234 61.684246 
L 187.611202 61.513858 
L 190.549162 60.199455 
L 192.01813 59.762993 
L 193.487123 59.515395 
L 194.95609 58.927022 
L 196.425058 58.72242 
L 197.894026 58.059915 
L 199.363019 57.141031 
L 200.831986 56.516732 
L 202.300954 55.435443 
L 208.17685 52.457194 
L 209.645843 51.806437 
L 211.11481 51.299494 
L 212.583778 50.911502 
L 214.052771 50.253674 
L 215.521738 49.819151 
L 219.928667 47.256493 
L 221.397634 46.602428 
L 224.335595 45.682175 
L 225.804562 45.108171 
L 230.211491 44.775836 
L 231.680458 44.475433 
L 233.149426 44.413619 
L 234.618419 43.750886 
L 237.556354 42.985282 
L 239.025422 42.967947 
L 240.494314 42.611661 
L 241.963207 41.65765 
L 244.901243 40.923295 
L 246.370135 40.844602 
L 247.839278 40.922839 
L 249.308171 40.042845 
L 255.183992 38.106538 
L 258.122027 37.722425 
L 259.59092 37.240002 
L 261.060062 36.917474 
L 262.528955 36.771151 
L 263.997848 36.368675 
L 265.466991 36.168977 
L 266.935883 36.274814 
L 268.404776 35.940425 
L 269.873919 35.742324 
L 271.342811 35.931301 
L 272.811704 34.480953 
L 274.280847 33.706225 
L 275.74974 33.395331 
L 283.094703 32.840943 
L 286.032489 31.694191 
L 288.970524 31.313157 
L 290.439417 30.787966 
L 291.908309 30.414801 
L 294.846345 30.199935 
L 296.315237 30.372033 
L 297.78438 30.106757 
L 299.253273 30.700719 
L 300.722166 30.500679 
L 303.660201 30.400431 
L 308.067129 30.156368 
L 309.536022 30.107442 
L 311.005165 29.853343 
L 312.474057 29.483485 
L 318.349878 29.01338 
L 321.287914 28.783459 
L 322.756806 28.922825 
L 324.225949 28.732707 
L 327.163734 28.626985 
L 328.632877 28.023557 
L 330.10177 28.306168 
L 333.039805 28.242073 
L 334.508698 28.046823 
L 335.977591 27.70696 
L 337.446733 27.974403 
L 340.384519 27.480347 
L 341.853661 27.47818 
L 343.322554 27.652217 
L 343.322554 27.652217 
" clip-path="url(#p2ea10de862)" style="fill: none; stroke: #00b945; stroke-linecap: square"/>
   </g>
   <g id="line2d_132">
    <path d="M 53.020288 215.555259 
L 54.484032 215.684014 
L 55.947801 215.020598 
L 57.41157 215.662077 
L 58.875314 214.928297 
L 60.339083 213.205963 
L 61.802852 212.670885 
L 63.266596 211.937706 
L 64.730365 210.871897 
L 66.194134 209.384924 
L 70.585415 208.236365 
L 72.049159 206.986523 
L 73.512928 205.995771 
L 74.976672 204.569299 
L 76.440441 203.682694 
L 77.90421 202.339768 
L 80.831723 199.350582 
L 82.295492 197.463624 
L 83.759236 194.399714 
L 85.223005 192.075621 
L 88.150518 187.978163 
L 89.614287 185.431802 
L 91.078056 183.303736 
L 95.469338 176.292534 
L 96.933082 174.636318 
L 99.86062 172.051352 
L 101.324364 171.371022 
L 102.788133 170.506093 
L 104.251877 169.510649 
L 107.179415 167.84134 
L 110.106928 167.25876 
L 111.570697 166.510503 
L 113.034441 165.149044 
L 114.49821 164.60678 
L 115.961979 164.481065 
L 117.425723 164.560111 
L 118.889492 163.846992 
L 120.353261 163.417465 
L 123.280774 162.096755 
L 124.744543 161.550773 
L 126.208287 161.206132 
L 129.1358 160.214496 
L 130.599569 159.856853 
L 132.063338 159.683203 
L 136.454619 156.728357 
L 137.918363 156.138501 
L 140.845901 155.244798 
L 142.309645 154.588053 
L 145.237183 153.839864 
L 146.700927 153.037058 
L 152.555978 149.202913 
L 154.019747 148.721209 
L 155.483491 147.848753 
L 156.94726 147.389311 
L 158.411004 146.720853 
L 161.338542 146.176183 
L 164.266055 143.684885 
L 165.729824 142.840759 
L 170.121106 141.18639 
L 173.048619 139.182419 
L 174.512388 138.621315 
L 175.976132 137.871084 
L 178.90367 136.692684 
L 181.831183 135.13391 
L 183.294927 134.548912 
L 184.758696 132.923364 
L 186.222465 131.560684 
L 190.613747 128.63232 
L 192.077491 127.817972 
L 195.005029 125.348868 
L 196.468773 123.819051 
L 197.932542 123.62655 
L 199.396311 123.016895 
L 200.860055 122.26825 
L 202.323823 121.717455 
L 203.787592 120.949 
L 205.251336 119.713461 
L 206.715105 118.723376 
L 208.178874 117.968185 
L 209.642618 117.409225 
L 214.0339 116.650395 
L 215.497669 115.811538 
L 218.425182 115.078529 
L 221.352695 113.578273 
L 227.207746 110.328705 
L 233.062797 106.445907 
L 234.526541 105.854751 
L 237.454054 104.095116 
L 238.917948 103.542155 
L 240.381592 102.609664 
L 244.772774 100.411059 
L 246.236668 100.189007 
L 247.700312 99.1644 
L 249.164206 96.459867 
L 250.62785 94.896839 
L 252.091744 93.794338 
L 253.555388 92.534222 
L 255.019282 91.733833 
L 256.482926 91.629023 
L 259.410464 91.800437 
L 260.874108 92.093084 
L 262.338002 91.864646 
L 263.801646 91.960332 
L 268.193077 91.376293 
L 269.656721 91.161312 
L 271.120615 91.059467 
L 272.584259 91.123334 
L 274.048153 90.97952 
L 275.511797 90.473261 
L 276.975691 90.286678 
L 278.439335 89.699103 
L 281.366873 87.974242 
L 282.830517 87.394422 
L 284.294411 86.952942 
L 285.758055 86.937317 
L 287.221949 87.053418 
L 290.149487 86.783125 
L 294.540669 86.49618 
L 296.004563 86.424786 
L 297.468207 86.62551 
L 298.932101 86.708651 
L 300.395745 86.325336 
L 301.859639 86.275839 
L 303.323283 86.445086 
L 304.786927 86.836271 
L 306.250821 86.435734 
L 309.178359 86.048199 
L 312.105897 86.001896 
L 313.569541 85.432226 
L 315.033435 85.256707 
L 316.497079 84.791277 
L 317.960973 84.580744 
L 319.424617 84.609712 
L 323.815799 83.865663 
L 326.743337 83.48634 
L 328.207231 83.469917 
L 329.670875 83.230074 
L 335.525951 82.793042 
L 338.453488 82.324305 
L 339.917382 82.419877 
L 341.381026 82.384294 
L 342.84492 82.500167 
L 344.308564 83.018287 
L 344.308564 83.018287 
" clip-path="url(#p2ea10de862)" style="fill: none; stroke: #0c5da5; stroke-linecap: square"/>
   </g>
   <g id="line2d_133">
    <path d="M 51.135071 215.555259 
L 52.64088 216.742504 
L 54.146714 218.99818 
L 55.652547 218.077005 
L 57.158381 216.845946 
L 58.66419 215.363933 
L 60.170024 213.267164 
L 63.181691 208.099071 
L 64.6875 214.46624 
L 66.193334 204.900921 
L 67.699167 205.310029 
L 69.205001 204.818488 
L 70.710835 203.808626 
L 73.722477 202.273768 
L 75.228311 202.126589 
L 76.734145 201.59922 
L 81.251621 195.271154 
L 82.757455 193.208494 
L 84.263264 189.635576 
L 85.769097 186.903409 
L 93.298241 176.097831 
L 99.321551 170.503117 
L 100.827385 169.365397 
L 103.839027 167.835113 
L 106.850695 164.187391 
L 108.356529 162.043711 
L 109.862337 159.561583 
L 114.379839 151.170651 
L 118.897315 144.807698 
L 123.414791 137.113338 
L 124.920625 134.050865 
L 126.426459 131.766416 
L 127.932267 128.796242 
L 129.438101 127.285231 
L 130.943935 126.690734 
L 132.449769 126.219453 
L 133.955577 125.886866 
L 135.461411 124.218402 
L 136.967245 123.017351 
L 139.978887 121.678713 
L 141.484721 120.716627 
L 142.990555 120.102912 
L 144.496389 119.190722 
L 146.002222 118.421343 
L 149.013865 116.733878 
L 150.519699 116.066002 
L 152.025532 115.945727 
L 153.531341 115.603469 
L 155.037175 115.060692 
L 158.048842 113.028505 
L 161.060485 111.691566 
L 164.072152 109.71475 
L 165.577961 108.868548 
L 167.083795 107.864356 
L 168.589628 107.210519 
L 170.095462 106.847538 
L 173.107105 104.970514 
L 176.118772 103.683483 
L 179.130415 102.150039 
L 180.636248 101.989597 
L 185.153725 100.248312 
L 186.659558 100.341261 
L 188.165392 100.122517 
L 191.177035 98.524135 
L 194.188702 97.853647 
L 195.694536 97.119634 
L 200.212012 95.641459 
L 201.717846 95.658224 
L 204.729488 94.34211 
L 209.246965 91.857005 
L 212.258632 90.737624 
L 213.764466 90.003839 
L 216.776108 89.024623 
L 218.281942 88.54528 
L 221.293585 88.286847 
L 222.799418 87.807161 
L 224.305252 87.531507 
L 225.811086 87.37127 
L 227.31692 86.904814 
L 230.328562 86.628362 
L 231.834396 85.695677 
L 233.34023 85.691343 
L 234.846038 84.632408 
L 236.351872 84.131053 
L 237.857706 84.268709 
L 239.36359 84.066844 
L 240.869473 84.26198 
L 245.386875 83.747624 
L 248.398392 83.723446 
L 249.904276 84.091592 
L 251.41016 83.816623 
L 254.421927 83.513027 
L 255.927561 83.23897 
L 257.433444 83.107359 
L 258.939328 83.104849 
L 260.445212 83.301924 
L 261.950846 82.434818 
L 263.456729 82.028465 
L 264.962613 81.972695 
L 266.468497 81.715289 
L 269.480014 81.757601 
L 270.985898 81.388884 
L 273.997666 81.062592 
L 275.503299 80.747592 
L 277.009183 81.213136 
L 278.515067 81.334939 
L 280.020951 81.34144 
L 281.526584 81.111291 
L 283.032468 81.026667 
L 289.055753 81.277801 
L 290.561637 81.058487 
L 293.573404 81.127714 
L 295.079038 79.774763 
L 296.584922 79.84513 
L 298.090806 79.690709 
L 301.102573 79.832471 
L 304.114091 80.014606 
L 307.125858 79.425548 
L 308.631492 79.247291 
L 311.643259 78.707274 
L 313.149143 78.62265 
L 314.655027 78.236256 
L 317.666544 78.031197 
L 319.172428 77.38694 
L 320.678312 77.276314 
L 323.689829 77.481372 
L 325.195713 77.695212 
L 328.207481 77.267874 
L 334.230766 77.296158 
L 335.736399 77.083687 
L 337.242283 77.484337 
L 338.748167 77.41511 
L 340.254051 77.218492 
L 343.265568 77.343944 
L 344.771452 76.837685 
L 346.277336 76.538195 
L 347.783219 76.365641 
L 349.288853 76.501016 
L 350.794737 76.865969 
L 350.794737 76.865969 
" clip-path="url(#p2ea10de862)" style="fill: none; stroke: #ff9500; stroke-linecap: square"/>
   </g>
   <g id="patch_3">
    <path d="M 36.006646 228.57418 
L 36.006646 17.90218 
" style="fill: none; stroke: #000000; stroke-width: 0.5; stroke-linejoin: miter; stroke-linecap: square"/>
   </g>
   <g id="patch_4">
    <path d="M 365.784646 228.57418 
L 365.784646 17.90218 
" style="fill: none; stroke: #000000; stroke-width: 0.5; stroke-linejoin: miter; stroke-linecap: square"/>
   </g>
   <g id="patch_5">
    <path d="M 36.006646 228.57418 
L 365.784646 228.57418 
" style="fill: none; stroke: #000000; stroke-width: 0.5; stroke-linejoin: miter; stroke-linecap: square"/>
   </g>
   <g id="patch_6">
    <path d="M 36.006646 17.90218 
L 365.784646 17.90218 
" style="fill: none; stroke: #000000; stroke-width: 0.5; stroke-linejoin: miter; stroke-linecap: square"/>
   </g>
   <g id="text_17">
    <!-- WHAM Profile -->
    <g transform="translate(162.128919 11.90218) scale(0.12 -0.12)">
     <defs>
      <path id="CMR17-57" d="M 5523 3764 
C 5581 3936 5677 4160 6048 4160 
L 6048 4326 
C 5939 4326 5715 4326 5600 4326 
C 5440 4326 5158 4326 5005 4332 
L 5005 4160 
C 5293 4160 5414 4000 5414 3847 
C 5414 3802 5408 3777 5382 3707 
L 4390 555 
L 3347 3873 
C 3328 3937 3322 3963 3322 3988 
C 3322 4160 3603 4160 3725 4160 
L 3725 4326 
C 3539 4326 3219 4326 3021 4326 
C 2861 4326 2573 4326 2426 4332 
L 2426 4160 
C 2720 4160 2797 4141 2861 4027 
C 2886 3969 2989 3638 2989 3619 
C 2989 3593 2976 3555 2970 3536 
L 2029 561 
L 986 3867 
C 954 3957 954 3969 954 3982 
C 954 4160 1235 4160 1363 4160 
L 1363 4326 
C 1178 4326 858 4326 659 4326 
C 493 4326 211 4326 58 4332 
L 58 4160 
C 442 4160 467 4122 531 3918 
L 1779 -20 
C 1811 -115 1811 -128 1869 -128 
C 1920 -128 1939 -115 1965 -26 
L 3053 3433 
L 4141 -26 
C 4166 -115 4186 -128 4237 -128 
C 4294 -128 4294 -115 4326 -20 
L 5523 3764 
z
" transform="scale(0.015625)"/>
      <path id="CMR17-48" d="M 3590 3905 
C 3590 4192 3661 4192 4102 4192 
L 4102 4352 
C 3917 4352 3578 4352 3379 4352 
C 3181 4352 2842 4352 2656 4352 
L 2656 4192 
C 3098 4192 3168 4192 3168 3904 
L 3168 2341 
L 1261 2341 
L 1261 3904 
C 1261 4192 1331 4192 1773 4192 
L 1773 4352 
C 1587 4352 1248 4352 1050 4352 
C 851 4352 512 4352 326 4352 
L 326 4192 
C 768 4192 838 4192 838 3905 
L 838 447 
C 838 160 768 160 326 160 
L 326 0 
C 512 0 851 0 1050 0 
C 1248 0 1587 0 1773 0 
L 1773 160 
C 1331 160 1261 160 1261 446 
L 1261 2176 
L 3168 2176 
L 3168 446 
C 3168 160 3098 160 2656 160 
L 2656 0 
C 2842 0 3181 0 3379 0 
C 3578 0 3917 0 4102 0 
L 4102 160 
C 3661 160 3590 160 3590 447 
L 3590 3905 
z
" transform="scale(0.015625)"/>
      <path id="CMR17-41" d="M 2323 4378 
C 2291 4461 2278 4480 2214 4480 
C 2150 4480 2138 4461 2106 4378 
L 749 566 
C 627 223 371 153 147 153 
L 147 -13 
C 262 0 518 0 640 0 
C 800 0 1056 0 1210 -13 
L 1210 153 
C 909 153 864 361 864 439 
C 864 497 877 530 890 569 
L 1229 1536 
L 2906 1536 
L 3290 442 
C 3322 365 3322 352 3322 327 
C 3322 153 3046 153 2925 153 
L 2925 0 
C 3110 0 3443 0 3642 0 
C 3808 0 4128 0 4282 -13 
L 4282 153 
C 3942 153 3827 153 3744 387 
L 2323 4378 
z
M 2067 3893 
L 2848 1702 
L 1286 1702 
L 2067 3893 
z
" transform="scale(0.015625)"/>
      <path id="CMR17-4d" d="M 1338 4224 
C 1299 4320 1293 4320 1158 4320 
L 339 4320 
L 339 4160 
C 781 4160 851 4160 851 3875 
L 851 610 
C 851 451 851 153 339 153 
L 339 -13 
C 486 0 755 0 915 0 
C 1075 0 1344 0 1491 -13 
L 1491 153 
C 979 153 979 451 979 610 
L 979 4135 
L 986 4135 
L 2490 89 
C 2515 25 2528 -13 2579 -13 
C 2630 -13 2643 25 2669 89 
L 4186 4166 
L 4192 4166 
L 4192 438 
C 4192 153 4122 153 3680 153 
L 3680 -13 
C 3853 0 4198 0 4384 0 
C 4570 0 4922 0 5094 -13 
L 5094 153 
C 4653 153 4582 153 4582 438 
L 4582 3875 
C 4582 4160 4653 4160 5094 4160 
L 5094 4320 
L 4282 4320 
C 4147 4320 4141 4314 4102 4218 
L 2720 502 
L 1338 4224 
z
" transform="scale(0.015625)"/>
      <path id="CMR17-50" d="M 1267 2042 
L 2291 2042 
C 3117 2042 3718 2578 3718 3184 
C 3718 3791 3130 4352 2291 4352 
L 333 4352 
L 333 4186 
C 774 4186 845 4186 845 3899 
L 845 446 
C 845 160 774 160 333 160 
L 333 0 
C 518 0 858 0 1056 0 
C 1254 0 1594 0 1779 0 
L 1779 160 
C 1338 160 1267 160 1267 446 
L 1267 2042 
z
M 1254 2176 
L 1254 3938 
C 1254 4155 1267 4186 1523 4186 
L 2170 4186 
C 2995 4186 3232 3714 3232 3184 
C 3232 2604 2950 2176 2170 2176 
L 1254 2176 
z
" transform="scale(0.015625)"/>
      <path id="CMR17-72" d="M 960 1497 
C 960 2112 1222 2688 1702 2688 
C 1747 2688 1792 2682 1837 2662 
C 1837 2662 1696 2617 1696 2452 
C 1696 2298 1818 2234 1914 2234 
C 1990 2234 2131 2279 2131 2458 
C 2131 2663 1926 2790 1709 2790 
C 1222 2790 1011 2317 947 2093 
L 941 2093 
L 941 2790 
L 198 2720 
L 198 2554 
C 576 2554 634 2515 634 2208 
L 634 428 
C 634 184 608 153 198 153 
L 198 -13 
C 352 0 646 0 813 0 
C 998 0 1325 0 1498 -13 
L 1498 153 
C 1037 153 960 153 960 440 
L 960 1497 
z
" transform="scale(0.015625)"/>
      <path id="CMR17-6f" d="M 2758 1356 
C 2758 2176 2163 2816 1466 2816 
C 768 2816 173 2176 173 1356 
C 173 551 768 -64 1466 -64 
C 2163 -64 2758 551 2758 1356 
z
M 1466 51 
C 1165 51 909 230 762 480 
C 602 767 582 1126 582 1408 
C 582 1677 595 2010 762 2298 
C 890 2509 1139 2714 1466 2714 
C 1754 2714 1997 2554 2150 2330 
C 2349 2029 2349 1607 2349 1408 
C 2349 1158 2336 775 2163 467 
C 1984 173 1709 51 1466 51 
z
" transform="scale(0.015625)"/>
      <path id="CMR17-c" d="M 2554 2764 
C 2400 2764 1926 2764 1805 2739 
C 1766 2725 1754 2725 1677 2725 
L 947 2725 
L 947 3469 
C 947 4073 1434 4352 1818 4352 
C 1939 4352 2214 4320 2355 4101 
C 2291 4101 2086 4101 2086 3878 
C 2086 3725 2189 3648 2317 3648 
C 2432 3648 2547 3712 2547 3885 
C 2547 4205 2240 4454 1843 4454 
C 1338 4454 634 4168 634 3469 
L 634 2725 
L 122 2725 
L 122 2560 
L 634 2560 
L 634 427 
C 634 184 608 153 198 153 
L 198 -13 
C 352 0 634 0 794 0 
C 960 0 1242 0 1395 -13 
L 1395 153 
C 986 153 960 178 960 427 
L 960 2560 
L 1901 2560 
C 2176 2560 2227 2502 2227 2222 
L 2227 427 
C 2227 184 2202 153 1792 153 
L 1792 -13 
C 1946 0 2227 0 2387 0 
C 2554 0 2835 0 2989 -13 
L 2989 153 
C 2579 153 2554 178 2554 427 
L 2554 2764 
z
" transform="scale(0.015625)"/>
      <path id="CMR17-65" d="M 2438 1472 
C 2464 1498 2464 1511 2464 1576 
C 2464 2238 2118 2816 1389 2816 
C 710 2816 173 2169 173 1383 
C 173 551 781 -64 1459 -64 
C 2176 -64 2458 607 2458 740 
C 2458 784 2419 784 2406 784 
C 2362 784 2355 771 2330 696 
C 2189 265 1837 51 1504 51 
C 1229 51 954 203 781 480 
C 582 803 582 1176 582 1472 
L 2438 1472 
z
M 589 1568 
C 634 2505 1126 2714 1382 2714 
C 1818 2714 2112 2297 2118 1568 
L 589 1568 
z
" transform="scale(0.015625)"/>
     </defs>
     <use xlink:href="#CMR17-57" transform="scale(0.996264)"/>
     <use xlink:href="#CMR17-48" transform="translate(95.09665 0) scale(0.996264)"/>
     <use xlink:href="#CMR17-41" transform="translate(164.16908 0) scale(0.996264)"/>
     <use xlink:href="#CMR17-4d" transform="translate(233.24151 0) scale(0.996264)"/>
     <use xlink:href="#CMR17-50" transform="translate(348.004416 0) scale(0.996264)"/>
     <use xlink:href="#CMR17-72" transform="translate(410.590717 0) scale(0.996264)"/>
     <use xlink:href="#CMR17-6f" transform="translate(445.871485 0) scale(0.996264)"/>
     <use xlink:href="#CMR17-c" transform="translate(491.561962 0) scale(0.996264)"/>
     <use xlink:href="#CMR17-6c" transform="translate(541.304185 0) scale(0.996264)"/>
     <use xlink:href="#CMR17-65" transform="translate(566.175244 0) scale(0.996264)"/>
    </g>
   </g>
   <g id="legend_1">
    <g id="line2d_134">
     <path d="M 235.633763 155.783883 
L 245.633763 155.783883 
L 255.633763 155.783883 
" style="fill: none; stroke: #ff2c00; stroke-linecap: square"/>
    </g>
    <g id="text_18">
     <!-- Wildtype (Predicted) -->
     <g transform="translate(263.633763 159.283883) scale(0.1 -0.1)">
      <defs>
       <path id="CMR17-69" d="M 992 3909 
C 992 4049 877 4170 730 4170 
C 589 4170 467 4056 467 3909 
C 467 3769 582 3648 730 3648 
C 870 3648 992 3763 992 3909 
z
M 243 2706 
L 243 2541 
C 602 2541 653 2502 653 2197 
L 653 427 
C 653 184 627 153 218 153 
L 218 -13 
C 371 0 646 0 806 0 
C 960 0 1222 0 1370 -13 
L 1370 153 
C 992 153 979 191 979 420 
L 979 2776 
L 243 2706 
z
" transform="scale(0.015625)"/>
       <path id="CMR17-64" d="M 1869 4326 
L 1869 4160 
C 2246 4160 2304 4122 2304 3820 
L 2304 2345 
C 2278 2377 2016 2790 1498 2790 
C 845 2790 211 2208 211 1364 
C 211 525 806 -64 1434 -64 
C 1978 -64 2259 337 2291 380 
L 2291 -63 
L 3066 -63 
L 3066 128 
C 2688 128 2630 166 2630 473 
L 2630 4396 
L 1869 4326 
z
M 2291 755 
C 2291 563 2176 390 2029 262 
C 1811 70 1594 38 1472 38 
C 1286 38 621 134 621 1356 
C 621 2612 1363 2688 1530 2688 
C 1824 2688 2061 2522 2208 2291 
C 2291 2157 2291 2138 2291 2023 
L 2291 755 
z
" transform="scale(0.015625)"/>
       <path id="CMR17-74" d="M 966 2560 
L 1862 2560 
L 1862 2725 
L 966 2725 
L 966 3904 
L 851 3904 
C 838 3245 614 2668 70 2668 
L 70 2560 
L 627 2560 
L 627 771 
C 627 650 627 -64 1370 -64 
C 1747 -64 1965 306 1965 777 
L 1965 1140 
L 1850 1140 
L 1850 783 
C 1850 344 1677 51 1408 51 
C 1222 51 966 178 966 758 
L 966 2560 
z
" transform="scale(0.015625)"/>
       <path id="CMR17-79" d="M 2496 2197 
C 2656 2586 2944 2586 3034 2586 
L 3034 2752 
C 2912 2752 2752 2752 2630 2752 
C 2496 2752 2285 2752 2157 2758 
L 2157 2592 
C 2400 2573 2406 2394 2406 2343 
C 2406 2280 2394 2248 2362 2171 
L 1664 449 
L 902 2306 
C 870 2382 870 2426 870 2433 
C 870 2573 1018 2586 1171 2586 
L 1171 2758 
C 1018 2752 742 2752 582 2752 
C 410 2752 205 2752 64 2758 
L 64 2586 
C 410 2586 448 2554 531 2350 
L 1485 15 
C 1197 -738 1030 -1178 627 -1178 
C 557 -1178 397 -1159 282 -1044 
C 429 -1031 493 -942 493 -833 
C 493 -725 416 -629 288 -629 
C 147 -629 77 -725 77 -840 
C 77 -1095 339 -1280 627 -1280 
C 998 -1280 1229 -922 1357 -604 
L 2496 2197 
z
" transform="scale(0.015625)"/>
       <path id="CMR17-70" d="M 1408 -1063 
C 998 -1063 973 -1037 973 -789 
L 973 402 
C 1158 134 1427 -38 1766 -38 
C 2406 -38 3053 523 3053 1388 
C 3053 2191 2496 2802 1837 2802 
C 1453 2802 1139 2592 960 2338 
L 960 2802 
L 198 2732 
L 198 2567 
C 576 2567 634 2528 634 2223 
L 634 -789 
C 634 -1031 608 -1063 198 -1063 
L 198 -1228 
C 352 -1216 634 -1216 800 -1216 
C 966 -1216 1254 -1216 1408 -1228 
L 1408 -1063 
z
M 973 2012 
C 973 2102 973 2235 1222 2471 
C 1254 2497 1472 2688 1792 2688 
C 2259 2688 2643 2108 2643 1382 
C 2643 656 2234 64 1728 64 
C 1498 64 1248 172 1056 472 
C 973 612 973 650 973 752 
L 973 2012 
z
" transform="scale(0.015625)"/>
      </defs>
      <use xlink:href="#CMR17-57" transform="scale(0.996264)"/>
      <use xlink:href="#CMR17-69" transform="translate(95.09665 0) scale(0.996264)"/>
      <use xlink:href="#CMR17-6c" transform="translate(119.967708 0) scale(0.996264)"/>
      <use xlink:href="#CMR17-64" transform="translate(144.838767 0) scale(0.996264)"/>
      <use xlink:href="#CMR17-74" transform="translate(195.734137 0) scale(0.996264)"/>
      <use xlink:href="#CMR17-79" transform="translate(228.412451 0) scale(0.996264)"/>
      <use xlink:href="#CMR17-70" transform="translate(276.705366 0) scale(0.996264)"/>
      <use xlink:href="#CMR17-65" transform="translate(330.203175 0) scale(0.996264)"/>
      <use xlink:href="#CMR17-28" transform="translate(400.764802 0) scale(0.996264)"/>
      <use xlink:href="#CMR17-50" transform="translate(436.045569 0) scale(0.996264)"/>
      <use xlink:href="#CMR17-72" transform="translate(498.63187 0) scale(0.996264)"/>
      <use xlink:href="#CMR17-65" transform="translate(533.912638 0) scale(0.996264)"/>
      <use xlink:href="#CMR17-64" transform="translate(574.398298 0) scale(0.996264)"/>
      <use xlink:href="#CMR17-69" transform="translate(625.293668 0) scale(0.996264)"/>
      <use xlink:href="#CMR17-63" transform="translate(650.164727 0) scale(0.996264)"/>
      <use xlink:href="#CMR17-74" transform="translate(690.650387 0) scale(0.996264)"/>
      <use xlink:href="#CMR17-65" transform="translate(725.931155 0) scale(0.996264)"/>
      <use xlink:href="#CMR17-64" transform="translate(766.416815 0) scale(0.996264)"/>
      <use xlink:href="#CMR17-29" transform="translate(817.312185 0) scale(0.996264)"/>
     </g>
    </g>
    <g id="line2d_135">
     <path d="M 235.633763 170.746523 
L 245.633763 170.746523 
L 255.633763 170.746523 
" style="fill: none; stroke: #845b97; stroke-linecap: square"/>
    </g>
    <g id="text_19">
     <!-- Wildtype (PDB) -->
     <g transform="translate(263.633763 174.246523) scale(0.1 -0.1)">
      <defs>
       <path id="CMR17-44" d="M 333 4352 
L 333 4186 
C 774 4186 845 4186 845 3900 
L 845 452 
C 845 166 774 166 333 166 
L 333 0 
L 2368 0 
C 3398 0 4224 943 4224 2141 
C 4224 3346 3411 4352 2368 4352 
L 333 4352 
z
M 1523 166 
C 1267 166 1254 197 1254 414 
L 1254 3938 
C 1254 4155 1267 4186 1523 4186 
L 2240 4186 
C 2771 4186 3750 3874 3750 2141 
C 3750 1242 3488 879 3366 707 
C 3213 510 2848 166 2240 166 
L 1523 166 
z
" transform="scale(0.015625)"/>
       <path id="CMR17-42" d="M 333 4352 
L 333 4186 
C 774 4186 845 4186 845 3900 
L 845 452 
C 845 166 774 166 333 166 
L 333 0 
L 2534 0 
C 3354 0 3885 583 3885 1164 
C 3885 1741 3360 2233 2675 2233 
C 3290 2356 3718 2771 3718 3264 
C 3718 3802 3194 4352 2368 4352 
L 333 4352 
z
M 1248 2304 
L 1248 3937 
C 1248 4155 1261 4186 1517 4186 
L 2336 4186 
C 2970 4186 3251 3674 3251 3277 
C 3251 2791 2861 2304 2170 2304 
L 1248 2304 
z
M 1517 166 
C 1261 166 1248 197 1248 413 
L 1248 2202 
L 2432 2202 
C 3091 2202 3411 1625 3411 1162 
C 3411 699 3046 166 2349 166 
L 1517 166 
z
" transform="scale(0.015625)"/>
      </defs>
      <use xlink:href="#CMR17-57" transform="scale(0.996264)"/>
      <use xlink:href="#CMR17-69" transform="translate(95.09665 0) scale(0.996264)"/>
      <use xlink:href="#CMR17-6c" transform="translate(119.967708 0) scale(0.996264)"/>
      <use xlink:href="#CMR17-64" transform="translate(144.838767 0) scale(0.996264)"/>
      <use xlink:href="#CMR17-74" transform="translate(195.734137 0) scale(0.996264)"/>
      <use xlink:href="#CMR17-79" transform="translate(228.412451 0) scale(0.996264)"/>
      <use xlink:href="#CMR17-70" transform="translate(276.705366 0) scale(0.996264)"/>
      <use xlink:href="#CMR17-65" transform="translate(330.203175 0) scale(0.996264)"/>
      <use xlink:href="#CMR17-28" transform="translate(400.764802 0) scale(0.996264)"/>
      <use xlink:href="#CMR17-50" transform="translate(436.045569 0) scale(0.996264)"/>
      <use xlink:href="#CMR17-44" transform="translate(498.63187 0) scale(0.996264)"/>
      <use xlink:href="#CMR17-42" transform="translate(569.025426 0) scale(0.996264)"/>
      <use xlink:href="#CMR17-29" transform="translate(634.21418 0) scale(0.996264)"/>
     </g>
    </g>
    <g id="line2d_136">
     <path d="M 235.633763 185.709163 
L 245.633763 185.709163 
L 255.633763 185.709163 
" style="fill: none; stroke: #00b945; stroke-linecap: square"/>
    </g>
    <g id="text_20">
     <!-- P-MPNN, Bias 2 (2) -->
     <g transform="translate(263.633763 189.209163) scale(0.1 -0.1)">
      <defs>
       <path id="CMR17-2d" d="M 1632 1216 
L 1632 1496 
L 26 1496 
L 26 1216 
L 1632 1216 
z
" transform="scale(0.015625)"/>
       <path id="CMR17-4e" d="M 1312 4250 
C 1267 4320 1261 4320 1139 4320 
L 326 4320 
L 326 4160 
L 448 4160 
C 704 4160 819 4129 838 4122 
L 838 610 
C 838 451 838 153 326 153 
L 326 -13 
C 474 0 742 0 902 0 
C 1062 0 1331 0 1478 -13 
L 1478 153 
C 966 153 966 451 966 610 
L 966 4033 
C 1011 3995 1011 3982 1056 3919 
L 3430 76 
C 3475 0 3494 0 3526 0 
C 3590 0 3590 19 3590 139 
L 3590 3705 
C 3590 3863 3590 4160 4102 4160 
L 4102 4326 
C 3955 4320 3686 4320 3526 4320 
C 3366 4320 3098 4320 2950 4326 
L 2950 4160 
C 3462 4160 3462 3862 3462 3703 
L 3462 763 
L 1312 4250 
z
" transform="scale(0.015625)"/>
       <path id="CMR17-2c" d="M 1011 102 
C 1024 45 1024 25 1024 -77 
C 1024 -463 896 -817 627 -1139 
C 595 -1170 595 -1183 595 -1197 
C 595 -1222 621 -1248 646 -1248 
C 685 -1248 1126 -799 1126 -87 
C 1126 124 1101 522 800 522 
C 659 522 538 427 538 261 
C 538 96 659 0 800 0 
C 877 0 960 32 1011 102 
z
" transform="scale(0.015625)"/>
       <path id="CMR17-73" d="M 1978 2697 
C 1978 2813 1971 2819 1933 2819 
C 1907 2819 1901 2813 1824 2717 
C 1805 2691 1747 2626 1728 2601 
C 1523 2819 1235 2819 1126 2819 
C 416 2819 160 2447 160 2076 
C 160 1498 813 1365 998 1325 
C 1402 1243 1542 1217 1677 1101 
C 1760 1025 1901 884 1901 654 
C 1901 384 1747 38 1158 38 
C 602 38 403 460 288 1021 
C 269 1110 269 1117 218 1117 
C 166 1117 160 1110 160 983 
L 160 63 
C 160 -51 166 -58 205 -58 
C 237 -58 243 -51 275 0 
C 314 57 410 211 448 276 
C 576 103 800 -64 1158 -64 
C 1792 -64 2131 283 2131 784 
C 2131 1112 1958 1285 1875 1362 
C 1683 1561 1459 1606 1190 1657 
C 838 1735 390 1825 390 2217 
C 390 2383 480 2737 1126 2737 
C 1811 2737 1850 2094 1862 1888 
C 1869 1856 1901 1849 1920 1849 
C 1978 1849 1978 1869 1978 1978 
L 1978 2697 
z
" transform="scale(0.015625)"/>
      </defs>
      <use xlink:href="#CMR17-50" transform="scale(0.996264)"/>
      <use xlink:href="#CMR17-2d" transform="translate(62.586301 0) scale(0.996264)"/>
      <use xlink:href="#CMR17-4d" transform="translate(92.662267 0) scale(0.996264)"/>
      <use xlink:href="#CMR17-50" transform="translate(177.349207 0) scale(0.996264)"/>
      <use xlink:href="#CMR17-4e" transform="translate(239.935508 0) scale(0.996264)"/>
      <use xlink:href="#CMR17-4e" transform="translate(309.007938 0) scale(0.996264)"/>
      <use xlink:href="#CMR17-2c" transform="translate(378.080368 0) scale(0.996264)"/>
      <use xlink:href="#CMR17-42" transform="translate(433.027392 0) scale(0.996264)"/>
      <use xlink:href="#CMR17-69" transform="translate(498.216147 0) scale(0.996264)"/>
      <use xlink:href="#CMR17-61" transform="translate(523.087205 0) scale(0.996264)"/>
      <use xlink:href="#CMR17-73" transform="translate(568.777682 0) scale(0.996264)"/>
      <use xlink:href="#CMR17-32" transform="translate(634.654986 0) scale(0.996264)"/>
      <use xlink:href="#CMR17-28" transform="translate(710.42143 0) scale(0.996264)"/>
      <use xlink:href="#CMR17-32" transform="translate(745.702198 0) scale(0.996264)"/>
      <use xlink:href="#CMR17-29" transform="translate(791.392675 0) scale(0.996264)"/>
     </g>
    </g>
    <g id="line2d_137">
     <path d="M 235.633763 200.199823 
L 245.633763 200.199823 
L 255.633763 200.199823 
" style="fill: none; stroke: #0c5da5; stroke-linecap: square"/>
    </g>
    <g id="text_21">
     <!-- P-MPNN, Bias 2.5 -->
     <g transform="translate(263.633763 203.699823) scale(0.1 -0.1)">
      <defs>
       <path id="CMR17-2e" d="M 1062 261 
C 1062 420 934 522 800 522 
C 672 522 538 420 538 261 
C 538 102 666 0 800 0 
C 928 0 1062 102 1062 261 
z
" transform="scale(0.015625)"/>
      </defs>
      <use xlink:href="#CMR17-50" transform="scale(0.996264)"/>
      <use xlink:href="#CMR17-2d" transform="translate(62.586301 0) scale(0.996264)"/>
      <use xlink:href="#CMR17-4d" transform="translate(92.662267 0) scale(0.996264)"/>
      <use xlink:href="#CMR17-50" transform="translate(177.349207 0) scale(0.996264)"/>
      <use xlink:href="#CMR17-4e" transform="translate(239.935508 0) scale(0.996264)"/>
      <use xlink:href="#CMR17-4e" transform="translate(309.007938 0) scale(0.996264)"/>
      <use xlink:href="#CMR17-2c" transform="translate(378.080368 0) scale(0.996264)"/>
      <use xlink:href="#CMR17-42" transform="translate(433.027392 0) scale(0.996264)"/>
      <use xlink:href="#CMR17-69" transform="translate(498.216147 0) scale(0.996264)"/>
      <use xlink:href="#CMR17-61" transform="translate(523.087205 0) scale(0.996264)"/>
      <use xlink:href="#CMR17-73" transform="translate(568.777682 0) scale(0.996264)"/>
      <use xlink:href="#CMR17-32" transform="translate(634.654986 0) scale(0.996264)"/>
      <use xlink:href="#CMR17-2e" transform="translate(680.345464 0) scale(0.996264)"/>
      <use xlink:href="#CMR17-35" transform="translate(705.216522 0) scale(0.996264)"/>
     </g>
    </g>
    <g id="line2d_138">
     <path d="M 235.633763 214.137001 
L 245.633763 214.137001 
L 255.633763 214.137001 
" style="fill: none; stroke: #ff9500; stroke-linecap: square"/>
    </g>
    <g id="text_22">
     <!-- P-MPNN, Bias 0 -->
     <g transform="translate(263.633763 217.637001) scale(0.1 -0.1)">
      <use xlink:href="#CMR17-50" transform="scale(0.996264)"/>
      <use xlink:href="#CMR17-2d" transform="translate(62.586301 0) scale(0.996264)"/>
      <use xlink:href="#CMR17-4d" transform="translate(92.662267 0) scale(0.996264)"/>
      <use xlink:href="#CMR17-50" transform="translate(177.349207 0) scale(0.996264)"/>
      <use xlink:href="#CMR17-4e" transform="translate(239.935508 0) scale(0.996264)"/>
      <use xlink:href="#CMR17-4e" transform="translate(309.007938 0) scale(0.996264)"/>
      <use xlink:href="#CMR17-2c" transform="translate(378.080368 0) scale(0.996264)"/>
      <use xlink:href="#CMR17-42" transform="translate(433.027392 0) scale(0.996264)"/>
      <use xlink:href="#CMR17-69" transform="translate(498.216147 0) scale(0.996264)"/>
      <use xlink:href="#CMR17-61" transform="translate(523.087205 0) scale(0.996264)"/>
      <use xlink:href="#CMR17-73" transform="translate(568.777682 0) scale(0.996264)"/>
      <use xlink:href="#CMR17-30" transform="translate(634.654986 0) scale(0.996264)"/>
     </g>
    </g>
   </g>
  </g>
 </g>
 <defs>
  <clipPath id="p2ea10de862">
   <rect x="36.006646" y="17.90218" width="329.778" height="210.672"/>
  </clipPath>
 </defs>
</svg>
