<?xml version="1.0" encoding="utf-8" standalone="no"?>
<!DOCTYPE svg PUBLIC "-//W3C//DTD SVG 1.1//EN"
  "http://www.w3.org/Graphics/SVG/1.1/DTD/svg11.dtd">
<svg xmlns:xlink="http://www.w3.org/1999/xlink" width="414.109686pt" height="205.92pt" viewBox="0 0 414.109686 205.92" xmlns="http://www.w3.org/2000/svg" version="1.1">
 <metadata>
  <rdf:RDF xmlns:dc="http://purl.org/dc/elements/1.1/" xmlns:cc="http://creativecommons.org/ns#" xmlns:rdf="http://www.w3.org/1999/02/22-rdf-syntax-ns#">
   <cc:Work>
    <dc:type rdf:resource="http://purl.org/dc/dcmitype/StillImage"/>
    <dc:date>2025-07-02T15:59:53.020175</dc:date>
    <dc:format>image/svg+xml</dc:format>
    <dc:creator>
     <cc:Agent>
      <dc:title>Matplotlib v3.10.1, https://matplotlib.org/</dc:title>
     </cc:Agent>
    </dc:creator>
   </cc:Work>
  </rdf:RDF>
 </metadata>
 <defs>
  <style type="text/css">*{stroke-linejoin: round; stroke-linecap: butt}</style>
 </defs>
 <g id="figure_1">
  <g id="patch_1">
   <path d="M 0 205.92 
L 414.109686 205.92 
L 414.109686 0 
L 0 0 
z
" style="fill: #ffffff"/>
  </g>
  <g id="axes_1">
   <g id="patch_2">
    <path d="M 29.890802 179.76534 
L 214.156541 179.76534 
L 214.156541 3.6 
L 29.890802 3.6 
z
" style="fill: #ffffff"/>
   </g>
   <g id="matplotlib.axis_1">
    <g id="xtick_1">
     <g id="line2d_1">
      <defs>
       <path id="m982d58e6b5" d="M 0 0 
L 0 -3 
" style="stroke: #000000; stroke-width: 0.5"/>
      </defs>
      <g>
       <use xlink:href="#m982d58e6b5" x="29.890802" y="179.76534" style="stroke: #000000; stroke-width: 0.5"/>
      </g>
     </g>
     <g id="line2d_2">
      <defs>
       <path id="mdf73dc951c" d="M 0 0 
L 0 3 
" style="stroke: #000000; stroke-width: 0.5"/>
      </defs>
      <g>
       <use xlink:href="#mdf73dc951c" x="29.890802" y="3.6" style="stroke: #000000; stroke-width: 0.5"/>
      </g>
     </g>
     <g id="text_1">
      <!-- $\mathdefault{0}$ -->
      <g transform="translate(27.77371 188.800142) scale(0.08 -0.08)">
       <defs>
        <path id="CMR17-30" d="M 2688 2025 
C 2688 2416 2682 3080 2413 3591 
C 2176 4039 1798 4198 1466 4198 
C 1158 4198 768 4058 525 3597 
C 269 3118 243 2524 243 2025 
C 243 1661 250 1106 448 619 
C 723 -39 1216 -128 1466 -128 
C 1760 -128 2208 -7 2470 600 
C 2662 1042 2688 1559 2688 2025 
z
M 1466 -26 
C 1056 -26 813 325 723 812 
C 653 1188 653 1738 653 2096 
C 653 2588 653 2997 736 3387 
C 858 3929 1216 4096 1466 4096 
C 1728 4096 2067 3923 2189 3400 
C 2272 3036 2278 2607 2278 2096 
C 2278 1680 2278 1169 2202 792 
C 2067 95 1690 -26 1466 -26 
z
" transform="scale(0.015625)"/>
       </defs>
       <use xlink:href="#CMR17-30" transform="scale(0.996264)"/>
      </g>
     </g>
    </g>
    <g id="xtick_2">
     <g id="line2d_3">
      <g>
       <use xlink:href="#m982d58e6b5" x="59.139332" y="179.76534" style="stroke: #000000; stroke-width: 0.5"/>
      </g>
     </g>
     <g id="line2d_4">
      <g>
       <use xlink:href="#mdf73dc951c" x="59.139332" y="3.6" style="stroke: #000000; stroke-width: 0.5"/>
      </g>
     </g>
     <g id="text_2">
      <!-- $\mathdefault{250}$ -->
      <g transform="translate(52.788057 188.800142) scale(0.08 -0.08)">
       <defs>
        <path id="CMR17-32" d="M 2669 989 
L 2554 989 
C 2490 536 2438 459 2413 420 
C 2381 369 1920 369 1830 369 
L 602 369 
C 832 619 1280 1072 1824 1597 
C 2214 1967 2669 2402 2669 3035 
C 2669 3790 2067 4224 1395 4224 
C 691 4224 262 3604 262 3030 
C 262 2780 448 2748 525 2748 
C 589 2748 781 2787 781 3010 
C 781 3207 614 3264 525 3264 
C 486 3264 448 3258 422 3245 
C 544 3790 915 4058 1306 4058 
C 1862 4058 2227 3617 2227 3035 
C 2227 2479 1901 2000 1536 1584 
L 262 146 
L 262 0 
L 2515 0 
L 2669 989 
z
" transform="scale(0.015625)"/>
        <path id="CMR17-35" d="M 730 3692 
C 794 3666 1056 3584 1325 3584 
C 1920 3584 2246 3911 2432 4100 
C 2432 4157 2432 4192 2394 4192 
C 2387 4192 2374 4192 2323 4163 
C 2099 4058 1837 3973 1517 3973 
C 1325 3973 1037 3999 723 4139 
C 653 4171 640 4171 634 4171 
C 602 4171 595 4164 595 4037 
L 595 2203 
C 595 2089 595 2057 659 2057 
C 691 2057 704 2070 736 2114 
C 941 2401 1222 2522 1542 2522 
C 1766 2522 2246 2382 2246 1289 
C 2246 1085 2246 715 2054 421 
C 1894 159 1645 25 1370 25 
C 947 25 518 320 403 814 
C 429 807 480 795 506 795 
C 589 795 749 840 749 1038 
C 749 1210 627 1280 506 1280 
C 358 1280 262 1190 262 1011 
C 262 454 704 -128 1382 -128 
C 2042 -128 2669 440 2669 1264 
C 2669 2030 2170 2624 1549 2624 
C 1222 2624 947 2503 730 2274 
L 730 3692 
z
" transform="scale(0.015625)"/>
       </defs>
       <use xlink:href="#CMR17-32" transform="scale(0.996264)"/>
       <use xlink:href="#CMR17-35" transform="translate(45.690477 0) scale(0.996264)"/>
       <use xlink:href="#CMR17-30" transform="translate(91.380954 0) scale(0.996264)"/>
      </g>
     </g>
    </g>
    <g id="xtick_3">
     <g id="line2d_5">
      <g>
       <use xlink:href="#m982d58e6b5" x="88.387862" y="179.76534" style="stroke: #000000; stroke-width: 0.5"/>
      </g>
     </g>
     <g id="line2d_6">
      <g>
       <use xlink:href="#mdf73dc951c" x="88.387862" y="3.6" style="stroke: #000000; stroke-width: 0.5"/>
      </g>
     </g>
     <g id="text_3">
      <!-- $\mathdefault{500}$ -->
      <g transform="translate(82.036588 188.800142) scale(0.08 -0.08)">
       <use xlink:href="#CMR17-35" transform="scale(0.996264)"/>
       <use xlink:href="#CMR17-30" transform="translate(45.690477 0) scale(0.996264)"/>
       <use xlink:href="#CMR17-30" transform="translate(91.380954 0) scale(0.996264)"/>
      </g>
     </g>
    </g>
    <g id="xtick_4">
     <g id="line2d_7">
      <g>
       <use xlink:href="#m982d58e6b5" x="117.636392" y="179.76534" style="stroke: #000000; stroke-width: 0.5"/>
      </g>
     </g>
     <g id="line2d_8">
      <g>
       <use xlink:href="#mdf73dc951c" x="117.636392" y="3.6" style="stroke: #000000; stroke-width: 0.5"/>
      </g>
     </g>
     <g id="text_4">
      <!-- $\mathdefault{750}$ -->
      <g transform="translate(111.285118 188.800142) scale(0.08 -0.08)">
       <defs>
        <path id="CMR17-37" d="M 2886 3941 
L 2886 4081 
L 1382 4081 
C 634 4081 621 4165 595 4288 
L 480 4288 
L 294 3094 
L 410 3094 
C 429 3215 474 3540 550 3661 
C 589 3712 1062 3712 1171 3712 
L 2579 3712 
L 1869 2661 
C 1395 1954 1069 999 1069 165 
C 1069 89 1069 -128 1299 -128 
C 1530 -128 1530 89 1530 171 
L 1530 465 
C 1530 1508 1709 2196 2003 2636 
L 2886 3941 
z
" transform="scale(0.015625)"/>
       </defs>
       <use xlink:href="#CMR17-37" transform="scale(0.996264)"/>
       <use xlink:href="#CMR17-35" transform="translate(45.690477 0) scale(0.996264)"/>
       <use xlink:href="#CMR17-30" transform="translate(91.380954 0) scale(0.996264)"/>
      </g>
     </g>
    </g>
    <g id="xtick_5">
     <g id="line2d_9">
      <g>
       <use xlink:href="#m982d58e6b5" x="146.884922" y="179.76534" style="stroke: #000000; stroke-width: 0.5"/>
      </g>
     </g>
     <g id="line2d_10">
      <g>
       <use xlink:href="#mdf73dc951c" x="146.884922" y="3.6" style="stroke: #000000; stroke-width: 0.5"/>
      </g>
     </g>
     <g id="text_5">
      <!-- $\mathdefault{1000}$ -->
      <g transform="translate(138.416556 188.800142) scale(0.08 -0.08)">
       <defs>
        <path id="CMR17-31" d="M 1702 4058 
C 1702 4192 1696 4192 1606 4192 
C 1357 3916 979 3827 621 3827 
C 602 3827 570 3827 563 3808 
C 557 3795 557 3782 557 3648 
C 755 3648 1088 3686 1344 3839 
L 1344 461 
C 1344 236 1331 160 781 160 
L 589 160 
L 589 0 
C 896 0 1216 0 1523 0 
C 1830 0 2150 0 2458 0 
L 2458 160 
L 2266 160 
C 1715 160 1702 230 1702 458 
L 1702 4058 
z
" transform="scale(0.015625)"/>
       </defs>
       <use xlink:href="#CMR17-31" transform="scale(0.996264)"/>
       <use xlink:href="#CMR17-30" transform="translate(45.690477 0) scale(0.996264)"/>
       <use xlink:href="#CMR17-30" transform="translate(91.380954 0) scale(0.996264)"/>
       <use xlink:href="#CMR17-30" transform="translate(137.071431 0) scale(0.996264)"/>
      </g>
     </g>
    </g>
    <g id="xtick_6">
     <g id="line2d_11">
      <g>
       <use xlink:href="#m982d58e6b5" x="176.133452" y="179.76534" style="stroke: #000000; stroke-width: 0.5"/>
      </g>
     </g>
     <g id="line2d_12">
      <g>
       <use xlink:href="#mdf73dc951c" x="176.133452" y="3.6" style="stroke: #000000; stroke-width: 0.5"/>
      </g>
     </g>
     <g id="text_6">
      <!-- $\mathdefault{1250}$ -->
      <g transform="translate(167.665086 188.800142) scale(0.08 -0.08)">
       <use xlink:href="#CMR17-31" transform="scale(0.996264)"/>
       <use xlink:href="#CMR17-32" transform="translate(45.690477 0) scale(0.996264)"/>
       <use xlink:href="#CMR17-35" transform="translate(91.380954 0) scale(0.996264)"/>
       <use xlink:href="#CMR17-30" transform="translate(137.071431 0) scale(0.996264)"/>
      </g>
     </g>
    </g>
    <g id="xtick_7">
     <g id="line2d_13">
      <g>
       <use xlink:href="#m982d58e6b5" x="205.381982" y="179.76534" style="stroke: #000000; stroke-width: 0.5"/>
      </g>
     </g>
     <g id="line2d_14">
      <g>
       <use xlink:href="#mdf73dc951c" x="205.381982" y="3.6" style="stroke: #000000; stroke-width: 0.5"/>
      </g>
     </g>
     <g id="text_7">
      <!-- $\mathdefault{1500}$ -->
      <g transform="translate(196.913617 188.800142) scale(0.08 -0.08)">
       <use xlink:href="#CMR17-31" transform="scale(0.996264)"/>
       <use xlink:href="#CMR17-35" transform="translate(45.690477 0) scale(0.996264)"/>
       <use xlink:href="#CMR17-30" transform="translate(91.380954 0) scale(0.996264)"/>
       <use xlink:href="#CMR17-30" transform="translate(137.071431 0) scale(0.996264)"/>
      </g>
     </g>
    </g>
    <g id="xtick_8">
     <g id="line2d_15">
      <defs>
       <path id="m3d2b836696" d="M 0 0 
L 0 -1.5 
" style="stroke: #000000; stroke-width: 0.5"/>
      </defs>
      <g>
       <use xlink:href="#m3d2b836696" x="35.740508" y="179.76534" style="stroke: #000000; stroke-width: 0.5"/>
      </g>
     </g>
     <g id="line2d_16">
      <defs>
       <path id="m0b0e3170ef" d="M 0 0 
L 0 1.5 
" style="stroke: #000000; stroke-width: 0.5"/>
      </defs>
      <g>
       <use xlink:href="#m0b0e3170ef" x="35.740508" y="3.6" style="stroke: #000000; stroke-width: 0.5"/>
      </g>
     </g>
    </g>
    <g id="xtick_9">
     <g id="line2d_17">
      <g>
       <use xlink:href="#m3d2b836696" x="41.590214" y="179.76534" style="stroke: #000000; stroke-width: 0.5"/>
      </g>
     </g>
     <g id="line2d_18">
      <g>
       <use xlink:href="#m0b0e3170ef" x="41.590214" y="3.6" style="stroke: #000000; stroke-width: 0.5"/>
      </g>
     </g>
    </g>
    <g id="xtick_10">
     <g id="line2d_19">
      <g>
       <use xlink:href="#m3d2b836696" x="47.43992" y="179.76534" style="stroke: #000000; stroke-width: 0.5"/>
      </g>
     </g>
     <g id="line2d_20">
      <g>
       <use xlink:href="#m0b0e3170ef" x="47.43992" y="3.6" style="stroke: #000000; stroke-width: 0.5"/>
      </g>
     </g>
    </g>
    <g id="xtick_11">
     <g id="line2d_21">
      <g>
       <use xlink:href="#m3d2b836696" x="53.289626" y="179.76534" style="stroke: #000000; stroke-width: 0.5"/>
      </g>
     </g>
     <g id="line2d_22">
      <g>
       <use xlink:href="#m0b0e3170ef" x="53.289626" y="3.6" style="stroke: #000000; stroke-width: 0.5"/>
      </g>
     </g>
    </g>
    <g id="xtick_12">
     <g id="line2d_23">
      <g>
       <use xlink:href="#m3d2b836696" x="64.989038" y="179.76534" style="stroke: #000000; stroke-width: 0.5"/>
      </g>
     </g>
     <g id="line2d_24">
      <g>
       <use xlink:href="#m0b0e3170ef" x="64.989038" y="3.6" style="stroke: #000000; stroke-width: 0.5"/>
      </g>
     </g>
    </g>
    <g id="xtick_13">
     <g id="line2d_25">
      <g>
       <use xlink:href="#m3d2b836696" x="70.838744" y="179.76534" style="stroke: #000000; stroke-width: 0.5"/>
      </g>
     </g>
     <g id="line2d_26">
      <g>
       <use xlink:href="#m0b0e3170ef" x="70.838744" y="3.6" style="stroke: #000000; stroke-width: 0.5"/>
      </g>
     </g>
    </g>
    <g id="xtick_14">
     <g id="line2d_27">
      <g>
       <use xlink:href="#m3d2b836696" x="76.68845" y="179.76534" style="stroke: #000000; stroke-width: 0.5"/>
      </g>
     </g>
     <g id="line2d_28">
      <g>
       <use xlink:href="#m0b0e3170ef" x="76.68845" y="3.6" style="stroke: #000000; stroke-width: 0.5"/>
      </g>
     </g>
    </g>
    <g id="xtick_15">
     <g id="line2d_29">
      <g>
       <use xlink:href="#m3d2b836696" x="82.538156" y="179.76534" style="stroke: #000000; stroke-width: 0.5"/>
      </g>
     </g>
     <g id="line2d_30">
      <g>
       <use xlink:href="#m0b0e3170ef" x="82.538156" y="3.6" style="stroke: #000000; stroke-width: 0.5"/>
      </g>
     </g>
    </g>
    <g id="xtick_16">
     <g id="line2d_31">
      <g>
       <use xlink:href="#m3d2b836696" x="94.237568" y="179.76534" style="stroke: #000000; stroke-width: 0.5"/>
      </g>
     </g>
     <g id="line2d_32">
      <g>
       <use xlink:href="#m0b0e3170ef" x="94.237568" y="3.6" style="stroke: #000000; stroke-width: 0.5"/>
      </g>
     </g>
    </g>
    <g id="xtick_17">
     <g id="line2d_33">
      <g>
       <use xlink:href="#m3d2b836696" x="100.087274" y="179.76534" style="stroke: #000000; stroke-width: 0.5"/>
      </g>
     </g>
     <g id="line2d_34">
      <g>
       <use xlink:href="#m0b0e3170ef" x="100.087274" y="3.6" style="stroke: #000000; stroke-width: 0.5"/>
      </g>
     </g>
    </g>
    <g id="xtick_18">
     <g id="line2d_35">
      <g>
       <use xlink:href="#m3d2b836696" x="105.93698" y="179.76534" style="stroke: #000000; stroke-width: 0.5"/>
      </g>
     </g>
     <g id="line2d_36">
      <g>
       <use xlink:href="#m0b0e3170ef" x="105.93698" y="3.6" style="stroke: #000000; stroke-width: 0.5"/>
      </g>
     </g>
    </g>
    <g id="xtick_19">
     <g id="line2d_37">
      <g>
       <use xlink:href="#m3d2b836696" x="111.786686" y="179.76534" style="stroke: #000000; stroke-width: 0.5"/>
      </g>
     </g>
     <g id="line2d_38">
      <g>
       <use xlink:href="#m0b0e3170ef" x="111.786686" y="3.6" style="stroke: #000000; stroke-width: 0.5"/>
      </g>
     </g>
    </g>
    <g id="xtick_20">
     <g id="line2d_39">
      <g>
       <use xlink:href="#m3d2b836696" x="123.486098" y="179.76534" style="stroke: #000000; stroke-width: 0.5"/>
      </g>
     </g>
     <g id="line2d_40">
      <g>
       <use xlink:href="#m0b0e3170ef" x="123.486098" y="3.6" style="stroke: #000000; stroke-width: 0.5"/>
      </g>
     </g>
    </g>
    <g id="xtick_21">
     <g id="line2d_41">
      <g>
       <use xlink:href="#m3d2b836696" x="129.335804" y="179.76534" style="stroke: #000000; stroke-width: 0.5"/>
      </g>
     </g>
     <g id="line2d_42">
      <g>
       <use xlink:href="#m0b0e3170ef" x="129.335804" y="3.6" style="stroke: #000000; stroke-width: 0.5"/>
      </g>
     </g>
    </g>
    <g id="xtick_22">
     <g id="line2d_43">
      <g>
       <use xlink:href="#m3d2b836696" x="135.18551" y="179.76534" style="stroke: #000000; stroke-width: 0.5"/>
      </g>
     </g>
     <g id="line2d_44">
      <g>
       <use xlink:href="#m0b0e3170ef" x="135.18551" y="3.6" style="stroke: #000000; stroke-width: 0.5"/>
      </g>
     </g>
    </g>
    <g id="xtick_23">
     <g id="line2d_45">
      <g>
       <use xlink:href="#m3d2b836696" x="141.035216" y="179.76534" style="stroke: #000000; stroke-width: 0.5"/>
      </g>
     </g>
     <g id="line2d_46">
      <g>
       <use xlink:href="#m0b0e3170ef" x="141.035216" y="3.6" style="stroke: #000000; stroke-width: 0.5"/>
      </g>
     </g>
    </g>
    <g id="xtick_24">
     <g id="line2d_47">
      <g>
       <use xlink:href="#m3d2b836696" x="152.734628" y="179.76534" style="stroke: #000000; stroke-width: 0.5"/>
      </g>
     </g>
     <g id="line2d_48">
      <g>
       <use xlink:href="#m0b0e3170ef" x="152.734628" y="3.6" style="stroke: #000000; stroke-width: 0.5"/>
      </g>
     </g>
    </g>
    <g id="xtick_25">
     <g id="line2d_49">
      <g>
       <use xlink:href="#m3d2b836696" x="158.584334" y="179.76534" style="stroke: #000000; stroke-width: 0.5"/>
      </g>
     </g>
     <g id="line2d_50">
      <g>
       <use xlink:href="#m0b0e3170ef" x="158.584334" y="3.6" style="stroke: #000000; stroke-width: 0.5"/>
      </g>
     </g>
    </g>
    <g id="xtick_26">
     <g id="line2d_51">
      <g>
       <use xlink:href="#m3d2b836696" x="164.43404" y="179.76534" style="stroke: #000000; stroke-width: 0.5"/>
      </g>
     </g>
     <g id="line2d_52">
      <g>
       <use xlink:href="#m0b0e3170ef" x="164.43404" y="3.6" style="stroke: #000000; stroke-width: 0.5"/>
      </g>
     </g>
    </g>
    <g id="xtick_27">
     <g id="line2d_53">
      <g>
       <use xlink:href="#m3d2b836696" x="170.283746" y="179.76534" style="stroke: #000000; stroke-width: 0.5"/>
      </g>
     </g>
     <g id="line2d_54">
      <g>
       <use xlink:href="#m0b0e3170ef" x="170.283746" y="3.6" style="stroke: #000000; stroke-width: 0.5"/>
      </g>
     </g>
    </g>
    <g id="xtick_28">
     <g id="line2d_55">
      <g>
       <use xlink:href="#m3d2b836696" x="181.983158" y="179.76534" style="stroke: #000000; stroke-width: 0.5"/>
      </g>
     </g>
     <g id="line2d_56">
      <g>
       <use xlink:href="#m0b0e3170ef" x="181.983158" y="3.6" style="stroke: #000000; stroke-width: 0.5"/>
      </g>
     </g>
    </g>
    <g id="xtick_29">
     <g id="line2d_57">
      <g>
       <use xlink:href="#m3d2b836696" x="187.832864" y="179.76534" style="stroke: #000000; stroke-width: 0.5"/>
      </g>
     </g>
     <g id="line2d_58">
      <g>
       <use xlink:href="#m0b0e3170ef" x="187.832864" y="3.6" style="stroke: #000000; stroke-width: 0.5"/>
      </g>
     </g>
    </g>
    <g id="xtick_30">
     <g id="line2d_59">
      <g>
       <use xlink:href="#m3d2b836696" x="193.68257" y="179.76534" style="stroke: #000000; stroke-width: 0.5"/>
      </g>
     </g>
     <g id="line2d_60">
      <g>
       <use xlink:href="#m0b0e3170ef" x="193.68257" y="3.6" style="stroke: #000000; stroke-width: 0.5"/>
      </g>
     </g>
    </g>
    <g id="xtick_31">
     <g id="line2d_61">
      <g>
       <use xlink:href="#m3d2b836696" x="199.532276" y="179.76534" style="stroke: #000000; stroke-width: 0.5"/>
      </g>
     </g>
     <g id="line2d_62">
      <g>
       <use xlink:href="#m0b0e3170ef" x="199.532276" y="3.6" style="stroke: #000000; stroke-width: 0.5"/>
      </g>
     </g>
    </g>
    <g id="xtick_32">
     <g id="line2d_63">
      <g>
       <use xlink:href="#m3d2b836696" x="211.231688" y="179.76534" style="stroke: #000000; stroke-width: 0.5"/>
      </g>
     </g>
     <g id="line2d_64">
      <g>
       <use xlink:href="#m0b0e3170ef" x="211.231688" y="3.6" style="stroke: #000000; stroke-width: 0.5"/>
      </g>
     </g>
    </g>
    <g id="text_8">
     <!-- Concentration (ng/mL) -->
     <g transform="translate(78.327873 200.327472) scale(0.08 -0.08)">
      <defs>
       <path id="CMR17-43" d="M 3974 4289 
C 3974 4403 3968 4410 3930 4410 
C 3904 4410 3898 4403 3853 4327 
L 3571 3792 
C 3258 4187 2874 4416 2381 4416 
C 1286 4416 294 3456 294 2148 
C 294 826 1286 -128 2387 -128 
C 3366 -128 3974 730 3974 1461 
C 3974 1524 3974 1550 3917 1550 
C 3866 1550 3866 1531 3859 1474 
C 3808 585 3168 38 2477 38 
C 1824 38 781 495 781 2147 
C 781 3805 1843 4250 2464 4250 
C 3187 4250 3712 3628 3834 2745 
C 3846 2668 3846 2655 3904 2655 
C 3974 2655 3974 2668 3974 2783 
L 3974 4289 
z
" transform="scale(0.015625)"/>
       <path id="CMR17-6f" d="M 2758 1356 
C 2758 2176 2163 2816 1466 2816 
C 768 2816 173 2176 173 1356 
C 173 551 768 -64 1466 -64 
C 2163 -64 2758 551 2758 1356 
z
M 1466 51 
C 1165 51 909 230 762 480 
C 602 767 582 1126 582 1408 
C 582 1677 595 2010 762 2298 
C 890 2509 1139 2714 1466 2714 
C 1754 2714 1997 2554 2150 2330 
C 2349 2029 2349 1607 2349 1408 
C 2349 1158 2336 775 2163 467 
C 1984 173 1709 51 1466 51 
z
" transform="scale(0.015625)"/>
       <path id="CMR17-6e" d="M 2656 1933 
C 2656 2259 2592 2790 1837 2790 
C 1331 2790 1069 2400 973 2144 
L 966 2144 
L 966 2790 
L 211 2720 
L 211 2554 
C 589 2554 646 2515 646 2208 
L 646 428 
C 646 184 621 153 211 153 
L 211 -13 
C 365 0 646 0 813 0 
C 979 0 1267 0 1421 -13 
L 1421 153 
C 1011 153 986 178 986 428 
L 986 1658 
C 986 2247 1344 2688 1792 2688 
C 2266 2688 2317 2266 2317 1958 
L 2317 428 
C 2317 184 2291 153 1882 153 
L 1882 -13 
C 2035 0 2317 0 2483 0 
C 2650 0 2938 0 3091 -13 
L 3091 153 
C 2682 153 2656 178 2656 428 
L 2656 1933 
z
" transform="scale(0.015625)"/>
       <path id="CMR17-63" d="M 2234 2240 
C 2112 2240 1933 2240 1933 2017 
C 1933 1838 2080 1787 2163 1787 
C 2208 1787 2394 1807 2394 2024 
C 2394 2467 1958 2803 1466 2803 
C 787 2803 211 2178 211 1363 
C 211 516 813 -64 1466 -64 
C 2259 -64 2458 677 2458 748 
C 2458 774 2451 793 2406 793 
C 2362 793 2355 787 2330 703 
C 2163 180 1798 51 1523 51 
C 1114 51 621 427 621 1369 
C 621 2338 1094 2688 1472 2688 
C 1722 2688 2093 2573 2234 2240 
z
" transform="scale(0.015625)"/>
       <path id="CMR17-65" d="M 2438 1472 
C 2464 1498 2464 1511 2464 1576 
C 2464 2238 2118 2816 1389 2816 
C 710 2816 173 2169 173 1383 
C 173 551 781 -64 1459 -64 
C 2176 -64 2458 607 2458 740 
C 2458 784 2419 784 2406 784 
C 2362 784 2355 771 2330 696 
C 2189 265 1837 51 1504 51 
C 1229 51 954 203 781 480 
C 582 803 582 1176 582 1472 
L 2438 1472 
z
M 589 1568 
C 634 2505 1126 2714 1382 2714 
C 1818 2714 2112 2297 2118 1568 
L 589 1568 
z
" transform="scale(0.015625)"/>
       <path id="CMR17-74" d="M 966 2560 
L 1862 2560 
L 1862 2725 
L 966 2725 
L 966 3904 
L 851 3904 
C 838 3245 614 2668 70 2668 
L 70 2560 
L 627 2560 
L 627 771 
C 627 650 627 -64 1370 -64 
C 1747 -64 1965 306 1965 777 
L 1965 1140 
L 1850 1140 
L 1850 783 
C 1850 344 1677 51 1408 51 
C 1222 51 966 178 966 758 
L 966 2560 
z
" transform="scale(0.015625)"/>
       <path id="CMR17-72" d="M 960 1497 
C 960 2112 1222 2688 1702 2688 
C 1747 2688 1792 2682 1837 2662 
C 1837 2662 1696 2617 1696 2452 
C 1696 2298 1818 2234 1914 2234 
C 1990 2234 2131 2279 2131 2458 
C 2131 2663 1926 2790 1709 2790 
C 1222 2790 1011 2317 947 2093 
L 941 2093 
L 941 2790 
L 198 2720 
L 198 2554 
C 576 2554 634 2515 634 2208 
L 634 428 
C 634 184 608 153 198 153 
L 198 -13 
C 352 0 646 0 813 0 
C 998 0 1325 0 1498 -13 
L 1498 153 
C 1037 153 960 153 960 440 
L 960 1497 
z
" transform="scale(0.015625)"/>
       <path id="CMR17-61" d="M 2304 1653 
C 2304 2072 2304 2294 2035 2543 
C 1798 2752 1523 2816 1306 2816 
C 800 2816 435 2407 435 1971 
C 435 1728 627 1728 666 1728 
C 749 1728 896 1778 896 1954 
C 896 2112 774 2181 666 2181 
C 640 2181 608 2174 589 2168 
C 723 2592 1069 2714 1293 2714 
C 1613 2714 1965 2429 1965 1885 
L 1965 1600 
C 1587 1600 1133 1549 774 1357 
C 371 1133 256 813 256 570 
C 256 77 832 -64 1171 -64 
C 1523 -64 1850 139 1990 511 
C 2003 233 2182 -18 2464 -18 
C 2598 -18 2938 70 2938 567 
L 2938 920 
L 2822 920 
L 2822 562 
C 2822 178 2650 128 2566 128 
C 2304 128 2304 458 2304 738 
L 2304 1653 
z
M 1965 870 
C 1965 317 1568 38 1216 38 
C 896 38 646 275 646 570 
C 646 761 730 1100 1101 1305 
C 1408 1478 1760 1504 1965 1504 
L 1965 870 
z
" transform="scale(0.015625)"/>
       <path id="CMR17-69" d="M 992 3909 
C 992 4049 877 4170 730 4170 
C 589 4170 467 4056 467 3909 
C 467 3769 582 3648 730 3648 
C 870 3648 992 3763 992 3909 
z
M 243 2706 
L 243 2541 
C 602 2541 653 2502 653 2197 
L 653 427 
C 653 184 627 153 218 153 
L 218 -13 
C 371 0 646 0 806 0 
C 960 0 1222 0 1370 -13 
L 1370 153 
C 992 153 979 191 979 420 
L 979 2776 
L 243 2706 
z
" transform="scale(0.015625)"/>
       <path id="CMR17-28" d="M 1958 -1561 
C 1958 -1555 1958 -1542 1939 -1523 
C 1645 -1224 858 -407 858 1581 
C 858 3569 1632 4379 1946 4697 
C 1946 4704 1958 4717 1958 4736 
C 1958 4755 1939 4768 1914 4768 
C 1843 4768 1299 4296 986 3594 
C 666 2887 576 2199 576 1588 
C 576 1128 621 351 1005 -471 
C 1312 -1135 1837 -1600 1914 -1600 
C 1946 -1600 1958 -1587 1958 -1561 
z
" transform="scale(0.015625)"/>
       <path id="CMR17-67" d="M 710 1164 
C 832 1068 1043 960 1299 960 
C 1805 960 2240 1357 2240 1888 
C 2240 2054 2189 2310 1997 2509 
C 2176 2692 2438 2752 2586 2752 
C 2611 2752 2650 2752 2682 2734 
C 2656 2728 2598 2703 2598 2605 
C 2598 2527 2656 2471 2739 2471 
C 2835 2471 2886 2533 2886 2614 
C 2886 2731 2790 2854 2586 2854 
C 2330 2854 2106 2738 1926 2580 
C 1734 2753 1504 2816 1299 2816 
C 794 2816 358 2419 358 1888 
C 358 1522 570 1292 634 1228 
C 442 1004 442 743 442 711 
C 442 545 506 302 723 168 
C 390 85 128 -169 128 -486 
C 128 -943 736 -1280 1466 -1280 
C 2170 -1280 2803 -956 2803 -479 
C 2803 384 1856 384 1363 384 
C 1216 384 954 384 922 391 
C 723 423 589 602 589 826 
C 589 883 589 1024 710 1164 
z
M 1299 1068 
C 736 1068 736 1760 736 1889 
C 736 2016 736 2708 1299 2708 
C 1862 2708 1862 2016 1862 1889 
C 1862 1760 1862 1068 1299 1068 
z
M 1466 -1171 
C 826 -1171 384 -835 384 -486 
C 384 -289 493 -105 634 -4 
C 794 104 858 104 1293 104 
C 1818 104 2547 104 2547 -486 
C 2547 -835 2106 -1171 1466 -1171 
z
" transform="scale(0.015625)"/>
       <path id="CMR17-2f" d="M 2605 4545 
C 2637 4627 2637 4640 2637 4653 
C 2637 4729 2579 4768 2528 4768 
C 2451 4768 2426 4717 2400 4640 
L 326 -1377 
C 294 -1460 294 -1473 294 -1486 
C 294 -1562 352 -1600 403 -1600 
C 480 -1600 506 -1549 531 -1473 
L 2605 4545 
z
" transform="scale(0.015625)"/>
       <path id="CMR17-6d" d="M 4326 1933 
C 4326 2252 4269 2790 3507 2790 
C 3072 2790 2771 2496 2656 2151 
L 2650 2151 
C 2573 2676 2195 2790 1837 2790 
C 1331 2790 1069 2400 973 2144 
L 966 2144 
L 966 2790 
L 211 2720 
L 211 2554 
C 589 2554 646 2515 646 2208 
L 646 428 
C 646 184 621 153 211 153 
L 211 -13 
C 365 0 646 0 813 0 
C 979 0 1267 0 1421 -13 
L 1421 153 
C 1011 153 986 178 986 428 
L 986 1658 
C 986 2247 1344 2688 1792 2688 
C 2266 2688 2317 2266 2317 1958 
L 2317 428 
C 2317 184 2291 153 1882 153 
L 1882 -13 
C 2035 0 2317 0 2483 0 
C 2650 0 2938 0 3091 -13 
L 3091 153 
C 2682 153 2656 178 2656 428 
L 2656 1658 
C 2656 2247 3014 2688 3462 2688 
C 3936 2688 3987 2266 3987 1958 
L 3987 428 
C 3987 184 3962 153 3552 153 
L 3552 -13 
C 3706 0 3987 0 4154 0 
C 4320 0 4608 0 4762 -13 
L 4762 153 
C 4352 153 4326 178 4326 428 
L 4326 1933 
z
" transform="scale(0.015625)"/>
       <path id="CMR17-4c" d="M 3469 1615 
L 3354 1615 
C 3302 983 3219 166 2125 166 
L 1530 166 
C 1274 166 1261 197 1261 414 
L 1261 3898 
C 1261 4129 1274 4192 1760 4192 
L 1901 4192 
L 1901 4352 
C 1638 4352 1331 4352 1069 4352 
C 870 4352 512 4352 326 4352 
L 326 4192 
C 768 4192 838 4192 838 3905 
L 838 452 
C 838 166 768 166 326 166 
L 326 0 
L 3315 0 
L 3469 1615 
z
" transform="scale(0.015625)"/>
       <path id="CMR17-29" d="M 1683 1581 
C 1683 2040 1638 2817 1254 3639 
C 947 4303 422 4768 346 4768 
C 326 4768 301 4761 301 4729 
C 301 4717 307 4710 314 4697 
C 621 4378 1402 3568 1402 1584 
C 1402 -407 627 -1217 314 -1537 
C 307 -1549 301 -1556 301 -1568 
C 301 -1600 326 -1600 346 -1600 
C 416 -1600 960 -1128 1274 -426 
C 1594 281 1683 969 1683 1581 
z
" transform="scale(0.015625)"/>
      </defs>
      <use xlink:href="#CMR17-43" transform="scale(0.996264)"/>
      <use xlink:href="#CMR17-6f" transform="translate(66.509881 0) scale(0.996264)"/>
      <use xlink:href="#CMR17-6e" transform="translate(112.200358 0) scale(0.996264)"/>
      <use xlink:href="#CMR17-63" transform="translate(163.095727 0) scale(0.996264)"/>
      <use xlink:href="#CMR17-65" transform="translate(203.581388 0) scale(0.996264)"/>
      <use xlink:href="#CMR17-6e" transform="translate(244.067048 0) scale(0.996264)"/>
      <use xlink:href="#CMR17-74" transform="translate(292.359964 0) scale(0.996264)"/>
      <use xlink:href="#CMR17-72" transform="translate(327.640732 0) scale(0.996264)"/>
      <use xlink:href="#CMR17-61" transform="translate(362.9215 0) scale(0.996264)"/>
      <use xlink:href="#CMR17-74" transform="translate(408.611977 0) scale(0.996264)"/>
      <use xlink:href="#CMR17-69" transform="translate(443.892745 0) scale(0.996264)"/>
      <use xlink:href="#CMR17-6f" transform="translate(468.763803 0) scale(0.996264)"/>
      <use xlink:href="#CMR17-6e" transform="translate(514.45428 0) scale(0.996264)"/>
      <use xlink:href="#CMR17-28" transform="translate(595.425616 0) scale(0.996264)"/>
      <use xlink:href="#CMR17-6e" transform="translate(630.706384 0) scale(0.996264)"/>
      <use xlink:href="#CMR17-67" transform="translate(681.601754 0) scale(0.996264)"/>
      <use xlink:href="#CMR17-2f" transform="translate(727.292231 0) scale(0.996264)"/>
      <use xlink:href="#CMR17-6d" transform="translate(772.982708 0) scale(0.996264)"/>
      <use xlink:href="#CMR17-4c" transform="translate(849.902298 0) scale(0.996264)"/>
      <use xlink:href="#CMR17-29" transform="translate(907.283706 0) scale(0.996264)"/>
     </g>
    </g>
   </g>
   <g id="matplotlib.axis_2">
    <g id="ytick_1">
     <g id="line2d_65">
      <defs>
       <path id="m7fe97accbc" d="M 0 0 
L 3 0 
" style="stroke: #000000; stroke-width: 0.5"/>
      </defs>
      <g>
       <use xlink:href="#m7fe97accbc" x="29.890802" y="179.76534" style="stroke: #000000; stroke-width: 0.5"/>
      </g>
     </g>
     <g id="line2d_66">
      <defs>
       <path id="m355eabcd80" d="M 0 0 
L -3 0 
" style="stroke: #000000; stroke-width: 0.5"/>
      </defs>
      <g>
       <use xlink:href="#m355eabcd80" x="214.156541" y="179.76534" style="stroke: #000000; stroke-width: 0.5"/>
      </g>
     </g>
     <g id="text_9">
      <!-- $\mathdefault{0.0}$ -->
      <g transform="translate(15.570112 182.532741) scale(0.08 -0.08)">
       <defs>
        <path id="CMMI12-3a" d="M 1178 307 
C 1178 492 1024 619 870 619 
C 685 619 557 466 557 313 
C 557 128 710 0 864 0 
C 1050 0 1178 153 1178 307 
z
" transform="scale(0.015625)"/>
       </defs>
       <use xlink:href="#CMR17-30" transform="scale(0.996264)"/>
       <use xlink:href="#CMMI12-3a" transform="translate(45.690477 0) scale(0.996264)"/>
       <use xlink:href="#CMR17-30" transform="translate(72.787654 0) scale(0.996264)"/>
      </g>
     </g>
    </g>
    <g id="ytick_2">
     <g id="line2d_67">
      <g>
       <use xlink:href="#m7fe97accbc" x="29.890802" y="143.645272" style="stroke: #000000; stroke-width: 0.5"/>
      </g>
     </g>
     <g id="line2d_68">
      <g>
       <use xlink:href="#m355eabcd80" x="214.156541" y="143.645272" style="stroke: #000000; stroke-width: 0.5"/>
      </g>
     </g>
     <g id="text_10">
      <!-- $\mathdefault{0.5}$ -->
      <g transform="translate(15.570112 146.412673) scale(0.08 -0.08)">
       <use xlink:href="#CMR17-30" transform="scale(0.996264)"/>
       <use xlink:href="#CMMI12-3a" transform="translate(45.690477 0) scale(0.996264)"/>
       <use xlink:href="#CMR17-35" transform="translate(72.787654 0) scale(0.996264)"/>
      </g>
     </g>
    </g>
    <g id="ytick_3">
     <g id="line2d_69">
      <g>
       <use xlink:href="#m7fe97accbc" x="29.890802" y="107.525204" style="stroke: #000000; stroke-width: 0.5"/>
      </g>
     </g>
     <g id="line2d_70">
      <g>
       <use xlink:href="#m355eabcd80" x="214.156541" y="107.525204" style="stroke: #000000; stroke-width: 0.5"/>
      </g>
     </g>
     <g id="text_11">
      <!-- $\mathdefault{1.0}$ -->
      <g transform="translate(15.570112 110.292605) scale(0.08 -0.08)">
       <use xlink:href="#CMR17-31" transform="scale(0.996264)"/>
       <use xlink:href="#CMMI12-3a" transform="translate(45.690477 0) scale(0.996264)"/>
       <use xlink:href="#CMR17-30" transform="translate(72.787654 0) scale(0.996264)"/>
      </g>
     </g>
    </g>
    <g id="ytick_4">
     <g id="line2d_71">
      <g>
       <use xlink:href="#m7fe97accbc" x="29.890802" y="71.405136" style="stroke: #000000; stroke-width: 0.5"/>
      </g>
     </g>
     <g id="line2d_72">
      <g>
       <use xlink:href="#m355eabcd80" x="214.156541" y="71.405136" style="stroke: #000000; stroke-width: 0.5"/>
      </g>
     </g>
     <g id="text_12">
      <!-- $\mathdefault{1.5}$ -->
      <g transform="translate(15.570112 74.172537) scale(0.08 -0.08)">
       <use xlink:href="#CMR17-31" transform="scale(0.996264)"/>
       <use xlink:href="#CMMI12-3a" transform="translate(45.690477 0) scale(0.996264)"/>
       <use xlink:href="#CMR17-35" transform="translate(72.787654 0) scale(0.996264)"/>
      </g>
     </g>
    </g>
    <g id="ytick_5">
     <g id="line2d_73">
      <g>
       <use xlink:href="#m7fe97accbc" x="29.890802" y="35.285068" style="stroke: #000000; stroke-width: 0.5"/>
      </g>
     </g>
     <g id="line2d_74">
      <g>
       <use xlink:href="#m355eabcd80" x="214.156541" y="35.285068" style="stroke: #000000; stroke-width: 0.5"/>
      </g>
     </g>
     <g id="text_13">
      <!-- $\mathdefault{2.0}$ -->
      <g transform="translate(15.570112 38.052469) scale(0.08 -0.08)">
       <use xlink:href="#CMR17-32" transform="scale(0.996264)"/>
       <use xlink:href="#CMMI12-3a" transform="translate(45.690477 0) scale(0.996264)"/>
       <use xlink:href="#CMR17-30" transform="translate(72.787654 0) scale(0.996264)"/>
      </g>
     </g>
    </g>
    <g id="ytick_6">
     <g id="line2d_75">
      <defs>
       <path id="m053261a785" d="M 0 0 
L 1.5 0 
" style="stroke: #000000; stroke-width: 0.5"/>
      </defs>
      <g>
       <use xlink:href="#m053261a785" x="29.890802" y="172.541327" style="stroke: #000000; stroke-width: 0.5"/>
      </g>
     </g>
     <g id="line2d_76">
      <defs>
       <path id="m4e7f407e7c" d="M 0 0 
L -1.5 0 
" style="stroke: #000000; stroke-width: 0.5"/>
      </defs>
      <g>
       <use xlink:href="#m4e7f407e7c" x="214.156541" y="172.541327" style="stroke: #000000; stroke-width: 0.5"/>
      </g>
     </g>
    </g>
    <g id="ytick_7">
     <g id="line2d_77">
      <g>
       <use xlink:href="#m053261a785" x="29.890802" y="165.317313" style="stroke: #000000; stroke-width: 0.5"/>
      </g>
     </g>
     <g id="line2d_78">
      <g>
       <use xlink:href="#m4e7f407e7c" x="214.156541" y="165.317313" style="stroke: #000000; stroke-width: 0.5"/>
      </g>
     </g>
    </g>
    <g id="ytick_8">
     <g id="line2d_79">
      <g>
       <use xlink:href="#m053261a785" x="29.890802" y="158.0933" style="stroke: #000000; stroke-width: 0.5"/>
      </g>
     </g>
     <g id="line2d_80">
      <g>
       <use xlink:href="#m4e7f407e7c" x="214.156541" y="158.0933" style="stroke: #000000; stroke-width: 0.5"/>
      </g>
     </g>
    </g>
    <g id="ytick_9">
     <g id="line2d_81">
      <g>
       <use xlink:href="#m053261a785" x="29.890802" y="150.869286" style="stroke: #000000; stroke-width: 0.5"/>
      </g>
     </g>
     <g id="line2d_82">
      <g>
       <use xlink:href="#m4e7f407e7c" x="214.156541" y="150.869286" style="stroke: #000000; stroke-width: 0.5"/>
      </g>
     </g>
    </g>
    <g id="ytick_10">
     <g id="line2d_83">
      <g>
       <use xlink:href="#m053261a785" x="29.890802" y="136.421259" style="stroke: #000000; stroke-width: 0.5"/>
      </g>
     </g>
     <g id="line2d_84">
      <g>
       <use xlink:href="#m4e7f407e7c" x="214.156541" y="136.421259" style="stroke: #000000; stroke-width: 0.5"/>
      </g>
     </g>
    </g>
    <g id="ytick_11">
     <g id="line2d_85">
      <g>
       <use xlink:href="#m053261a785" x="29.890802" y="129.197245" style="stroke: #000000; stroke-width: 0.5"/>
      </g>
     </g>
     <g id="line2d_86">
      <g>
       <use xlink:href="#m4e7f407e7c" x="214.156541" y="129.197245" style="stroke: #000000; stroke-width: 0.5"/>
      </g>
     </g>
    </g>
    <g id="ytick_12">
     <g id="line2d_87">
      <g>
       <use xlink:href="#m053261a785" x="29.890802" y="121.973232" style="stroke: #000000; stroke-width: 0.5"/>
      </g>
     </g>
     <g id="line2d_88">
      <g>
       <use xlink:href="#m4e7f407e7c" x="214.156541" y="121.973232" style="stroke: #000000; stroke-width: 0.5"/>
      </g>
     </g>
    </g>
    <g id="ytick_13">
     <g id="line2d_89">
      <g>
       <use xlink:href="#m053261a785" x="29.890802" y="114.749218" style="stroke: #000000; stroke-width: 0.5"/>
      </g>
     </g>
     <g id="line2d_90">
      <g>
       <use xlink:href="#m4e7f407e7c" x="214.156541" y="114.749218" style="stroke: #000000; stroke-width: 0.5"/>
      </g>
     </g>
    </g>
    <g id="ytick_14">
     <g id="line2d_91">
      <g>
       <use xlink:href="#m053261a785" x="29.890802" y="100.301191" style="stroke: #000000; stroke-width: 0.5"/>
      </g>
     </g>
     <g id="line2d_92">
      <g>
       <use xlink:href="#m4e7f407e7c" x="214.156541" y="100.301191" style="stroke: #000000; stroke-width: 0.5"/>
      </g>
     </g>
    </g>
    <g id="ytick_15">
     <g id="line2d_93">
      <g>
       <use xlink:href="#m053261a785" x="29.890802" y="93.077177" style="stroke: #000000; stroke-width: 0.5"/>
      </g>
     </g>
     <g id="line2d_94">
      <g>
       <use xlink:href="#m4e7f407e7c" x="214.156541" y="93.077177" style="stroke: #000000; stroke-width: 0.5"/>
      </g>
     </g>
    </g>
    <g id="ytick_16">
     <g id="line2d_95">
      <g>
       <use xlink:href="#m053261a785" x="29.890802" y="85.853164" style="stroke: #000000; stroke-width: 0.5"/>
      </g>
     </g>
     <g id="line2d_96">
      <g>
       <use xlink:href="#m4e7f407e7c" x="214.156541" y="85.853164" style="stroke: #000000; stroke-width: 0.5"/>
      </g>
     </g>
    </g>
    <g id="ytick_17">
     <g id="line2d_97">
      <g>
       <use xlink:href="#m053261a785" x="29.890802" y="78.62915" style="stroke: #000000; stroke-width: 0.5"/>
      </g>
     </g>
     <g id="line2d_98">
      <g>
       <use xlink:href="#m4e7f407e7c" x="214.156541" y="78.62915" style="stroke: #000000; stroke-width: 0.5"/>
      </g>
     </g>
    </g>
    <g id="ytick_18">
     <g id="line2d_99">
      <g>
       <use xlink:href="#m053261a785" x="29.890802" y="64.181123" style="stroke: #000000; stroke-width: 0.5"/>
      </g>
     </g>
     <g id="line2d_100">
      <g>
       <use xlink:href="#m4e7f407e7c" x="214.156541" y="64.181123" style="stroke: #000000; stroke-width: 0.5"/>
      </g>
     </g>
    </g>
    <g id="ytick_19">
     <g id="line2d_101">
      <g>
       <use xlink:href="#m053261a785" x="29.890802" y="56.957109" style="stroke: #000000; stroke-width: 0.5"/>
      </g>
     </g>
     <g id="line2d_102">
      <g>
       <use xlink:href="#m4e7f407e7c" x="214.156541" y="56.957109" style="stroke: #000000; stroke-width: 0.5"/>
      </g>
     </g>
    </g>
    <g id="ytick_20">
     <g id="line2d_103">
      <g>
       <use xlink:href="#m053261a785" x="29.890802" y="49.733096" style="stroke: #000000; stroke-width: 0.5"/>
      </g>
     </g>
     <g id="line2d_104">
      <g>
       <use xlink:href="#m4e7f407e7c" x="214.156541" y="49.733096" style="stroke: #000000; stroke-width: 0.5"/>
      </g>
     </g>
    </g>
    <g id="ytick_21">
     <g id="line2d_105">
      <g>
       <use xlink:href="#m053261a785" x="29.890802" y="42.509082" style="stroke: #000000; stroke-width: 0.5"/>
      </g>
     </g>
     <g id="line2d_106">
      <g>
       <use xlink:href="#m4e7f407e7c" x="214.156541" y="42.509082" style="stroke: #000000; stroke-width: 0.5"/>
      </g>
     </g>
    </g>
    <g id="ytick_22">
     <g id="line2d_107">
      <g>
       <use xlink:href="#m053261a785" x="29.890802" y="28.061055" style="stroke: #000000; stroke-width: 0.5"/>
      </g>
     </g>
     <g id="line2d_108">
      <g>
       <use xlink:href="#m4e7f407e7c" x="214.156541" y="28.061055" style="stroke: #000000; stroke-width: 0.5"/>
      </g>
     </g>
    </g>
    <g id="ytick_23">
     <g id="line2d_109">
      <g>
       <use xlink:href="#m053261a785" x="29.890802" y="20.837041" style="stroke: #000000; stroke-width: 0.5"/>
      </g>
     </g>
     <g id="line2d_110">
      <g>
       <use xlink:href="#m4e7f407e7c" x="214.156541" y="20.837041" style="stroke: #000000; stroke-width: 0.5"/>
      </g>
     </g>
    </g>
    <g id="ytick_24">
     <g id="line2d_111">
      <g>
       <use xlink:href="#m053261a785" x="29.890802" y="13.613028" style="stroke: #000000; stroke-width: 0.5"/>
      </g>
     </g>
     <g id="line2d_112">
      <g>
       <use xlink:href="#m4e7f407e7c" x="214.156541" y="13.613028" style="stroke: #000000; stroke-width: 0.5"/>
      </g>
     </g>
    </g>
    <g id="ytick_25">
     <g id="line2d_113">
      <g>
       <use xlink:href="#m053261a785" x="29.890802" y="6.389014" style="stroke: #000000; stroke-width: 0.5"/>
      </g>
     </g>
     <g id="line2d_114">
      <g>
       <use xlink:href="#m4e7f407e7c" x="214.156541" y="6.389014" style="stroke: #000000; stroke-width: 0.5"/>
      </g>
     </g>
    </g>
    <g id="text_14">
     <!-- OD (blank corrected) -->
     <g transform="translate(9.577584 131.500592) rotate(-90) scale(0.08 -0.08)">
      <defs>
       <path id="CMR17-4f" d="M 4307 2135 
C 4307 3437 3366 4416 2304 4416 
C 1216 4416 294 3424 294 2135 
C 294 845 1229 -128 2298 -128 
C 3392 -128 4307 864 4307 2135 
z
M 2304 -13 
C 1574 -13 781 711 781 2217 
C 781 3716 1651 4301 2298 4301 
C 2976 4301 3821 3698 3821 2217 
C 3821 686 3008 -13 2304 -13 
z
" transform="scale(0.015625)"/>
       <path id="CMR17-44" d="M 333 4352 
L 333 4186 
C 774 4186 845 4186 845 3900 
L 845 452 
C 845 166 774 166 333 166 
L 333 0 
L 2368 0 
C 3398 0 4224 943 4224 2141 
C 4224 3346 3411 4352 2368 4352 
L 333 4352 
z
M 1523 166 
C 1267 166 1254 197 1254 414 
L 1254 3938 
C 1254 4155 1267 4186 1523 4186 
L 2240 4186 
C 2771 4186 3750 3874 3750 2141 
C 3750 1242 3488 879 3366 707 
C 3213 510 2848 166 2240 166 
L 1523 166 
z
" transform="scale(0.015625)"/>
       <path id="CMR17-62" d="M 960 4396 
L 198 4326 
L 198 4160 
C 576 4160 634 4122 634 3817 
L 634 -13 
L 749 -13 
L 934 441 
C 1120 141 1395 -64 1766 -64 
C 2406 -64 3053 500 3053 1370 
C 3053 2188 2477 2790 1830 2790 
C 1434 2790 1152 2579 960 2330 
L 960 4396 
z
M 973 2004 
C 973 2118 973 2138 1062 2272 
C 1312 2657 1670 2688 1792 2688 
C 1984 2688 2643 2585 2643 1376 
C 2643 108 1888 38 1734 38 
C 1536 38 1248 114 1043 486 
C 973 608 973 621 973 735 
L 973 2004 
z
" transform="scale(0.015625)"/>
       <path id="CMR17-6c" d="M 979 4396 
L 218 4326 
L 218 4160 
C 595 4160 653 4122 653 3817 
L 653 426 
C 653 184 627 153 218 153 
L 218 -13 
C 371 0 653 0 813 0 
C 979 0 1261 0 1414 -13 
L 1414 153 
C 1005 153 979 178 979 426 
L 979 4396 
z
" transform="scale(0.015625)"/>
       <path id="CMR17-6b" d="M 1670 1673 
C 1664 1686 1632 1724 1632 1743 
C 1632 1756 2086 2171 2144 2222 
C 2509 2528 2739 2560 2906 2560 
L 2906 2733 
C 2867 2733 2854 2733 2848 2720 
L 2534 2720 
C 2355 2720 2080 2720 1907 2733 
L 1907 2566 
C 1997 2559 2061 2508 2061 2419 
C 2061 2291 1933 2170 1926 2170 
L 960 1289 
L 960 4396 
L 198 4326 
L 198 4160 
C 576 4160 634 4122 634 3817 
L 634 426 
C 634 184 608 153 198 153 
L 198 -13 
C 352 0 634 0 794 0 
C 954 0 1235 0 1389 -13 
L 1389 153 
C 979 153 954 178 954 428 
L 954 1130 
L 1395 1532 
L 2042 574 
C 2118 459 2182 369 2182 286 
C 2182 172 2067 153 1990 153 
L 1990 -13 
C 2144 0 2419 0 2579 0 
C 2694 0 2931 0 3040 0 
L 3040 153 
C 2739 153 2669 210 2477 491 
L 1670 1673 
z
" transform="scale(0.015625)"/>
       <path id="CMR17-64" d="M 1869 4326 
L 1869 4160 
C 2246 4160 2304 4122 2304 3820 
L 2304 2345 
C 2278 2377 2016 2790 1498 2790 
C 845 2790 211 2208 211 1364 
C 211 525 806 -64 1434 -64 
C 1978 -64 2259 337 2291 380 
L 2291 -63 
L 3066 -63 
L 3066 128 
C 2688 128 2630 166 2630 473 
L 2630 4396 
L 1869 4326 
z
M 2291 755 
C 2291 563 2176 390 2029 262 
C 1811 70 1594 38 1472 38 
C 1286 38 621 134 621 1356 
C 621 2612 1363 2688 1530 2688 
C 1824 2688 2061 2522 2208 2291 
C 2291 2157 2291 2138 2291 2023 
L 2291 755 
z
" transform="scale(0.015625)"/>
      </defs>
      <use xlink:href="#CMR17-4f" transform="scale(0.996264)"/>
      <use xlink:href="#CMR17-44" transform="translate(71.714788 0) scale(0.996264)"/>
      <use xlink:href="#CMR17-28" transform="translate(172.184311 0) scale(0.996264)"/>
      <use xlink:href="#CMR17-62" transform="translate(207.465078 0) scale(0.996264)"/>
      <use xlink:href="#CMR17-6c" transform="translate(258.360448 0) scale(0.996264)"/>
      <use xlink:href="#CMR17-61" transform="translate(283.231507 0) scale(0.996264)"/>
      <use xlink:href="#CMR17-6e" transform="translate(328.921984 0) scale(0.996264)"/>
      <use xlink:href="#CMR17-6b" transform="translate(379.817354 0) scale(0.996264)"/>
      <use xlink:href="#CMR17-63" transform="translate(458.186236 0) scale(0.996264)"/>
      <use xlink:href="#CMR17-6f" transform="translate(498.671896 0) scale(0.996264)"/>
      <use xlink:href="#CMR17-72" transform="translate(544.362373 0) scale(0.996264)"/>
      <use xlink:href="#CMR17-72" transform="translate(579.643141 0) scale(0.996264)"/>
      <use xlink:href="#CMR17-65" transform="translate(614.923909 0) scale(0.996264)"/>
      <use xlink:href="#CMR17-63" transform="translate(655.409569 0) scale(0.996264)"/>
      <use xlink:href="#CMR17-74" transform="translate(695.89523 0) scale(0.996264)"/>
      <use xlink:href="#CMR17-65" transform="translate(731.175998 0) scale(0.996264)"/>
      <use xlink:href="#CMR17-64" transform="translate(771.661658 0) scale(0.996264)"/>
      <use xlink:href="#CMR17-29" transform="translate(822.557028 0) scale(0.996264)"/>
     </g>
    </g>
   </g>
   <g id="line2d_115">
    <defs>
     <path id="m9cd2cb0767" d="M 0 3 
C 0.795609 3 1.55874 2.683901 2.12132 2.12132 
C 2.683901 1.55874 3 0.795609 3 0 
C 3 -0.795609 2.683901 -1.55874 2.12132 -2.12132 
C 1.55874 -2.683901 0.795609 -3 0 -3 
C -0.795609 -3 -1.55874 -2.683901 -2.12132 -2.12132 
C -2.683901 -1.55874 -3 -0.795609 -3 0 
C -3 0.795609 -2.683901 1.55874 -2.12132 2.12132 
C -1.55874 2.683901 -0.795609 3 0 3 
z
" style="stroke: #0c5da5"/>
    </defs>
    <g clip-path="url(#peb23b37418)">
     <use xlink:href="#m9cd2cb0767" x="41.590214" y="136.644001" style="fill: #0c5da5; stroke: #0c5da5"/>
     <use xlink:href="#m9cd2cb0767" x="35.740508" y="151.248546" style="fill: #0c5da5; stroke: #0c5da5"/>
     <use xlink:href="#m9cd2cb0767" x="32.815655" y="163.599203" style="fill: #0c5da5; stroke: #0c5da5"/>
     <use xlink:href="#m9cd2cb0767" x="31.060743" y="172.152434" style="fill: #0c5da5; stroke: #0c5da5"/>
    </g>
   </g>
   <g id="line2d_116">
    <defs>
     <path id="m63243c0b25" d="M 0 3 
C 0.795609 3 1.55874 2.683901 2.12132 2.12132 
C 2.683901 1.55874 3 0.795609 3 0 
C 3 -0.795609 2.683901 -1.55874 2.12132 -2.12132 
C 1.55874 -2.683901 0.795609 -3 0 -3 
C -0.795609 -3 -1.55874 -2.683901 -2.12132 -2.12132 
C -2.683901 -1.55874 -3 -0.795609 -3 0 
C -3 0.795609 -2.683901 1.55874 -2.12132 2.12132 
C -1.55874 2.683901 -0.795609 3 0 3 
z
" style="stroke: #808080"/>
    </defs>
    <g clip-path="url(#peb23b37418)">
     <use xlink:href="#m63243c0b25" x="205.381982" y="11.988826" style="fill: #808080; stroke: #808080"/>
     <use xlink:href="#m63243c0b25" x="146.884922" y="42.883527" style="fill: #808080; stroke: #808080"/>
     <use xlink:href="#m63243c0b25" x="88.387862" y="85.611159" style="fill: #808080; stroke: #808080"/>
     <use xlink:href="#m63243c0b25" x="59.139332" y="107.283202" style="fill: #808080; stroke: #808080"/>
    </g>
   </g>
   <g id="line2d_117">
    <path d="M 29.890802 179.76534 
L 30.245329 178.340524 
L 30.599857 176.915707 
L 30.954384 175.49089 
L 31.308912 174.066074 
L 31.66344 172.641257 
L 32.017967 171.21644 
L 32.372495 169.791624 
L 32.727023 168.366807 
L 33.08155 166.94199 
L 33.436078 165.517174 
L 33.790606 164.092357 
L 34.145133 162.66754 
L 34.499661 161.242724 
L 34.854189 159.817907 
L 35.208716 158.39309 
L 35.563244 156.968273 
L 35.917771 155.543457 
L 36.272299 154.11864 
L 36.626827 152.693823 
L 36.981354 151.269007 
L 37.335882 149.84419 
L 37.69041 148.419373 
L 38.044937 146.994557 
L 38.399465 145.56974 
L 38.753993 144.144923 
L 39.10852 142.720107 
L 39.463048 141.29529 
L 39.817575 139.870473 
L 40.172103 138.445657 
L 40.526631 137.02084 
L 40.881158 135.596023 
L 41.235686 134.171207 
L 41.590214 132.74639 
L 41.944741 131.321573 
L 42.299269 129.896756 
L 42.653797 128.47194 
L 43.008324 127.047123 
L 43.362852 125.622306 
L 43.717379 124.19749 
L 44.071907 122.772673 
L 44.426435 121.347856 
L 44.780962 119.92304 
L 45.13549 118.498223 
L 45.490018 117.073406 
L 45.844545 115.64859 
L 46.199073 114.223773 
L 46.553601 112.798956 
L 46.908128 111.37414 
L 47.262656 109.949323 
L 47.617183 108.524506 
L 47.971711 107.099689 
L 48.326239 105.674873 
L 48.680766 104.250056 
L 49.035294 102.825239 
L 49.389822 101.400423 
L 49.744349 99.975606 
L 50.098877 98.550789 
L 50.453405 97.125973 
L 50.807932 95.701156 
L 51.16246 94.276339 
L 51.516987 92.851523 
L 51.871515 91.426706 
L 52.226043 90.001889 
L 52.58057 88.577073 
L 52.935098 87.152256 
L 53.289626 85.727439 
L 53.644153 84.302622 
L 53.998681 82.877806 
L 54.353209 81.452989 
L 54.707736 80.028172 
L 55.062264 78.603356 
L 55.416792 77.178539 
L 55.771319 75.753722 
L 56.125847 74.328906 
L 56.480374 72.904089 
L 56.834902 71.479272 
L 57.18943 70.054456 
L 57.543957 68.629639 
L 57.898485 67.204822 
L 58.253013 65.780006 
L 58.60754 64.355189 
L 58.962068 62.930372 
L 59.316596 61.505556 
L 59.671123 60.080739 
L 60.025651 58.655922 
L 60.380178 57.231105 
L 60.734706 55.806289 
L 61.089234 54.381472 
L 61.443761 52.956655 
L 61.798289 51.531839 
L 62.152817 50.107022 
L 62.507344 48.682205 
L 62.861872 47.257389 
L 63.2164 45.832572 
L 63.570927 44.407755 
L 63.925455 42.982939 
L 64.279982 41.558122 
L 64.63451 40.133305 
L 64.989038 38.708489 
" clip-path="url(#peb23b37418)" style="fill: none; stroke: #00b945; stroke-linecap: square"/>
   </g>
   <g id="patch_3">
    <path d="M 29.890802 179.76534 
L 29.890802 3.6 
" style="fill: none; stroke: #000000; stroke-width: 0.5; stroke-linejoin: miter; stroke-linecap: square"/>
   </g>
   <g id="patch_4">
    <path d="M 214.156541 179.76534 
L 214.156541 3.6 
" style="fill: none; stroke: #000000; stroke-width: 0.5; stroke-linejoin: miter; stroke-linecap: square"/>
   </g>
   <g id="patch_5">
    <path d="M 29.890802 179.76534 
L 214.156541 179.76534 
" style="fill: none; stroke: #000000; stroke-width: 0.5; stroke-linejoin: miter; stroke-linecap: square"/>
   </g>
   <g id="patch_6">
    <path d="M 29.890802 3.6 
L 214.156541 3.6 
" style="fill: none; stroke: #000000; stroke-width: 0.5; stroke-linejoin: miter; stroke-linecap: square"/>
   </g>
   <g id="text_15">
    <!-- a) -->
    <g transform="translate(33.890802 13.577584) scale(0.08 -0.08)">
     <use xlink:href="#CMR17-61" transform="scale(0.996264)"/>
     <use xlink:href="#CMR17-29" transform="translate(45.690477 0) scale(0.996264)"/>
    </g>
   </g>
   <g id="legend_1">
    <g id="patch_7">
     <path d="M 80.52944 175.76534 
L 208.556541 175.76534 
Q 210.156541 175.76534 210.156541 174.16534 
L 210.156541 139.875371 
Q 210.156541 138.275371 208.556541 138.275371 
L 80.52944 138.275371 
Q 78.92944 138.275371 78.92944 139.875371 
L 78.92944 174.16534 
Q 78.92944 175.76534 80.52944 175.76534 
z
" style="fill: #ffffff; opacity: 0.8; stroke: #cccccc; stroke-linejoin: miter"/>
    </g>
    <g id="line2d_118">
     <g>
      <use xlink:href="#m9cd2cb0767" x="90.12944" y="144.275371" style="fill: #0c5da5; stroke: #0c5da5"/>
     </g>
    </g>
    <g id="text_16">
     <!-- Calibration points -->
     <g transform="translate(104.52944 147.075371) scale(0.08 -0.08)">
      <defs>
       <path id="CMR17-70" d="M 1408 -1063 
C 998 -1063 973 -1037 973 -789 
L 973 402 
C 1158 134 1427 -38 1766 -38 
C 2406 -38 3053 523 3053 1388 
C 3053 2191 2496 2802 1837 2802 
C 1453 2802 1139 2592 960 2338 
L 960 2802 
L 198 2732 
L 198 2567 
C 576 2567 634 2528 634 2223 
L 634 -789 
C 634 -1031 608 -1063 198 -1063 
L 198 -1228 
C 352 -1216 634 -1216 800 -1216 
C 966 -1216 1254 -1216 1408 -1228 
L 1408 -1063 
z
M 973 2012 
C 973 2102 973 2235 1222 2471 
C 1254 2497 1472 2688 1792 2688 
C 2259 2688 2643 2108 2643 1382 
C 2643 656 2234 64 1728 64 
C 1498 64 1248 172 1056 472 
C 973 612 973 650 973 752 
L 973 2012 
z
" transform="scale(0.015625)"/>
       <path id="CMR17-73" d="M 1978 2697 
C 1978 2813 1971 2819 1933 2819 
C 1907 2819 1901 2813 1824 2717 
C 1805 2691 1747 2626 1728 2601 
C 1523 2819 1235 2819 1126 2819 
C 416 2819 160 2447 160 2076 
C 160 1498 813 1365 998 1325 
C 1402 1243 1542 1217 1677 1101 
C 1760 1025 1901 884 1901 654 
C 1901 384 1747 38 1158 38 
C 602 38 403 460 288 1021 
C 269 1110 269 1117 218 1117 
C 166 1117 160 1110 160 983 
L 160 63 
C 160 -51 166 -58 205 -58 
C 237 -58 243 -51 275 0 
C 314 57 410 211 448 276 
C 576 103 800 -64 1158 -64 
C 1792 -64 2131 283 2131 784 
C 2131 1112 1958 1285 1875 1362 
C 1683 1561 1459 1606 1190 1657 
C 838 1735 390 1825 390 2217 
C 390 2383 480 2737 1126 2737 
C 1811 2737 1850 2094 1862 1888 
C 1869 1856 1901 1849 1920 1849 
C 1978 1849 1978 1869 1978 1978 
L 1978 2697 
z
" transform="scale(0.015625)"/>
      </defs>
      <use xlink:href="#CMR17-43" transform="scale(0.996264)"/>
      <use xlink:href="#CMR17-61" transform="translate(66.509881 0) scale(0.996264)"/>
      <use xlink:href="#CMR17-6c" transform="translate(112.200358 0) scale(0.996264)"/>
      <use xlink:href="#CMR17-69" transform="translate(137.071416 0) scale(0.996264)"/>
      <use xlink:href="#CMR17-62" transform="translate(161.942475 0) scale(0.996264)"/>
      <use xlink:href="#CMR17-72" transform="translate(212.837844 0) scale(0.996264)"/>
      <use xlink:href="#CMR17-61" transform="translate(248.118612 0) scale(0.996264)"/>
      <use xlink:href="#CMR17-74" transform="translate(293.809089 0) scale(0.996264)"/>
      <use xlink:href="#CMR17-69" transform="translate(329.089857 0) scale(0.996264)"/>
      <use xlink:href="#CMR17-6f" transform="translate(353.960916 0) scale(0.996264)"/>
      <use xlink:href="#CMR17-6e" transform="translate(399.651393 0) scale(0.996264)"/>
      <use xlink:href="#CMR17-70" transform="translate(480.622729 0) scale(0.996264)"/>
      <use xlink:href="#CMR17-6f" transform="translate(534.120537 0) scale(0.996264)"/>
      <use xlink:href="#CMR17-69" transform="translate(579.811014 0) scale(0.996264)"/>
      <use xlink:href="#CMR17-6e" transform="translate(604.682073 0) scale(0.996264)"/>
      <use xlink:href="#CMR17-74" transform="translate(652.974989 0) scale(0.996264)"/>
      <use xlink:href="#CMR17-73" transform="translate(688.255757 0) scale(0.996264)"/>
     </g>
    </g>
    <g id="line2d_119">
     <g>
      <use xlink:href="#m63243c0b25" x="90.12944" y="155.8027" style="fill: #808080; stroke: #808080"/>
     </g>
    </g>
    <g id="text_17">
     <!-- Calibration points (unused) -->
     <g transform="translate(104.52944 158.6027) scale(0.08 -0.08)">
      <defs>
       <path id="CMR17-75" d="M 1882 2693 
L 1882 2528 
C 2259 2528 2317 2489 2317 2186 
L 2317 1032 
C 2317 500 2029 38 1555 38 
C 1030 38 986 348 986 678 
L 986 2763 
L 211 2693 
L 211 2528 
C 467 2528 640 2528 646 2274 
L 646 1058 
C 646 633 646 361 813 183 
C 896 101 1056 -64 1517 -64 
C 2061 -64 2272 377 2323 506 
L 2330 506 
L 2330 -63 
L 3091 -63 
L 3091 128 
C 2714 128 2656 166 2656 473 
L 2656 2763 
L 1882 2693 
z
" transform="scale(0.015625)"/>
      </defs>
      <use xlink:href="#CMR17-43" transform="scale(0.996264)"/>
      <use xlink:href="#CMR17-61" transform="translate(66.509881 0) scale(0.996264)"/>
      <use xlink:href="#CMR17-6c" transform="translate(112.200358 0) scale(0.996264)"/>
      <use xlink:href="#CMR17-69" transform="translate(137.071416 0) scale(0.996264)"/>
      <use xlink:href="#CMR17-62" transform="translate(161.942475 0) scale(0.996264)"/>
      <use xlink:href="#CMR17-72" transform="translate(212.837844 0) scale(0.996264)"/>
      <use xlink:href="#CMR17-61" transform="translate(248.118612 0) scale(0.996264)"/>
      <use xlink:href="#CMR17-74" transform="translate(293.809089 0) scale(0.996264)"/>
      <use xlink:href="#CMR17-69" transform="translate(329.089857 0) scale(0.996264)"/>
      <use xlink:href="#CMR17-6f" transform="translate(353.960916 0) scale(0.996264)"/>
      <use xlink:href="#CMR17-6e" transform="translate(399.651393 0) scale(0.996264)"/>
      <use xlink:href="#CMR17-70" transform="translate(480.622729 0) scale(0.996264)"/>
      <use xlink:href="#CMR17-6f" transform="translate(534.120537 0) scale(0.996264)"/>
      <use xlink:href="#CMR17-69" transform="translate(579.811014 0) scale(0.996264)"/>
      <use xlink:href="#CMR17-6e" transform="translate(604.682073 0) scale(0.996264)"/>
      <use xlink:href="#CMR17-74" transform="translate(652.974989 0) scale(0.996264)"/>
      <use xlink:href="#CMR17-73" transform="translate(688.255757 0) scale(0.996264)"/>
      <use xlink:href="#CMR17-28" transform="translate(754.133061 0) scale(0.996264)"/>
      <use xlink:href="#CMR17-75" transform="translate(789.413828 0) scale(0.996264)"/>
      <use xlink:href="#CMR17-6e" transform="translate(840.309198 0) scale(0.996264)"/>
      <use xlink:href="#CMR17-75" transform="translate(888.602114 0) scale(0.996264)"/>
      <use xlink:href="#CMR17-73" transform="translate(939.497484 0) scale(0.996264)"/>
      <use xlink:href="#CMR17-65" transform="translate(975.298821 0) scale(0.996264)"/>
      <use xlink:href="#CMR17-64" transform="translate(1015.784482 0) scale(0.996264)"/>
      <use xlink:href="#CMR17-29" transform="translate(1066.679852 0) scale(0.996264)"/>
     </g>
    </g>
    <g id="line2d_120">
     <path d="M 82.12944 167.772812 
L 90.12944 167.772812 
L 98.12944 167.772812 
" style="fill: none; stroke: #00b945; stroke-linecap: square"/>
    </g>
    <g id="text_18">
     <!-- Linear fit (R=0.90) -->
     <g transform="translate(104.52944 170.572812) scale(0.08 -0.08)">
      <defs>
       <path id="CMR17-c" d="M 2554 2764 
C 2400 2764 1926 2764 1805 2739 
C 1766 2725 1754 2725 1677 2725 
L 947 2725 
L 947 3469 
C 947 4073 1434 4352 1818 4352 
C 1939 4352 2214 4320 2355 4101 
C 2291 4101 2086 4101 2086 3878 
C 2086 3725 2189 3648 2317 3648 
C 2432 3648 2547 3712 2547 3885 
C 2547 4205 2240 4454 1843 4454 
C 1338 4454 634 4168 634 3469 
L 634 2725 
L 122 2725 
L 122 2560 
L 634 2560 
L 634 427 
C 634 184 608 153 198 153 
L 198 -13 
C 352 0 634 0 794 0 
C 960 0 1242 0 1395 -13 
L 1395 153 
C 986 153 960 178 960 427 
L 960 2560 
L 1901 2560 
C 2176 2560 2227 2502 2227 2222 
L 2227 427 
C 2227 184 2202 153 1792 153 
L 1792 -13 
C 1946 0 2227 0 2387 0 
C 2554 0 2835 0 2989 -13 
L 2989 153 
C 2579 153 2554 178 2554 427 
L 2554 2764 
z
" transform="scale(0.015625)"/>
       <path id="CMR17-52" d="M 2509 2146 
C 3117 2268 3629 2676 3629 3186 
C 3629 3785 2950 4326 2054 4326 
L 333 4326 
L 333 4160 
C 774 4160 845 4160 845 3873 
L 845 415 
C 845 128 774 128 333 128 
L 333 -26 
C 518 -26 851 -26 1050 -26 
C 1248 -26 1581 -26 1766 -26 
L 1766 128 
C 1325 128 1254 128 1254 417 
L 1254 2112 
L 2003 2112 
C 2368 2112 2573 1964 2662 1881 
C 2918 1632 2918 1459 2918 1024 
C 2918 595 2918 377 3110 160 
C 3354 -102 3680 -128 3821 -128 
C 4294 -128 4365 396 4365 503 
C 4365 540 4365 585 4307 585 
C 4256 585 4250 547 4250 522 
C 4218 112 4032 -26 3834 -26 
C 3482 -26 3443 375 3405 764 
C 3386 898 3373 993 3360 1133 
C 3322 1452 3270 1917 2509 2146 
z
M 1984 2214 
L 1254 2214 
L 1254 3913 
C 1254 4129 1267 4160 1523 4160 
L 1990 4160 
C 2522 4160 3142 3977 3142 3190 
C 3142 2372 2464 2214 1984 2214 
z
" transform="scale(0.015625)"/>
       <path id="SFRM3583-b2" d="M 416 4346 
C 544 4624 826 4723 1094 4723 
C 1459 4723 1920 4545 1920 4099 
C 1920 3654 1478 3367 1152 3138 
C 909 2966 672 2775 429 2603 
C 365 2558 288 2527 288 2444 
L 288 2240 
L 2125 2240 
L 2259 3143 
L 2176 3143 
C 2118 2871 2150 2528 1914 2528 
C 1779 2528 1645 2528 1510 2528 
C 1414 2528 1325 2528 1229 2528 
L 429 2528 
C 538 2610 653 2680 768 2756 
C 979 2902 1190 3049 1414 3176 
C 1779 3385 2259 3613 2259 4121 
C 2259 4642 1696 4864 1222 4864 
C 819 4864 288 4656 288 4157 
C 288 4025 378 3949 493 3949 
C 608 3949 698 4032 698 4147 
C 698 4269 614 4352 486 4352 
C 461 4352 442 4352 416 4346 
z
" transform="scale(0.015625)"/>
       <path id="CMR17-3d" d="M 4115 2017 
C 4211 2017 4307 2017 4307 2125 
C 4307 2240 4198 2240 4090 2240 
L 512 2240 
C 403 2240 294 2240 294 2125 
C 294 2017 390 2017 486 2017 
L 4115 2017 
z
M 4090 896 
C 4198 896 4307 896 4307 1011 
C 4307 1119 4211 1119 4115 1119 
L 486 1119 
C 390 1119 294 1119 294 1011 
C 294 896 403 896 512 896 
L 4090 896 
z
" transform="scale(0.015625)"/>
       <path id="CMR17-2e" d="M 1062 261 
C 1062 420 934 522 800 522 
C 672 522 538 420 538 261 
C 538 102 666 0 800 0 
C 928 0 1062 102 1062 261 
z
" transform="scale(0.015625)"/>
       <path id="CMR17-39" d="M 2253 1864 
C 2253 464 1670 31 1190 31 
C 1043 31 685 31 538 294 
C 704 268 826 357 826 518 
C 826 692 685 749 595 749 
C 538 749 365 723 365 506 
C 365 71 742 -128 1203 -128 
C 1939 -128 2688 674 2688 2073 
C 2688 3817 1971 4179 1485 4179 
C 851 4179 243 3628 243 2778 
C 243 1991 762 1408 1414 1408 
C 1952 1408 2189 1903 2253 2112 
L 2253 1864 
z
M 1427 1510 
C 1254 1510 1011 1542 813 1922 
C 678 2169 678 2461 678 2771 
C 678 3146 678 3405 858 3684 
C 947 3817 1114 4032 1485 4032 
C 2240 4032 2240 2885 2240 2632 
C 2240 2182 2035 1510 1427 1510 
z
" transform="scale(0.015625)"/>
      </defs>
      <use xlink:href="#CMR17-4c" transform="scale(0.996264)"/>
      <use xlink:href="#CMR17-69" transform="translate(57.381408 0) scale(0.996264)"/>
      <use xlink:href="#CMR17-6e" transform="translate(82.252466 0) scale(0.996264)"/>
      <use xlink:href="#CMR17-65" transform="translate(133.147836 0) scale(0.996264)"/>
      <use xlink:href="#CMR17-61" transform="translate(173.633497 0) scale(0.996264)"/>
      <use xlink:href="#CMR17-72" transform="translate(219.323974 0) scale(0.996264)"/>
      <use xlink:href="#CMR17-c" transform="translate(284.680708 0) scale(0.996264)"/>
      <use xlink:href="#CMR17-74" transform="translate(334.422931 0) scale(0.996264)"/>
      <use xlink:href="#CMR17-28" transform="translate(399.779665 0) scale(0.996264)"/>
      <use xlink:href="#CMR17-52" transform="translate(435.060433 0) scale(0.996264)"/>
      <use xlink:href="#SFRM3583-b2" transform="translate(502.851535 0) scale(0.356961)"/>
      <use xlink:href="#CMR17-3d" transform="translate(517.046808 0) scale(0.996264)"/>
      <use xlink:href="#CMR17-30" transform="translate(588.761596 0) scale(0.996264)"/>
      <use xlink:href="#CMR17-2e" transform="translate(634.452073 0) scale(0.996264)"/>
      <use xlink:href="#CMR17-39" transform="translate(659.323132 0) scale(0.996264)"/>
      <use xlink:href="#CMR17-30" transform="translate(705.013609 0) scale(0.996264)"/>
      <use xlink:href="#CMR17-29" transform="translate(750.704086 0) scale(0.996264)"/>
     </g>
    </g>
   </g>
  </g>
  <g id="axes_2">
   <g id="patch_8">
    <path d="M 226.243947 179.76534 
L 410.509686 179.76534 
L 410.509686 3.6 
L 226.243947 3.6 
z
" style="fill: #ffffff"/>
   </g>
   <g id="matplotlib.axis_3">
    <g id="xtick_33">
     <g id="line2d_121">
      <g>
       <use xlink:href="#m982d58e6b5" x="226.243947" y="179.76534" style="stroke: #000000; stroke-width: 0.5"/>
      </g>
     </g>
     <g id="line2d_122">
      <g>
       <use xlink:href="#mdf73dc951c" x="226.243947" y="3.6" style="stroke: #000000; stroke-width: 0.5"/>
      </g>
     </g>
     <g id="text_19">
      <!-- $\mathdefault{0}$ -->
      <g transform="translate(224.126855 188.800142) scale(0.08 -0.08)">
       <use xlink:href="#CMR17-30" transform="scale(0.996264)"/>
      </g>
     </g>
    </g>
    <g id="xtick_34">
     <g id="line2d_123">
      <g>
       <use xlink:href="#m982d58e6b5" x="255.492477" y="179.76534" style="stroke: #000000; stroke-width: 0.5"/>
      </g>
     </g>
     <g id="line2d_124">
      <g>
       <use xlink:href="#mdf73dc951c" x="255.492477" y="3.6" style="stroke: #000000; stroke-width: 0.5"/>
      </g>
     </g>
     <g id="text_20">
      <!-- $\mathdefault{250}$ -->
      <g transform="translate(249.141202 188.800142) scale(0.08 -0.08)">
       <use xlink:href="#CMR17-32" transform="scale(0.996264)"/>
       <use xlink:href="#CMR17-35" transform="translate(45.690477 0) scale(0.996264)"/>
       <use xlink:href="#CMR17-30" transform="translate(91.380954 0) scale(0.996264)"/>
      </g>
     </g>
    </g>
    <g id="xtick_35">
     <g id="line2d_125">
      <g>
       <use xlink:href="#m982d58e6b5" x="284.741007" y="179.76534" style="stroke: #000000; stroke-width: 0.5"/>
      </g>
     </g>
     <g id="line2d_126">
      <g>
       <use xlink:href="#mdf73dc951c" x="284.741007" y="3.6" style="stroke: #000000; stroke-width: 0.5"/>
      </g>
     </g>
     <g id="text_21">
      <!-- $\mathdefault{500}$ -->
      <g transform="translate(278.389732 188.800142) scale(0.08 -0.08)">
       <use xlink:href="#CMR17-35" transform="scale(0.996264)"/>
       <use xlink:href="#CMR17-30" transform="translate(45.690477 0) scale(0.996264)"/>
       <use xlink:href="#CMR17-30" transform="translate(91.380954 0) scale(0.996264)"/>
      </g>
     </g>
    </g>
    <g id="xtick_36">
     <g id="line2d_127">
      <g>
       <use xlink:href="#m982d58e6b5" x="313.989537" y="179.76534" style="stroke: #000000; stroke-width: 0.5"/>
      </g>
     </g>
     <g id="line2d_128">
      <g>
       <use xlink:href="#mdf73dc951c" x="313.989537" y="3.6" style="stroke: #000000; stroke-width: 0.5"/>
      </g>
     </g>
     <g id="text_22">
      <!-- $\mathdefault{750}$ -->
      <g transform="translate(307.638263 188.800142) scale(0.08 -0.08)">
       <use xlink:href="#CMR17-37" transform="scale(0.996264)"/>
       <use xlink:href="#CMR17-35" transform="translate(45.690477 0) scale(0.996264)"/>
       <use xlink:href="#CMR17-30" transform="translate(91.380954 0) scale(0.996264)"/>
      </g>
     </g>
    </g>
    <g id="xtick_37">
     <g id="line2d_129">
      <g>
       <use xlink:href="#m982d58e6b5" x="343.238067" y="179.76534" style="stroke: #000000; stroke-width: 0.5"/>
      </g>
     </g>
     <g id="line2d_130">
      <g>
       <use xlink:href="#mdf73dc951c" x="343.238067" y="3.6" style="stroke: #000000; stroke-width: 0.5"/>
      </g>
     </g>
     <g id="text_23">
      <!-- $\mathdefault{1000}$ -->
      <g transform="translate(334.769701 188.800142) scale(0.08 -0.08)">
       <use xlink:href="#CMR17-31" transform="scale(0.996264)"/>
       <use xlink:href="#CMR17-30" transform="translate(45.690477 0) scale(0.996264)"/>
       <use xlink:href="#CMR17-30" transform="translate(91.380954 0) scale(0.996264)"/>
       <use xlink:href="#CMR17-30" transform="translate(137.071431 0) scale(0.996264)"/>
      </g>
     </g>
    </g>
    <g id="xtick_38">
     <g id="line2d_131">
      <g>
       <use xlink:href="#m982d58e6b5" x="372.486597" y="179.76534" style="stroke: #000000; stroke-width: 0.5"/>
      </g>
     </g>
     <g id="line2d_132">
      <g>
       <use xlink:href="#mdf73dc951c" x="372.486597" y="3.6" style="stroke: #000000; stroke-width: 0.5"/>
      </g>
     </g>
     <g id="text_24">
      <!-- $\mathdefault{1250}$ -->
      <g transform="translate(364.018231 188.800142) scale(0.08 -0.08)">
       <use xlink:href="#CMR17-31" transform="scale(0.996264)"/>
       <use xlink:href="#CMR17-32" transform="translate(45.690477 0) scale(0.996264)"/>
       <use xlink:href="#CMR17-35" transform="translate(91.380954 0) scale(0.996264)"/>
       <use xlink:href="#CMR17-30" transform="translate(137.071431 0) scale(0.996264)"/>
      </g>
     </g>
    </g>
    <g id="xtick_39">
     <g id="line2d_133">
      <g>
       <use xlink:href="#m982d58e6b5" x="401.735127" y="179.76534" style="stroke: #000000; stroke-width: 0.5"/>
      </g>
     </g>
     <g id="line2d_134">
      <g>
       <use xlink:href="#mdf73dc951c" x="401.735127" y="3.6" style="stroke: #000000; stroke-width: 0.5"/>
      </g>
     </g>
     <g id="text_25">
      <!-- $\mathdefault{1500}$ -->
      <g transform="translate(393.266762 188.800142) scale(0.08 -0.08)">
       <use xlink:href="#CMR17-31" transform="scale(0.996264)"/>
       <use xlink:href="#CMR17-35" transform="translate(45.690477 0) scale(0.996264)"/>
       <use xlink:href="#CMR17-30" transform="translate(91.380954 0) scale(0.996264)"/>
       <use xlink:href="#CMR17-30" transform="translate(137.071431 0) scale(0.996264)"/>
      </g>
     </g>
    </g>
    <g id="xtick_40">
     <g id="line2d_135">
      <g>
       <use xlink:href="#m3d2b836696" x="232.093653" y="179.76534" style="stroke: #000000; stroke-width: 0.5"/>
      </g>
     </g>
     <g id="line2d_136">
      <g>
       <use xlink:href="#m0b0e3170ef" x="232.093653" y="3.6" style="stroke: #000000; stroke-width: 0.5"/>
      </g>
     </g>
    </g>
    <g id="xtick_41">
     <g id="line2d_137">
      <g>
       <use xlink:href="#m3d2b836696" x="237.943359" y="179.76534" style="stroke: #000000; stroke-width: 0.5"/>
      </g>
     </g>
     <g id="line2d_138">
      <g>
       <use xlink:href="#m0b0e3170ef" x="237.943359" y="3.6" style="stroke: #000000; stroke-width: 0.5"/>
      </g>
     </g>
    </g>
    <g id="xtick_42">
     <g id="line2d_139">
      <g>
       <use xlink:href="#m3d2b836696" x="243.793065" y="179.76534" style="stroke: #000000; stroke-width: 0.5"/>
      </g>
     </g>
     <g id="line2d_140">
      <g>
       <use xlink:href="#m0b0e3170ef" x="243.793065" y="3.6" style="stroke: #000000; stroke-width: 0.5"/>
      </g>
     </g>
    </g>
    <g id="xtick_43">
     <g id="line2d_141">
      <g>
       <use xlink:href="#m3d2b836696" x="249.642771" y="179.76534" style="stroke: #000000; stroke-width: 0.5"/>
      </g>
     </g>
     <g id="line2d_142">
      <g>
       <use xlink:href="#m0b0e3170ef" x="249.642771" y="3.6" style="stroke: #000000; stroke-width: 0.5"/>
      </g>
     </g>
    </g>
    <g id="xtick_44">
     <g id="line2d_143">
      <g>
       <use xlink:href="#m3d2b836696" x="261.342183" y="179.76534" style="stroke: #000000; stroke-width: 0.5"/>
      </g>
     </g>
     <g id="line2d_144">
      <g>
       <use xlink:href="#m0b0e3170ef" x="261.342183" y="3.6" style="stroke: #000000; stroke-width: 0.5"/>
      </g>
     </g>
    </g>
    <g id="xtick_45">
     <g id="line2d_145">
      <g>
       <use xlink:href="#m3d2b836696" x="267.191889" y="179.76534" style="stroke: #000000; stroke-width: 0.5"/>
      </g>
     </g>
     <g id="line2d_146">
      <g>
       <use xlink:href="#m0b0e3170ef" x="267.191889" y="3.6" style="stroke: #000000; stroke-width: 0.5"/>
      </g>
     </g>
    </g>
    <g id="xtick_46">
     <g id="line2d_147">
      <g>
       <use xlink:href="#m3d2b836696" x="273.041595" y="179.76534" style="stroke: #000000; stroke-width: 0.5"/>
      </g>
     </g>
     <g id="line2d_148">
      <g>
       <use xlink:href="#m0b0e3170ef" x="273.041595" y="3.6" style="stroke: #000000; stroke-width: 0.5"/>
      </g>
     </g>
    </g>
    <g id="xtick_47">
     <g id="line2d_149">
      <g>
       <use xlink:href="#m3d2b836696" x="278.891301" y="179.76534" style="stroke: #000000; stroke-width: 0.5"/>
      </g>
     </g>
     <g id="line2d_150">
      <g>
       <use xlink:href="#m0b0e3170ef" x="278.891301" y="3.6" style="stroke: #000000; stroke-width: 0.5"/>
      </g>
     </g>
    </g>
    <g id="xtick_48">
     <g id="line2d_151">
      <g>
       <use xlink:href="#m3d2b836696" x="290.590713" y="179.76534" style="stroke: #000000; stroke-width: 0.5"/>
      </g>
     </g>
     <g id="line2d_152">
      <g>
       <use xlink:href="#m0b0e3170ef" x="290.590713" y="3.6" style="stroke: #000000; stroke-width: 0.5"/>
      </g>
     </g>
    </g>
    <g id="xtick_49">
     <g id="line2d_153">
      <g>
       <use xlink:href="#m3d2b836696" x="296.440419" y="179.76534" style="stroke: #000000; stroke-width: 0.5"/>
      </g>
     </g>
     <g id="line2d_154">
      <g>
       <use xlink:href="#m0b0e3170ef" x="296.440419" y="3.6" style="stroke: #000000; stroke-width: 0.5"/>
      </g>
     </g>
    </g>
    <g id="xtick_50">
     <g id="line2d_155">
      <g>
       <use xlink:href="#m3d2b836696" x="302.290125" y="179.76534" style="stroke: #000000; stroke-width: 0.5"/>
      </g>
     </g>
     <g id="line2d_156">
      <g>
       <use xlink:href="#m0b0e3170ef" x="302.290125" y="3.6" style="stroke: #000000; stroke-width: 0.5"/>
      </g>
     </g>
    </g>
    <g id="xtick_51">
     <g id="line2d_157">
      <g>
       <use xlink:href="#m3d2b836696" x="308.139831" y="179.76534" style="stroke: #000000; stroke-width: 0.5"/>
      </g>
     </g>
     <g id="line2d_158">
      <g>
       <use xlink:href="#m0b0e3170ef" x="308.139831" y="3.6" style="stroke: #000000; stroke-width: 0.5"/>
      </g>
     </g>
    </g>
    <g id="xtick_52">
     <g id="line2d_159">
      <g>
       <use xlink:href="#m3d2b836696" x="319.839243" y="179.76534" style="stroke: #000000; stroke-width: 0.5"/>
      </g>
     </g>
     <g id="line2d_160">
      <g>
       <use xlink:href="#m0b0e3170ef" x="319.839243" y="3.6" style="stroke: #000000; stroke-width: 0.5"/>
      </g>
     </g>
    </g>
    <g id="xtick_53">
     <g id="line2d_161">
      <g>
       <use xlink:href="#m3d2b836696" x="325.688949" y="179.76534" style="stroke: #000000; stroke-width: 0.5"/>
      </g>
     </g>
     <g id="line2d_162">
      <g>
       <use xlink:href="#m0b0e3170ef" x="325.688949" y="3.6" style="stroke: #000000; stroke-width: 0.5"/>
      </g>
     </g>
    </g>
    <g id="xtick_54">
     <g id="line2d_163">
      <g>
       <use xlink:href="#m3d2b836696" x="331.538655" y="179.76534" style="stroke: #000000; stroke-width: 0.5"/>
      </g>
     </g>
     <g id="line2d_164">
      <g>
       <use xlink:href="#m0b0e3170ef" x="331.538655" y="3.6" style="stroke: #000000; stroke-width: 0.5"/>
      </g>
     </g>
    </g>
    <g id="xtick_55">
     <g id="line2d_165">
      <g>
       <use xlink:href="#m3d2b836696" x="337.388361" y="179.76534" style="stroke: #000000; stroke-width: 0.5"/>
      </g>
     </g>
     <g id="line2d_166">
      <g>
       <use xlink:href="#m0b0e3170ef" x="337.388361" y="3.6" style="stroke: #000000; stroke-width: 0.5"/>
      </g>
     </g>
    </g>
    <g id="xtick_56">
     <g id="line2d_167">
      <g>
       <use xlink:href="#m3d2b836696" x="349.087773" y="179.76534" style="stroke: #000000; stroke-width: 0.5"/>
      </g>
     </g>
     <g id="line2d_168">
      <g>
       <use xlink:href="#m0b0e3170ef" x="349.087773" y="3.6" style="stroke: #000000; stroke-width: 0.5"/>
      </g>
     </g>
    </g>
    <g id="xtick_57">
     <g id="line2d_169">
      <g>
       <use xlink:href="#m3d2b836696" x="354.937479" y="179.76534" style="stroke: #000000; stroke-width: 0.5"/>
      </g>
     </g>
     <g id="line2d_170">
      <g>
       <use xlink:href="#m0b0e3170ef" x="354.937479" y="3.6" style="stroke: #000000; stroke-width: 0.5"/>
      </g>
     </g>
    </g>
    <g id="xtick_58">
     <g id="line2d_171">
      <g>
       <use xlink:href="#m3d2b836696" x="360.787185" y="179.76534" style="stroke: #000000; stroke-width: 0.5"/>
      </g>
     </g>
     <g id="line2d_172">
      <g>
       <use xlink:href="#m0b0e3170ef" x="360.787185" y="3.6" style="stroke: #000000; stroke-width: 0.5"/>
      </g>
     </g>
    </g>
    <g id="xtick_59">
     <g id="line2d_173">
      <g>
       <use xlink:href="#m3d2b836696" x="366.636891" y="179.76534" style="stroke: #000000; stroke-width: 0.5"/>
      </g>
     </g>
     <g id="line2d_174">
      <g>
       <use xlink:href="#m0b0e3170ef" x="366.636891" y="3.6" style="stroke: #000000; stroke-width: 0.5"/>
      </g>
     </g>
    </g>
    <g id="xtick_60">
     <g id="line2d_175">
      <g>
       <use xlink:href="#m3d2b836696" x="378.336303" y="179.76534" style="stroke: #000000; stroke-width: 0.5"/>
      </g>
     </g>
     <g id="line2d_176">
      <g>
       <use xlink:href="#m0b0e3170ef" x="378.336303" y="3.6" style="stroke: #000000; stroke-width: 0.5"/>
      </g>
     </g>
    </g>
    <g id="xtick_61">
     <g id="line2d_177">
      <g>
       <use xlink:href="#m3d2b836696" x="384.186009" y="179.76534" style="stroke: #000000; stroke-width: 0.5"/>
      </g>
     </g>
     <g id="line2d_178">
      <g>
       <use xlink:href="#m0b0e3170ef" x="384.186009" y="3.6" style="stroke: #000000; stroke-width: 0.5"/>
      </g>
     </g>
    </g>
    <g id="xtick_62">
     <g id="line2d_179">
      <g>
       <use xlink:href="#m3d2b836696" x="390.035715" y="179.76534" style="stroke: #000000; stroke-width: 0.5"/>
      </g>
     </g>
     <g id="line2d_180">
      <g>
       <use xlink:href="#m0b0e3170ef" x="390.035715" y="3.6" style="stroke: #000000; stroke-width: 0.5"/>
      </g>
     </g>
    </g>
    <g id="xtick_63">
     <g id="line2d_181">
      <g>
       <use xlink:href="#m3d2b836696" x="395.885421" y="179.76534" style="stroke: #000000; stroke-width: 0.5"/>
      </g>
     </g>
     <g id="line2d_182">
      <g>
       <use xlink:href="#m0b0e3170ef" x="395.885421" y="3.6" style="stroke: #000000; stroke-width: 0.5"/>
      </g>
     </g>
    </g>
    <g id="xtick_64">
     <g id="line2d_183">
      <g>
       <use xlink:href="#m3d2b836696" x="407.584833" y="179.76534" style="stroke: #000000; stroke-width: 0.5"/>
      </g>
     </g>
     <g id="line2d_184">
      <g>
       <use xlink:href="#m0b0e3170ef" x="407.584833" y="3.6" style="stroke: #000000; stroke-width: 0.5"/>
      </g>
     </g>
    </g>
    <g id="text_26">
     <!-- Concentration (ng/mL) -->
     <g transform="translate(274.681018 200.327472) scale(0.08 -0.08)">
      <use xlink:href="#CMR17-43" transform="scale(0.996264)"/>
      <use xlink:href="#CMR17-6f" transform="translate(66.509881 0) scale(0.996264)"/>
      <use xlink:href="#CMR17-6e" transform="translate(112.200358 0) scale(0.996264)"/>
      <use xlink:href="#CMR17-63" transform="translate(163.095727 0) scale(0.996264)"/>
      <use xlink:href="#CMR17-65" transform="translate(203.581388 0) scale(0.996264)"/>
      <use xlink:href="#CMR17-6e" transform="translate(244.067048 0) scale(0.996264)"/>
      <use xlink:href="#CMR17-74" transform="translate(292.359964 0) scale(0.996264)"/>
      <use xlink:href="#CMR17-72" transform="translate(327.640732 0) scale(0.996264)"/>
      <use xlink:href="#CMR17-61" transform="translate(362.9215 0) scale(0.996264)"/>
      <use xlink:href="#CMR17-74" transform="translate(408.611977 0) scale(0.996264)"/>
      <use xlink:href="#CMR17-69" transform="translate(443.892745 0) scale(0.996264)"/>
      <use xlink:href="#CMR17-6f" transform="translate(468.763803 0) scale(0.996264)"/>
      <use xlink:href="#CMR17-6e" transform="translate(514.45428 0) scale(0.996264)"/>
      <use xlink:href="#CMR17-28" transform="translate(595.425616 0) scale(0.996264)"/>
      <use xlink:href="#CMR17-6e" transform="translate(630.706384 0) scale(0.996264)"/>
      <use xlink:href="#CMR17-67" transform="translate(681.601754 0) scale(0.996264)"/>
      <use xlink:href="#CMR17-2f" transform="translate(727.292231 0) scale(0.996264)"/>
      <use xlink:href="#CMR17-6d" transform="translate(772.982708 0) scale(0.996264)"/>
      <use xlink:href="#CMR17-4c" transform="translate(849.902298 0) scale(0.996264)"/>
      <use xlink:href="#CMR17-29" transform="translate(907.283706 0) scale(0.996264)"/>
     </g>
    </g>
   </g>
   <g id="matplotlib.axis_4">
    <g id="ytick_26">
     <g id="line2d_185">
      <g>
       <use xlink:href="#m7fe97accbc" x="226.243947" y="179.76534" style="stroke: #000000; stroke-width: 0.5"/>
      </g>
     </g>
     <g id="line2d_186">
      <g>
       <use xlink:href="#m355eabcd80" x="410.509686" y="179.76534" style="stroke: #000000; stroke-width: 0.5"/>
      </g>
     </g>
    </g>
    <g id="ytick_27">
     <g id="line2d_187">
      <g>
       <use xlink:href="#m7fe97accbc" x="226.243947" y="143.645272" style="stroke: #000000; stroke-width: 0.5"/>
      </g>
     </g>
     <g id="line2d_188">
      <g>
       <use xlink:href="#m355eabcd80" x="410.509686" y="143.645272" style="stroke: #000000; stroke-width: 0.5"/>
      </g>
     </g>
    </g>
    <g id="ytick_28">
     <g id="line2d_189">
      <g>
       <use xlink:href="#m7fe97accbc" x="226.243947" y="107.525204" style="stroke: #000000; stroke-width: 0.5"/>
      </g>
     </g>
     <g id="line2d_190">
      <g>
       <use xlink:href="#m355eabcd80" x="410.509686" y="107.525204" style="stroke: #000000; stroke-width: 0.5"/>
      </g>
     </g>
    </g>
    <g id="ytick_29">
     <g id="line2d_191">
      <g>
       <use xlink:href="#m7fe97accbc" x="226.243947" y="71.405136" style="stroke: #000000; stroke-width: 0.5"/>
      </g>
     </g>
     <g id="line2d_192">
      <g>
       <use xlink:href="#m355eabcd80" x="410.509686" y="71.405136" style="stroke: #000000; stroke-width: 0.5"/>
      </g>
     </g>
    </g>
    <g id="ytick_30">
     <g id="line2d_193">
      <g>
       <use xlink:href="#m7fe97accbc" x="226.243947" y="35.285068" style="stroke: #000000; stroke-width: 0.5"/>
      </g>
     </g>
     <g id="line2d_194">
      <g>
       <use xlink:href="#m355eabcd80" x="410.509686" y="35.285068" style="stroke: #000000; stroke-width: 0.5"/>
      </g>
     </g>
    </g>
    <g id="ytick_31">
     <g id="line2d_195">
      <g>
       <use xlink:href="#m053261a785" x="226.243947" y="172.541327" style="stroke: #000000; stroke-width: 0.5"/>
      </g>
     </g>
     <g id="line2d_196">
      <g>
       <use xlink:href="#m4e7f407e7c" x="410.509686" y="172.541327" style="stroke: #000000; stroke-width: 0.5"/>
      </g>
     </g>
    </g>
    <g id="ytick_32">
     <g id="line2d_197">
      <g>
       <use xlink:href="#m053261a785" x="226.243947" y="165.317313" style="stroke: #000000; stroke-width: 0.5"/>
      </g>
     </g>
     <g id="line2d_198">
      <g>
       <use xlink:href="#m4e7f407e7c" x="410.509686" y="165.317313" style="stroke: #000000; stroke-width: 0.5"/>
      </g>
     </g>
    </g>
    <g id="ytick_33">
     <g id="line2d_199">
      <g>
       <use xlink:href="#m053261a785" x="226.243947" y="158.0933" style="stroke: #000000; stroke-width: 0.5"/>
      </g>
     </g>
     <g id="line2d_200">
      <g>
       <use xlink:href="#m4e7f407e7c" x="410.509686" y="158.0933" style="stroke: #000000; stroke-width: 0.5"/>
      </g>
     </g>
    </g>
    <g id="ytick_34">
     <g id="line2d_201">
      <g>
       <use xlink:href="#m053261a785" x="226.243947" y="150.869286" style="stroke: #000000; stroke-width: 0.5"/>
      </g>
     </g>
     <g id="line2d_202">
      <g>
       <use xlink:href="#m4e7f407e7c" x="410.509686" y="150.869286" style="stroke: #000000; stroke-width: 0.5"/>
      </g>
     </g>
    </g>
    <g id="ytick_35">
     <g id="line2d_203">
      <g>
       <use xlink:href="#m053261a785" x="226.243947" y="136.421259" style="stroke: #000000; stroke-width: 0.5"/>
      </g>
     </g>
     <g id="line2d_204">
      <g>
       <use xlink:href="#m4e7f407e7c" x="410.509686" y="136.421259" style="stroke: #000000; stroke-width: 0.5"/>
      </g>
     </g>
    </g>
    <g id="ytick_36">
     <g id="line2d_205">
      <g>
       <use xlink:href="#m053261a785" x="226.243947" y="129.197245" style="stroke: #000000; stroke-width: 0.5"/>
      </g>
     </g>
     <g id="line2d_206">
      <g>
       <use xlink:href="#m4e7f407e7c" x="410.509686" y="129.197245" style="stroke: #000000; stroke-width: 0.5"/>
      </g>
     </g>
    </g>
    <g id="ytick_37">
     <g id="line2d_207">
      <g>
       <use xlink:href="#m053261a785" x="226.243947" y="121.973232" style="stroke: #000000; stroke-width: 0.5"/>
      </g>
     </g>
     <g id="line2d_208">
      <g>
       <use xlink:href="#m4e7f407e7c" x="410.509686" y="121.973232" style="stroke: #000000; stroke-width: 0.5"/>
      </g>
     </g>
    </g>
    <g id="ytick_38">
     <g id="line2d_209">
      <g>
       <use xlink:href="#m053261a785" x="226.243947" y="114.749218" style="stroke: #000000; stroke-width: 0.5"/>
      </g>
     </g>
     <g id="line2d_210">
      <g>
       <use xlink:href="#m4e7f407e7c" x="410.509686" y="114.749218" style="stroke: #000000; stroke-width: 0.5"/>
      </g>
     </g>
    </g>
    <g id="ytick_39">
     <g id="line2d_211">
      <g>
       <use xlink:href="#m053261a785" x="226.243947" y="100.301191" style="stroke: #000000; stroke-width: 0.5"/>
      </g>
     </g>
     <g id="line2d_212">
      <g>
       <use xlink:href="#m4e7f407e7c" x="410.509686" y="100.301191" style="stroke: #000000; stroke-width: 0.5"/>
      </g>
     </g>
    </g>
    <g id="ytick_40">
     <g id="line2d_213">
      <g>
       <use xlink:href="#m053261a785" x="226.243947" y="93.077177" style="stroke: #000000; stroke-width: 0.5"/>
      </g>
     </g>
     <g id="line2d_214">
      <g>
       <use xlink:href="#m4e7f407e7c" x="410.509686" y="93.077177" style="stroke: #000000; stroke-width: 0.5"/>
      </g>
     </g>
    </g>
    <g id="ytick_41">
     <g id="line2d_215">
      <g>
       <use xlink:href="#m053261a785" x="226.243947" y="85.853164" style="stroke: #000000; stroke-width: 0.5"/>
      </g>
     </g>
     <g id="line2d_216">
      <g>
       <use xlink:href="#m4e7f407e7c" x="410.509686" y="85.853164" style="stroke: #000000; stroke-width: 0.5"/>
      </g>
     </g>
    </g>
    <g id="ytick_42">
     <g id="line2d_217">
      <g>
       <use xlink:href="#m053261a785" x="226.243947" y="78.62915" style="stroke: #000000; stroke-width: 0.5"/>
      </g>
     </g>
     <g id="line2d_218">
      <g>
       <use xlink:href="#m4e7f407e7c" x="410.509686" y="78.62915" style="stroke: #000000; stroke-width: 0.5"/>
      </g>
     </g>
    </g>
    <g id="ytick_43">
     <g id="line2d_219">
      <g>
       <use xlink:href="#m053261a785" x="226.243947" y="64.181123" style="stroke: #000000; stroke-width: 0.5"/>
      </g>
     </g>
     <g id="line2d_220">
      <g>
       <use xlink:href="#m4e7f407e7c" x="410.509686" y="64.181123" style="stroke: #000000; stroke-width: 0.5"/>
      </g>
     </g>
    </g>
    <g id="ytick_44">
     <g id="line2d_221">
      <g>
       <use xlink:href="#m053261a785" x="226.243947" y="56.957109" style="stroke: #000000; stroke-width: 0.5"/>
      </g>
     </g>
     <g id="line2d_222">
      <g>
       <use xlink:href="#m4e7f407e7c" x="410.509686" y="56.957109" style="stroke: #000000; stroke-width: 0.5"/>
      </g>
     </g>
    </g>
    <g id="ytick_45">
     <g id="line2d_223">
      <g>
       <use xlink:href="#m053261a785" x="226.243947" y="49.733096" style="stroke: #000000; stroke-width: 0.5"/>
      </g>
     </g>
     <g id="line2d_224">
      <g>
       <use xlink:href="#m4e7f407e7c" x="410.509686" y="49.733096" style="stroke: #000000; stroke-width: 0.5"/>
      </g>
     </g>
    </g>
    <g id="ytick_46">
     <g id="line2d_225">
      <g>
       <use xlink:href="#m053261a785" x="226.243947" y="42.509082" style="stroke: #000000; stroke-width: 0.5"/>
      </g>
     </g>
     <g id="line2d_226">
      <g>
       <use xlink:href="#m4e7f407e7c" x="410.509686" y="42.509082" style="stroke: #000000; stroke-width: 0.5"/>
      </g>
     </g>
    </g>
    <g id="ytick_47">
     <g id="line2d_227">
      <g>
       <use xlink:href="#m053261a785" x="226.243947" y="28.061055" style="stroke: #000000; stroke-width: 0.5"/>
      </g>
     </g>
     <g id="line2d_228">
      <g>
       <use xlink:href="#m4e7f407e7c" x="410.509686" y="28.061055" style="stroke: #000000; stroke-width: 0.5"/>
      </g>
     </g>
    </g>
    <g id="ytick_48">
     <g id="line2d_229">
      <g>
       <use xlink:href="#m053261a785" x="226.243947" y="20.837041" style="stroke: #000000; stroke-width: 0.5"/>
      </g>
     </g>
     <g id="line2d_230">
      <g>
       <use xlink:href="#m4e7f407e7c" x="410.509686" y="20.837041" style="stroke: #000000; stroke-width: 0.5"/>
      </g>
     </g>
    </g>
    <g id="ytick_49">
     <g id="line2d_231">
      <g>
       <use xlink:href="#m053261a785" x="226.243947" y="13.613028" style="stroke: #000000; stroke-width: 0.5"/>
      </g>
     </g>
     <g id="line2d_232">
      <g>
       <use xlink:href="#m4e7f407e7c" x="410.509686" y="13.613028" style="stroke: #000000; stroke-width: 0.5"/>
      </g>
     </g>
    </g>
    <g id="ytick_50">
     <g id="line2d_233">
      <g>
       <use xlink:href="#m053261a785" x="226.243947" y="6.389014" style="stroke: #000000; stroke-width: 0.5"/>
      </g>
     </g>
     <g id="line2d_234">
      <g>
       <use xlink:href="#m4e7f407e7c" x="410.509686" y="6.389014" style="stroke: #000000; stroke-width: 0.5"/>
      </g>
     </g>
    </g>
   </g>
   <g id="line2d_235">
    <g clip-path="url(#p06a390764e)">
     <use xlink:href="#m9cd2cb0767" x="401.735127" y="73.274953" style="fill: #0c5da5; stroke: #0c5da5"/>
     <use xlink:href="#m9cd2cb0767" x="343.238067" y="118.543028" style="fill: #0c5da5; stroke: #0c5da5"/>
     <use xlink:href="#m9cd2cb0767" x="284.741007" y="154.150192" style="fill: #0c5da5; stroke: #0c5da5"/>
     <use xlink:href="#m9cd2cb0767" x="255.492477" y="171.721401" style="fill: #0c5da5; stroke: #0c5da5"/>
     <use xlink:href="#m9cd2cb0767" x="237.943359" y="178.521606" style="fill: #0c5da5; stroke: #0c5da5"/>
     <use xlink:href="#m9cd2cb0767" x="232.093653" y="179.819521" style="fill: #0c5da5; stroke: #0c5da5"/>
     <use xlink:href="#m9cd2cb0767" x="229.1688" y="180.147009" style="fill: #0c5da5; stroke: #0c5da5"/>
     <use xlink:href="#m9cd2cb0767" x="227.413888" y="179.094711" style="fill: #0c5da5; stroke: #0c5da5"/>
    </g>
   </g>
   <g id="line2d_236">
    <path d="M 226.243947 179.76534 
L 227.898409 178.832413 
L 229.552871 177.899485 
L 231.207333 176.966557 
L 232.861796 176.03363 
L 234.516258 175.100702 
L 236.17072 174.167774 
L 237.825183 173.234847 
L 239.479645 172.301919 
L 241.134107 171.368991 
L 242.78857 170.436064 
L 244.443032 169.503136 
L 246.097494 168.570208 
L 247.751957 167.63728 
L 249.406419 166.704353 
L 251.060881 165.771425 
L 252.715343 164.838497 
L 254.369806 163.90557 
L 256.024268 162.972642 
L 257.67873 162.039714 
L 259.333193 161.106787 
L 260.987655 160.173859 
L 262.642117 159.240931 
L 264.29658 158.308004 
L 265.951042 157.375076 
L 267.605504 156.442148 
L 269.259967 155.50922 
L 270.914429 154.576293 
L 272.568891 153.643365 
L 274.223353 152.710437 
L 275.877816 151.77751 
L 277.532278 150.844582 
L 279.18674 149.911654 
L 280.841203 148.978727 
L 282.495665 148.045799 
L 284.150127 147.112871 
L 285.80459 146.179944 
L 287.459052 145.247016 
L 289.113514 144.314088 
L 290.767977 143.38116 
L 292.422439 142.448233 
L 294.076901 141.515305 
L 295.731364 140.582377 
L 297.385826 139.64945 
L 299.040288 138.716522 
L 300.69475 137.783594 
L 302.349213 136.850667 
L 304.003675 135.917739 
L 305.658137 134.984811 
L 307.3126 134.051884 
L 308.967062 133.118956 
L 310.621524 132.186028 
L 312.275987 131.2531 
L 313.930449 130.320173 
L 315.584911 129.387245 
L 317.239374 128.454317 
L 318.893836 127.52139 
L 320.548298 126.588462 
L 322.20276 125.655534 
L 323.857223 124.722607 
L 325.511685 123.789679 
L 327.166147 122.856751 
L 328.82061 121.923824 
L 330.475072 120.990896 
L 332.129534 120.057968 
L 333.783997 119.12504 
L 335.438459 118.192113 
L 337.092921 117.259185 
L 338.747384 116.326257 
L 340.401846 115.39333 
L 342.056308 114.460402 
L 343.71077 113.527474 
L 345.365233 112.594547 
L 347.019695 111.661619 
L 348.674157 110.728691 
L 350.32862 109.795764 
L 351.983082 108.862836 
L 353.637544 107.929908 
L 355.292007 106.99698 
L 356.946469 106.064053 
L 358.600931 105.131125 
L 360.255394 104.198197 
L 361.909856 103.26527 
L 363.564318 102.332342 
L 365.218781 101.399414 
L 366.873243 100.466487 
L 368.527705 99.533559 
L 370.182167 98.600631 
L 371.83663 97.667704 
L 373.491092 96.734776 
L 375.145554 95.801848 
L 376.800017 94.86892 
L 378.454479 93.935993 
L 380.108941 93.003065 
L 381.763404 92.070137 
L 383.417866 91.13721 
L 385.072328 90.204282 
L 386.726791 89.271354 
L 388.381253 88.338427 
L 390.035715 87.405499 
" clip-path="url(#p06a390764e)" style="fill: none; stroke: #00b945; stroke-linecap: square"/>
   </g>
   <g id="patch_9">
    <path d="M 226.243947 179.76534 
L 226.243947 3.6 
" style="fill: none; stroke: #000000; stroke-width: 0.5; stroke-linejoin: miter; stroke-linecap: square"/>
   </g>
   <g id="patch_10">
    <path d="M 410.509686 179.76534 
L 410.509686 3.6 
" style="fill: none; stroke: #000000; stroke-width: 0.5; stroke-linejoin: miter; stroke-linecap: square"/>
   </g>
   <g id="patch_11">
    <path d="M 226.243947 179.76534 
L 410.509686 179.76534 
" style="fill: none; stroke: #000000; stroke-width: 0.5; stroke-linejoin: miter; stroke-linecap: square"/>
   </g>
   <g id="patch_12">
    <path d="M 226.243947 3.6 
L 410.509686 3.6 
" style="fill: none; stroke: #000000; stroke-width: 0.5; stroke-linejoin: miter; stroke-linecap: square"/>
   </g>
   <g id="text_27">
    <!-- b) -->
    <g transform="translate(230.243947 13.577584) scale(0.08 -0.08)">
     <use xlink:href="#CMR17-62" transform="scale(0.996264)"/>
     <use xlink:href="#CMR17-29" transform="translate(50.89537 0) scale(0.996264)"/>
    </g>
   </g>
   <g id="legend_2">
    <g id="patch_13">
     <path d="M 303.802448 175.76534 
L 404.909686 175.76534 
Q 406.509686 175.76534 406.509686 174.16534 
L 406.509686 151.845483 
Q 406.509686 150.245483 404.909686 150.245483 
L 303.802448 150.245483 
Q 302.202448 150.245483 302.202448 151.845483 
L 302.202448 174.16534 
Q 302.202448 175.76534 303.802448 175.76534 
z
" style="fill: #ffffff; opacity: 0.8; stroke: #cccccc; stroke-linejoin: miter"/>
    </g>
    <g id="line2d_237">
     <g>
      <use xlink:href="#m9cd2cb0767" x="313.402448" y="156.245483" style="fill: #0c5da5; stroke: #0c5da5"/>
     </g>
    </g>
    <g id="text_28">
     <!-- Calibration points -->
     <g transform="translate(327.802448 159.045483) scale(0.08 -0.08)">
      <use xlink:href="#CMR17-43" transform="scale(0.996264)"/>
      <use xlink:href="#CMR17-61" transform="translate(66.509881 0) scale(0.996264)"/>
      <use xlink:href="#CMR17-6c" transform="translate(112.200358 0) scale(0.996264)"/>
      <use xlink:href="#CMR17-69" transform="translate(137.071416 0) scale(0.996264)"/>
      <use xlink:href="#CMR17-62" transform="translate(161.942475 0) scale(0.996264)"/>
      <use xlink:href="#CMR17-72" transform="translate(212.837844 0) scale(0.996264)"/>
      <use xlink:href="#CMR17-61" transform="translate(248.118612 0) scale(0.996264)"/>
      <use xlink:href="#CMR17-74" transform="translate(293.809089 0) scale(0.996264)"/>
      <use xlink:href="#CMR17-69" transform="translate(329.089857 0) scale(0.996264)"/>
      <use xlink:href="#CMR17-6f" transform="translate(353.960916 0) scale(0.996264)"/>
      <use xlink:href="#CMR17-6e" transform="translate(399.651393 0) scale(0.996264)"/>
      <use xlink:href="#CMR17-70" transform="translate(480.622729 0) scale(0.996264)"/>
      <use xlink:href="#CMR17-6f" transform="translate(534.120537 0) scale(0.996264)"/>
      <use xlink:href="#CMR17-69" transform="translate(579.811014 0) scale(0.996264)"/>
      <use xlink:href="#CMR17-6e" transform="translate(604.682073 0) scale(0.996264)"/>
      <use xlink:href="#CMR17-74" transform="translate(652.974989 0) scale(0.996264)"/>
      <use xlink:href="#CMR17-73" transform="translate(688.255757 0) scale(0.996264)"/>
     </g>
    </g>
    <g id="line2d_238">
     <path d="M 305.402448 167.772812 
L 313.402448 167.772812 
L 321.402448 167.772812 
" style="fill: none; stroke: #00b945; stroke-linecap: square"/>
    </g>
    <g id="text_29">
     <!-- Linear fit (R=0.98) -->
     <g transform="translate(327.802448 170.572812) scale(0.08 -0.08)">
      <defs>
       <path id="CMR17-38" d="M 1741 2264 
C 2144 2467 2554 2773 2554 3263 
C 2554 3841 1990 4179 1472 4179 
C 890 4179 378 3759 378 3180 
C 378 3021 416 2747 666 2505 
C 730 2442 998 2251 1171 2130 
C 883 1983 211 1634 211 934 
C 211 279 838 -128 1459 -128 
C 2144 -128 2720 362 2720 1010 
C 2720 1590 2330 1857 2074 2029 
L 1741 2264 
z
M 902 2822 
C 851 2854 595 3051 595 3351 
C 595 3739 998 4032 1459 4032 
C 1965 4032 2336 3676 2336 3262 
C 2336 2669 1670 2331 1638 2331 
C 1632 2331 1626 2331 1574 2370 
L 902 2822 
z
M 2080 1519 
C 2176 1449 2483 1240 2483 851 
C 2483 381 2010 25 1472 25 
C 890 25 448 438 448 940 
C 448 1443 838 1862 1280 2060 
L 2080 1519 
z
" transform="scale(0.015625)"/>
      </defs>
      <use xlink:href="#CMR17-4c" transform="scale(0.996264)"/>
      <use xlink:href="#CMR17-69" transform="translate(57.381408 0) scale(0.996264)"/>
      <use xlink:href="#CMR17-6e" transform="translate(82.252466 0) scale(0.996264)"/>
      <use xlink:href="#CMR17-65" transform="translate(133.147836 0) scale(0.996264)"/>
      <use xlink:href="#CMR17-61" transform="translate(173.633497 0) scale(0.996264)"/>
      <use xlink:href="#CMR17-72" transform="translate(219.323974 0) scale(0.996264)"/>
      <use xlink:href="#CMR17-c" transform="translate(284.680708 0) scale(0.996264)"/>
      <use xlink:href="#CMR17-74" transform="translate(334.422931 0) scale(0.996264)"/>
      <use xlink:href="#CMR17-28" transform="translate(399.779665 0) scale(0.996264)"/>
      <use xlink:href="#CMR17-52" transform="translate(435.060433 0) scale(0.996264)"/>
      <use xlink:href="#SFRM3583-b2" transform="translate(502.851535 0) scale(0.356961)"/>
      <use xlink:href="#CMR17-3d" transform="translate(517.046808 0) scale(0.996264)"/>
      <use xlink:href="#CMR17-30" transform="translate(588.761596 0) scale(0.996264)"/>
      <use xlink:href="#CMR17-2e" transform="translate(634.452073 0) scale(0.996264)"/>
      <use xlink:href="#CMR17-39" transform="translate(659.323132 0) scale(0.996264)"/>
      <use xlink:href="#CMR17-38" transform="translate(705.013609 0) scale(0.996264)"/>
      <use xlink:href="#CMR17-29" transform="translate(750.704086 0) scale(0.996264)"/>
     </g>
    </g>
   </g>
  </g>
 </g>
 <defs>
  <clipPath id="peb23b37418">
   <rect x="29.890802" y="3.6" width="184.26574" height="176.16534"/>
  </clipPath>
  <clipPath id="p06a390764e">
   <rect x="226.243947" y="3.6" width="184.26574" height="176.16534"/>
  </clipPath>
 </defs>
</svg>
